<svg width="365" height="300" viewBox="0 0 365 300" fill="none" xmlns="http://www.w3.org/2000/svg">
<path d="M271.8 63.296H231.68V121.448H271.8V63.296Z" fill="#E0E0E0"/>
<path d="M269.792 63.296H229.672V121.448H269.792V63.296Z" fill="#F5F5F5"/>
<path d="M264.808 69.592H234.656V115.152H264.808V69.592Z" fill="white"/>
<path d="M264.8 115.144C264.8 115.144 264.8 115.072 264.8 114.928V114.28C264.8 113.704 264.8 112.872 264.8 111.784C264.8 109.6 264.8 106.416 264.8 102.392C264.8 94.392 264.8 82.984 264.752 69.592L264.848 69.688H234.704L234.816 69.576C234.816 86.76 234.816 102.608 234.816 115.128L234.728 115.048H256.68H262.736H264.8H264.272H262.672H256.624H234.624H234.536V114.96C234.536 102.44 234.536 86.592 234.536 69.408V69.296H264.896V69.4C264.896 82.824 264.856 94.2 264.848 102.272C264.848 106.272 264.848 109.472 264.848 111.632C264.848 112.712 264.848 113.544 264.848 114.112V114.744C264.846 114.879 264.83 115.013 264.8 115.144Z" fill="#E0E0E0"/>
<path d="M269.904 63.296C269.698 63.6633 269.46 64.0113 269.192 64.336C268.728 64.952 268.064 65.8 267.312 66.736C266.56 67.672 265.848 68.464 265.328 69.04C265.058 69.3654 264.761 69.6677 264.44 69.944C264.682 69.5913 264.949 69.257 265.24 68.944L267.176 66.6L269.104 64.256C269.342 63.9131 269.61 63.5918 269.904 63.296Z" fill="#E0E0E0"/>
<path d="M264.96 115C266.463 117.382 268.229 119.588 270.224 121.576L264.96 115Z" fill="white"/>
<path d="M270.224 121.576C269.889 121.344 269.581 121.075 269.304 120.776C268.605 120.063 267.943 119.316 267.32 118.536C266.697 117.768 266.115 116.966 265.576 116.136C265.333 115.799 265.127 115.437 264.96 115.056C265.237 115.364 265.486 115.696 265.704 116.048C266.144 116.672 266.768 117.52 267.488 118.448C268.208 119.376 268.912 120.152 269.416 120.72C269.706 120.985 269.976 121.271 270.224 121.576Z" fill="#E0E0E0"/>
<path d="M229.672 121.4L234.92 114.92L229.672 121.4Z" fill="white"/>
<path d="M234.92 114.92C234.133 116.065 233.286 117.167 232.384 118.224C230.928 120.016 229.712 121.424 229.672 121.424C230.458 120.276 231.305 119.17 232.208 118.112C233.058 117.003 233.963 115.938 234.92 114.92Z" fill="#E0E0E0"/>
<path d="M229.672 63.296C230.579 64.2632 231.431 65.2809 232.224 66.344C233.079 67.3684 233.88 68.4365 234.624 69.544C233.717 68.5768 232.865 67.5592 232.072 66.496C231.213 65.4748 230.412 64.4065 229.672 63.296Z" fill="#E0E0E0"/>
<path d="M255.416 78.84H245.32V107.504H255.416V78.84Z" fill="#E0E0E0"/>
<path d="M192 226C190.175 226.603 188.491 227.567 187.048 228.836C185.604 230.105 184.432 231.652 183.6 233.384C181.961 236.864 181.14 240.674 181.2 244.52C181.104 251.936 184.312 259.84 188.04 266.248C194.88 261.656 197.488 252.472 198.52 247.728C200.12 240.224 198.52 225.688 192.008 226" fill="#F5F5F5"/>
<path d="M179.352 277.416C180.04 275.378 180.175 273.194 179.746 271.086C179.316 268.978 178.335 267.022 176.904 265.416C175.451 263.838 173.698 262.566 171.747 261.673C169.797 260.78 167.688 260.285 165.544 260.216C163.568 260.112 161.376 260.416 160.048 261.888C159.47 262.614 159.096 263.48 158.966 264.399C158.835 265.317 158.952 266.254 159.304 267.112C160.034 268.824 161.205 270.311 162.696 271.424C167.6 275.424 173.096 278.44 179.352 277.4" fill="#F5F5F5"/>
<path d="M184.48 295.24C184.572 293.605 184.497 291.964 184.256 290.344C184.061 288.563 183.653 286.812 183.04 285.128C182.355 283.058 181.534 281.035 180.584 279.072C178.832 275.467 176.216 272.35 172.968 270C171.963 269.314 170.891 268.732 169.768 268.264C169.367 268.072 168.938 267.947 168.496 267.896C168.432 268.032 170.216 268.696 172.592 270.472C175.629 272.892 178.089 275.958 179.792 279.448C180.724 281.38 181.549 283.362 182.264 285.384C182.89 287.013 183.345 288.702 183.624 290.424C184.12 293.392 184.352 295.256 184.48 295.24Z" fill="#E0E0E0"/>
<path d="M192.248 237.2C191.992 237.982 191.804 238.785 191.688 239.6C191.384 241.2 190.976 243.44 190.496 246.248C189.528 251.848 188.288 259.64 187.12 268.264C185.952 276.888 185.128 284.72 184.648 290.408C184.408 293.248 184.24 295.544 184.152 297.136C184.057 297.959 184.041 298.79 184.104 299.616C184.297 298.812 184.421 297.993 184.472 297.168C184.672 295.432 184.928 293.168 185.272 290.464C185.904 284.8 186.824 276.984 187.984 268.376C189.144 259.768 190.296 252.12 191.112 246.336C191.496 243.632 191.808 241.376 192.048 239.656C192.185 238.845 192.252 238.023 192.248 237.2Z" fill="#E0E0E0"/>
<path d="M188.28 281.4C190.17 277.286 193.013 273.682 196.573 270.886C200.133 268.089 204.308 266.181 208.752 265.32C211.008 264.904 213.792 264.984 215.032 266.92C216.272 268.856 215.184 271.432 213.816 273.32C210.889 277.126 206.9 279.982 202.353 281.526C197.807 283.071 192.904 283.236 188.264 282" fill="#F5F5F5"/>
<path d="M205.6 271.28C205.164 271.301 204.734 271.393 204.328 271.552C203.528 271.776 202.368 272.168 200.968 272.688C197.265 274.034 193.842 276.051 190.872 278.64C189.271 280.119 187.92 281.848 186.872 283.76C186.034 285.329 185.418 287.006 185.04 288.744C184.783 289.907 184.633 291.09 184.592 292.28C184.518 292.712 184.518 293.152 184.592 293.584C184.76 293.584 184.824 291.736 185.568 288.888C186.545 285.179 188.573 281.832 191.408 279.248C194.32 276.735 197.615 274.704 201.168 273.232C203.928 272.04 205.664 271.408 205.6 271.28Z" fill="#E0E0E0"/>
<path d="M344.472 85.808C344.472 85.808 336.088 83.336 332.696 102.608C329.304 121.88 329.032 132.496 329.032 132.496C329.032 132.496 327.856 136.68 324.752 135.128C321.648 133.576 316.376 128.112 312.656 130.528C308.792 133.032 308.848 138.184 311.784 144.872C314.72 151.56 320.584 166.472 321.128 167.816C321.672 169.16 321.48 171.376 319.2 170.664C316.92 169.952 302.4 161.2 298.64 168.4C294.88 175.6 306.128 192.848 307.32 194.8C308.512 196.752 308.376 197.728 307.544 198.544C306.712 199.36 302.104 195.96 297.864 193.64C293.624 191.32 288.304 189.376 286.496 193.68C284.688 197.984 288.096 212.496 308.752 231.464L318.88 239.624L331.144 235.112C356.8 223.848 364.744 211.24 364.44 206.576C364.136 201.912 358.456 202 353.696 202.8C348.936 203.6 343.472 205.352 342.944 204.304C342.416 203.256 342.624 202.256 344.376 200.832C346.128 199.408 362.36 186.672 361.136 178.696C359.912 170.72 343.32 174.296 340.928 174.232C338.536 174.168 339.112 172 340.024 170.92C340.936 169.84 351.36 157.624 356.304 152.24C361.248 146.856 362.968 142.008 360.128 138.384C357.392 134.888 350.624 138.384 347.192 138.816C343.76 139.248 343.992 134.944 343.992 134.944C343.992 134.944 347.192 124.816 350.208 105.472C353.224 86.128 344.288 85.792 344.288 85.792" fill="#F5F5F5"/>
<path d="M341.408 103.08C341.408 103.08 341.408 103.216 341.368 103.488L341.2 104.68C341.04 105.744 340.808 107.288 340.52 109.256C339.92 113.256 339.016 118.984 337.872 126.056C335.584 140.256 332.272 159.84 328.52 181.464C324.768 203.088 321.4 222.664 319.04 236.848C317.864 243.928 316.912 249.648 316.256 253.648C315.928 255.616 315.672 257.152 315.456 258.216C315.368 258.72 315.304 259.112 315.248 259.4C315.192 259.688 315.16 259.8 315.16 259.8C315.16 259.8 315.16 259.664 315.208 259.392C315.256 259.12 315.304 258.712 315.368 258.2C315.528 257.136 315.76 255.592 316.048 253.624C316.648 249.624 317.552 243.896 318.696 236.824C320.984 222.624 324.296 203.032 328.056 181.408C331.816 159.784 335.2 140.216 337.6 126C338.768 118.92 339.72 113.2 340.384 109.2L341.144 104.632L341.352 103.448C341.364 103.324 341.383 103.202 341.408 103.08Z" fill="#E0E0E0"/>
<path d="M319.728 138.496C319.947 138.722 320.141 138.971 320.304 139.24C320.656 139.736 321.104 140.464 321.728 141.368C322.904 143.184 324.464 145.728 326.128 148.568L330.36 155.872L331.648 158.072C331.831 158.317 331.979 158.586 332.088 158.872C331.865 158.65 331.669 158.403 331.504 158.136C331.16 157.64 330.704 156.912 330.096 156C328.936 154.168 327.408 151.6 325.744 148.76L321.464 141.488C320.952 140.624 320.512 139.888 320.16 139.288C319.982 139.044 319.837 138.778 319.728 138.496Z" fill="#E0E0E0"/>
<path d="M333.304 158.8C333.232 158.696 338.344 155.256 344.72 151.104C351.096 146.952 356.304 143.68 356.376 143.776C356.448 143.872 351.328 147.328 344.96 151.472C338.592 155.616 333.368 158.888 333.304 158.8Z" fill="#E0E0E0"/>
<path d="M326.056 191.728C326.345 191.586 326.648 191.476 326.96 191.4L329.456 190.64C331.56 189.992 334.472 189.096 337.64 187.984C340.808 186.872 343.656 185.792 345.712 184.984L348.112 184.032C348.404 183.89 348.713 183.788 349.032 183.728C348.767 183.91 348.482 184.063 348.184 184.184C347.624 184.456 346.816 184.832 345.784 185.272C343.768 186.152 340.936 187.296 337.784 188.4C334.632 189.504 331.672 190.368 329.544 190.936C328.472 191.216 327.608 191.432 327 191.568C326.693 191.659 326.376 191.713 326.056 191.728Z" fill="#E0E0E0"/>
<path d="M309.736 176.08C309.992 176.232 310.228 176.415 310.44 176.624C310.872 176.992 311.496 177.536 312.248 178.224C313.768 179.592 315.84 181.496 318.112 183.616C320.384 185.736 322.424 187.68 323.888 189.104C324.616 189.808 325.2 190.392 325.6 190.8C325.821 190.999 326.019 191.222 326.192 191.464C325.933 191.319 325.696 191.139 325.488 190.928C325.048 190.56 324.432 190.008 323.672 189.328C322.16 187.968 320.08 186.064 317.808 183.936C315.536 181.808 313.496 179.872 312.04 178.456C311.304 177.744 310.72 177.168 310.32 176.752C310.097 176.554 309.901 176.328 309.736 176.08Z" fill="#E0E0E0"/>
<path d="M299.64 204.352C299.963 204.554 300.264 204.79 300.536 205.056L302.864 207.096C304.816 208.832 307.488 211.248 310.432 213.944C313.376 216.64 316.032 219.096 317.912 220.888L320.144 223.032C320.437 223.271 320.705 223.539 320.944 223.832C320.625 223.624 320.325 223.389 320.048 223.128L317.72 221.088C315.768 219.352 313.096 216.928 310.152 214.24C307.208 211.552 304.552 209.088 302.68 207.296L300.424 205.2C300.134 204.946 299.871 204.661 299.64 204.352Z" fill="#E0E0E0"/>
<path d="M320.544 223.248C320.907 223.069 321.284 222.921 321.672 222.808L324.808 221.728C327.448 220.816 331.096 219.544 335.088 218.032C339.08 216.52 342.656 215.064 345.232 213.992L348.296 212.72C348.664 212.547 349.047 212.407 349.44 212.304C349.104 212.533 348.745 212.726 348.368 212.88C347.664 213.224 346.64 213.68 345.36 214.272C342.808 215.424 339.24 216.928 335.24 218.44C331.24 219.952 327.576 221.2 324.904 222C323.568 222.416 322.504 222.736 321.704 222.944C321.328 223.083 320.94 223.185 320.544 223.248Z" fill="#E0E0E0"/>
<path d="M63.0721 256.68C81.5441 246.136 87.5441 223.992 88.6721 203.696C88.8641 200.304 89.5601 196.784 88.2241 193.672C86.8881 190.56 83.3281 188.192 80.1761 189.336C77.5601 190.288 76.1761 193.104 74.5761 195.392C72.405 198.437 69.4186 200.808 65.9601 202.232C63.7041 203.152 60.9841 203.584 58.9681 202.232C56.2001 200.352 56.2241 196.296 56.5681 192.944C57.2028 186.672 57.8134 180.411 58.4001 174.16C58.7281 170.808 59.0561 167.376 58.3041 164.096C57.5521 160.816 55.5121 157.632 52.4001 156.448C49.2881 155.264 45.1601 156.736 44.1841 159.968C43.7841 161.312 43.9281 162.752 43.7121 164.136C43.4961 165.52 42.6961 167.008 41.3121 167.28C39.9281 167.552 38.6801 166.48 37.7681 165.4C34.5681 161.688 32.6561 157.104 30.8561 152.552C29.0561 148 27.3281 143.368 24.5201 139.376C21.7121 135.384 17.6321 132.064 12.8481 131.376C8.06412 130.688 2.66412 133.168 1.01612 137.776C-0.631882 142.384 1.68012 147.456 4.33612 151.568C8.29772 157.653 13.1152 163.136 18.6401 167.848C19.6321 168.696 20.7041 169.616 21.0401 170.896C21.5601 173.2 19.2321 175.232 16.9601 175.768C14.3761 176.368 11.6801 175.856 9.04012 175.928C6.40012 176 3.44012 176.888 2.23212 179.28C0.536118 182.584 3.08012 186.48 5.68812 189.064C10.9148 194.306 17.0068 198.606 23.6961 201.776C26.0961 202.904 28.6081 203.936 30.4401 205.856C32.2721 207.776 33.2001 210.904 31.7841 213.16C30.3681 215.416 27.2001 215.896 24.6561 215.176C22.1121 214.456 19.9281 212.84 17.5441 211.688C13.0881 209.52 7.09612 209.288 3.77612 213.008C1.59212 215.456 1.08812 219.088 1.78412 222.304C2.48012 225.52 4.22412 228.4 6.11212 231.104C12.7121 240.464 21.5441 248.32 31.9201 253.016C42.2961 257.712 52.1121 259.624 63.1201 256.712" fill="#F5F5F5"/>
<path d="M61.9681 271.704C61.8834 262.234 60.895 252.794 59.0161 243.512C56.6632 232.179 53.6636 220.99 50.0321 210L47.2001 201.352C46.2721 198.512 45.3521 195.696 44.2801 192.992C42.219 187.812 39.8714 182.751 37.2481 177.832C34.7761 173.12 32.2641 168.736 29.8801 164.656C27.4961 160.576 25.1841 156.816 22.9441 153.456C19.4285 148.184 15.5016 143.197 11.2001 138.544C9.68007 136.896 8.46407 135.656 7.62407 134.824L6.66407 133.888C6.55787 133.777 6.44282 133.676 6.32007 133.584C6.41019 133.706 6.50912 133.821 6.61607 133.928L7.53607 134.912C8.33607 135.768 9.53607 137.04 11.0241 138.712C15.248 143.424 19.1122 148.446 22.5841 153.736C24.8001 157.072 27.0721 160.84 29.4401 164.936C31.8081 169.032 34.3041 173.416 36.7521 178.12C39.3556 183.017 41.6923 188.051 43.7521 193.2C44.8081 195.888 45.7201 198.68 46.6401 201.528C47.5601 204.376 48.4961 207.256 49.4481 210.184C53.067 221.147 56.0743 232.303 58.4561 243.6C60.3531 252.844 61.3816 262.245 61.5281 271.68" fill="#E0E0E0"/>
<path d="M44.1362 192.952C44.3487 192.507 44.5045 192.036 44.6002 191.552C44.8642 190.64 45.1922 189.312 45.5842 187.656C46.3842 184.352 47.2882 179.76 48.2882 174.688C49.2882 169.616 50.2722 165.048 51.1042 161.768C51.5122 160.168 51.8562 158.8 52.1122 157.888C52.2684 157.42 52.3757 156.938 52.4322 156.448C52.1951 156.881 52.0098 157.34 51.8802 157.816C51.5602 158.712 51.1442 160.024 50.6802 161.656C49.7362 164.912 48.6802 169.488 47.6802 174.568L45.1522 187.6C44.8402 189.16 44.5762 190.48 44.3522 191.536C44.2358 192 44.1634 192.474 44.1362 192.952Z" fill="#E0E0E0"/>
<path d="M1.68823 180.928C2.24478 181.097 2.81491 181.217 3.39223 181.288C4.49623 181.488 6.08823 181.768 8.04023 182.184C11.9602 182.984 17.3282 184.248 23.1922 185.92C29.0562 187.592 34.2962 189.352 38.0562 190.72C39.9362 191.392 41.4482 191.976 42.4882 192.376C43.0177 192.619 43.5697 192.809 44.1362 192.944C43.6465 192.627 43.1267 192.359 42.5842 192.144C41.5682 191.672 40.0802 191.024 38.2082 190.296C34.4802 188.808 29.2482 186.992 23.3602 185.304C18.3451 183.851 13.2584 182.657 8.12023 181.728C6.15223 181.376 4.54423 181.16 3.43223 181.032C2.85593 180.938 2.27159 180.903 1.68823 180.928Z" fill="#E0E0E0"/>
<path d="M58.552 242.672C58.6911 242.522 58.807 242.352 58.896 242.168L59.784 240.672C60.584 239.376 61.592 237.472 62.856 235.072C65.392 230.32 68.696 223.64 72.232 216.216C75.768 208.792 79 202.088 81.44 197.288L84.336 191.608L85.136 190.056C85.2345 189.879 85.3124 189.691 85.368 189.496C85.2329 189.646 85.1173 189.813 85.024 189.992L84.144 191.488C83.384 192.792 82.336 194.688 81.064 197.088C78.528 201.848 75.232 208.528 71.688 215.952C68.144 223.376 64.92 230.072 62.488 234.88L59.584 240.56L58.784 242.112C58.6811 242.287 58.603 242.475 58.552 242.672Z" fill="#E0E0E0"/>
<path d="M2.8562 218.912C3.02533 219.034 3.21126 219.131 3.4082 219.2L5.0082 219.912L10.9682 222.472C16.0082 224.624 22.9682 227.688 30.5682 231.08C38.1682 234.472 45.1602 237.48 50.2482 239.528C52.7842 240.56 54.8482 241.368 56.2882 241.928L57.9442 242.536C58.1345 242.614 58.3331 242.671 58.5362 242.704C58.3709 242.58 58.1874 242.483 57.9922 242.416L56.3922 241.704L50.4002 239.12C45.3602 236.96 38.4002 233.896 30.8002 230.504C23.2002 227.112 16.2002 224.104 11.1202 222.056C8.5842 221.032 6.5202 220.216 5.0802 219.656L3.4242 219.056C3.24116 218.986 3.05052 218.938 2.8562 218.912Z" fill="#E0E0E0"/>
<path d="M119.872 15.36V81.392H25.0402L21.6162 15.824L119.872 15.36Z" fill="#E0E0E0"/>
<path d="M21.6162 15.832L21.6162 81.256H116.448V15.832H21.6162Z" fill="white"/>
<path d="M116.904 81.704H21.1682V15.376H116.904V81.704ZM22.0722 80.8H116V16.272H22.0722V80.8Z" fill="#E0E0E0"/>
<path d="M106.176 23.952H31.8882V73.12H106.176V23.952Z" fill="white"/>
<path d="M106.184 23.9519H105.816H104.8H100.72L85.408 24.0079L31.928 24.1119L32.144 23.8959C32.144 38.9199 32.144 55.5679 32.144 73.0639L31.904 72.8319L106.2 72.8799L106.008 73.0639C106.056 58.1039 106.088 45.8639 106.112 37.2959C106.112 33.0239 106.112 29.6879 106.16 27.3999C106.16 26.2719 106.16 25.3999 106.16 24.7999C106.16 24.1999 106.16 23.8959 106.16 23.8959C106.16 23.8959 106.16 24.1839 106.16 24.7599C106.16 25.3359 106.16 26.2079 106.16 27.3279C106.16 29.5999 106.16 32.9279 106.208 37.1759C106.208 45.7439 106.264 58.0559 106.304 73.0639V73.2559H106.12L31.824 73.3039H31.592V73.0639C31.592 55.5679 31.592 38.9199 31.592 23.8959V23.6799H31.8L85.4 23.7919L100.664 23.8479H104.664H105.696L106.184 23.9519Z" fill="#E0E0E0"/>
<path d="M21.6002 15.64C22.1725 15.9291 22.7094 16.2834 23.2002 16.696C24.1762 17.4 25.4962 18.392 26.9202 19.536C28.3442 20.68 29.6002 21.752 30.4882 22.56C30.9966 22.9643 31.4509 23.4321 31.8402 23.952C31.7522 24.056 29.4402 22.176 26.6242 19.896C23.8082 17.616 21.5362 15.752 21.6002 15.64Z" fill="#E0E0E0"/>
<path d="M116.456 15.824C114.896 17.3576 113.228 18.7773 111.464 20.072C109.8 21.4905 108.035 22.7872 106.184 23.952C107.755 22.4204 109.431 21.0009 111.2 19.704C112.858 18.2874 114.614 16.9907 116.456 15.824Z" fill="#E0E0E0"/>
<path d="M116.376 81.264L105.808 72.688L116.376 81.264Z" fill="white"/>
<path d="M105.808 72.688C107.707 73.9355 109.521 75.3064 111.24 76.792C113.054 78.1615 114.77 79.6558 116.376 81.264C114.475 80.0197 112.66 78.6486 110.944 77.16C108 74.8 105.72 72.792 105.808 72.688Z" fill="#E0E0E0"/>
<path d="M21.6001 81.256C23.1454 79.737 24.7977 78.3307 26.5441 77.048C28.1927 75.6464 29.9384 74.3632 31.7681 73.208C30.2267 74.7282 28.5771 76.1346 26.8321 77.416C25.1809 78.8179 23.4325 80.1011 21.6001 81.256Z" fill="#E0E0E0"/>
<path d="M46.9761 39.28V55.744H93.7201V39.28H46.9761Z" fill="#E0E0E0"/>
<path d="M338.848 0.0159912H288.144V73.512H338.848V0.0159912Z" fill="#E0E0E0"/>
<path d="M336.312 0.0159912H285.608V73.512H336.312V0.0159912Z" fill="#F5F5F5"/>
<path d="M330.008 7.97595H291.904V65.552H330.008V7.97595Z" fill="white"/>
<path d="M330.016 65.552C330.016 65.552 330.016 65.456 330.016 65.272V64.472C330.016 63.744 330.016 62.688 330.016 61.312C330.016 58.552 330.016 54.536 330.016 49.456C330.016 39.304 329.976 24.92 329.952 7.99196L330.08 8.11996H291.904L292.048 7.98397C292.048 29.704 292.048 49.728 292.048 65.584L291.936 65.472L319.672 65.536H327.336H329.352H330.048H329.376H327.384H319.744L291.936 65.592H291.832V65.48C291.832 49.648 291.832 29.624 291.832 7.87996V7.83997H330.232V7.96796C330.232 24.936 330.192 39.336 330.176 49.512C330.176 54.576 330.176 58.592 330.136 61.344C330.136 62.704 330.136 63.744 330.136 64.472V65.272C330.016 65.464 330.016 65.552 330.016 65.552Z" fill="#E0E0E0"/>
<path d="M336.456 0.0159912C336.199 0.482011 335.896 0.921479 335.552 1.32799C334.96 2.12799 334.128 3.19199 333.152 4.35199C332.176 5.51199 331.304 6.53599 330.64 7.26399C330.312 7.67393 329.948 8.05407 329.552 8.39999C329.837 7.9511 330.161 7.52814 330.52 7.13599L332.96 4.17599C333.88 3.04799 334.72 2.03199 335.4 1.20799C335.718 0.781407 336.071 0.382632 336.456 0.0159912Z" fill="#E0E0E0"/>
<path d="M330.208 65.368C332.106 68.3789 334.336 71.1671 336.856 73.68L330.208 65.368Z" fill="white"/>
<path d="M336.856 73.68C336.434 73.3688 336.045 73.0149 335.696 72.624C335.016 71.936 334.096 70.952 333.184 69.8C332.4 68.8134 331.666 67.7881 330.984 66.728C330.672 66.3031 330.404 65.8474 330.184 65.368C330.528 65.7616 330.841 66.1816 331.12 66.624C331.68 67.424 332.464 68.48 333.376 69.624C334.288 70.768 335.168 71.776 335.816 72.488C336.191 72.8598 336.539 73.2582 336.856 73.68Z" fill="#E0E0E0"/>
<path d="M285.6 73.456L292.24 65.264L285.6 73.456Z" fill="white"/>
<path d="M292.24 65.264C291.249 66.7149 290.181 68.1116 289.04 69.448C287.2 71.704 285.664 73.504 285.608 73.448C286.601 71.9985 287.669 70.602 288.808 69.264C289.882 67.8721 291.028 66.537 292.24 65.264Z" fill="#E0E0E0"/>
<path d="M285.6 0.0159912C286.735 1.24297 287.803 2.53017 288.8 3.87199C289.873 5.15102 290.877 6.48624 291.808 7.87199C290.67 6.64736 289.602 5.36001 288.608 4.01599C287.535 2.73696 286.531 1.40174 285.6 0.0159912Z" fill="#E0E0E0"/>
<path d="M318.144 19.6639H305.384V55.8879H318.144V19.6639Z" fill="#E0E0E0"/>
</svg>
