<svg width="450" height="450" viewBox="0 0 450 450" fill="none" xmlns="http://www.w3.org/2000/svg">
<path d="M225 420.633C336.609 420.633 427.086 369.238 427.086 305.838C427.086 242.438 336.609 191.043 225 191.043C113.391 191.043 22.9139 242.438 22.9139 305.838C22.9139 369.238 113.391 420.633 225 420.633Z" fill="#F5F5F5"/>
<path d="M182.556 229.815L234.216 201.231L297.045 237.51L245.394 266.094L182.556 229.815Z" fill="#E0E0E0"/>
<path d="M344.7 317.403C373.574 317.403 396.981 304.106 396.981 287.703C396.981 271.3 373.574 258.003 344.7 258.003C315.826 258.003 292.419 271.3 292.419 287.703C292.419 304.106 315.826 317.403 344.7 317.403Z" fill="#E0E0E0"/>
<path d="M270.234 362.331L160.731 300.159L159.588 300.825C148.311 294.345 132.66 290.331 115.353 290.331C81 290.331 53.1 306.153 53.1 325.674C53.1 345.195 81 361.017 115.353 361.017C116.541 361.017 117.729 361.017 118.899 360.954L192.312 403.011C194.948 404.522 197.931 405.323 200.969 405.335C204.008 405.348 206.997 404.572 209.646 403.083L270.216 369C270.811 368.671 271.308 368.189 271.654 367.604C272 367.018 272.184 366.351 272.185 365.671C272.187 364.991 272.007 364.323 271.664 363.735C271.321 363.148 270.827 362.663 270.234 362.331Z" fill="#E0E0E0"/>
<path d="M280.962 111.852C280.962 79.2 262.701 49.878 238.5 35.91C226.332 28.881 215.676 27.459 208.071 31.923L187.659 43.623C187.29 43.83 186.921 44.046 186.561 44.28L186.786 44.127L186.453 44.325C179.307 48.942 175.023 59.004 175.023 74.817C175.023 107.775 193.293 136.782 217.494 150.759C229.653 157.779 240.309 159.273 247.914 154.845L268.452 143.1C268.686 142.974 268.92 142.839 269.154 142.695L269.514 142.488C276.678 137.88 280.962 127.8 280.962 111.852Z" fill="#3052C5"/>
<path opacity="0.5" d="M246.083 153.909C263.433 144.815 264.7 113.025 248.912 82.9026C233.125 52.7806 206.261 35.7337 188.911 44.8274C171.56 53.9211 170.293 85.7117 186.081 115.834C201.869 145.956 228.732 163.003 246.083 153.909Z" fill="white"/>
<path d="M227.547 105.156C227.547 87.489 222.525 79.317 217.494 76.41C212.463 73.503 207.45 75.888 207.45 93.51C207.45 111.132 212.472 119.349 217.494 122.256C222.516 125.163 227.547 122.823 227.547 105.156Z" fill="#3052C5"/>
<path opacity="0.3" d="M227.547 105.156C227.547 87.489 222.525 79.317 217.494 76.41C212.463 73.503 207.45 75.888 207.45 93.51C207.45 111.132 212.472 119.349 217.494 122.256C222.516 125.163 227.547 122.823 227.547 105.156Z" fill="black"/>
<path d="M398.583 266.283C398.583 233.586 380.313 204.318 356.103 190.341C343.944 183.321 333.279 181.89 325.683 186.354L305.28 198.054C304.902 198.252 304.533 198.468 304.173 198.702L304.398 198.558L304.065 198.747C296.919 203.355 292.635 213.417 292.635 229.23C292.635 262.188 310.905 291.195 335.106 305.172C347.265 312.192 357.921 313.686 365.526 309.267L386.1 297.522L386.802 297.117L387.162 296.91C394.29 292.311 398.583 282.24 398.583 266.283Z" fill="#3052C5"/>
<path opacity="0.5" d="M363.687 308.354C381.038 299.26 382.304 267.47 366.517 237.348C350.729 207.226 323.866 190.179 306.515 199.272C289.165 208.366 287.898 240.157 303.686 270.279C319.473 300.401 346.337 317.448 363.687 308.354Z" fill="white"/>
<path d="M345.159 259.587C345.159 241.92 340.137 233.748 335.106 230.85C330.075 227.952 325.062 230.319 325.062 247.95C325.062 265.581 330.084 273.798 335.106 276.696C340.128 279.594 345.159 277.263 345.159 259.587Z" fill="#3052C5"/>
<path opacity="0.3" d="M345.159 259.587C345.159 241.92 340.137 233.748 335.106 230.85C330.075 227.952 325.062 230.319 325.062 247.95C325.062 265.581 330.084 273.798 335.106 276.696C340.128 279.594 345.159 277.263 345.159 259.587Z" fill="black"/>
<path d="M332.352 92.7361L311.355 104.76L202.194 226.323L240.795 248.607L261.783 236.574L370.944 115.011L332.352 92.7361Z" fill="#3052C5"/>
<path opacity="0.3" d="M349.947 127.044L240.795 248.607L261.783 236.574L370.944 115.011L349.947 127.044Z" fill="black"/>
<path opacity="0.5" d="M311.355 104.76L349.947 127.044L240.795 248.607L202.194 226.323L311.355 104.76Z" fill="white"/>
<path d="M159.219 94.7609L161.37 101.061C161.673 101.968 162.236 102.767 162.99 103.356L167.787 106.956C169.587 108.27 170.262 111.177 168.984 111.879L165.51 113.778C165.242 113.984 165.04 114.265 164.929 114.585C164.819 114.905 164.805 115.25 164.889 115.578L165.708 121.572C166.005 123.777 164.169 124.272 162.585 122.391L158.292 117.306C158.061 116.981 157.763 116.709 157.419 116.509C157.074 116.309 156.691 116.184 156.294 116.145L151.992 116.271C150.417 116.325 148.572 113.706 148.878 111.852L149.697 106.803C149.776 105.906 149.558 105.008 149.076 104.247L145.602 98.3339C144.324 96.1559 145.026 94.0589 146.79 94.7879L151.596 96.7499C151.867 96.9075 152.19 96.9515 152.493 96.8723C152.797 96.793 153.056 96.597 153.216 96.3269L155.358 92.5469C156.15 91.1429 158.4 92.4569 159.219 94.7609Z" fill="#455A64"/>
<path d="M380.916 139.032L383.067 145.332C383.372 146.236 383.931 147.033 384.678 147.627L389.484 151.227C391.284 152.541 391.95 155.457 390.681 156.15L387.198 158.058C386.93 158.264 386.729 158.545 386.62 158.866C386.512 159.186 386.5 159.531 386.586 159.858L387.405 165.852C387.702 168.057 385.857 168.552 384.282 166.671L379.989 161.577C379.755 161.253 379.456 160.983 379.11 160.785C378.764 160.586 378.379 160.463 377.982 160.425L373.689 160.551C372.114 160.551 370.269 157.986 370.566 156.132L371.394 151.083C371.487 150.18 371.278 149.272 370.8 148.5L367.326 142.578C366.048 140.409 366.75 138.312 368.514 139.032L373.32 141.003C373.592 141.158 373.913 141.201 374.216 141.122C374.519 141.043 374.779 140.848 374.94 140.58L377.1 136.8C377.847 135.414 380.124 136.728 380.916 139.032Z" fill="#455A64"/>
<path d="M360.594 161.487L361.917 165.357C362.107 165.916 362.454 166.41 362.916 166.779L365.886 168.993C366.984 169.803 367.416 171.603 366.624 172.035L364.5 173.214C364.329 173.344 364.201 173.523 364.132 173.726C364.063 173.93 364.056 174.149 364.113 174.357L364.617 178.065C364.806 179.424 363.663 179.721 362.691 178.569L359.991 175.419C359.848 175.217 359.663 175.049 359.448 174.926C359.234 174.804 358.995 174.729 358.749 174.708L356.094 174.789C355.122 174.789 353.979 173.196 354.168 172.089L354.672 168.966C354.72 168.411 354.588 167.855 354.294 167.382L352.143 163.728C351.351 162.378 351.783 161.082 352.881 161.532L355.851 162.747C356.019 162.843 356.217 162.869 356.404 162.82C356.591 162.771 356.751 162.651 356.85 162.486L358.182 160.146C358.695 159.246 360.099 160.065 360.594 161.487Z" fill="#455A64"/>
<path d="M145.701 65.1509L147.024 69.0209C147.218 69.5812 147.567 70.0745 148.032 70.4429L151.002 72.6569C152.091 73.4669 152.523 75.2669 151.74 75.6989L149.589 76.8779C149.418 77.006 149.289 77.1828 149.22 77.3851C149.151 77.5874 149.145 77.8059 149.202 78.0119L149.715 81.7199C149.895 83.0879 148.761 83.3849 147.78 82.2239L145.125 79.0829C144.982 78.8824 144.798 78.7145 144.586 78.5904C144.373 78.4662 144.137 78.3887 143.892 78.3629L141.192 78.4439C140.22 78.4439 139.077 76.8599 139.266 75.7439L139.77 72.6209C139.828 72.0653 139.694 71.5066 139.392 71.0369L137.241 67.3739C136.449 66.0329 136.89 64.7369 137.979 65.1869L140.949 66.4019C141.117 66.4977 141.315 66.524 141.502 66.4752C141.688 66.4264 141.849 66.3064 141.948 66.1409L143.28 63.7919C143.802 62.9099 145.215 63.7199 145.701 65.1509Z" fill="#455A64"/>
<path d="M135.405 188.388C135.405 188.388 134.199 241.11 125.595 255.159C116.991 269.208 81.216 298.692 81.216 298.692L75.141 290.529C75.141 290.529 94.365 255.042 103.158 250.677L110.034 188.1L135.405 188.388Z" fill="#263238"/>
<path d="M68.598 317.493L73.314 315.468L71.271 311.58L68.598 317.493Z" fill="#3052C5"/>
<path d="M66.159 300.816C65.5008 302.065 65.0971 303.433 64.971 304.839L64.269 312.696L68.598 317.493L71.298 311.58L66.159 300.816Z" fill="#3052C5"/>
<g style="mix-blend-mode:overlay" opacity="0.5">
<path d="M68.598 317.493L73.314 315.468L71.271 311.58L68.598 317.493Z" fill="black"/>
</g>
<g style="mix-blend-mode:overlay" opacity="0.2">
<path d="M66.159 300.816C65.5008 302.065 65.0971 303.433 64.971 304.839L64.269 312.696L68.598 317.493L71.298 311.58L66.159 300.816Z" fill="black"/>
</g>
<path d="M80.829 280.692C80.829 280.692 82.431 289.638 90.486 290.529C90.486 290.529 91.602 291.825 88.893 294.714C86.184 297.603 81.216 303.642 81.216 303.642C81.216 303.642 81.729 313.056 85.383 316.611C87.183 318.411 89.082 320.211 90.504 321.705C90.7848 321.988 90.9943 322.334 91.1151 322.714C91.2358 323.093 91.2644 323.497 91.1985 323.89C91.1325 324.283 90.9739 324.655 90.7358 324.974C90.4976 325.294 90.1868 325.552 89.829 325.728C87.6192 326.817 85.1365 327.227 82.6939 326.907C80.2514 326.586 77.9583 325.55 76.104 323.928L74.637 322.641C73.1102 321.286 72.1469 319.407 71.937 317.376L71.307 311.598L66.366 304.398C66.0136 303.882 65.8111 303.278 65.7809 302.654C65.7507 302.029 65.8941 301.409 66.195 300.861C69.3 295.2 78.759 278.532 80.829 280.692Z" fill="#3052C5"/>
<path d="M104.022 184.932C104.022 184.932 87.66 201.942 93.6 222.525C99.54 243.108 112.833 271.377 112.833 271.377C112.833 271.377 110.826 277.506 116.433 290.529C122.04 303.552 127.233 318.051 127.233 318.051C127.233 318.051 132.633 321.12 137.637 315.774L123.39 208.251C123.39 208.251 134.262 200.628 132.84 187.974L104.022 184.932Z" fill="#37474F"/>
<path d="M128.25 331.641L130.194 340.245L135.108 342.918L134.919 336.645L128.25 331.641Z" fill="#3052C5"/>
<path opacity="0.2" d="M128.25 331.641L130.194 340.245L135.108 342.918L134.919 336.645L128.25 331.641Z" fill="black"/>
<path d="M135.108 342.918L137.583 341.289L134.919 336.645L135.108 342.918Z" fill="#3052C5"/>
<path opacity="0.5" d="M135.108 342.918L137.583 341.289L134.919 336.645L135.108 342.918Z" fill="black"/>
<path d="M124.623 311.022C124.623 311.022 131.544 314.19 136.746 309.069L136.512 307.449C136.512 307.449 138.312 306.918 138.924 310.149C139.536 313.38 142.803 329.094 142.803 329.094C142.803 329.094 148.698 336.681 153 338.4C157.302 340.119 158.175 342.531 155.349 344.628L155.268 344.691C153.624 345.911 151.678 346.659 149.64 346.854C147.601 347.049 145.549 346.684 143.703 345.798L140.364 344.205C139.048 343.568 137.986 342.506 137.349 341.19L136.944 340.353C135.932 338.26 134.33 336.508 132.336 335.313L129.87 333.837C129.477 333.599 129.134 333.286 128.862 332.915C128.59 332.545 128.394 332.124 128.286 331.677L123.786 312.849C123.7 312.497 123.737 312.127 123.891 311.8C124.045 311.472 124.307 311.207 124.632 311.049L124.623 311.022Z" fill="#3052C5"/>
<path d="M129.888 250.857C129.52 250.857 129.162 250.735 128.87 250.511C128.578 250.286 128.368 249.972 128.272 249.616C128.177 249.261 128.202 248.883 128.342 248.543C128.483 248.203 128.732 247.918 129.051 247.734L182.7 216.702C182.891 216.585 183.103 216.507 183.324 216.473C183.545 216.44 183.771 216.45 183.988 216.505C184.204 216.56 184.408 216.658 184.586 216.793C184.765 216.928 184.914 217.097 185.026 217.291C185.138 217.484 185.21 217.699 185.238 217.921C185.266 218.143 185.249 218.368 185.188 218.583C185.127 218.798 185.024 218.999 184.884 219.174C184.744 219.349 184.571 219.494 184.374 219.6L130.761 250.632C130.495 250.783 130.194 250.86 129.888 250.857Z" fill="#37474F"/>
<path d="M132.48 298.107C132.187 298.108 131.9 298.031 131.646 297.884C131.393 297.737 131.184 297.525 131.04 297.27C130.817 296.887 130.756 296.431 130.869 296.002C130.982 295.574 131.26 295.208 131.643 294.984L185.256 263.961C185.446 263.851 185.655 263.78 185.873 263.751C186.09 263.722 186.311 263.736 186.523 263.792C186.734 263.849 186.933 263.946 187.107 264.08C187.281 264.213 187.428 264.379 187.538 264.569C187.647 264.758 187.719 264.968 187.748 265.185C187.777 265.402 187.763 265.623 187.706 265.835C187.65 266.047 187.552 266.246 187.419 266.42C187.286 266.594 187.12 266.74 186.93 266.85L133.317 297.9C133.061 298.042 132.772 298.114 132.48 298.107Z" fill="#37474F"/>
<path d="M129.699 262.116C129.553 262.117 129.409 262.08 129.283 262.007C129.156 261.934 129.051 261.829 128.979 261.702C128.923 261.607 128.886 261.502 128.871 261.393C128.856 261.284 128.863 261.173 128.892 261.066C128.92 260.96 128.97 260.86 129.037 260.773C129.105 260.686 129.189 260.613 129.285 260.559L183.285 229.311C183.38 229.252 183.486 229.214 183.597 229.197C183.708 229.18 183.82 229.185 183.929 229.213C184.037 229.24 184.139 229.289 184.228 229.356C184.317 229.424 184.392 229.508 184.448 229.605C184.504 229.702 184.54 229.809 184.554 229.92C184.568 230.031 184.559 230.144 184.529 230.252C184.499 230.359 184.447 230.46 184.377 230.547C184.307 230.634 184.22 230.707 184.122 230.76L130.122 262.008C129.992 262.078 129.847 262.115 129.699 262.116Z" fill="#37474F"/>
<path d="M131.22 274.086C131.037 274.085 130.859 274.024 130.714 273.913C130.569 273.801 130.464 273.645 130.416 273.468C130.368 273.292 130.379 273.104 130.448 272.934C130.517 272.765 130.64 272.622 130.797 272.529L184.797 241.281C184.989 241.177 185.213 241.152 185.423 241.211C185.633 241.271 185.811 241.409 185.92 241.598C186.029 241.787 186.061 242.011 186.007 242.222C185.954 242.434 185.82 242.616 185.634 242.73L131.634 273.978C131.508 274.049 131.365 274.086 131.22 274.086Z" fill="#37474F"/>
<path d="M131.22 286.11C131.037 286.109 130.859 286.048 130.714 285.937C130.569 285.825 130.464 285.669 130.416 285.493C130.368 285.316 130.379 285.128 130.448 284.959C130.517 284.789 130.64 284.647 130.797 284.553L184.797 253.305C184.989 253.201 185.213 253.176 185.423 253.236C185.633 253.295 185.811 253.434 185.92 253.622C186.029 253.811 186.061 254.035 186.007 254.246C185.954 254.458 185.82 254.64 185.634 254.754L131.634 286.002C131.508 286.073 131.365 286.111 131.22 286.11Z" fill="#37474F"/>
<path d="M180.252 270.072C180.038 270.072 179.831 269.99 179.676 269.843C179.52 269.696 179.427 269.494 179.415 269.28L176.715 221.643C176.702 221.421 176.778 221.203 176.925 221.037C177.073 220.87 177.281 220.77 177.503 220.757C177.725 220.743 177.943 220.819 178.109 220.967C178.275 221.114 178.376 221.322 178.389 221.544L181.089 269.19C181.096 269.301 181.082 269.413 181.046 269.518C181.01 269.624 180.954 269.721 180.88 269.805C180.806 269.888 180.717 269.956 180.617 270.005C180.517 270.054 180.408 270.083 180.297 270.09L180.252 270.072Z" fill="#37474F"/>
<path d="M173.34 274.095C173.127 274.096 172.922 274.015 172.767 273.869C172.611 273.724 172.517 273.525 172.503 273.312L169.803 225.666C169.787 225.551 169.794 225.434 169.825 225.322C169.857 225.21 169.911 225.106 169.984 225.016C170.058 224.927 170.15 224.853 170.253 224.801C170.357 224.748 170.47 224.718 170.586 224.711C170.702 224.705 170.818 224.723 170.927 224.764C171.036 224.805 171.135 224.868 171.218 224.95C171.301 225.031 171.366 225.129 171.409 225.237C171.452 225.344 171.472 225.46 171.468 225.576L174.168 273.213C174.178 273.324 174.165 273.436 174.131 273.542C174.096 273.648 174.041 273.746 173.968 273.83C173.895 273.914 173.806 273.982 173.705 274.031C173.605 274.08 173.496 274.108 173.385 274.113L173.34 274.095Z" fill="#37474F"/>
<path d="M166.419 278.1C166.206 278.1 166 278.018 165.846 277.87C165.692 277.723 165.6 277.521 165.591 277.308L162.891 229.671C162.881 229.56 162.894 229.448 162.928 229.342C162.963 229.236 163.018 229.139 163.091 229.055C163.164 228.971 163.254 228.902 163.354 228.853C163.454 228.805 163.563 228.777 163.674 228.771C163.785 228.762 163.896 228.776 164.001 228.811C164.107 228.846 164.204 228.901 164.288 228.974C164.372 229.047 164.44 229.136 164.489 229.235C164.538 229.335 164.567 229.443 164.574 229.554L167.274 277.2C167.283 277.311 167.269 277.422 167.234 277.527C167.199 277.633 167.144 277.73 167.071 277.814C166.998 277.898 166.909 277.966 166.81 278.015C166.71 278.064 166.602 278.093 166.491 278.1H166.419Z" fill="#37474F"/>
<path d="M159.507 282.15C159.294 282.151 159.089 282.07 158.934 281.924C158.778 281.779 158.684 281.58 158.67 281.367L155.97 233.721C155.954 233.606 155.961 233.489 155.992 233.377C156.024 233.265 156.078 233.161 156.151 233.071C156.225 232.981 156.317 232.908 156.42 232.855C156.524 232.803 156.637 232.773 156.753 232.766C156.869 232.76 156.985 232.778 157.094 232.819C157.203 232.86 157.302 232.923 157.385 233.005C157.468 233.086 157.533 233.184 157.576 233.292C157.619 233.399 157.639 233.515 157.635 233.631L160.335 281.268C160.344 281.38 160.33 281.492 160.294 281.597C160.259 281.703 160.203 281.801 160.129 281.885C160.055 281.969 159.965 282.037 159.865 282.086C159.764 282.134 159.655 282.162 159.543 282.168L159.507 282.15Z" fill="#37474F"/>
<path d="M152.595 286.2C152.381 286.198 152.176 286.116 152.021 285.969C151.866 285.822 151.772 285.621 151.758 285.408L149.058 237.762C149.052 237.652 149.068 237.542 149.105 237.438C149.141 237.335 149.198 237.239 149.271 237.157C149.345 237.075 149.434 237.009 149.533 236.961C149.632 236.914 149.74 236.886 149.85 236.88C149.96 236.874 150.07 236.89 150.174 236.927C150.278 236.963 150.373 237.02 150.455 237.093C150.537 237.167 150.604 237.256 150.651 237.355C150.699 237.455 150.726 237.562 150.732 237.672L153.432 285.318C153.439 285.429 153.425 285.541 153.389 285.646C153.353 285.752 153.297 285.849 153.223 285.933C153.149 286.016 153.06 286.084 152.96 286.133C152.86 286.182 152.751 286.211 152.64 286.218L152.595 286.2Z" fill="#37474F"/>
<path d="M145.683 290.205C145.469 290.205 145.262 290.123 145.107 289.976C144.951 289.829 144.858 289.627 144.846 289.413L142.146 241.776C142.133 241.554 142.208 241.336 142.356 241.17C142.504 241.004 142.712 240.903 142.933 240.89C143.155 240.877 143.374 240.952 143.54 241.1C143.706 241.247 143.807 241.455 143.82 241.677L146.52 289.323C146.529 289.434 146.515 289.545 146.48 289.651C146.445 289.756 146.39 289.853 146.317 289.937C146.244 290.021 146.155 290.089 146.056 290.138C145.956 290.187 145.848 290.216 145.737 290.223L145.683 290.205Z" fill="#37474F"/>
<path d="M138.762 294.237C138.55 294.233 138.347 294.149 138.194 294.003C138.04 293.856 137.948 293.657 137.934 293.445L135.234 245.799C135.218 245.684 135.225 245.567 135.256 245.455C135.288 245.343 135.342 245.239 135.416 245.149C135.489 245.059 135.581 244.986 135.684 244.933C135.788 244.881 135.901 244.851 136.017 244.844C136.133 244.838 136.249 244.856 136.358 244.897C136.467 244.938 136.566 245.001 136.649 245.082C136.732 245.164 136.797 245.262 136.84 245.369C136.883 245.477 136.903 245.593 136.899 245.709L139.599 293.355C139.61 293.466 139.598 293.578 139.565 293.685C139.531 293.791 139.475 293.89 139.402 293.974C139.329 294.058 139.239 294.127 139.138 294.175C139.037 294.223 138.928 294.251 138.816 294.255L138.762 294.237Z" fill="#37474F"/>
<path d="M211.788 166.5L175.356 145.467V170.037L211.788 191.07L220.374 188.829V178.614L211.788 166.5ZM214.893 183.042C214.289 182.647 213.787 182.115 213.428 181.49C213.068 180.864 212.861 180.163 212.823 179.442C212.823 178.119 213.723 177.588 214.893 178.245C215.498 178.639 216.001 179.17 216.361 179.796C216.721 180.422 216.927 181.124 216.963 181.845C216.963 183.132 216 183.663 214.893 183.006V183.042Z" fill="#3052C5"/>
<path opacity="0.5" d="M211.788 166.5L175.356 145.467V170.037L211.788 191.07L220.374 188.829V178.614L211.788 166.5ZM214.893 183.042C214.289 182.647 213.787 182.115 213.428 181.49C213.068 180.864 212.861 180.163 212.823 179.442C212.823 178.119 213.723 177.588 214.893 178.245C215.498 178.639 216.001 179.17 216.361 179.796C216.721 180.422 216.927 181.124 216.963 181.845C216.963 183.132 216 183.663 214.893 183.006V183.042Z" fill="white"/>
<path d="M215.28 225.279C215.096 225.266 214.92 225.196 214.777 225.079C214.633 224.962 214.529 224.803 214.479 224.625C214.429 224.447 214.435 224.258 214.496 224.084C214.557 223.909 214.671 223.758 214.821 223.65L221.4 219.6C223.53 218.282 225.289 216.444 226.513 214.259C227.736 212.073 228.383 209.612 228.393 207.108V194.805C228.388 193.298 227.998 191.816 227.261 190.501C226.524 189.187 225.464 188.081 224.181 187.29L215.1 181.701C214.969 181.661 214.848 181.592 214.748 181.499C214.647 181.406 214.569 181.291 214.52 181.163C214.47 181.035 214.451 180.898 214.463 180.761C214.475 180.624 214.518 180.492 214.589 180.375C214.659 180.257 214.756 180.158 214.871 180.083C214.986 180.009 215.117 179.962 215.253 179.946C215.389 179.929 215.528 179.944 215.657 179.99C215.786 180.035 215.904 180.109 216 180.207L225.144 185.796C226.681 186.744 227.951 188.068 228.834 189.642C229.717 191.217 230.185 192.991 230.193 194.796V207.099C230.182 209.903 229.457 212.658 228.087 215.105C226.718 217.552 224.748 219.61 222.363 221.085L215.757 225.135C215.615 225.227 215.449 225.277 215.28 225.279Z" fill="#3052C5"/>
<path opacity="0.9" d="M215.28 225.279C215.096 225.266 214.92 225.196 214.777 225.079C214.633 224.962 214.529 224.803 214.479 224.625C214.429 224.447 214.435 224.258 214.496 224.084C214.557 223.909 214.671 223.758 214.821 223.65L221.4 219.6C223.53 218.282 225.289 216.444 226.513 214.259C227.736 212.073 228.383 209.612 228.393 207.108V194.805C228.388 193.298 227.998 191.816 227.261 190.501C226.524 189.187 225.464 188.081 224.181 187.29L215.1 181.701C214.969 181.661 214.848 181.592 214.748 181.499C214.647 181.406 214.569 181.291 214.52 181.163C214.47 181.035 214.451 180.898 214.463 180.761C214.475 180.624 214.518 180.492 214.589 180.375C214.659 180.257 214.756 180.158 214.871 180.083C214.986 180.009 215.117 179.962 215.253 179.946C215.389 179.929 215.528 179.944 215.657 179.99C215.786 180.035 215.904 180.109 216 180.207L225.144 185.796C226.681 186.744 227.951 188.068 228.834 189.642C229.717 191.217 230.185 192.991 230.193 194.796V207.099C230.182 209.903 229.457 212.658 228.087 215.105C226.718 217.552 224.748 219.61 222.363 221.085L215.757 225.135C215.615 225.227 215.449 225.277 215.28 225.279Z" fill="black"/>
<path d="M203.4 334.665C203.4 338.526 200.7 340.065 197.352 338.157C195.588 337.01 194.121 335.462 193.068 333.64C192.015 331.818 191.408 329.773 191.295 327.672C191.295 323.811 193.995 322.272 197.352 324.18C199.113 325.33 200.578 326.878 201.629 328.7C202.68 330.521 203.287 332.565 203.4 334.665Z" fill="#455A64"/>
<path d="M199.404 332.361C199.404 333.675 198.504 334.215 197.343 333.558C196.739 333.163 196.237 332.631 195.878 332.005C195.518 331.38 195.311 330.679 195.273 329.958C195.273 328.635 196.173 328.104 197.343 328.761C197.946 329.156 198.447 329.688 198.805 330.314C199.164 330.939 199.369 331.641 199.404 332.361Z" fill="#263238"/>
<path d="M206.154 333.072C206.04 330.97 205.433 328.924 204.38 327.101C203.328 325.278 201.86 323.728 200.097 322.578C197.712 321.201 195.66 321.615 194.697 323.361C195.653 323.394 196.584 323.676 197.397 324.18C199.15 325.335 200.606 326.885 201.649 328.707C202.692 330.528 203.292 332.569 203.4 334.665C203.4 336.573 202.734 337.914 201.663 338.553L204.3 337.041C205.434 336.429 206.154 335.052 206.154 333.072Z" fill="#263238"/>
<path d="M197.604 321.426C193.392 318.987 189.981 320.958 189.981 325.818L205.2 334.62C205.2 329.76 201.807 323.856 197.604 321.426Z" fill="#3052C5"/>
<path d="M200.34 319.284C197.244 317.484 194.589 318.096 193.392 320.454C194.867 320.271 196.359 320.615 197.604 321.426C201.807 323.856 205.227 329.76 205.227 334.62L207.927 332.487C207.963 327.6 204.552 321.714 200.34 319.284Z" fill="#3052C5"/>
<path opacity="0.5" d="M200.34 319.284C197.244 317.484 194.589 318.096 193.392 320.454C194.867 320.271 196.359 320.615 197.604 321.426C201.807 323.856 205.227 329.76 205.227 334.62L207.927 332.487C207.963 327.6 204.552 321.714 200.34 319.284Z" fill="black"/>
<path d="M247.914 360.387C247.914 364.248 245.214 365.787 241.857 363.879C240.093 362.732 238.626 361.184 237.573 359.362C236.52 357.54 235.913 355.495 235.8 353.394C235.8 349.533 238.5 347.994 241.857 349.902C243.619 351.051 245.086 352.599 246.138 354.421C247.191 356.243 247.799 358.287 247.914 360.387Z" fill="#455A64"/>
<path d="M243.9 358.083C243.9 359.397 243 359.937 241.83 359.28C241.226 358.885 240.724 358.353 240.365 357.728C240.005 357.102 239.798 356.401 239.76 355.68C239.76 354.357 240.66 353.826 241.83 354.483C242.435 354.877 242.938 355.408 243.298 356.034C243.658 356.66 243.864 357.362 243.9 358.083Z" fill="#263238"/>
<path d="M250.668 358.794C250.554 356.693 249.947 354.648 248.896 352.825C247.846 351.002 246.381 349.452 244.62 348.3C242.235 346.923 240.174 347.337 239.22 349.083C240.176 349.116 241.107 349.398 241.92 349.902C243.682 351.051 245.149 352.599 246.201 354.421C247.254 356.243 247.862 358.286 247.977 360.387C247.977 362.295 247.311 363.636 246.24 364.275L248.868 362.763C249.948 362.151 250.668 360.774 250.668 358.794Z" fill="#263238"/>
<path d="M242.1 347.148C237.888 344.709 234.477 346.68 234.477 351.54L249.723 360.342C249.741 355.5 246.33 349.578 242.1 347.148Z" fill="#3052C5"/>
<path d="M244.854 345.006C241.767 343.206 239.103 343.818 237.915 346.176C239.387 345.989 240.878 346.334 242.118 347.148C246.33 349.578 249.741 355.482 249.741 360.342L252.441 358.209C252.477 353.34 249.066 347.4 244.854 345.006Z" fill="#3052C5"/>
<path opacity="0.5" d="M244.854 345.006C241.767 343.206 239.103 343.818 237.915 346.176C239.387 345.989 240.878 346.334 242.118 347.148C246.33 349.578 249.741 355.482 249.741 360.342L252.441 358.209C252.477 353.34 249.066 347.4 244.854 345.006Z" fill="black"/>
<path d="M194.454 391.374C194.454 395.235 191.754 396.774 188.406 394.866C186.642 393.719 185.174 392.171 184.122 390.349C183.069 388.527 182.462 386.482 182.349 384.381C182.349 380.52 185.049 378.981 188.406 380.889C190.167 382.039 191.632 383.587 192.683 385.409C193.734 387.23 194.341 389.274 194.454 391.374Z" fill="#455A64"/>
<path d="M190.467 389.07C190.467 390.393 189.567 390.924 188.406 390.267C187.802 389.872 187.3 389.34 186.941 388.714C186.581 388.089 186.374 387.388 186.336 386.667C186.336 385.344 187.236 384.813 188.406 385.47C189.007 385.867 189.507 386.4 189.865 387.025C190.222 387.65 190.429 388.351 190.467 389.07Z" fill="#263238"/>
<path d="M197.217 389.781C197.104 387.68 196.497 385.635 195.444 383.813C194.392 381.991 192.924 380.444 191.16 379.296C188.775 377.919 186.723 378.324 185.76 380.07C186.716 380.103 187.647 380.385 188.46 380.889C190.221 382.039 191.686 383.587 192.737 385.409C193.788 387.231 194.395 389.274 194.508 391.374C194.508 393.282 193.842 394.623 192.771 395.271L195.408 393.75C196.497 393.138 197.217 391.761 197.217 389.781Z" fill="#263238"/>
<path d="M188.667 378.135C184.455 375.705 181.044 377.676 181.044 382.536L196.29 391.338C196.29 386.469 192.879 380.565 188.667 378.135Z" fill="#3052C5"/>
<path d="M191.403 375.993C188.307 374.193 185.652 374.805 184.455 377.172C185.929 376.977 187.424 377.319 188.667 378.135C192.879 380.565 196.29 386.469 196.29 391.338L198.99 389.196C199.026 384.3 195.615 378.423 191.403 375.993Z" fill="#3052C5"/>
<path opacity="0.5" d="M191.403 375.993C188.307 374.193 185.652 374.805 184.455 377.172C185.929 376.977 187.424 377.319 188.667 378.135C192.879 380.565 196.29 386.469 196.29 391.338L198.99 389.196C199.026 384.3 195.615 378.423 191.403 375.993Z" fill="black"/>
<path d="M250.335 359.163C249.965 359.162 249.606 359.039 249.314 358.813C249.022 358.587 248.813 358.27 248.719 357.913C248.626 357.555 248.653 357.176 248.797 356.836C248.941 356.496 249.194 356.213 249.516 356.031C249.906 355.812 250.23 355.493 250.455 355.107C250.681 354.721 250.8 354.282 250.8 353.835C250.8 353.388 250.681 352.949 250.455 352.563C250.23 352.177 249.906 351.858 249.516 351.639L193.14 320.004C191.357 319.01 189.854 317.581 188.771 315.85C187.689 314.119 187.062 312.143 186.948 310.104L180.846 200.52C180.76 199.022 180.303 197.569 179.518 196.291C178.733 195.012 177.643 193.948 176.346 193.194L172.404 190.89C171.876 190.589 171.279 190.431 170.672 190.431C170.064 190.431 169.467 190.589 168.939 190.89L165.627 192.735C165.244 192.916 164.806 192.945 164.402 192.815C163.998 192.686 163.658 192.408 163.451 192.038C163.244 191.667 163.186 191.232 163.287 190.821C163.389 190.409 163.643 190.051 163.998 189.819L167.301 188.019C168.339 187.436 169.512 187.135 170.703 187.146C171.893 187.157 173.06 187.48 174.087 188.082L178.029 190.386C179.801 191.417 181.289 192.872 182.359 194.621C183.428 196.369 184.047 198.356 184.158 200.403L190.26 309.96C190.341 311.443 190.795 312.881 191.582 314.14C192.369 315.399 193.463 316.438 194.76 317.16L251.136 348.795C252.045 349.304 252.801 350.046 253.328 350.944C253.855 351.843 254.132 352.866 254.132 353.907C254.132 354.949 253.855 355.971 253.328 356.87C252.801 357.768 252.045 358.51 251.136 359.019C250.885 359.132 250.61 359.181 250.335 359.163Z" fill="#263238"/>
<path d="M203.184 326.232C202.755 326.23 202.334 326.118 201.96 325.908L191.817 320.22C191.237 319.895 190.81 319.354 190.629 318.714C190.448 318.074 190.529 317.389 190.854 316.809C191.179 316.229 191.72 315.802 192.36 315.621C193 315.441 193.685 315.521 194.265 315.846L204.408 321.534C204.891 321.806 205.27 322.231 205.486 322.741C205.702 323.251 205.744 323.818 205.604 324.354C205.464 324.89 205.151 325.365 204.714 325.705C204.276 326.045 203.738 326.23 203.184 326.232Z" fill="#3052C5"/>
<path d="M207.594 327.87C207.307 327.869 207.025 327.794 206.775 327.654L203.238 325.665C202.883 325.433 202.629 325.075 202.527 324.664C202.426 324.252 202.484 323.817 202.691 323.446C202.898 323.076 203.238 322.798 203.642 322.669C204.046 322.539 204.484 322.568 204.867 322.749L208.413 324.738C208.735 324.92 208.988 325.203 209.132 325.543C209.276 325.883 209.304 326.262 209.21 326.62C209.117 326.977 208.907 327.294 208.615 327.52C208.323 327.746 207.964 327.869 207.594 327.87Z" fill="#253239"/>
<path d="M248.625 351.729C248.196 351.732 247.773 351.62 247.401 351.405L237.258 345.717C236.971 345.556 236.718 345.341 236.514 345.082C236.31 344.824 236.16 344.528 236.07 344.211C235.981 343.894 235.955 343.563 235.993 343.236C236.032 342.909 236.134 342.593 236.295 342.306C236.62 341.726 237.161 341.299 237.801 341.118C238.118 341.029 238.449 341.003 238.776 341.041C239.103 341.08 239.419 341.182 239.706 341.343L249.858 347.04C250.344 347.31 250.726 347.734 250.944 348.245C251.162 348.757 251.204 349.326 251.063 349.864C250.921 350.401 250.605 350.876 250.164 351.214C249.722 351.552 249.181 351.733 248.625 351.729Z" fill="#3052C5"/>
<path d="M250.335 359.163C249.965 359.162 249.606 359.039 249.314 358.813C249.022 358.587 248.813 358.27 248.719 357.913C248.625 357.555 248.653 357.176 248.797 356.836C248.941 356.496 249.194 356.213 249.516 356.031C249.906 355.812 250.23 355.493 250.455 355.107C250.681 354.721 250.8 354.282 250.8 353.835C250.8 353.388 250.681 352.949 250.455 352.563C250.23 352.177 249.906 351.858 249.516 351.639C249.15 351.411 248.887 351.051 248.78 350.634C248.673 350.217 248.731 349.774 248.942 349.398C249.153 349.023 249.5 348.743 249.912 348.617C250.325 348.491 250.769 348.529 251.154 348.723C252.063 349.232 252.819 349.974 253.346 350.872C253.873 351.771 254.15 352.794 254.15 353.835C254.15 354.877 253.873 355.899 253.346 356.798C252.819 357.696 252.063 358.438 251.154 358.947C250.904 359.087 250.622 359.162 250.335 359.163Z" fill="#455A64"/>
<path d="M148.159 369.568C150.523 368.203 150.522 363.779 148.159 359.685C145.795 355.591 141.964 353.379 139.6 354.743C137.237 356.108 137.237 360.532 139.601 364.626C141.964 368.72 145.796 370.932 148.159 369.568Z" fill="#455A64"/>
<path d="M145.953 363.348C145.953 364.671 145.053 365.202 143.883 364.545C143.28 364.149 142.78 363.617 142.422 362.992C142.064 362.366 141.858 361.665 141.822 360.945C141.822 359.622 142.722 359.091 143.883 359.748C144.487 360.143 144.989 360.675 145.348 361.301C145.708 361.926 145.915 362.628 145.953 363.348Z" fill="#263238"/>
<path d="M152.703 364.059C152.588 361.958 151.98 359.914 150.927 358.093C149.875 356.271 148.408 354.723 146.646 353.574C144.261 352.197 142.2 352.602 141.246 354.348C142.202 354.379 143.134 354.662 143.946 355.167C145.71 356.315 147.178 357.862 148.23 359.684C149.283 361.506 149.89 363.551 150.003 365.652C150.003 367.56 149.337 368.901 148.266 369.549L150.894 368.028C151.983 367.416 152.703 366.039 152.703 364.059Z" fill="#263238"/>
<path d="M144.144 352.413C139.941 349.983 136.53 351.954 136.53 356.814L151.767 365.616C151.767 360.747 148.356 354.843 144.144 352.413Z" fill="#3052C5"/>
<path d="M146.88 350.271C143.793 348.471 141.138 349.083 139.941 351.45C141.412 351.254 142.905 351.596 144.144 352.413C148.356 354.843 151.767 360.747 151.767 365.616L154.467 363.474C154.503 358.614 151.092 352.701 146.88 350.271Z" fill="#3052C5"/>
<path opacity="0.5" d="M146.88 350.271C143.793 348.471 141.138 349.083 139.941 351.45C141.412 351.254 142.905 351.596 144.144 352.413C148.356 354.843 151.767 360.747 151.767 365.616L154.467 363.474C154.503 358.614 151.092 352.701 146.88 350.271Z" fill="black"/>
<path d="M202.5 383.733C199.602 383.739 196.752 383.001 194.22 381.591L138.78 350.478C136.997 349.484 135.494 348.055 134.411 346.324C133.329 344.593 132.702 342.617 132.588 340.578L126.486 231.021C126.4 229.524 125.944 228.072 125.159 226.795C124.374 225.518 123.283 224.456 121.986 223.704L117.9 221.265C117.405 220.976 116.995 220.562 116.712 220.063C116.43 219.565 116.283 219.001 116.289 218.428C116.294 217.855 116.451 217.294 116.744 216.801C117.036 216.308 117.454 215.901 117.954 215.622L164.034 189.792C164.226 189.667 164.442 189.582 164.668 189.544C164.895 189.505 165.126 189.514 165.349 189.569C165.572 189.624 165.781 189.724 165.964 189.863C166.146 190.002 166.298 190.178 166.41 190.378C166.522 190.578 166.591 190.799 166.614 191.028C166.637 191.256 166.613 191.487 166.543 191.705C166.473 191.924 166.358 192.126 166.207 192.298C166.056 192.471 165.871 192.61 165.663 192.708L119.763 218.466L123.732 220.788C125.503 221.822 126.99 223.279 128.059 225.029C129.129 226.779 129.748 228.766 129.861 230.814L135.9 340.362C135.98 341.845 136.434 343.283 137.221 344.543C138.008 345.802 139.102 346.841 140.4 347.562L195.849 378.675C197.879 379.804 200.164 380.396 202.487 380.396C204.809 380.396 207.094 379.804 209.124 378.675L249.516 356.031C249.708 355.911 249.922 355.832 250.146 355.798C250.369 355.763 250.598 355.774 250.817 355.83C251.036 355.887 251.241 355.987 251.421 356.124C251.6 356.262 251.75 356.435 251.861 356.632C251.971 356.829 252.041 357.047 252.065 357.272C252.09 357.497 252.068 357.724 252.002 357.941C251.936 358.157 251.827 358.358 251.681 358.531C251.535 358.704 251.356 358.845 251.154 358.947L210.753 381.6C208.23 383.005 205.388 383.74 202.5 383.733Z" fill="#455A64"/>
<path d="M149.733 357.219C149.301 357.221 148.875 357.11 148.5 356.895L138.357 351.207C137.808 350.865 137.413 350.325 137.252 349.699C137.092 349.073 137.179 348.409 137.495 347.846C137.812 347.282 138.334 346.863 138.952 346.674C139.57 346.485 140.237 346.542 140.814 346.833L150.957 352.53C151.442 352.8 151.824 353.223 152.042 353.733C152.26 354.243 152.303 354.812 152.163 355.349C152.022 355.886 151.708 356.361 151.268 356.7C150.828 357.038 150.288 357.221 149.733 357.219Z" fill="#3052C5"/>
<path d="M195.174 382.716C194.746 382.718 194.324 382.609 193.95 382.401L183.798 376.704C183.511 376.54 183.259 376.321 183.056 376.059C182.854 375.797 182.705 375.498 182.618 375.179C182.531 374.86 182.508 374.526 182.55 374.198C182.592 373.87 182.698 373.553 182.862 373.266C183.026 372.979 183.246 372.727 183.507 372.524C183.769 372.322 184.068 372.173 184.387 372.086C184.706 371.999 185.04 371.976 185.368 372.018C185.696 372.06 186.013 372.166 186.3 372.33L196.398 378C196.883 378.27 197.265 378.693 197.483 379.203C197.701 379.714 197.744 380.282 197.604 380.819C197.463 381.356 197.149 381.831 196.709 382.17C196.269 382.508 195.729 382.691 195.174 382.689V382.716Z" fill="#3052C5"/>
<path d="M202.5 383.751C200.342 383.752 198.203 383.339 196.2 382.536C195.986 382.462 195.789 382.345 195.621 382.193C195.454 382.041 195.319 381.856 195.224 381.65C195.13 381.444 195.079 381.221 195.073 380.994C195.068 380.768 195.108 380.542 195.193 380.332C195.277 380.122 195.403 379.931 195.563 379.77C195.723 379.61 195.914 379.484 196.124 379.4C196.335 379.316 196.56 379.275 196.786 379.28C197.013 379.286 197.236 379.337 197.442 379.431C199.047 380.079 200.761 380.412 202.491 380.412C202.721 380.395 202.951 380.426 203.168 380.502C203.385 380.578 203.585 380.698 203.753 380.855C203.922 381.012 204.056 381.202 204.148 381.413C204.24 381.624 204.288 381.851 204.288 382.081C204.288 382.312 204.24 382.539 204.148 382.75C204.056 382.961 203.922 383.151 203.753 383.308C203.585 383.464 203.385 383.585 203.168 383.661C202.951 383.737 202.721 383.768 202.491 383.751H202.5Z" fill="#455A64"/>
<path d="M145.026 352.035C144.587 352.036 144.156 351.922 143.775 351.703C143.395 351.485 143.078 351.17 142.857 350.791C142.637 350.412 142.52 349.981 142.518 349.542C142.516 349.104 142.63 348.672 142.848 348.291L144.702 345.015C144.857 344.714 145.071 344.448 145.331 344.232C145.592 344.016 145.893 343.854 146.217 343.758C146.541 343.661 146.882 343.631 147.218 343.669C147.554 343.707 147.879 343.813 148.173 343.98C148.468 344.146 148.725 344.371 148.931 344.64C149.136 344.909 149.285 345.217 149.368 345.544C149.452 345.872 149.468 346.214 149.416 346.548C149.365 346.882 149.246 347.203 149.067 347.49L147.204 350.766C146.986 351.151 146.669 351.472 146.287 351.695C145.904 351.918 145.469 352.035 145.026 352.035Z" fill="#3052C5"/>
<path d="M147.492 346.851C147.204 346.851 146.921 346.773 146.673 346.626C146.482 346.519 146.313 346.374 146.178 346.201C146.043 346.028 145.943 345.83 145.884 345.619C145.826 345.407 145.81 345.186 145.837 344.968C145.864 344.75 145.934 344.54 146.043 344.349L154.323 329.751C154.936 328.671 155.825 327.773 156.898 327.148C157.972 326.524 159.192 326.195 160.434 326.196H164.547C166.189 326.194 167.762 325.541 168.923 324.38C170.084 323.219 170.737 321.646 170.739 320.004C170.722 319.775 170.753 319.544 170.829 319.327C170.905 319.11 171.026 318.911 171.182 318.742C171.339 318.573 171.529 318.439 171.74 318.347C171.951 318.255 172.178 318.208 172.409 318.208C172.639 318.208 172.866 318.255 173.077 318.347C173.288 318.439 173.478 318.573 173.635 318.742C173.792 318.911 173.912 319.11 173.988 319.327C174.064 319.544 174.095 319.775 174.078 320.004C174.076 322.531 173.071 324.954 171.284 326.741C169.497 328.528 167.074 329.533 164.547 329.535H160.434C159.783 329.535 159.143 329.707 158.581 330.034C158.018 330.361 157.552 330.832 157.23 331.398L148.95 345.996C148.805 346.256 148.594 346.472 148.338 346.622C148.081 346.773 147.789 346.852 147.492 346.851Z" fill="#455A64"/>
<path d="M128.772 243.774C128.406 243.772 128.05 243.651 127.76 243.428C127.469 243.204 127.26 242.892 127.164 242.539C127.068 242.185 127.091 241.81 127.228 241.471C127.366 241.132 127.611 240.847 127.926 240.66L181.926 209.412C182.116 209.302 182.325 209.231 182.542 209.202C182.76 209.173 182.981 209.187 183.193 209.243C183.404 209.3 183.603 209.397 183.777 209.53C183.951 209.664 184.098 209.83 184.208 210.019C184.317 210.209 184.389 210.419 184.418 210.636C184.447 210.853 184.433 211.074 184.376 211.286C184.32 211.498 184.222 211.697 184.089 211.871C183.956 212.045 183.79 212.191 183.6 212.301L129.6 243.549C129.349 243.696 129.063 243.774 128.772 243.774Z" fill="#455A64"/>
<path d="M154.143 358.857C153.856 358.856 153.574 358.781 153.324 358.641L149.778 356.652C149.587 356.545 149.419 356.4 149.284 356.228C149.149 356.056 149.049 355.858 148.99 355.647C148.931 355.436 148.914 355.216 148.941 354.998C148.967 354.781 149.036 354.571 149.144 354.38C149.251 354.189 149.395 354.021 149.568 353.886C149.74 353.751 149.937 353.651 150.148 353.592C150.359 353.533 150.58 353.516 150.798 353.542C151.015 353.569 151.225 353.638 151.416 353.745L154.962 355.725C155.284 355.907 155.537 356.19 155.681 356.53C155.825 356.871 155.853 357.249 155.759 357.607C155.666 357.964 155.456 358.281 155.164 358.507C154.872 358.733 154.513 358.856 154.143 358.857Z" fill="#455A64"/>
<path d="M192.6 270C192.378 270 192.165 269.912 192.008 269.755C191.851 269.598 191.763 269.385 191.763 269.163V223.794C191.751 223.677 191.763 223.56 191.8 223.448C191.836 223.337 191.895 223.234 191.974 223.147C192.052 223.06 192.148 222.99 192.255 222.943C192.362 222.895 192.478 222.87 192.596 222.87C192.713 222.87 192.829 222.895 192.936 222.943C193.043 222.99 193.139 223.06 193.217 223.147C193.296 223.234 193.355 223.337 193.391 223.448C193.428 223.56 193.44 223.677 193.428 223.794V269.181C193.423 269.398 193.334 269.605 193.18 269.758C193.025 269.911 192.817 269.998 192.6 270Z" fill="#263238"/>
<path d="M199.413 273.915C199.191 273.915 198.978 273.827 198.821 273.67C198.664 273.513 198.576 273.3 198.576 273.078V227.7C198.564 227.583 198.576 227.466 198.613 227.354C198.649 227.243 198.708 227.14 198.787 227.053C198.865 226.966 198.961 226.896 199.068 226.849C199.175 226.801 199.291 226.776 199.409 226.776C199.526 226.776 199.642 226.801 199.749 226.849C199.856 226.896 199.952 226.966 200.03 227.053C200.109 227.14 200.168 227.243 200.204 227.354C200.241 227.466 200.253 227.583 200.241 227.7V273.087C200.239 273.306 200.151 273.515 199.996 273.67C199.841 273.825 199.632 273.913 199.413 273.915Z" fill="#263238"/>
<path d="M206.235 277.803C206.125 277.804 206.015 277.784 205.913 277.742C205.811 277.7 205.718 277.639 205.64 277.561C205.563 277.483 205.501 277.39 205.459 277.288C205.418 277.186 205.397 277.076 205.398 276.966V231.579C205.398 231.357 205.486 231.144 205.643 230.987C205.8 230.83 206.013 230.742 206.235 230.742C206.457 230.742 206.67 230.83 206.827 230.987C206.984 231.144 207.072 231.357 207.072 231.579V276.966C207.072 277.188 206.984 277.401 206.827 277.558C206.67 277.715 206.457 277.803 206.235 277.803Z" fill="#263238"/>
<path d="M213.057 281.7C212.947 281.7 212.838 281.679 212.737 281.636C212.635 281.594 212.543 281.533 212.465 281.455C212.388 281.377 212.326 281.285 212.284 281.183C212.242 281.082 212.22 280.973 212.22 280.863V235.476C212.22 235.254 212.308 235.041 212.465 234.884C212.622 234.727 212.835 234.639 213.057 234.639C213.279 234.639 213.492 234.727 213.649 234.884C213.806 235.041 213.894 235.254 213.894 235.476V280.863C213.894 281.085 213.806 281.298 213.649 281.455C213.492 281.612 213.279 281.7 213.057 281.7Z" fill="#263238"/>
<path d="M219.879 285.588C219.657 285.588 219.444 285.5 219.287 285.343C219.13 285.186 219.042 284.973 219.042 284.751V239.4C219.042 239.178 219.13 238.965 219.287 238.808C219.444 238.651 219.657 238.563 219.879 238.563C220.101 238.563 220.314 238.651 220.471 238.808C220.628 238.965 220.716 239.178 220.716 239.4V284.787C220.707 285.003 220.614 285.206 220.458 285.356C220.302 285.505 220.095 285.588 219.879 285.588Z" fill="#263238"/>
<path d="M226.701 289.485C226.479 289.485 226.266 289.397 226.109 289.24C225.952 289.083 225.864 288.87 225.864 288.648V243.261C225.864 243.039 225.952 242.826 226.109 242.669C226.266 242.512 226.479 242.424 226.701 242.424C226.923 242.424 227.136 242.512 227.293 242.669C227.45 242.826 227.538 243.039 227.538 243.261V288.648C227.538 288.87 227.45 289.083 227.293 289.24C227.136 289.397 226.923 289.485 226.701 289.485Z" fill="#263238"/>
<path d="M233.523 293.4C233.301 293.4 233.088 293.312 232.931 293.155C232.774 292.998 232.686 292.785 232.686 292.563V247.149C232.686 246.927 232.774 246.714 232.931 246.557C233.088 246.4 233.301 246.312 233.523 246.312C233.745 246.312 233.958 246.4 234.115 246.557C234.272 246.714 234.36 246.927 234.36 247.149V292.5C234.369 292.615 234.354 292.731 234.315 292.84C234.277 292.949 234.217 293.049 234.138 293.133C234.06 293.218 233.964 293.285 233.859 293.331C233.753 293.377 233.638 293.4 233.523 293.4Z" fill="#263238"/>
<path d="M240.345 297.27C240.123 297.27 239.91 297.182 239.753 297.025C239.596 296.868 239.508 296.655 239.508 296.433V251.046C239.508 250.824 239.596 250.611 239.753 250.454C239.91 250.297 240.123 250.209 240.345 250.209C240.567 250.209 240.78 250.297 240.937 250.454C241.094 250.611 241.182 250.824 241.182 251.046V296.433C241.182 296.655 241.094 296.868 240.937 297.025C240.78 297.182 240.567 297.27 240.345 297.27Z" fill="#263238"/>
<path d="M247.167 301.158C246.945 301.158 246.732 301.07 246.575 300.913C246.418 300.756 246.33 300.543 246.33 300.321V254.934C246.33 254.712 246.418 254.499 246.575 254.342C246.732 254.185 246.945 254.097 247.167 254.097C247.389 254.097 247.602 254.185 247.759 254.342C247.916 254.499 248.004 254.712 248.004 254.934V300.321C248.004 300.543 247.916 300.756 247.759 300.913C247.602 301.07 247.389 301.158 247.167 301.158Z" fill="#263238"/>
<path d="M253.989 305.1C253.879 305.1 253.77 305.078 253.669 305.036C253.567 304.994 253.475 304.933 253.397 304.855C253.32 304.777 253.258 304.685 253.216 304.583C253.174 304.482 253.152 304.373 253.152 304.263V258.831C253.152 258.609 253.24 258.396 253.397 258.239C253.554 258.082 253.767 257.994 253.989 257.994C254.211 257.994 254.424 258.082 254.581 258.239C254.738 258.396 254.826 258.609 254.826 258.831V304.2C254.835 304.315 254.82 304.431 254.781 304.54C254.743 304.649 254.683 304.749 254.604 304.833C254.526 304.918 254.431 304.985 254.325 305.031C254.219 305.077 254.105 305.1 253.989 305.1Z" fill="#263238"/>
<path d="M260.811 308.943C260.589 308.943 260.376 308.855 260.219 308.698C260.062 308.541 259.974 308.328 259.974 308.106V262.719C259.974 262.497 260.062 262.284 260.219 262.127C260.376 261.97 260.589 261.882 260.811 261.882C261.033 261.882 261.246 261.97 261.403 262.127C261.56 262.284 261.648 262.497 261.648 262.719V308.106C261.649 308.216 261.628 308.326 261.587 308.428C261.545 308.53 261.484 308.623 261.406 308.701C261.328 308.779 261.235 308.84 261.133 308.882C261.031 308.923 260.921 308.944 260.811 308.943Z" fill="#263238"/>
<path d="M267.633 312.84C267.413 312.838 267.202 312.748 267.047 312.592C266.892 312.435 266.805 312.224 266.805 312.003V266.616C266.793 266.499 266.805 266.382 266.842 266.27C266.878 266.159 266.937 266.056 267.016 265.969C267.094 265.882 267.19 265.812 267.297 265.765C267.404 265.717 267.52 265.692 267.638 265.692C267.755 265.692 267.871 265.717 267.978 265.765C268.085 265.812 268.181 265.882 268.259 265.969C268.338 266.056 268.397 266.159 268.433 266.27C268.47 266.382 268.482 266.499 268.47 266.616V312.003C268.47 312.225 268.382 312.438 268.225 312.595C268.068 312.752 267.855 312.84 267.633 312.84Z" fill="#263238"/>
<path d="M274.5 312.84C274.28 312.838 274.069 312.748 273.914 312.592C273.759 312.435 273.672 312.223 273.672 312.003V270.504C273.66 270.387 273.672 270.27 273.709 270.158C273.745 270.047 273.804 269.944 273.883 269.857C273.961 269.77 274.057 269.7 274.164 269.653C274.271 269.605 274.387 269.58 274.504 269.58C274.622 269.58 274.738 269.605 274.845 269.653C274.952 269.7 275.048 269.77 275.126 269.857C275.205 269.944 275.264 270.047 275.3 270.158C275.337 270.27 275.349 270.387 275.337 270.504V312.003C275.337 312.225 275.249 312.438 275.092 312.595C274.935 312.752 274.722 312.84 274.5 312.84Z" fill="#263238"/>
<path d="M281.286 306.99C281.177 306.991 281.068 306.971 280.966 306.93C280.865 306.888 280.773 306.828 280.695 306.751C280.617 306.674 280.555 306.582 280.513 306.481C280.471 306.38 280.449 306.271 280.449 306.162V274.401C280.437 274.284 280.449 274.167 280.486 274.055C280.522 273.944 280.581 273.841 280.66 273.754C280.738 273.667 280.834 273.597 280.941 273.55C281.048 273.502 281.164 273.477 281.282 273.477C281.399 273.477 281.515 273.502 281.622 273.55C281.729 273.597 281.825 273.667 281.903 273.754C281.982 273.841 282.041 273.944 282.077 274.055C282.114 274.167 282.126 274.284 282.114 274.401V306.162C282.114 306.271 282.093 306.378 282.051 306.479C282.009 306.579 281.948 306.671 281.872 306.747C281.795 306.824 281.703 306.885 281.603 306.927C281.502 306.969 281.395 306.99 281.286 306.99Z" fill="#263238"/>
<path d="M288.108 300.204C287.886 300.204 287.673 300.116 287.516 299.959C287.359 299.802 287.271 299.589 287.271 299.367V278.289C287.271 278.067 287.359 277.854 287.516 277.697C287.673 277.54 287.886 277.452 288.108 277.452C288.33 277.452 288.543 277.54 288.7 277.697C288.857 277.854 288.945 278.067 288.945 278.289V299.367C288.945 299.589 288.857 299.802 288.7 299.959C288.543 300.116 288.33 300.204 288.108 300.204Z" fill="#263238"/>
<path d="M294.93 294.057C294.708 294.057 294.495 293.969 294.338 293.812C294.181 293.655 294.093 293.442 294.093 293.22V282.186C294.093 281.964 294.181 281.751 294.338 281.594C294.495 281.437 294.708 281.349 294.93 281.349C295.152 281.349 295.365 281.437 295.522 281.594C295.679 281.751 295.767 281.964 295.767 282.186V293.22C295.767 293.442 295.679 293.655 295.522 293.812C295.365 293.969 295.152 294.057 294.93 294.057Z" fill="#263238"/>
<path d="M294.966 294.831C294.82 294.833 294.676 294.792 294.552 294.714L183.528 231.111C183.424 231.062 183.331 230.991 183.255 230.904C183.179 230.818 183.122 230.716 183.087 230.606C183.052 230.496 183.041 230.38 183.053 230.265C183.065 230.15 183.101 230.039 183.159 229.939C183.216 229.839 183.293 229.751 183.386 229.682C183.479 229.614 183.584 229.565 183.697 229.539C183.809 229.513 183.926 229.51 184.039 229.531C184.153 229.553 184.261 229.597 184.356 229.662L295.38 293.265C295.572 293.376 295.712 293.559 295.77 293.773C295.827 293.987 295.797 294.216 295.686 294.408C295.614 294.536 295.51 294.643 295.383 294.717C295.257 294.791 295.113 294.831 294.966 294.831Z" fill="#263238"/>
<path d="M287.1 301.68C286.955 301.678 286.813 301.641 286.686 301.572L184.815 243.207C184.629 243.099 184.492 242.924 184.434 242.717C184.375 242.511 184.399 242.289 184.5 242.1C184.554 242.004 184.627 241.92 184.714 241.852C184.801 241.785 184.9 241.735 185.006 241.705C185.112 241.676 185.223 241.668 185.333 241.682C185.442 241.695 185.547 241.731 185.643 241.785L287.505 300.15C287.669 300.238 287.799 300.379 287.873 300.55C287.947 300.721 287.961 300.912 287.913 301.092C287.865 301.272 287.758 301.431 287.609 301.542C287.46 301.654 287.277 301.712 287.091 301.707L287.1 301.68Z" fill="#263238"/>
<path d="M279.81 308.871C279.664 308.871 279.521 308.83 279.396 308.754L185.472 254.943C185.376 254.889 185.292 254.816 185.224 254.729C185.157 254.643 185.107 254.543 185.077 254.437C185.048 254.331 185.04 254.22 185.054 254.111C185.067 254.001 185.103 253.896 185.157 253.8C185.27 253.61 185.453 253.471 185.666 253.414C185.88 253.357 186.107 253.386 186.3 253.494L280.233 307.305C280.423 307.418 280.562 307.601 280.619 307.814C280.676 308.028 280.648 308.255 280.539 308.448C280.467 308.577 280.361 308.685 280.232 308.759C280.104 308.834 279.958 308.872 279.81 308.871Z" fill="#263238"/>
<path d="M272.421 316.404C272.127 316.405 271.838 316.327 271.584 316.179L186.39 267.372C186.004 267.151 185.722 266.786 185.606 266.358C185.49 265.929 185.548 265.472 185.769 265.086C185.99 264.701 186.355 264.419 186.783 264.302C187.212 264.186 187.669 264.244 188.055 264.465L272.187 312.669L299.979 287.1L184.365 220.86C184.008 220.626 183.754 220.264 183.654 219.849C183.555 219.434 183.618 218.996 183.831 218.626C184.044 218.256 184.39 217.981 184.799 217.857C185.207 217.734 185.648 217.771 186.03 217.962L303.624 285.3C303.851 285.433 304.043 285.617 304.187 285.837C304.331 286.057 304.421 286.308 304.452 286.569C304.48 286.83 304.447 287.093 304.355 287.339C304.263 287.584 304.114 287.805 303.921 287.982L273.546 315.972C273.238 316.251 272.837 316.405 272.421 316.404Z" fill="#263238"/>
<path d="M138.6 299.826C138.454 299.828 138.31 299.79 138.184 299.717C138.057 299.644 137.952 299.539 137.88 299.412C137.824 299.317 137.787 299.212 137.772 299.103C137.757 298.994 137.764 298.883 137.793 298.776C137.821 298.67 137.871 298.57 137.938 298.483C138.006 298.396 138.09 298.323 138.186 298.269L190.125 268.074C190.22 268.016 190.326 267.977 190.437 267.96C190.548 267.943 190.66 267.948 190.769 267.976C190.877 268.003 190.979 268.052 191.068 268.12C191.157 268.187 191.232 268.272 191.288 268.369C191.344 268.465 191.38 268.572 191.394 268.683C191.408 268.794 191.399 268.907 191.369 269.015C191.339 269.122 191.287 269.223 191.217 269.31C191.147 269.397 191.06 269.47 190.962 269.523L139.059 299.7C138.92 299.783 138.762 299.826 138.6 299.826Z" fill="#37474F"/>
<path d="M145.458 303.723C145.312 303.723 145.169 303.684 145.043 303.612C144.917 303.539 144.812 303.435 144.738 303.309C144.682 303.214 144.645 303.109 144.63 303C144.615 302.891 144.622 302.78 144.651 302.673C144.679 302.567 144.729 302.467 144.796 302.38C144.864 302.293 144.948 302.22 145.044 302.166L196.983 271.971C197.078 271.903 197.186 271.855 197.3 271.83C197.415 271.806 197.533 271.806 197.647 271.83C197.762 271.854 197.87 271.902 197.965 271.971C198.059 272.04 198.139 272.127 198.198 272.228C198.256 272.33 198.293 272.442 198.306 272.558C198.319 272.674 198.307 272.792 198.271 272.904C198.236 273.015 198.177 273.118 198.099 273.205C198.022 273.293 197.927 273.363 197.82 273.411L145.881 303.606C145.753 303.683 145.607 303.724 145.458 303.723Z" fill="#37474F"/>
<path d="M152.289 307.611C152.106 307.61 151.928 307.549 151.783 307.438C151.638 307.326 151.533 307.17 151.485 306.994C151.437 306.817 151.448 306.629 151.517 306.46C151.586 306.29 151.709 306.147 151.866 306.054L203.805 275.859C203.997 275.755 204.221 275.73 204.431 275.79C204.641 275.849 204.819 275.988 204.928 276.176C205.037 276.365 205.069 276.589 205.015 276.8C204.962 277.012 204.828 277.194 204.642 277.308L152.703 307.503C152.576 307.572 152.434 307.609 152.289 307.611Z" fill="#37474F"/>
<path d="M159.111 311.508C158.965 311.503 158.822 311.463 158.695 311.391C158.568 311.319 158.461 311.217 158.382 311.094C158.274 310.901 158.245 310.674 158.302 310.46C158.359 310.247 158.498 310.064 158.688 309.951L210.6 279.756C210.695 279.687 210.803 279.639 210.917 279.615C211.032 279.591 211.15 279.591 211.264 279.615C211.379 279.639 211.487 279.687 211.582 279.756C211.677 279.824 211.756 279.912 211.815 280.013C211.873 280.114 211.91 280.227 211.923 280.343C211.936 280.459 211.924 280.577 211.888 280.688C211.853 280.8 211.794 280.903 211.716 280.99C211.639 281.078 211.544 281.148 211.437 281.196L159.525 311.4C159.4 311.474 159.256 311.511 159.111 311.508Z" fill="#37474F"/>
<path d="M165.933 315.396C165.75 315.395 165.572 315.334 165.427 315.223C165.282 315.111 165.177 314.955 165.129 314.778C165.081 314.602 165.092 314.414 165.161 314.244C165.23 314.075 165.353 313.932 165.51 313.839L217.449 283.644C217.641 283.532 217.87 283.501 218.085 283.557C218.3 283.614 218.484 283.753 218.597 283.945C218.709 284.138 218.74 284.366 218.683 284.582C218.627 284.797 218.487 284.981 218.295 285.093L166.347 315.288C166.221 315.359 166.078 315.396 165.933 315.396Z" fill="#37474F"/>
<path d="M172.8 319.293C172.654 319.288 172.511 319.248 172.384 319.176C172.257 319.104 172.15 319.002 172.071 318.879C171.962 318.686 171.934 318.459 171.991 318.245C172.048 318.032 172.187 317.849 172.377 317.736L224.316 287.541C224.411 287.476 224.518 287.432 224.63 287.41C224.743 287.389 224.859 287.39 224.971 287.415C225.083 287.441 225.188 287.488 225.281 287.556C225.374 287.623 225.452 287.709 225.51 287.808C225.568 287.907 225.605 288.017 225.619 288.131C225.633 288.245 225.623 288.36 225.591 288.47C225.558 288.58 225.503 288.682 225.429 288.77C225.356 288.858 225.265 288.93 225.162 288.981L173.214 319.176C173.09 319.254 172.946 319.295 172.8 319.293Z" fill="#37474F"/>
<path d="M179.577 323.181C179.431 323.183 179.287 323.145 179.161 323.072C179.034 322.999 178.929 322.894 178.857 322.767C178.745 322.576 178.714 322.349 178.77 322.134C178.825 321.92 178.963 321.737 179.154 321.624L231.093 291.429C231.188 291.373 231.293 291.336 231.402 291.321C231.511 291.306 231.622 291.313 231.729 291.342C231.835 291.37 231.935 291.42 232.022 291.487C232.109 291.555 232.182 291.639 232.236 291.735C232.348 291.926 232.379 292.154 232.323 292.368C232.268 292.582 232.13 292.766 231.939 292.878L180 323.1C179.869 323.164 179.723 323.192 179.577 323.181Z" fill="#37474F"/>
<path d="M186.399 327.078C186.216 327.077 186.038 327.016 185.893 326.905C185.748 326.793 185.643 326.637 185.595 326.46C185.547 326.284 185.558 326.096 185.627 325.926C185.696 325.757 185.818 325.614 185.976 325.521L237.915 295.326C238.105 295.231 238.323 295.212 238.527 295.272C238.73 295.333 238.903 295.468 239.011 295.651C239.118 295.834 239.152 296.051 239.106 296.258C239.059 296.465 238.936 296.646 238.761 296.766L186.822 326.961C186.694 327.038 186.548 327.079 186.399 327.078Z" fill="#37474F"/>
<path d="M193.221 330.966C193.075 330.967 192.931 330.93 192.805 330.857C192.678 330.784 192.573 330.679 192.501 330.552C192.389 330.361 192.358 330.133 192.414 329.919C192.469 329.705 192.608 329.522 192.798 329.409L244.746 299.214C244.841 299.158 244.946 299.121 245.055 299.106C245.164 299.091 245.275 299.098 245.382 299.127C245.488 299.155 245.588 299.205 245.675 299.272C245.762 299.34 245.835 299.424 245.889 299.52C245.998 299.713 246.026 299.94 245.969 300.154C245.912 300.368 245.773 300.55 245.583 300.663L193.644 330.858C193.514 330.928 193.369 330.965 193.221 330.966Z" fill="#37474F"/>
<path d="M200.043 334.863C199.86 334.862 199.682 334.801 199.537 334.69C199.392 334.578 199.287 334.422 199.239 334.245C199.191 334.069 199.202 333.881 199.271 333.711C199.34 333.542 199.463 333.399 199.62 333.306L251.568 303.111C251.759 302.999 251.987 302.968 252.201 303.023C252.415 303.079 252.598 303.217 252.711 303.408C252.82 303.601 252.848 303.828 252.791 304.042C252.734 304.255 252.595 304.438 252.405 304.551L200.466 334.746C200.338 334.823 200.192 334.864 200.043 334.863Z" fill="#37474F"/>
<path d="M206.865 338.751C206.719 338.752 206.575 338.715 206.449 338.642C206.322 338.569 206.217 338.464 206.145 338.337C206.089 338.242 206.052 338.137 206.037 338.028C206.022 337.919 206.029 337.808 206.058 337.701C206.086 337.595 206.136 337.495 206.203 337.408C206.271 337.321 206.355 337.248 206.451 337.194L258.39 306.999C258.485 306.94 258.591 306.902 258.702 306.885C258.813 306.868 258.925 306.873 259.034 306.901C259.142 306.928 259.244 306.977 259.333 307.044C259.422 307.112 259.497 307.197 259.553 307.293C259.609 307.39 259.645 307.497 259.659 307.608C259.673 307.719 259.664 307.832 259.634 307.94C259.604 308.047 259.552 308.148 259.482 308.235C259.412 308.322 259.325 308.395 259.227 308.448L207.288 338.643C207.158 338.713 207.013 338.75 206.865 338.751Z" fill="#37474F"/>
<path d="M213.687 342.648C213.541 342.648 213.398 342.609 213.272 342.537C213.146 342.464 213.041 342.36 212.967 342.234C212.913 342.138 212.879 342.032 212.867 341.923C212.855 341.813 212.865 341.703 212.896 341.597C212.927 341.492 212.978 341.393 213.048 341.308C213.117 341.222 213.203 341.152 213.3 341.1L265.239 310.905C265.334 310.836 265.442 310.788 265.556 310.764C265.671 310.74 265.789 310.74 265.904 310.764C266.018 310.788 266.126 310.836 266.221 310.905C266.316 310.973 266.395 311.061 266.454 311.162C266.512 311.263 266.549 311.376 266.562 311.492C266.575 311.608 266.563 311.726 266.527 311.837C266.492 311.949 266.433 312.052 266.356 312.139C266.278 312.226 266.183 312.297 266.076 312.345L214.11 342.531C213.983 342.608 213.836 342.649 213.687 342.648Z" fill="#37474F"/>
<path d="M193.491 321.48L151.965 297.513V240.588L193.491 264.564V321.48Z" fill="#3052C5"/>
<path d="M193.491 321.48V264.564L235.008 240.588V297.513L193.491 321.48Z" fill="#3052C5"/>
<path opacity="0.5" d="M193.491 321.48L151.965 297.513V240.588L193.491 264.564V321.48Z" fill="black"/>
<path opacity="0.7" d="M193.491 321.48V264.564L235.008 240.588V297.513L193.491 321.48Z" fill="black"/>
<path d="M193.491 262.242L148.743 236.412L193.491 210.573L238.23 236.412L193.491 262.242Z" fill="#3052C5"/>
<path d="M168.201 225.171L212.949 251.01L218.772 247.644L174.033 221.814L168.201 225.171Z" fill="#3052C5"/>
<path opacity="0.8" d="M168.201 225.171L212.949 251.01L218.772 247.644L174.033 221.814L168.201 225.171Z" fill="white"/>
<path d="M218.772 225.171L174.033 251.01L168.201 247.644L212.949 221.814L218.772 225.171Z" fill="#3052C5"/>
<path opacity="0.8" d="M218.772 225.171L174.033 251.01L168.201 247.644L212.949 221.814L218.772 225.171Z" fill="white"/>
<path d="M193.491 271.179L148.743 245.34V236.412L193.491 262.242V271.179Z" fill="#3052C5"/>
<path d="M193.491 271.179V262.242L238.23 236.412V245.349L193.491 271.179Z" fill="#3052C5"/>
<path opacity="0.3" d="M193.491 271.179L148.743 245.34V236.412L193.491 262.242V271.179Z" fill="black"/>
<path opacity="0.5" d="M193.491 271.179V262.242L238.23 236.412V245.349L193.491 271.179Z" fill="black"/>
<path d="M174.033 310.284L168.201 306.945V247.644L174.033 251.01V310.284Z" fill="#3052C5"/>
<path d="M212.949 310.284L218.772 306.945V247.644L212.949 251.01V310.284Z" fill="#3052C5"/>
<path d="M214.839 259.866C214.807 260.494 214.628 261.106 214.315 261.652C214.002 262.198 213.565 262.662 213.039 263.007C212.04 263.592 211.239 263.115 211.239 261.963C211.273 261.334 211.453 260.722 211.766 260.175C212.078 259.628 212.514 259.162 213.039 258.813C214.029 258.237 214.839 258.705 214.839 259.866Z" fill="#3052C5"/>
<path d="M233.73 248.958C233.697 249.586 233.517 250.197 233.204 250.743C232.892 251.288 232.455 251.753 231.93 252.099C230.922 252.675 230.13 252.207 230.13 251.055C230.162 250.425 230.341 249.812 230.654 249.265C230.967 248.718 231.404 248.252 231.93 247.905C232.92 247.329 233.73 247.797 233.73 248.958Z" fill="#3052C5"/>
<path d="M213.021 261.387C212.782 261.387 212.553 261.292 212.385 261.124C212.216 260.955 212.121 260.726 212.121 260.487V247.959C212.129 245.36 212.805 242.807 214.085 240.545C215.365 238.284 217.205 236.389 219.429 235.044L223.857 232.344C224.749 231.807 225.768 231.516 226.809 231.502C227.851 231.487 228.877 231.75 229.784 232.263C230.69 232.775 231.444 233.52 231.968 234.42C232.492 235.32 232.768 236.343 232.767 237.384V249.552C232.767 249.791 232.672 250.02 232.503 250.189C232.335 250.357 232.106 250.452 231.867 250.452C231.628 250.452 231.399 250.357 231.231 250.189C231.062 250.02 230.967 249.791 230.967 249.552V237.429C230.968 236.699 230.775 235.982 230.407 235.351C230.04 234.72 229.512 234.198 228.876 233.838C228.241 233.478 227.521 233.294 226.791 233.303C226.061 233.313 225.347 233.516 224.721 233.892L220.293 236.547C218.326 237.734 216.698 239.408 215.564 241.406C214.431 243.405 213.831 245.662 213.822 247.959V260.514C213.817 260.732 213.733 260.94 213.586 261.101C213.438 261.262 213.238 261.363 213.021 261.387Z" fill="#3052C5"/>
<path opacity="0.9" d="M213.021 261.387C212.782 261.387 212.553 261.292 212.385 261.124C212.216 260.955 212.121 260.726 212.121 260.487V247.959C212.129 245.36 212.805 242.807 214.085 240.545C215.365 238.284 217.205 236.389 219.429 235.044L223.857 232.344C224.749 231.807 225.768 231.516 226.809 231.502C227.851 231.487 228.877 231.75 229.784 232.263C230.69 232.775 231.444 233.52 231.968 234.42C232.492 235.32 232.768 236.343 232.767 237.384V249.552C232.767 249.791 232.672 250.02 232.503 250.189C232.335 250.357 232.106 250.452 231.867 250.452C231.628 250.452 231.399 250.357 231.231 250.189C231.062 250.02 230.967 249.791 230.967 249.552V237.429C230.968 236.699 230.775 235.982 230.407 235.351C230.04 234.72 229.512 234.198 228.876 233.838C228.241 233.478 227.521 233.294 226.791 233.303C226.061 233.313 225.347 233.516 224.721 233.892L220.293 236.547C218.326 237.734 216.698 239.408 215.564 241.406C214.431 243.405 213.831 245.662 213.822 247.959V260.514C213.817 260.732 213.733 260.94 213.586 261.101C213.438 261.262 213.238 261.363 213.021 261.387Z" fill="black"/>
<path d="M241.569 238.365L263.106 251.847V312.885L241.569 299.403V238.365Z" fill="#3052C5"/>
<path d="M198.918 324.027V262.989L241.569 238.365V299.403L198.918 324.027Z" fill="#3052C5"/>
<path opacity="0.3" d="M198.918 324.027V262.989L241.569 238.365V299.403L198.918 324.027Z" fill="black"/>
<path d="M202.005 306L207.963 271.098C208.505 267.941 209.736 264.942 211.566 262.314C213.397 259.685 215.783 257.492 218.556 255.888L240.903 243C242.166 242.271 243.589 241.864 245.047 241.814C246.505 241.763 247.952 242.072 249.263 242.711C250.574 243.351 251.707 244.303 252.564 245.483C253.421 246.663 253.975 248.036 254.178 249.48L260.1 291.51C260.905 297.242 259.45 303.063 256.043 307.742C252.635 312.421 247.542 315.591 241.839 316.584L216.9 320.904C214.866 321.25 212.778 321.103 210.813 320.476C208.847 319.849 207.06 318.761 205.601 317.301C204.143 315.842 203.055 314.054 202.429 312.088C201.804 310.122 201.658 308.034 202.005 306Z" fill="#3052C5"/>
<path opacity="0.8" d="M202.005 306L207.963 271.098C208.505 267.941 209.736 264.942 211.566 262.314C213.397 259.685 215.783 257.492 218.556 255.888L240.903 243C242.166 242.271 243.589 241.864 245.047 241.814C246.505 241.763 247.952 242.072 249.263 242.711C250.574 243.351 251.707 244.303 252.564 245.483C253.421 246.663 253.975 248.036 254.178 249.48L260.1 291.51C260.905 297.242 259.45 303.063 256.043 307.742C252.635 312.421 247.542 315.591 241.839 316.584L216.9 320.904C214.866 321.25 212.778 321.103 210.813 320.476C208.847 319.849 207.06 318.761 205.601 317.301C204.143 315.842 203.055 314.054 202.429 312.088C201.804 310.122 201.658 308.034 202.005 306Z" fill="white"/>
<path d="M220.464 337.509V276.471L263.106 251.847V312.885L220.464 337.509Z" fill="#3052C5"/>
<path opacity="0.5" d="M220.464 337.509V276.471L263.106 251.847V312.885L220.464 337.509Z" fill="black"/>
<path d="M198.918 262.989L220.464 276.471V337.509L198.918 324.027V262.989Z" fill="#3052C5"/>
<path opacity="0.3" d="M209.691 319.86V269.739L220.464 276.471V337.509L209.691 319.86Z" fill="black"/>
<path d="M234.153 274.302C234.121 274.932 233.942 275.545 233.629 276.092C233.317 276.639 232.879 277.105 232.353 277.452C231.354 278.028 230.553 277.56 230.553 276.399C230.585 275.771 230.764 275.159 231.077 274.613C231.39 274.067 231.827 273.603 232.353 273.258C233.343 272.7 234.153 273.15 234.153 274.302Z" fill="#3052C5"/>
<path d="M253.053 263.394C253.021 264.022 252.841 264.634 252.528 265.18C252.215 265.725 251.779 266.19 251.253 266.535C250.245 267.12 249.453 266.652 249.453 265.491C249.484 264.863 249.663 264.25 249.976 263.704C250.289 263.159 250.726 262.694 251.253 262.35C252.234 261.765 253.053 262.242 253.053 263.394Z" fill="#3052C5"/>
<path d="M232.335 275.823C232.096 275.823 231.867 275.728 231.699 275.559C231.53 275.391 231.435 275.162 231.435 274.923V262.404C231.441 259.803 232.118 257.247 233.4 254.983C234.681 252.719 236.525 250.824 238.752 249.48L243.18 246.825C244.072 246.29 245.09 246.001 246.13 245.988C247.17 245.975 248.195 246.238 249.1 246.75C250.005 247.263 250.758 248.006 251.282 248.905C251.805 249.803 252.081 250.825 252.081 251.865V264.042C252.114 264.175 252.117 264.313 252.089 264.447C252.06 264.581 252.002 264.707 251.918 264.814C251.833 264.922 251.726 265.01 251.603 265.07C251.48 265.13 251.345 265.161 251.208 265.161C251.071 265.161 250.936 265.13 250.813 265.07C250.69 265.01 250.583 264.922 250.499 264.814C250.414 264.707 250.356 264.581 250.328 264.447C250.299 264.313 250.302 264.175 250.335 264.042V251.865C250.334 251.135 250.139 250.418 249.771 249.787C249.402 249.156 248.873 248.635 248.237 248.275C247.602 247.916 246.882 247.731 246.152 247.74C245.421 247.75 244.707 247.952 244.08 248.328L239.652 250.983C237.685 252.172 236.057 253.847 234.925 255.847C233.793 257.848 233.196 260.106 233.19 262.404V274.95C233.184 275.176 233.092 275.392 232.933 275.554C232.775 275.716 232.561 275.812 232.335 275.823Z" fill="#3052C5"/>
<path opacity="0.9" d="M232.335 275.823C232.096 275.823 231.867 275.728 231.699 275.559C231.53 275.391 231.435 275.162 231.435 274.923V262.404C231.441 259.803 232.118 257.247 233.4 254.983C234.681 252.719 236.525 250.824 238.752 249.48L243.18 246.825C244.072 246.29 245.09 246.001 246.13 245.988C247.17 245.975 248.195 246.238 249.1 246.75C250.005 247.263 250.758 248.006 251.282 248.905C251.805 249.803 252.081 250.825 252.081 251.865V264.042C252.114 264.175 252.117 264.313 252.089 264.447C252.06 264.581 252.002 264.707 251.918 264.814C251.833 264.922 251.726 265.01 251.603 265.07C251.48 265.13 251.345 265.161 251.208 265.161C251.071 265.161 250.936 265.13 250.813 265.07C250.69 265.01 250.583 264.922 250.499 264.814C250.414 264.707 250.356 264.581 250.328 264.447C250.299 264.313 250.302 264.175 250.335 264.042V251.865C250.334 251.135 250.139 250.418 249.771 249.787C249.402 249.156 248.873 248.635 248.237 248.275C247.602 247.916 246.882 247.731 246.152 247.74C245.421 247.75 244.707 247.952 244.08 248.328L239.652 250.983C237.685 252.172 236.057 253.847 234.925 255.847C233.793 257.848 233.196 260.106 233.19 262.404V274.95C233.184 275.176 233.092 275.392 232.933 275.554C232.775 275.716 232.561 275.812 232.335 275.823Z" fill="black"/>
<path d="M247.401 318.906C247.029 318.907 246.668 318.784 246.374 318.556C246.079 318.329 245.869 318.01 245.776 317.65C245.684 317.29 245.713 316.909 245.861 316.568C246.008 316.227 246.265 315.944 246.591 315.765L301.986 285.3C302.37 285.123 302.807 285.098 303.209 285.231C303.611 285.363 303.948 285.643 304.152 286.013C304.356 286.384 304.413 286.818 304.31 287.228C304.207 287.639 303.952 287.995 303.597 288.225L248.202 318.69C247.958 318.83 247.682 318.905 247.401 318.906Z" fill="#37474F"/>
<path d="M217.026 346.887C216.724 346.885 216.428 346.8 216.171 346.642C215.914 346.483 215.705 346.256 215.568 345.987C215.462 345.795 215.394 345.584 215.37 345.366C215.345 345.148 215.364 344.927 215.425 344.717C215.486 344.506 215.588 344.309 215.725 344.138C215.863 343.967 216.033 343.824 216.225 343.719L271.611 313.227C271.999 313.025 272.451 312.983 272.87 313.11C273.289 313.237 273.641 313.523 273.852 313.906C274.062 314.29 274.114 314.741 273.997 315.162C273.879 315.583 273.601 315.942 273.222 316.161L217.8 346.68C217.563 346.812 217.297 346.883 217.026 346.887Z" fill="#37474F"/>
<path d="M258.066 323.766C257.951 323.767 257.837 323.743 257.731 323.696C257.626 323.65 257.531 323.582 257.454 323.496C257.304 323.333 257.225 323.118 257.234 322.897C257.242 322.676 257.337 322.468 257.499 322.317L287.874 294.3C288.037 294.15 288.252 294.071 288.473 294.079C288.694 294.088 288.902 294.183 289.053 294.345C289.203 294.509 289.283 294.726 289.274 294.948C289.266 295.171 289.17 295.381 289.008 295.533L258.633 323.514C258.56 323.591 258.472 323.653 258.375 323.696C258.277 323.74 258.172 323.763 258.066 323.766Z" fill="#37474F"/>
<path d="M231.516 338.292C231.401 338.293 231.287 338.269 231.181 338.222C231.076 338.176 230.981 338.107 230.904 338.022C230.829 337.942 230.77 337.848 230.732 337.745C230.693 337.642 230.675 337.533 230.68 337.423C230.684 337.313 230.71 337.206 230.756 337.106C230.802 337.006 230.868 336.917 230.949 336.843L261.324 308.853C261.405 308.778 261.5 308.721 261.603 308.683C261.706 308.645 261.816 308.628 261.926 308.633C262.036 308.637 262.144 308.663 262.244 308.71C262.343 308.756 262.433 308.821 262.507 308.902C262.582 308.983 262.64 309.078 262.678 309.182C262.715 309.285 262.732 309.395 262.728 309.504C262.723 309.614 262.697 309.722 262.651 309.822C262.604 309.922 262.539 310.011 262.458 310.086L232.083 338.076C231.927 338.216 231.725 338.293 231.516 338.292Z" fill="#37474F"/>
<path d="M244.458 330.984C244.343 330.985 244.229 330.961 244.123 330.914C244.018 330.868 243.923 330.8 243.846 330.714C243.771 330.634 243.712 330.54 243.674 330.437C243.635 330.334 243.618 330.225 243.622 330.115C243.626 330.006 243.652 329.898 243.698 329.798C243.744 329.699 243.81 329.609 243.891 329.535L274.266 301.545C274.346 301.471 274.441 301.414 274.543 301.376C274.646 301.339 274.754 301.322 274.864 301.327C274.973 301.331 275.08 301.357 275.179 301.403C275.278 301.449 275.367 301.514 275.441 301.595C275.514 301.675 275.572 301.769 275.609 301.872C275.647 301.974 275.664 302.083 275.659 302.192C275.654 302.301 275.628 302.408 275.582 302.507C275.536 302.606 275.471 302.695 275.391 302.769L245.025 330.759C244.873 330.905 244.669 330.986 244.458 330.984Z" fill="#37474F"/>
<path d="M217.026 346.887C216.736 346.887 216.451 346.812 216.198 346.671L131.004 297.9C130.62 297.68 130.338 297.317 130.222 296.89C130.106 296.463 130.163 296.007 130.383 295.623C130.603 295.239 130.966 294.957 131.393 294.841C131.82 294.724 132.276 294.782 132.66 295.002L216.792 343.206L244.593 317.592L128.979 251.352C128.595 251.132 128.313 250.769 128.197 250.342C128.081 249.915 128.138 249.459 128.358 249.075C128.578 248.691 128.941 248.409 129.368 248.293C129.795 248.176 130.251 248.234 130.635 248.454L248.229 315.828C248.461 315.958 248.658 316.141 248.805 316.362C248.952 316.583 249.044 316.836 249.074 317.1C249.104 317.363 249.07 317.63 248.977 317.879C248.883 318.127 248.732 318.35 248.535 318.528L218.16 346.518C217.842 346.779 217.437 346.911 217.026 346.887Z" fill="#455A64"/>
<path d="M137.799 300.663C137.69 300.663 137.581 300.641 137.48 300.599C137.379 300.557 137.287 300.495 137.21 300.417C137.133 300.34 137.073 300.247 137.031 300.146C136.99 300.044 136.97 299.936 136.971 299.826V254.439C136.959 254.322 136.971 254.205 137.008 254.093C137.044 253.982 137.103 253.879 137.182 253.792C137.26 253.705 137.356 253.635 137.463 253.588C137.57 253.54 137.686 253.515 137.804 253.515C137.921 253.515 138.037 253.54 138.144 253.588C138.251 253.635 138.347 253.705 138.425 253.792C138.504 253.879 138.563 253.982 138.599 254.093C138.636 254.205 138.648 254.322 138.636 254.439V299.826C138.637 299.936 138.616 300.046 138.575 300.148C138.533 300.25 138.472 300.343 138.394 300.421C138.316 300.499 138.223 300.56 138.121 300.602C138.019 300.643 137.909 300.664 137.799 300.663Z" fill="#455A64"/>
<path d="M144.63 304.56C144.52 304.56 144.411 304.538 144.31 304.496C144.208 304.454 144.116 304.393 144.038 304.315C143.96 304.237 143.899 304.145 143.857 304.043C143.815 303.942 143.793 303.833 143.793 303.723V258.3C143.781 258.184 143.793 258.066 143.83 257.954C143.866 257.843 143.925 257.74 144.004 257.653C144.082 257.566 144.178 257.496 144.285 257.449C144.392 257.401 144.508 257.376 144.626 257.376C144.743 257.376 144.859 257.401 144.966 257.449C145.073 257.496 145.169 257.566 145.247 257.653C145.326 257.74 145.385 257.843 145.421 257.954C145.458 258.066 145.47 258.184 145.458 258.3V303.687C145.463 303.799 145.445 303.911 145.406 304.016C145.366 304.122 145.306 304.218 145.229 304.299C145.152 304.381 145.059 304.446 144.956 304.491C144.853 304.535 144.742 304.559 144.63 304.56Z" fill="#455A64"/>
<path d="M151.452 308.448C151.342 308.449 151.232 308.428 151.13 308.387C151.028 308.345 150.935 308.283 150.857 308.206C150.78 308.128 150.718 308.035 150.676 307.933C150.635 307.831 150.614 307.721 150.615 307.611V262.224C150.615 262.002 150.703 261.789 150.86 261.632C151.017 261.475 151.23 261.387 151.452 261.387C151.674 261.387 151.887 261.475 152.044 261.632C152.201 261.789 152.289 262.002 152.289 262.224V307.611C152.289 307.833 152.201 308.046 152.044 308.203C151.887 308.36 151.674 308.448 151.452 308.448Z" fill="#455A64"/>
<path d="M158.274 312.345C158.052 312.345 157.839 312.257 157.682 312.1C157.525 311.943 157.437 311.73 157.437 311.508V266.121C157.437 265.899 157.525 265.686 157.682 265.529C157.839 265.372 158.052 265.284 158.274 265.284C158.496 265.284 158.709 265.372 158.866 265.529C159.023 265.686 159.111 265.899 159.111 266.121V311.508C159.111 311.73 159.023 311.943 158.866 312.1C158.709 312.257 158.496 312.345 158.274 312.345Z" fill="#455A64"/>
<path d="M165.096 316.233C164.874 316.233 164.661 316.145 164.504 315.988C164.347 315.831 164.259 315.618 164.259 315.396V270C164.259 269.778 164.347 269.565 164.504 269.408C164.661 269.251 164.874 269.163 165.096 269.163C165.318 269.163 165.531 269.251 165.688 269.408C165.845 269.565 165.933 269.778 165.933 270V315.387C165.934 315.498 165.913 315.608 165.872 315.71C165.83 315.813 165.769 315.906 165.691 315.985C165.613 316.063 165.521 316.126 165.418 316.169C165.316 316.211 165.207 316.233 165.096 316.233Z" fill="#455A64"/>
<path d="M171.9 320.13C171.678 320.13 171.465 320.042 171.308 319.885C171.151 319.728 171.063 319.515 171.063 319.293V273.906C171.063 273.684 171.151 273.471 171.308 273.314C171.465 273.157 171.678 273.069 171.9 273.069C172.122 273.069 172.335 273.157 172.492 273.314C172.649 273.471 172.737 273.684 172.737 273.906V319.293C172.737 319.515 172.649 319.728 172.492 319.885C172.335 320.042 172.122 320.13 171.9 320.13Z" fill="#455A64"/>
<path d="M178.74 324C178.518 324 178.305 323.912 178.148 323.755C177.991 323.598 177.903 323.385 177.903 323.163V277.794C177.903 277.572 177.991 277.359 178.148 277.202C178.305 277.045 178.518 276.957 178.74 276.957C178.962 276.957 179.175 277.045 179.332 277.202C179.489 277.359 179.577 277.572 179.577 277.794V323.181C179.572 323.4 179.482 323.608 179.326 323.761C179.169 323.914 178.959 324 178.74 324Z" fill="#455A64"/>
<path d="M185.562 327.915C185.34 327.915 185.127 327.827 184.97 327.67C184.813 327.513 184.725 327.3 184.725 327.078V281.7C184.725 281.478 184.813 281.265 184.97 281.108C185.127 280.951 185.34 280.863 185.562 280.863C185.784 280.863 185.997 280.951 186.154 281.108C186.311 281.265 186.399 281.478 186.399 281.7V327.087C186.397 327.307 186.308 327.518 186.151 327.673C185.994 327.828 185.783 327.915 185.562 327.915Z" fill="#455A64"/>
<path d="M192.384 331.803C192.162 331.803 191.949 331.715 191.792 331.558C191.635 331.401 191.547 331.188 191.547 330.966V285.579C191.547 285.357 191.635 285.144 191.792 284.987C191.949 284.83 192.162 284.742 192.384 284.742C192.606 284.742 192.819 284.83 192.976 284.987C193.133 285.144 193.221 285.357 193.221 285.579V330.966C193.221 331.188 193.133 331.401 192.976 331.558C192.819 331.715 192.606 331.803 192.384 331.803Z" fill="#455A64"/>
<path d="M199.206 335.7C198.984 335.7 198.771 335.612 198.614 335.455C198.457 335.298 198.369 335.085 198.369 334.863V289.476C198.369 289.254 198.457 289.041 198.614 288.884C198.771 288.727 198.984 288.639 199.206 288.639C199.428 288.639 199.641 288.727 199.798 288.884C199.955 289.041 200.043 289.254 200.043 289.476V334.863C200.043 335.085 199.955 335.298 199.798 335.455C199.641 335.612 199.428 335.7 199.206 335.7Z" fill="#455A64"/>
<path d="M206.028 339.588C205.806 339.588 205.593 339.5 205.436 339.343C205.279 339.186 205.191 338.973 205.191 338.751V293.4C205.191 293.178 205.279 292.965 205.436 292.808C205.593 292.651 205.806 292.563 206.028 292.563C206.25 292.563 206.463 292.651 206.62 292.808C206.777 292.965 206.865 293.178 206.865 293.4V338.787C206.858 339.003 206.766 339.208 206.61 339.358C206.453 339.508 206.245 339.59 206.028 339.588Z" fill="#455A64"/>
<path d="M212.85 343.485C212.63 343.483 212.419 343.393 212.264 343.237C212.109 343.08 212.022 342.869 212.022 342.648V297.261C212.01 297.144 212.022 297.027 212.059 296.915C212.095 296.804 212.154 296.701 212.233 296.614C212.311 296.527 212.407 296.457 212.514 296.41C212.621 296.362 212.737 296.337 212.855 296.337C212.972 296.337 213.088 296.362 213.195 296.41C213.302 296.457 213.398 296.527 213.476 296.614C213.555 296.701 213.614 296.804 213.65 296.915C213.687 297.027 213.699 297.144 213.687 297.261V342.648C213.687 342.87 213.599 343.083 213.442 343.24C213.285 343.397 213.072 343.485 212.85 343.485Z" fill="#455A64"/>
<path d="M219.672 343.485C219.452 343.483 219.241 343.393 219.086 343.237C218.931 343.08 218.844 342.868 218.844 342.648V301.149C218.832 301.032 218.844 300.915 218.881 300.803C218.917 300.692 218.976 300.589 219.055 300.502C219.133 300.415 219.229 300.345 219.336 300.298C219.443 300.25 219.559 300.225 219.677 300.225C219.794 300.225 219.91 300.25 220.017 300.298C220.124 300.345 220.22 300.415 220.298 300.502C220.377 300.589 220.436 300.692 220.472 300.803C220.509 300.915 220.521 301.032 220.509 301.149V342.648C220.509 342.87 220.421 343.083 220.264 343.24C220.107 343.397 219.894 343.485 219.672 343.485Z" fill="#455A64"/>
<path d="M226.503 337.635C226.394 337.636 226.285 337.616 226.183 337.575C226.082 337.533 225.99 337.473 225.912 337.396C225.834 337.319 225.772 337.227 225.73 337.126C225.688 337.025 225.666 336.916 225.666 336.807V305.046C225.654 304.929 225.666 304.812 225.703 304.7C225.739 304.589 225.798 304.486 225.877 304.399C225.955 304.312 226.051 304.242 226.158 304.195C226.265 304.147 226.381 304.122 226.498 304.122C226.616 304.122 226.732 304.147 226.839 304.195C226.946 304.242 227.042 304.312 227.12 304.399C227.199 304.486 227.258 304.589 227.294 304.7C227.331 304.812 227.343 304.929 227.331 305.046V336.807C227.331 337.027 227.244 337.237 227.088 337.392C226.933 337.548 226.723 337.635 226.503 337.635Z" fill="#455A64"/>
<path d="M233.325 330.849C233.103 330.849 232.89 330.761 232.733 330.604C232.576 330.447 232.488 330.234 232.488 330.012V308.934C232.476 308.818 232.488 308.7 232.525 308.588C232.561 308.477 232.62 308.374 232.699 308.287C232.777 308.2 232.873 308.13 232.98 308.083C233.087 308.035 233.203 308.01 233.321 308.01C233.438 308.01 233.554 308.035 233.661 308.083C233.768 308.13 233.864 308.2 233.942 308.287C234.021 308.374 234.08 308.477 234.116 308.588C234.153 308.7 234.165 308.818 234.153 308.934V330.012C234.153 330.233 234.066 330.444 233.911 330.601C233.756 330.758 233.545 330.847 233.325 330.849Z" fill="#455A64"/>
<path d="M240.147 324.702C239.925 324.702 239.712 324.614 239.555 324.457C239.398 324.3 239.31 324.087 239.31 323.865V312.831C239.31 312.609 239.398 312.396 239.555 312.239C239.712 312.082 239.925 311.994 240.147 311.994C240.369 311.994 240.582 312.082 240.739 312.239C240.896 312.396 240.984 312.609 240.984 312.831V323.865C240.984 324.087 240.896 324.3 240.739 324.457C240.582 324.614 240.369 324.702 240.147 324.702Z" fill="#455A64"/>
<path d="M240.183 325.476C240.037 325.478 239.893 325.437 239.769 325.359L128.745 261.756C128.641 261.707 128.548 261.636 128.472 261.549C128.396 261.463 128.339 261.361 128.304 261.251C128.269 261.141 128.258 261.025 128.27 260.91C128.282 260.795 128.318 260.684 128.376 260.584C128.433 260.484 128.51 260.396 128.603 260.327C128.695 260.259 128.801 260.21 128.914 260.184C129.026 260.158 129.143 260.155 129.256 260.176C129.37 260.198 129.478 260.242 129.573 260.307L240.597 323.91C240.789 324.021 240.929 324.204 240.987 324.418C241.044 324.633 241.014 324.861 240.903 325.053C240.831 325.181 240.727 325.288 240.6 325.362C240.474 325.436 240.33 325.476 240.183 325.476Z" fill="#455A64"/>
<path d="M232.317 332.325C232.172 332.323 232.03 332.286 231.903 332.217L130.032 273.852C129.858 273.734 129.735 273.554 129.687 273.349C129.64 273.143 129.672 272.928 129.776 272.745C129.881 272.562 130.05 272.425 130.251 272.362C130.452 272.298 130.669 272.313 130.86 272.403L232.731 330.768C232.895 330.856 233.025 330.997 233.099 331.168C233.173 331.339 233.187 331.53 233.139 331.71C233.091 331.89 232.984 332.049 232.835 332.16C232.686 332.272 232.503 332.33 232.317 332.325Z" fill="#455A64"/>
<path d="M225 339.516C224.854 339.516 224.711 339.475 224.586 339.399L130.689 285.588C130.593 285.535 130.509 285.463 130.442 285.377C130.374 285.291 130.324 285.192 130.295 285.087C130.266 284.981 130.258 284.871 130.271 284.763C130.285 284.654 130.32 284.549 130.374 284.454C130.485 284.262 130.667 284.122 130.881 284.063C131.095 284.004 131.323 284.031 131.517 284.139L225.45 337.95C225.612 338.041 225.739 338.184 225.811 338.356C225.883 338.527 225.895 338.718 225.847 338.897C225.798 339.077 225.692 339.235 225.543 339.347C225.395 339.459 225.213 339.519 225.027 339.516H225Z" fill="#455A64"/>
<path d="M123.561 216.9C123.007 216.898 122.469 216.712 122.031 216.373C121.594 216.033 121.281 215.558 121.141 215.022C121.001 214.486 121.043 213.919 121.259 213.408C121.476 212.898 121.855 212.474 122.337 212.202L163.611 189.063C164.188 188.772 164.855 188.715 165.473 188.904C166.092 189.093 166.613 189.512 166.93 190.076C167.246 190.639 167.333 191.303 167.173 191.929C167.012 192.555 166.617 193.095 166.068 193.437L124.785 216.576C124.411 216.786 123.99 216.898 123.561 216.9Z" fill="#3052C5"/>
<path d="M118.8 218.754C118.43 218.753 118.071 218.63 117.779 218.404C117.487 218.178 117.277 217.861 117.184 217.504C117.09 217.146 117.118 216.767 117.262 216.427C117.406 216.087 117.659 215.804 117.981 215.622L122.058 213.336C122.25 213.211 122.466 213.126 122.692 213.088C122.919 213.049 123.15 213.058 123.373 213.113C123.596 213.168 123.805 213.268 123.988 213.407C124.17 213.546 124.322 213.721 124.434 213.922C124.546 214.122 124.615 214.343 124.638 214.572C124.661 214.8 124.637 215.031 124.567 215.249C124.497 215.468 124.382 215.669 124.231 215.842C124.08 216.015 123.895 216.154 123.687 216.252L119.619 218.538C119.369 218.678 119.087 218.753 118.8 218.754Z" fill="#455A64"/>
<path d="M176.067 189.819C174.969 187.506 173.367 183.825 171.117 182.619L159.516 175.5L134.748 158.805L120.285 165.654C127.863 173.907 152.388 182.754 152.388 182.754C152.657 183.498 152.994 184.215 153.396 184.896H153.324C153.495 185.283 159.066 197.775 160.911 197.586C161.721 197.514 161.865 196.425 161.811 195.228L160.812 190.395C162.045 190.755 163.17 190.971 163.989 191.187C165.213 191.511 166.419 193.887 167.058 194.967C167.219 195.246 167.435 195.489 167.692 195.683C167.949 195.876 168.243 196.016 168.555 196.094C168.867 196.173 169.192 196.187 169.51 196.137C169.828 196.087 170.133 195.974 170.406 195.804L175.248 192.816C175.598 192.597 175.882 192.287 176.071 191.919C176.259 191.552 176.345 191.14 176.319 190.728C176.304 190.41 176.218 190.1 176.067 189.819Z" fill="#FFA8A7"/>
<path d="M99.315 114.642L89.874 155.448C89.2714 158.079 89.6123 160.837 90.837 163.242C91.5491 164.63 92.5375 165.858 93.7414 166.85C94.9452 167.843 96.3393 168.579 97.8378 169.013C99.3363 169.447 100.908 169.57 102.456 169.375C104.004 169.179 105.495 168.67 106.839 167.877L128.097 155.322V114.642H99.315Z" fill="#263238"/>
<path d="M103.5 146.835L125.1 138.024C126.676 137.372 128.388 137.118 130.085 137.285C131.782 137.452 133.412 138.035 134.83 138.981C136.248 139.928 137.412 141.21 138.217 142.713C139.022 144.216 139.444 145.895 139.446 147.6V159.03L106.749 169.227L103.5 146.835Z" fill="#FFA8A7"/>
<path d="M123.498 139.176C123.498 139.176 130.329 143.442 131.256 150.525C131.256 150.525 127.548 156.456 115.776 156.114C115.776 156.114 113.076 146.7 108.45 144.828L103.5 146.835L103.131 170.487L106.497 175.311C106.904 175.891 107.147 176.57 107.199 177.277C107.252 177.984 107.112 178.691 106.794 179.325L103.995 184.932C103.995 184.932 109.044 193.608 122.238 193.608C127.103 193.502 131.767 191.65 135.378 188.388L135 173.403C135 173.403 151.713 162.117 127.53 137.637L123.498 139.176Z" fill="#3052C5"/>
<path d="M105.3 105.867C105.3 105.867 104.049 101.106 103.203 101.187C102.357 101.268 102.456 105.444 102.456 105.444C102.456 105.444 98.4961 105.093 98.9101 106.227C99.3241 107.361 103.941 108.531 103.941 108.531L105.3 105.867Z" fill="#263238"/>
<path d="M99.144 122.4C100.944 135.846 112.275 135.846 112.275 135.846L136.026 125.397C137.355 123.977 138.177 122.158 138.366 120.222C138.579 118.748 138.579 117.25 138.366 115.776V115.731C137.601 110.079 133.38 104.031 124.164 102.132C122.146 101.73 120.093 101.534 118.035 101.547C117.043 101.544 116.052 101.592 115.065 101.691C107.865 102.393 102.888 105.741 100.503 110.934C99.9678 112.108 99.5692 113.341 99.315 114.606C98.8205 117.176 98.7627 119.811 99.144 122.4Z" fill="#263238"/>
<path d="M114.948 148.437C115.758 149.067 116.727 149.457 117.748 149.563C118.768 149.669 119.797 149.487 120.719 149.037C121.641 148.587 122.418 147.887 122.961 147.017C123.505 146.148 123.794 145.143 123.795 144.117V126.756H112.275V142.956C112.275 144.013 112.516 145.055 112.979 146.005C113.442 146.955 114.116 147.786 114.948 148.437Z" fill="#FFA8A7"/>
<path d="M123.795 141.93C121.232 140.981 118.89 139.52 116.909 137.638C114.929 135.755 113.352 133.489 112.275 130.977V126.756H123.795V141.93Z" fill="#F28F8F"/>
<path d="M121.302 105.588C125.676 105.588 134.955 108.027 136.035 119.448C137.115 130.869 136.035 139.743 130.167 140.598C124.299 141.453 110.583 137.178 108.747 122.382C106.911 107.586 117.045 105.588 121.302 105.588Z" fill="#FFA8A7"/>
<path d="M128.178 124.29V131.031L132.129 129.816L128.178 124.29Z" fill="#F28F8F"/>
<path d="M122.4 125.451C122.398 125.724 122.478 125.991 122.628 126.218C122.778 126.446 122.992 126.624 123.244 126.73C123.495 126.835 123.772 126.864 124.04 126.812C124.308 126.76 124.554 126.629 124.748 126.437C124.941 126.245 125.073 125.999 125.127 125.732C125.181 125.465 125.154 125.187 125.05 124.935C124.946 124.683 124.77 124.467 124.543 124.316C124.316 124.164 124.05 124.083 123.777 124.083C123.413 124.083 123.065 124.227 122.807 124.483C122.549 124.739 122.402 125.087 122.4 125.451Z" fill="#263238"/>
<path d="M131.445 124.497C131.445 124.769 131.526 125.036 131.677 125.262C131.828 125.489 132.043 125.665 132.295 125.769C132.547 125.874 132.824 125.901 133.091 125.848C133.358 125.795 133.603 125.663 133.796 125.471C133.988 125.278 134.119 125.033 134.173 124.766C134.226 124.499 134.198 124.222 134.094 123.97C133.99 123.719 133.814 123.503 133.587 123.352C133.361 123.201 133.094 123.12 132.822 123.12C132.457 123.12 132.107 123.265 131.848 123.523C131.59 123.782 131.445 124.132 131.445 124.497Z" fill="#263238"/>
<path d="M134.496 121.635L131.796 120.042C131.796 120.042 132.822 118.971 133.848 119.61C134.148 119.843 134.37 120.161 134.486 120.522C134.601 120.884 134.605 121.272 134.496 121.635Z" fill="#263238"/>
<path d="M130.041 133.758C128.732 133.851 127.43 133.502 126.342 132.768C126.342 132.768 126.09 134.712 127.719 135.09C128.2 135.168 128.694 135.078 129.116 134.836C129.539 134.593 129.866 134.213 130.041 133.758Z" fill="#F28F8F"/>
<path d="M132.381 109.476C132.381 109.476 130.734 125.253 109.278 125.748C109.278 125.748 102.798 110.07 115.578 104.976C128.358 99.882 132.381 109.476 132.381 109.476Z" fill="#263238"/>
<path d="M112.869 126.315C114.246 128.709 113.895 131.607 111.969 132.615C110.736 133.254 107.082 131.877 105.669 129.483C104.256 127.089 105.066 125.046 106.938 123.966C108.81 122.886 111.492 123.93 112.869 126.315Z" fill="#FFA8A7"/>
<path d="M106.677 162.666L103.158 170.487C104.133 170.492 105.097 170.287 105.984 169.884L107.541 162.954C107.563 162.844 107.544 162.731 107.488 162.634C107.432 162.537 107.342 162.465 107.236 162.429C107.13 162.394 107.015 162.399 106.912 162.442C106.809 162.486 106.725 162.565 106.677 162.666Z" fill="#F28F8F"/>
<path d="M140.337 212.562C139.384 210.194 137.729 208.175 135.594 206.775L133.56 205.443C133.56 205.443 139.122 206.721 139.194 204.849C139.266 202.977 126 198.108 126 198.108L99.4591 177.975C99.4591 177.975 101.331 174.915 103.545 170.46C107.334 170.253 109.548 167.175 110.799 164.16C111.912 161.539 112.232 158.648 111.718 155.847C111.205 153.046 109.881 150.457 107.91 148.401C107.65 148.126 107.374 147.868 107.082 147.627C106.502 147.024 105.811 146.538 105.048 146.196L103.248 146.925C98.805 148.713 95.1928 152.101 93.1231 156.42C89.7211 163.53 84.8521 174.42 84.1231 180.297C82.9891 189.423 117.153 203.895 117.153 203.895C119.223 211.095 125.46 213.732 128.196 214.641C128.788 214.835 129.336 215.144 129.809 215.551C130.281 215.957 130.669 216.452 130.95 217.008C131.093 217.296 131.292 217.553 131.536 217.763C131.78 217.973 132.063 218.131 132.37 218.23C132.676 218.328 132.999 218.363 133.32 218.335C133.64 218.306 133.951 218.213 134.235 218.061L139.266 215.361C139.753 215.103 140.13 214.677 140.327 214.163C140.524 213.648 140.528 213.079 140.337 212.562Z" fill="#FFA8A7"/>
<path d="M105.984 169.884L107.541 162.954C107.555 162.892 107.556 162.827 107.544 162.764C107.531 162.701 107.505 162.642 107.467 162.59C107.43 162.538 107.382 162.494 107.326 162.463C107.271 162.431 107.209 162.411 107.145 162.405C106.011 165.321 104.742 168.084 103.545 170.505C104.39 170.454 105.218 170.244 105.984 169.884Z" fill="#F28F8F"/>
</svg>
