<svg width="1326" height="1021" viewBox="0 0 1326 1021" fill="none" xmlns="http://www.w3.org/2000/svg">
<path d="M1237.85 631.288C1210.45 699.878 1144.17 770.592 1037.91 783.208C877.406 802.19 871.673 894.805 573.604 857.304C530.094 851.964 486.392 843.333 443.264 831.562C422.171 825.745 401.306 819.041 380.798 811.49C200.006 744.996 93.2362 626.829 68.7051 511.645C36.3813 360.137 174.114 302.77 264.32 270.084C354.526 237.398 446.525 85.7741 739.476 121.02C784.214 126.283 829.191 135.157 873.514 147.466C974.515 175.797 1080.55 227.062 1147.64 293.533C1152.66 298.517 1157.51 303.589 1162.21 308.749C1253.68 409.504 1275.18 537.754 1237.85 631.288Z" fill="#000D3A"/>
</svg>
