<svg width="400" height="400" viewBox="0 0 400 400" fill="none" xmlns="http://www.w3.org/2000/svg">
<path d="M291.8 113.296H251.68V171.448H291.8V113.296Z" fill="#E0E0E0"/>
<path d="M289.792 113.296H249.672V171.448H289.792V113.296Z" fill="#F5F5F5"/>
<path d="M284.808 119.592H254.656V165.152H284.808V119.592Z" fill="white"/>
<path d="M284.8 165.144C284.8 165.144 284.8 165.072 284.8 164.928V164.28C284.8 163.704 284.8 162.872 284.8 161.784C284.8 159.6 284.8 156.416 284.8 152.392C284.8 144.392 284.8 132.984 284.752 119.592L284.848 119.688H254.704L254.816 119.576C254.816 136.76 254.816 152.608 254.816 165.128L254.728 165.048H276.68H282.736H284.8H284.272H282.672H276.624H254.624H254.536V164.96C254.536 152.44 254.536 136.592 254.536 119.408V119.296H284.896V119.4C284.896 132.824 284.856 144.2 284.848 152.272C284.848 156.272 284.848 159.472 284.848 161.632C284.848 162.712 284.848 163.544 284.848 164.112V164.744C284.846 164.879 284.83 165.013 284.8 165.144V165.144Z" fill="#E0E0E0"/>
<path d="M289.904 113.296C289.698 113.663 289.46 114.011 289.192 114.336C288.728 114.952 288.064 115.8 287.312 116.736C286.56 117.672 285.848 118.464 285.328 119.04C285.058 119.365 284.761 119.668 284.44 119.944C284.682 119.591 284.949 119.257 285.24 118.944L287.176 116.6L289.104 114.256C289.342 113.913 289.61 113.592 289.904 113.296Z" fill="#E0E0E0"/>
<path d="M284.96 165C286.463 167.382 288.229 169.588 290.224 171.576Z" fill="white"/>
<path d="M290.224 171.576C289.889 171.344 289.581 171.075 289.304 170.776C288.605 170.063 287.943 169.316 287.32 168.536C286.697 167.768 286.115 166.966 285.576 166.136C285.333 165.799 285.127 165.437 284.96 165.056C285.237 165.364 285.486 165.696 285.704 166.048C286.144 166.672 286.768 167.52 287.488 168.448C288.208 169.376 288.912 170.152 289.416 170.72C289.706 170.985 289.976 171.271 290.224 171.576Z" fill="#E0E0E0"/>
<path d="M249.672 171.4L254.92 164.92Z" fill="white"/>
<path d="M254.92 164.92C254.133 166.065 253.286 167.167 252.384 168.224C250.928 170.016 249.712 171.424 249.672 171.424C250.458 170.276 251.305 169.17 252.208 168.112C253.058 167.003 253.963 165.938 254.92 164.92V164.92Z" fill="#E0E0E0"/>
<path d="M249.672 113.296C250.579 114.263 251.431 115.281 252.224 116.344C253.079 117.368 253.88 118.437 254.624 119.544C253.717 118.577 252.865 117.559 252.072 116.496C251.213 115.475 250.412 114.406 249.672 113.296V113.296Z" fill="#E0E0E0"/>
<path d="M275.416 128.84H265.32V157.504H275.416V128.84Z" fill="#E0E0E0"/>
<path d="M212 276C210.175 276.603 208.491 277.567 207.048 278.836C205.604 280.105 204.432 281.652 203.6 283.384C201.961 286.864 201.14 290.674 201.2 294.52C201.104 301.936 204.312 309.84 208.04 316.248C214.88 311.656 217.488 302.472 218.52 297.728C220.12 290.224 218.52 275.688 212.008 276" fill="#F5F5F5"/>
<path d="M199.352 327.416C200.04 325.378 200.175 323.194 199.746 321.086C199.316 318.978 198.335 317.022 196.904 315.416C195.451 313.838 193.698 312.566 191.747 311.673C189.797 310.78 187.688 310.285 185.544 310.216C183.568 310.112 181.376 310.416 180.048 311.888C179.47 312.614 179.096 313.48 178.966 314.399C178.835 315.317 178.952 316.254 179.304 317.112C180.034 318.824 181.205 320.311 182.696 321.424C187.6 325.424 193.096 328.44 199.352 327.4" fill="#F5F5F5"/>
<path d="M204.48 345.24C204.572 343.605 204.497 341.964 204.256 340.344C204.061 338.563 203.653 336.812 203.04 335.128C202.355 333.058 201.534 331.035 200.584 329.072C198.832 325.467 196.216 322.35 192.968 320C191.963 319.314 190.891 318.732 189.768 318.264C189.367 318.072 188.938 317.947 188.496 317.896C188.432 318.032 190.216 318.696 192.592 320.472C195.629 322.892 198.089 325.958 199.792 329.448C200.724 331.38 201.549 333.362 202.264 335.384C202.89 337.013 203.345 338.702 203.624 340.424C204.12 343.392 204.352 345.256 204.48 345.24Z" fill="#E0E0E0"/>
<path d="M212.248 287.2C211.992 287.982 211.804 288.785 211.688 289.6C211.384 291.2 210.976 293.44 210.496 296.248C209.528 301.848 208.288 309.64 207.12 318.264C205.952 326.888 205.128 334.72 204.648 340.408C204.408 343.248 204.24 345.544 204.152 347.136C204.057 347.959 204.041 348.79 204.104 349.616C204.297 348.812 204.421 347.993 204.472 347.168C204.672 345.432 204.928 343.168 205.272 340.464C205.904 334.8 206.824 326.984 207.984 318.376C209.144 309.768 210.296 302.12 211.112 296.336C211.496 293.632 211.808 291.376 212.048 289.656C212.185 288.845 212.252 288.023 212.248 287.2V287.2Z" fill="#E0E0E0"/>
<path d="M208.28 331.4C210.17 327.286 213.013 323.682 216.573 320.886C220.133 318.089 224.308 316.181 228.752 315.32C231.008 314.904 233.792 314.984 235.032 316.92C236.272 318.856 235.184 321.432 233.816 323.32C230.889 327.126 226.9 329.982 222.353 331.526C217.807 333.071 212.904 333.236 208.264 332" fill="#F5F5F5"/>
<path d="M225.6 321.28C225.164 321.301 224.734 321.393 224.328 321.552C223.528 321.776 222.368 322.168 220.968 322.688C217.265 324.034 213.842 326.051 210.872 328.64C209.271 330.119 207.92 331.848 206.872 333.76C206.034 335.329 205.418 337.006 205.04 338.744C204.783 339.907 204.633 341.09 204.592 342.28C204.518 342.712 204.518 343.152 204.592 343.584C204.76 343.584 204.824 341.736 205.568 338.888C206.545 335.179 208.573 331.832 211.408 329.248C214.32 326.735 217.615 324.704 221.168 323.232C223.928 322.04 225.664 321.408 225.6 321.28Z" fill="#E0E0E0"/>
<path d="M364.472 135.808C364.472 135.808 356.088 133.336 352.696 152.608C349.304 171.88 349.032 182.496 349.032 182.496C349.032 182.496 347.856 186.68 344.752 185.128C341.648 183.576 336.376 178.112 332.656 180.528C328.792 183.032 328.848 188.184 331.784 194.872C334.72 201.56 340.584 216.472 341.128 217.816C341.672 219.16 341.48 221.376 339.2 220.664C336.92 219.952 322.4 211.2 318.64 218.4C314.88 225.6 326.128 242.848 327.32 244.8C328.512 246.752 328.376 247.728 327.544 248.544C326.712 249.36 322.104 245.96 317.864 243.64C313.624 241.32 308.304 239.376 306.496 243.68C304.688 247.984 308.096 262.496 328.752 281.464L338.88 289.624L351.144 285.112C376.8 273.848 384.744 261.24 384.44 256.576C384.136 251.912 378.456 252 373.696 252.8C368.936 253.6 363.472 255.352 362.944 254.304C362.416 253.256 362.624 252.256 364.376 250.832C366.128 249.408 382.36 236.672 381.136 228.696C379.912 220.72 363.32 224.296 360.928 224.232C358.536 224.168 359.112 222 360.024 220.92C360.936 219.84 371.36 207.624 376.304 202.24C381.248 196.856 382.968 192.008 380.128 188.384C377.392 184.888 370.624 188.384 367.192 188.816C363.76 189.248 363.992 184.944 363.992 184.944C363.992 184.944 367.192 174.816 370.208 155.472C373.224 136.128 364.288 135.792 364.288 135.792" fill="#F5F5F5"/>
<path d="M361.408 153.08C361.408 153.08 361.408 153.216 361.368 153.488L361.2 154.68C361.04 155.744 360.808 157.288 360.52 159.256C359.92 163.256 359.016 168.984 357.872 176.056C355.584 190.256 352.272 209.84 348.52 231.464C344.768 253.088 341.4 272.664 339.04 286.848C337.864 293.928 336.912 299.648 336.256 303.648C335.928 305.616 335.672 307.152 335.456 308.216C335.368 308.72 335.304 309.112 335.248 309.4C335.192 309.688 335.16 309.8 335.16 309.8C335.16 309.8 335.16 309.664 335.208 309.392C335.256 309.12 335.304 308.712 335.368 308.2C335.528 307.136 335.76 305.592 336.048 303.624C336.648 299.624 337.552 293.896 338.696 286.824C340.984 272.624 344.296 253.032 348.056 231.408C351.816 209.784 355.2 190.216 357.6 176C358.768 168.92 359.72 163.2 360.384 159.2L361.144 154.632L361.352 153.448C361.364 153.324 361.383 153.202 361.408 153.08V153.08Z" fill="#E0E0E0"/>
<path d="M339.728 188.496C339.947 188.722 340.141 188.971 340.304 189.24C340.656 189.736 341.104 190.464 341.728 191.368C342.904 193.184 344.464 195.728 346.128 198.568L350.36 205.872L351.648 208.072C351.831 208.317 351.979 208.586 352.088 208.872C351.865 208.65 351.669 208.403 351.504 208.136C351.16 207.64 350.704 206.912 350.096 206C348.936 204.168 347.408 201.6 345.744 198.76L341.464 191.488C340.952 190.624 340.512 189.888 340.16 189.288C339.982 189.044 339.837 188.778 339.728 188.496V188.496Z" fill="#E0E0E0"/>
<path d="M353.304 208.8C353.232 208.696 358.344 205.256 364.72 201.104C371.096 196.952 376.304 193.68 376.376 193.776C376.448 193.872 371.328 197.328 364.96 201.472C358.592 205.616 353.368 208.888 353.304 208.8Z" fill="#E0E0E0"/>
<path d="M346.056 241.728C346.345 241.586 346.648 241.476 346.96 241.4L349.456 240.64C351.56 239.992 354.472 239.096 357.64 237.984C360.808 236.872 363.656 235.792 365.712 234.984L368.112 234.032C368.404 233.89 368.713 233.788 369.032 233.728C368.767 233.91 368.482 234.063 368.184 234.184C367.624 234.456 366.816 234.832 365.784 235.272C363.768 236.152 360.936 237.296 357.784 238.4C354.632 239.504 351.672 240.368 349.544 240.936C348.472 241.216 347.608 241.432 347 241.568C346.693 241.659 346.376 241.713 346.056 241.728V241.728Z" fill="#E0E0E0"/>
<path d="M329.736 226.08C329.992 226.232 330.228 226.415 330.44 226.624C330.872 226.992 331.496 227.536 332.248 228.224C333.768 229.592 335.84 231.496 338.112 233.616C340.384 235.736 342.424 237.68 343.888 239.104C344.616 239.808 345.2 240.392 345.6 240.8C345.821 240.999 346.019 241.222 346.192 241.464C345.933 241.319 345.696 241.139 345.488 240.928C345.048 240.56 344.432 240.008 343.672 239.328C342.16 237.968 340.08 236.064 337.808 233.936C335.536 231.808 333.496 229.872 332.04 228.456C331.304 227.744 330.72 227.168 330.32 226.752C330.097 226.554 329.901 226.328 329.736 226.08V226.08Z" fill="#E0E0E0"/>
<path d="M319.64 254.352C319.963 254.554 320.264 254.79 320.536 255.056L322.864 257.096C324.816 258.832 327.488 261.248 330.432 263.944C333.376 266.64 336.032 269.096 337.912 270.888L340.144 273.032C340.437 273.271 340.705 273.539 340.944 273.832C340.625 273.624 340.325 273.389 340.048 273.128L337.72 271.088C335.768 269.352 333.096 266.928 330.152 264.24C327.208 261.552 324.552 259.088 322.68 257.296L320.424 255.2C320.134 254.946 319.871 254.661 319.64 254.352Z" fill="#E0E0E0"/>
<path d="M340.544 273.248C340.907 273.069 341.284 272.921 341.672 272.808L344.808 271.728C347.448 270.816 351.096 269.544 355.088 268.032C359.08 266.52 362.656 265.064 365.232 263.992L368.296 262.72C368.664 262.547 369.047 262.407 369.44 262.304C369.104 262.533 368.745 262.726 368.368 262.88C367.664 263.224 366.64 263.68 365.36 264.272C362.808 265.424 359.24 266.928 355.24 268.44C351.24 269.952 347.576 271.2 344.904 272C343.568 272.416 342.504 272.736 341.704 272.944C341.328 273.083 340.94 273.185 340.544 273.248Z" fill="#E0E0E0"/>
<path d="M83.0721 306.68C101.544 296.136 107.544 273.992 108.672 253.696C108.864 250.304 109.56 246.784 108.224 243.672C106.888 240.56 103.328 238.192 100.176 239.336C97.5601 240.288 96.1761 243.104 94.5761 245.392C92.405 248.437 89.4186 250.808 85.9601 252.232C83.7041 253.152 80.9841 253.584 78.9681 252.232C76.2001 250.352 76.2241 246.296 76.5681 242.944C77.2028 236.672 77.8134 230.411 78.4001 224.16C78.7281 220.808 79.0561 217.376 78.3041 214.096C77.5521 210.816 75.5121 207.632 72.4001 206.448C69.2881 205.264 65.1601 206.736 64.1841 209.968C63.7841 211.312 63.9281 212.752 63.7121 214.136C63.4961 215.52 62.6961 217.008 61.3121 217.28C59.9281 217.552 58.6801 216.48 57.7681 215.4C54.5681 211.688 52.6561 207.104 50.8561 202.552C49.0561 198 47.3281 193.368 44.5201 189.376C41.7121 185.384 37.6321 182.064 32.8481 181.376C28.0641 180.688 22.6641 183.168 21.0161 187.776C19.3681 192.384 21.6801 197.456 24.3361 201.568C28.2977 207.653 33.1152 213.136 38.6401 217.848C39.6321 218.696 40.7041 219.616 41.0401 220.896C41.5601 223.2 39.2321 225.232 36.9601 225.768C34.3761 226.368 31.6801 225.856 29.0401 225.928C26.4001 226 23.4401 226.888 22.2321 229.28C20.5361 232.584 23.0801 236.48 25.6881 239.064C30.9148 244.306 37.0068 248.606 43.6961 251.776C46.0961 252.904 48.6081 253.936 50.4401 255.856C52.2721 257.776 53.2001 260.904 51.7841 263.16C50.3681 265.416 47.2001 265.896 44.6561 265.176C42.1121 264.456 39.9281 262.84 37.5441 261.688C33.0881 259.52 27.0961 259.288 23.7761 263.008C21.5921 265.456 21.0881 269.088 21.7841 272.304C22.4801 275.52 24.2241 278.4 26.1121 281.104C32.7121 290.464 41.5441 298.32 51.9201 303.016C62.2961 307.712 72.1121 309.624 83.1201 306.712" fill="#F5F5F5"/>
<path d="M81.9681 321.704C81.8834 312.234 80.895 302.794 79.0161 293.512C76.6632 282.179 73.6636 270.99 70.0321 260L67.2001 251.352C66.2721 248.512 65.3521 245.696 64.2801 242.992C62.219 237.812 59.8714 232.751 57.2481 227.832C54.7761 223.12 52.2641 218.736 49.8801 214.656C47.4961 210.576 45.1841 206.816 42.9441 203.456C39.4285 198.184 35.5016 193.197 31.2001 188.544C29.6801 186.896 28.4641 185.656 27.6241 184.824L26.6641 183.888C26.5579 183.777 26.4428 183.676 26.3201 183.584C26.4102 183.706 26.5091 183.821 26.6161 183.928L27.5361 184.912C28.3361 185.768 29.5361 187.04 31.0241 188.712C35.248 193.424 39.1122 198.446 42.5841 203.736C44.8001 207.072 47.0721 210.84 49.4401 214.936C51.8081 219.032 54.3041 223.416 56.7521 228.12C59.3556 233.017 61.6923 238.051 63.7521 243.2C64.8081 245.888 65.7201 248.68 66.6401 251.528C67.5601 254.376 68.4961 257.256 69.4481 260.184C73.067 271.147 76.0743 282.303 78.4561 293.6C80.3531 302.844 81.3816 312.245 81.5281 321.68" fill="#E0E0E0"/>
<path d="M64.1362 242.952C64.3487 242.507 64.5045 242.036 64.6002 241.552C64.8642 240.64 65.1922 239.312 65.5842 237.656C66.3842 234.352 67.2882 229.76 68.2882 224.688C69.2882 219.616 70.2722 215.048 71.1042 211.768C71.5122 210.168 71.8562 208.8 72.1122 207.888C72.2684 207.42 72.3757 206.938 72.4322 206.448C72.1951 206.881 72.0098 207.34 71.8802 207.816C71.5602 208.712 71.1442 210.024 70.6802 211.656C69.7362 214.912 68.6802 219.488 67.6802 224.568L65.1522 237.6C64.8402 239.16 64.5762 240.48 64.3522 241.536C64.2358 242 64.1634 242.474 64.1362 242.952V242.952Z" fill="#E0E0E0"/>
<path d="M21.6882 230.928C22.2448 231.097 22.8149 231.217 23.3922 231.288C24.4962 231.488 26.0882 231.768 28.0402 232.184C31.9602 232.984 37.3282 234.248 43.1922 235.92C49.0562 237.592 54.2962 239.352 58.0562 240.72C59.9362 241.392 61.4482 241.976 62.4882 242.376C63.0177 242.619 63.5697 242.809 64.1362 242.944C63.6465 242.627 63.1267 242.359 62.5842 242.144C61.5682 241.672 60.0802 241.024 58.2082 240.296C54.4802 238.808 49.2482 236.992 43.3602 235.304C38.3451 233.851 33.2584 232.657 28.1202 231.728C26.1522 231.376 24.5442 231.16 23.4322 231.032C22.8559 230.938 22.2716 230.903 21.6882 230.928Z" fill="#E0E0E0"/>
<path d="M78.552 292.672C78.6911 292.522 78.807 292.352 78.896 292.168L79.784 290.672C80.584 289.376 81.592 287.472 82.856 285.072C85.392 280.32 88.696 273.64 92.232 266.216C95.768 258.792 99 252.088 101.44 247.288L104.336 241.608L105.136 240.056C105.235 239.879 105.312 239.691 105.368 239.496C105.233 239.646 105.117 239.813 105.024 239.992L104.144 241.488C103.384 242.792 102.336 244.688 101.064 247.088C98.528 251.848 95.232 258.528 91.688 265.952C88.144 273.376 84.92 280.072 82.488 284.88L79.584 290.56L78.784 292.112C78.6811 292.287 78.603 292.475 78.552 292.672V292.672Z" fill="#E0E0E0"/>
<path d="M22.8562 268.912C23.0253 269.034 23.2113 269.131 23.4082 269.2L25.0082 269.912L30.9682 272.472C36.0082 274.624 42.9682 277.688 50.5682 281.08C58.1682 284.472 65.1602 287.48 70.2482 289.528C72.7842 290.56 74.8482 291.368 76.2882 291.928L77.9442 292.536C78.1345 292.614 78.3331 292.671 78.5362 292.704C78.3709 292.58 78.1874 292.483 77.9922 292.416L76.3922 291.704L70.4002 289.12C65.3602 286.96 58.4002 283.896 50.8002 280.504C43.2002 277.112 36.2002 274.104 31.1202 272.056C28.5842 271.032 26.5202 270.216 25.0802 269.656L23.4242 269.056C23.2412 268.986 23.0505 268.938 22.8562 268.912V268.912Z" fill="#E0E0E0"/>
<path d="M139.872 65.36V131.392H45.0402L41.6162 65.824L139.872 65.36Z" fill="#E0E0E0"/>
<path d="M41.6162 65.832L41.6162 131.256H136.448V65.832H41.6162Z" fill="white"/>
<path d="M136.904 131.704H41.1682V65.376H136.904V131.704ZM42.0722 130.8H136V66.272H42.0722V130.8Z" fill="#E0E0E0"/>
<path d="M126.176 73.952H51.8882V123.12H126.176V73.952Z" fill="white"/>
<path d="M126.184 73.9519H125.816H124.8H120.72L105.408 74.0079L51.928 74.1119L52.144 73.8959C52.144 88.9199 52.144 105.568 52.144 123.064L51.904 122.832L126.2 122.88L126.008 123.064C126.056 108.104 126.088 95.8639 126.112 87.2959C126.112 83.0239 126.112 79.6879 126.16 77.3999C126.16 76.2719 126.16 75.3999 126.16 74.7999C126.16 74.1999 126.16 73.8959 126.16 73.8959C126.16 73.8959 126.16 74.1839 126.16 74.7599C126.16 75.3359 126.16 76.2079 126.16 77.3279C126.16 79.5999 126.16 82.9279 126.208 87.1759C126.208 95.7439 126.264 108.056 126.304 123.064V123.256H126.12L51.824 123.304H51.592V123.064C51.592 105.568 51.592 88.9199 51.592 73.8959V73.6799H51.8L105.4 73.7919L120.664 73.8479H124.664H125.696L126.184 73.9519Z" fill="#E0E0E0"/>
<path d="M41.6002 65.64C42.1725 65.9291 42.7094 66.2834 43.2002 66.696C44.1762 67.4 45.4962 68.392 46.9202 69.536C48.3442 70.68 49.6002 71.752 50.4882 72.56C50.9966 72.9643 51.4509 73.4321 51.8402 73.952C51.7522 74.056 49.4402 72.176 46.6242 69.896C43.8082 67.616 41.5362 65.752 41.6002 65.64Z" fill="#E0E0E0"/>
<path d="M136.456 65.824C134.896 67.3576 133.228 68.7773 131.464 70.072C129.8 71.4905 128.035 72.7872 126.184 73.952C127.755 72.4204 129.431 71.0009 131.2 69.704C132.858 68.2874 134.614 66.9907 136.456 65.824V65.824Z" fill="#E0E0E0"/>
<path d="M136.376 131.264L125.808 122.688Z" fill="white"/>
<path d="M125.808 122.688C127.707 123.935 129.521 125.306 131.24 126.792C133.054 128.162 134.77 129.656 136.376 131.264C134.475 130.02 132.66 128.649 130.944 127.16C128 124.8 125.72 122.792 125.808 122.688Z" fill="#E0E0E0"/>
<path d="M41.6001 131.256C43.1454 129.737 44.7977 128.331 46.5441 127.048C48.1927 125.646 49.9384 124.363 51.7681 123.208C50.2267 124.728 48.5771 126.135 46.8321 127.416C45.1809 128.818 43.4325 130.101 41.6001 131.256V131.256Z" fill="#E0E0E0"/>
<path d="M66.9761 89.28V105.744H113.72V89.28H66.9761Z" fill="#E0E0E0"/>
<path d="M358.848 50.016H308.144V123.512H358.848V50.016Z" fill="#E0E0E0"/>
<path d="M356.312 50.016H305.608V123.512H356.312V50.016Z" fill="#F5F5F5"/>
<path d="M350.008 57.976H311.904V115.552H350.008V57.976Z" fill="white"/>
<path d="M350.016 115.552C350.016 115.552 350.016 115.456 350.016 115.272V114.472C350.016 113.744 350.016 112.688 350.016 111.312C350.016 108.552 350.016 104.536 350.016 99.456C350.016 89.304 349.976 74.92 349.952 57.992L350.08 58.12H311.904L312.048 57.984C312.048 79.704 312.048 99.728 312.048 115.584L311.936 115.472L339.672 115.536H347.336H349.352H350.048H349.376H347.384H339.744L311.936 115.592H311.832V115.48C311.832 99.648 311.832 79.624 311.832 57.88V57.84H350.232V57.968C350.232 74.936 350.192 89.336 350.176 99.512C350.176 104.576 350.176 108.592 350.136 111.344C350.136 112.704 350.136 113.744 350.136 114.472V115.272C350.016 115.464 350.016 115.552 350.016 115.552Z" fill="#E0E0E0"/>
<path d="M356.456 50.016C356.199 50.482 355.896 50.9215 355.552 51.328C354.96 52.128 354.128 53.192 353.152 54.352C352.176 55.512 351.304 56.536 350.64 57.264C350.312 57.6739 349.948 58.0541 349.552 58.4C349.837 57.9511 350.161 57.5281 350.52 57.136L352.96 54.176C353.88 53.048 354.72 52.032 355.4 51.208C355.718 50.7814 356.071 50.3826 356.456 50.016Z" fill="#E0E0E0"/>
<path d="M350.208 115.368C352.106 118.379 354.336 121.167 356.856 123.68Z" fill="white"/>
<path d="M356.856 123.68C356.434 123.369 356.045 123.015 355.696 122.624C355.016 121.936 354.096 120.952 353.184 119.8C352.4 118.813 351.666 117.788 350.984 116.728C350.672 116.303 350.404 115.847 350.184 115.368C350.528 115.762 350.841 116.182 351.12 116.624C351.68 117.424 352.464 118.48 353.376 119.624C354.288 120.768 355.168 121.776 355.816 122.488C356.191 122.86 356.539 123.258 356.856 123.68V123.68Z" fill="#E0E0E0"/>
<path d="M305.6 123.456L312.24 115.264Z" fill="white"/>
<path d="M312.24 115.264C311.249 116.715 310.181 118.112 309.04 119.448C307.2 121.704 305.664 123.504 305.608 123.448C306.601 121.999 307.669 120.602 308.808 119.264C309.882 117.872 311.028 116.537 312.24 115.264V115.264Z" fill="#E0E0E0"/>
<path d="M305.6 50.016C306.735 51.243 307.803 52.5302 308.8 53.872C309.873 55.151 310.877 56.4862 311.808 57.872C310.67 56.6474 309.602 55.36 308.608 54.016C307.535 52.737 306.531 51.4017 305.6 50.016V50.016Z" fill="#E0E0E0"/>
<path d="M338.144 69.6639H325.384V105.888H338.144V69.6639Z" fill="#E0E0E0"/>
<path d="M369.544 349.6C369.544 349.72 291.608 349.808 195.504 349.808C99.4 349.808 21.448 349.752 21.448 349.6C21.448 349.448 99.36 349.392 195.504 349.392C291.648 349.392 369.544 349.52 369.544 349.6Z" fill="#263238"/>
<path d="M271.76 211.2C272.354 213.616 272.285 216.147 271.56 218.527C270.834 220.906 269.48 223.046 267.64 224.72C265.2 226.88 262.04 228.128 259.8 230.504C258.413 232.084 257.46 233.996 257.032 236.054C256.605 238.113 256.718 240.246 257.36 242.248C258.04 244.235 259.115 246.063 260.522 247.623C261.929 249.182 263.637 250.44 265.544 251.32C268.14 252.533 270.987 253.115 273.851 253.017C276.715 252.92 279.516 252.146 282.024 250.76C288.208 247.264 291.808 240.248 292.72 233.2C293.632 226.152 292.2 219.016 290.32 212.16" fill="#263238"/>
<path d="M349.752 335.48C356.152 334.432 362.152 336.384 368.488 337.784C370.173 338.283 371.951 338.379 373.68 338.064C376.424 337.36 378.376 334.688 378.8 331.888C379.143 329.435 378.574 326.941 377.2 324.88C376.649 323.992 375.898 323.244 375.008 322.696C374.054 322.218 373.01 321.945 371.944 321.896C368.061 321.583 364.166 322.318 360.664 324.024C357.172 325.722 354.004 328.018 351.304 330.808C349.96 332.152 350.36 333.696 349.768 335.504" fill="#263238"/>
<path d="M220 232.184C218.974 226.081 219.099 219.841 220.368 213.784C220.905 210.822 221.99 207.987 223.568 205.424C224.106 204.468 224.924 203.7 225.912 203.224C226.63 202.986 227.399 202.951 228.135 203.125C228.871 203.299 229.545 203.674 230.08 204.208C230.764 204.92 231.288 205.768 231.619 206.698C231.95 207.627 232.08 208.617 232 209.6C231.857 211.567 231.376 213.494 230.576 215.296C228.104 221.616 224.176 226.864 219.976 232.176" fill="#263238"/>
<path d="M344 255.312C345.448 256.344 377.6 325.6 377.6 325.6C375.014 324.495 372.151 324.216 369.4 324.8L367.656 325.264C364.535 326.103 361.574 327.455 358.896 329.264L349.72 335.472C349.357 335.263 349.049 334.971 348.822 334.618C348.595 334.266 348.456 333.865 348.416 333.448V333.184L323.488 290.4L344 255.312Z" fill="#3052C5"/>
<path d="M223.272 145.056L231.848 193.8C234.608 200.36 266.792 240.104 266.792 240.104L256.152 274.296L213.88 216.496C209.955 212.299 207.82 206.737 207.928 200.992L209.576 148.912L223.272 145.056Z" fill="#FFBE9D"/>
<path d="M268.912 232.464L290.984 234.136L310.232 237.12C310.232 237.12 344 245.992 344 249.688C344 250.92 334.784 280.272 329.6 297.856C328.329 302.127 327.293 306.464 326.496 310.848L344 349.6H260.936V314.072C260.936 314.072 255.336 267.408 256.32 261.032C257.304 254.656 268.912 232.464 268.912 232.464Z" fill="#3052C5"/>
<path d="M212.8 125.36C212.93 120.395 213.438 115.448 214.32 110.56C214.44 109.864 214.728 109.024 215.424 108.96C216.288 108.848 216.728 109.96 216.84 110.824C217.607 116.718 217.361 122.701 216.112 128.512" fill="#EB996E"/>
<path d="M222.64 228.576C232.112 220.112 232.432 205.448 231.624 193.776C231.466 192.924 231.595 192.043 231.992 191.272C232.896 189.984 235.096 190.472 235.992 191.768C236.888 193.064 236.792 194.768 236.744 196.336C237.232 195.008 239.312 195.016 240.288 196.04C241.264 197.064 241.432 198.608 241.544 200.04L241.856 203.944L269.528 230.344C269.528 230.344 270.288 227.944 272.32 229.328C274.352 230.712 275.664 233.632 275.664 233.632L256.168 276.184L219.984 232.184C220.68 230.853 221.575 229.636 222.64 228.576Z" fill="#3052C5"/>
<path d="M260.192 258.024C257.305 261.706 255.149 265.907 253.84 270.4C252.536 274.922 252.678 279.739 254.248 284.176C255.462 287.246 257.451 289.949 260.021 292.021C262.591 294.093 265.654 295.464 268.912 296" fill="#3052C5"/>
<path d="M349.752 335.48L348.704 349.6H369.208L374.008 324.6C367.762 324.251 361.602 326.181 356.672 330.032L349.752 335.48Z" fill="#FFBE9D"/>
<path d="M232.28 225.448C232.396 225.059 232.546 224.682 232.728 224.32C233.048 223.616 233.48 222.576 233.968 221.28C234.456 219.984 234.976 218.416 235.464 216.656C235.971 214.735 236.374 212.788 236.672 210.824C236.948 208.859 237.117 206.88 237.176 204.896C237.176 203.064 237.176 201.416 237.064 200.032C236.952 198.648 236.848 197.536 236.744 196.768C236.675 196.369 236.638 195.965 236.632 195.56C236.762 195.945 236.853 196.341 236.904 196.744C237.112 197.823 237.264 198.913 237.36 200.008C237.516 201.635 237.583 203.27 237.56 204.904C237.499 208.911 236.918 212.894 235.832 216.752C235.385 218.325 234.851 219.871 234.232 221.384C233.704 222.68 233.232 223.704 232.864 224.392C232.696 224.758 232.501 225.111 232.28 225.448Z" fill="#263238"/>
<path d="M238.304 218.016C238.565 217.328 238.864 216.655 239.2 216C240.601 212.753 241.413 209.283 241.6 205.752C241.599 205.017 241.639 204.283 241.72 203.552C241.877 204.277 241.936 205.019 241.896 205.76C241.868 209.348 241.049 212.885 239.496 216.12C239.19 216.805 238.789 217.444 238.304 218.016Z" fill="#263238"/>
<path d="M270.8 240.144C270.736 240.104 271.072 239.584 271.264 238.64C271.488 237.406 271.417 236.137 271.056 234.936C270.676 233.727 270.214 232.546 269.672 231.4C269.419 230.926 269.231 230.42 269.112 229.896C269.429 230.324 269.697 230.785 269.912 231.272C270.545 232.399 271.057 233.589 271.44 234.824C271.823 236.088 271.853 237.432 271.528 238.712C271.427 239.249 271.175 239.746 270.8 240.144Z" fill="#263238"/>
<path d="M265.992 296.496C265.867 296.444 265.749 296.377 265.64 296.296L264.696 295.672C263.896 295.12 262.704 294.312 261.312 293.216C259.666 291.949 258.162 290.508 256.824 288.92C255.177 286.953 253.991 284.644 253.352 282.16C252.741 279.675 252.584 277.101 252.888 274.56C253.133 272.499 253.592 270.47 254.256 268.504C254.696 267.179 255.206 265.879 255.784 264.608C255.992 264.16 256.152 263.808 256.272 263.584C256.325 263.459 256.392 263.341 256.472 263.232C256.321 263.722 256.142 264.202 255.936 264.672C255.576 265.584 255.056 266.912 254.536 268.592C253.922 270.549 253.498 272.561 253.272 274.6C252.993 277.094 253.156 279.618 253.752 282.056C254.375 284.484 255.524 286.746 257.12 288.68C258.43 290.259 259.896 291.701 261.496 292.984C262.856 294.104 264 294.944 264.792 295.544L265.688 296.232C265.896 296.392 266 296.48 265.992 296.496Z" fill="#263238"/>
<path d="M311.312 304.408C311.201 304.466 311.083 304.51 310.96 304.536C310.72 304.6 310.376 304.72 309.92 304.808C308.631 305.087 307.319 305.245 306 305.28C301.604 305.415 297.268 304.23 293.551 301.879C289.834 299.528 286.906 296.118 285.144 292.088C284.607 290.883 284.186 289.629 283.888 288.344C283.776 287.888 283.736 287.544 283.688 287.288C283.66 287.164 283.647 287.038 283.648 286.912C283.812 287.364 283.945 287.826 284.048 288.296C285.321 293.126 288.173 297.392 292.149 300.416C296.125 303.439 300.997 305.047 305.992 304.984C307.298 304.977 308.601 304.865 309.888 304.648C310.358 304.543 310.833 304.463 311.312 304.408Z" fill="#263238"/>
<path d="M324.04 320C323.928 320 324.984 315.544 326.44 310.12C327.896 304.696 329.096 300.32 329.2 300.352C329.304 300.384 328.256 304.8 326.84 310.224C325.424 315.648 324.152 320 324.04 320Z" fill="#263238"/>
<path d="M335.2 310.568C335.104 310.624 331.888 305.368 328 298.824C324.112 292.28 321.072 286.928 321.176 286.872C321.28 286.816 324.488 292.064 328.376 298.608C332.264 305.152 335.336 310.504 335.2 310.568Z" fill="#263238"/>
<path d="M365.912 323.52C365.912 323.6 364.744 323.696 362.92 324.16C361.855 324.431 360.809 324.776 359.792 325.192C358.551 325.717 357.353 326.338 356.208 327.048C355.078 327.775 354.008 328.591 353.008 329.488C352.193 330.233 351.431 331.035 350.728 331.888C349.528 333.336 348.936 334.352 348.864 334.288C348.96 334.029 349.087 333.782 349.24 333.552C349.611 332.897 350.031 332.271 350.496 331.68C351.18 330.796 351.931 329.967 352.744 329.2C353.75 328.268 354.837 327.427 355.992 326.688C357.157 325.964 358.383 325.343 359.656 324.832C360.694 324.422 361.765 324.098 362.856 323.864C363.588 323.695 364.331 323.582 365.08 323.528C365.356 323.485 365.636 323.483 365.912 323.52Z" fill="#263238"/>
<path d="M369.832 318.704C369.832 318.792 368.544 318.632 366.488 318.808C365.289 318.916 364.101 319.125 362.936 319.432C360.081 320.19 357.413 321.527 355.096 323.36C354.154 324.11 353.276 324.936 352.472 325.832C351.104 327.368 350.464 328.488 350.392 328.448C350.5 328.165 350.642 327.896 350.816 327.648C350.988 327.339 351.18 327.042 351.392 326.76C351.658 326.373 351.944 325.999 352.248 325.64C353.034 324.701 353.908 323.839 354.856 323.064C356.029 322.123 357.294 321.303 358.632 320.616C359.978 319.957 361.388 319.437 362.84 319.064C364.03 318.765 365.247 318.58 366.472 318.512C366.938 318.489 367.406 318.489 367.872 318.512C368.228 318.513 368.583 318.535 368.936 318.576C369.239 318.581 369.54 318.624 369.832 318.704Z" fill="#263238"/>
<g opacity="0.3">
<path d="M284.504 288.616C282.624 292.184 284.192 296.536 285.912 300.192C287.248 303.024 288.736 305.896 291.168 307.872C292.363 308.849 293.747 309.568 295.233 309.985C296.719 310.401 298.276 310.506 299.804 310.293C301.333 310.08 302.801 309.553 304.117 308.745C305.432 307.937 306.566 306.867 307.448 305.6C302.348 305.524 297.391 303.907 293.227 300.962C289.064 298.016 285.889 293.88 284.12 289.096" fill="black"/>
</g>
<g opacity="0.3">
<path d="M321.232 286.872C319.792 290.304 320.88 295 322.384 298.4C323.888 301.8 325.488 305.6 324.28 309.128C323.969 309.754 323.807 310.444 323.808 311.144C323.888 311.832 324.608 312.496 325.256 312.176C325.591 311.94 325.823 311.585 325.904 311.184C327.04 307.76 328.179 304.338 329.32 300.92" fill="black"/>
</g>
<path d="M245.552 241.68C245.681 239.532 245.948 237.394 246.352 235.28C246.624 233.154 247.033 231.049 247.576 228.976C247.455 231.125 247.188 233.263 246.776 235.376C246.507 237.502 246.098 239.608 245.552 241.68Z" fill="#FAFAFA"/>
<path d="M237.128 239.912C237.024 239.976 235.648 238.056 233.744 235.848C231.84 233.64 230.16 231.984 230.24 231.896C231.675 232.945 232.961 234.183 234.064 235.576C235.269 236.882 236.299 238.34 237.128 239.912Z" fill="#FAFAFA"/>
<path d="M244.36 219.304C244.119 219.819 243.816 220.303 243.456 220.744C242.848 221.6 241.96 222.744 240.928 223.944C239.896 225.144 238.904 226.224 238.16 226.96C237.787 227.387 237.359 227.764 236.888 228.08C236.8 228 238.552 226.104 240.608 223.672C242.664 221.24 244.264 219.2 244.36 219.304Z" fill="#FAFAFA"/>
<path d="M241.536 209.232C241.416 209.28 240.96 208.264 240.08 207.248C239.2 206.232 238.256 205.648 238.32 205.528C239.152 205.767 239.881 206.277 240.392 206.976C241.007 207.584 241.409 208.376 241.536 209.232Z" fill="#FAFAFA"/>
<path d="M234.24 215.44C233.587 215.748 232.881 215.93 232.16 215.976C231.461 216.159 230.732 216.202 230.016 216.104C231.368 215.613 232.803 215.388 234.24 215.44Z" fill="#FAFAFA"/>
<path d="M252.648 224.328C252.666 223.083 252.578 221.838 252.384 220.608C252.053 219.407 251.616 218.237 251.08 217.112C251.987 218.044 252.583 219.235 252.784 220.52C253.126 221.774 253.079 223.102 252.648 224.328Z" fill="#FAFAFA"/>
<path d="M262.48 234.904C261.004 232.548 259.023 230.551 256.68 229.056C258.003 229.569 259.203 230.355 260.202 231.363C261.202 232.37 261.978 233.577 262.48 234.904Z" fill="#FAFAFA"/>
<path d="M246.696 253.256C244.314 254.148 241.676 254.059 239.36 253.008C239.4 252.888 240.96 253.392 243.016 253.448C245.072 253.504 246.664 253.136 246.696 253.256Z" fill="#FAFAFA"/>
<path d="M254.104 257.056C253.992 257.008 254.616 255.168 255.136 252.832C255.656 250.496 255.888 248.56 256.008 248.576C256.09 250.039 255.934 251.507 255.544 252.92C255.29 254.367 254.804 255.764 254.104 257.056Z" fill="#FAFAFA"/>
<path d="M270.288 257.672C269.023 256.603 267.853 255.425 266.792 254.152C265.621 252.974 264.551 251.7 263.592 250.344C264.853 251.419 266.02 252.599 267.08 253.872C268.25 255.05 269.323 256.321 270.288 257.672Z" fill="#FAFAFA"/>
<path d="M277.824 276.368C276.865 275.672 275.989 274.866 275.216 273.968C274.349 273.162 273.576 272.26 272.912 271.28C273.872 271.976 274.747 272.782 275.52 273.68C276.395 274.478 277.169 275.381 277.824 276.368Z" fill="#FAFAFA"/>
<path d="M263.816 278.152C262.896 279.131 261.813 279.943 260.616 280.552C259.489 281.302 258.238 281.844 256.92 282.152C256.92 282.04 258.52 281.352 260.408 280.224C262.296 279.096 263.736 278.056 263.816 278.152Z" fill="#FAFAFA"/>
<path d="M270.264 295.936C270.144 295.936 270.624 293.808 270.864 291.176C271.104 288.544 271.032 286.376 271.152 286.376C271.446 287.959 271.489 289.579 271.28 291.176C271.2 292.807 270.857 294.414 270.264 295.936Z" fill="#FAFAFA"/>
<path d="M294.512 281.48C293.19 280.671 292.019 279.64 291.048 278.432C289.978 277.315 289.114 276.018 288.496 274.6C288.6 274.528 289.696 276.264 291.36 278.16C293.024 280.056 294.592 281.376 294.512 281.48Z" fill="#FAFAFA"/>
<path d="M303.368 289.024C303.272 288.952 304.488 287.288 305.848 285.152C307.208 283.016 308.208 281.224 308.312 281.28C307.793 282.734 307.08 284.112 306.192 285.376C305.424 286.717 304.474 287.944 303.368 289.024Z" fill="#FAFAFA"/>
<path d="M302.072 270.56C299.34 270.106 296.661 269.383 294.072 268.4C295.451 268.564 296.812 268.859 298.136 269.28C299.488 269.573 300.807 270.001 302.072 270.56Z" fill="#FAFAFA"/>
<path d="M295.616 303.056C295.474 301.796 295.474 300.524 295.616 299.264C295.626 297.996 295.771 296.733 296.048 295.496C296.192 296.756 296.192 298.028 296.048 299.288C296.04 300.556 295.895 301.819 295.616 303.056Z" fill="#FAFAFA"/>
<path d="M301.2 314.184C301.619 312.892 301.956 311.575 302.208 310.24C302.319 308.886 302.34 307.525 302.272 306.168C302.685 307.499 302.803 308.905 302.618 310.286C302.432 311.668 301.949 312.992 301.2 314.168V314.184Z" fill="#FAFAFA"/>
<path d="M286.728 311.728C286.32 308.964 286.862 306.144 288.264 303.728C288.376 303.776 287.64 305.464 287.224 307.68C286.808 309.896 286.848 311.72 286.728 311.728Z" fill="#FAFAFA"/>
<path d="M273.528 317.368C272.224 316.462 270.969 315.487 269.768 314.448C268.483 313.517 267.247 312.521 266.064 311.464C267.502 312.18 268.846 313.073 270.064 314.12C271.342 315.063 272.504 316.154 273.528 317.368Z" fill="#FAFAFA"/>
<path d="M282.464 301.672C279.402 303.615 276.192 305.313 272.864 306.752C274.37 305.715 275.954 304.795 277.6 304C279.159 303.1 280.785 302.321 282.464 301.672Z" fill="#FAFAFA"/>
<path d="M310.232 336.896C310.062 336.951 309.888 336.994 309.712 337.024C309.368 337.088 308.864 337.216 308.208 337.304C306.355 337.587 304.482 337.708 302.608 337.664C297.768 337.594 292.998 336.498 288.613 334.448C284.228 332.399 280.327 329.443 277.168 325.776C275.333 323.665 273.762 321.338 272.488 318.848C271.62 317.179 270.902 315.436 270.344 313.64C270.128 313.008 270.024 312.504 269.928 312.168C269.875 311.996 269.84 311.819 269.824 311.64C269.901 311.802 269.962 311.971 270.008 312.144C270.128 312.472 270.256 312.944 270.496 313.592C272.03 317.977 274.393 322.027 277.456 325.52C280.623 329.103 284.488 332.002 288.814 334.039C293.14 336.076 297.837 337.209 302.616 337.368C304.486 337.437 306.358 337.362 308.216 337.144C308.88 337.08 309.384 336.976 309.728 336.944C309.894 336.909 310.063 336.893 310.232 336.896Z" fill="#263238"/>
<path d="M286.328 332.752C286.055 331.482 286.186 330.159 286.704 328.968C287.094 327.729 287.867 326.645 288.912 325.872C288.205 326.895 287.597 327.982 287.096 329.12C286.729 330.304 286.472 331.52 286.328 332.752Z" fill="#FAFAFA"/>
<path d="M279.744 330C278.984 330.588 278.287 331.253 277.664 331.984C277.144 332.79 276.705 333.644 276.352 334.536C276.379 333.522 276.719 332.541 277.327 331.729C277.934 330.916 278.779 330.312 279.744 330Z" fill="#FAFAFA"/>
<path d="M305.064 345.072C303.755 344.967 302.49 344.549 301.376 343.853C300.262 343.157 299.332 342.203 298.664 341.072C300.404 342.951 302.613 344.331 305.064 345.072Z" fill="#FAFAFA"/>
<path d="M309 322.912C308.832 324.088 308.335 325.192 307.566 326.098C306.798 327.004 305.789 327.674 304.656 328.032C305.591 327.387 306.459 326.65 307.248 325.832C307.931 324.921 308.518 323.943 309 322.912Z" fill="#FAFAFA"/>
<path d="M320.192 339.432C320.096 339.352 321.152 338.016 322.128 336.176C323.104 334.336 323.624 332.712 323.728 332.752C323.275 335.296 322.032 337.634 320.176 339.432H320.192Z" fill="#FAFAFA"/>
<path d="M334.984 341.6C335.032 341.72 333.576 342.296 332.112 343.504C330.648 344.712 329.768 346.008 329.664 345.904C330.124 344.8 330.88 343.845 331.848 343.144C332.73 342.348 333.816 341.814 334.984 341.6Z" fill="#FAFAFA"/>
<path d="M323.704 322.664C323.576 322.704 322.904 320.368 321.408 317.776C319.912 315.184 318.312 313.36 318.416 313.28C318.855 313.589 319.241 313.968 319.56 314.4C321.244 316.367 322.526 318.645 323.336 321.104C323.537 321.602 323.661 322.128 323.704 322.664Z" fill="#FAFAFA"/>
<path d="M325.912 298.848C323.422 299.708 320.847 300.301 318.232 300.616C320.723 299.758 323.297 299.166 325.912 298.848Z" fill="#FAFAFA"/>
<path d="M319.104 291.728C318.191 290.879 317.37 289.935 316.656 288.912C315.842 287.97 315.131 286.942 314.536 285.848C315.458 286.686 316.28 287.628 316.984 288.656C317.806 289.595 318.518 290.626 319.104 291.728Z" fill="#FAFAFA"/>
<path d="M336 287.456C333.408 287.391 330.857 286.787 328.512 285.68C329.779 285.896 331.032 286.188 332.264 286.552C333.526 286.777 334.774 287.079 336 287.456Z" fill="#FAFAFA"/>
<path d="M348 287.24C348.344 286.108 348.753 284.997 349.224 283.912C349.562 282.775 349.971 281.661 350.448 280.576C350.383 281.773 350.112 282.95 349.648 284.056C349.291 285.206 348.733 286.284 348 287.24Z" fill="#FAFAFA"/>
<path d="M345.264 303.496C342.783 302.942 340.542 301.614 338.864 299.704C338.944 299.608 340.208 300.712 341.96 301.744C343.712 302.776 345.304 303.376 345.264 303.496Z" fill="#FAFAFA"/>
<path d="M353.056 303C353.217 301.394 353.511 299.805 353.936 298.248C354.225 296.666 354.648 295.111 355.2 293.6C354.751 296.793 354.026 299.941 353.032 303.008L353.056 303Z" fill="#FAFAFA"/>
<path d="M346.552 321.176C344.555 318.916 342.772 316.476 341.224 313.888C342.272 314.973 343.22 316.152 344.056 317.408C345.002 318.584 345.838 319.846 346.552 321.176Z" fill="#FAFAFA"/>
<path d="M357.656 314.224C357.544 314.28 356.816 312.832 355.664 311.216C354.512 309.6 353.4 308.424 353.488 308.336C354.494 309.041 355.351 309.938 356.008 310.976C356.772 311.935 357.333 313.041 357.656 314.224Z" fill="#FAFAFA"/>
<path d="M368.072 312.664C367.16 311.593 366.305 310.474 365.512 309.312C364.603 308.241 363.748 307.125 362.952 305.968C365.08 307.844 366.82 310.119 368.072 312.664Z" fill="#FAFAFA"/>
<path d="M365.6 319.568C365.457 318.607 365.134 317.681 364.648 316.84C364.063 316.063 363.338 315.401 362.512 314.888C362.512 314.84 362.88 314.888 363.384 315.136C364.034 315.482 364.585 315.989 364.984 316.608C365.391 317.225 365.636 317.935 365.696 318.672C365.776 319.2 365.672 319.568 365.6 319.568Z" fill="#FAFAFA"/>
<path d="M357.504 329.032C357.44 329.032 357.464 328.816 357.4 328.536C357.324 328.176 357.13 327.852 356.848 327.616C356.553 327.397 356.191 327.287 355.824 327.304C355.536 327.304 355.352 327.376 355.32 327.304C355.288 327.232 355.44 327.088 355.784 326.992C356.01 326.933 356.247 326.927 356.476 326.974C356.705 327.021 356.92 327.121 357.104 327.265C357.288 327.409 357.437 327.593 357.538 327.804C357.639 328.015 357.691 328.246 357.688 328.48C357.68 328.864 357.552 329.048 357.504 329.032Z" fill="#FAFAFA"/>
<path d="M274.272 344.16C272.778 343.584 271.42 342.704 270.285 341.574C269.15 340.445 268.263 339.091 267.68 337.6C269.312 340.298 271.574 342.56 274.272 344.192V344.16Z" fill="#FAFAFA"/>
<path d="M223.352 145.6C222.064 133.432 219.736 121.984 219.104 110.056C219.129 109.757 219.091 109.456 218.994 109.172C218.896 108.888 218.74 108.628 218.536 108.408C218.362 108.306 218.169 108.241 217.968 108.216C217.768 108.191 217.565 108.207 217.371 108.263C217.177 108.319 216.997 108.414 216.841 108.542C216.685 108.67 216.557 108.829 216.464 109.008C216.115 109.757 215.977 110.586 216.064 111.408C216.078 117.751 214.995 124.049 212.864 130.024C211.496 133.904 209.664 137.624 208.64 141.6C207.616 145.576 209.544 146.928 211.336 150.632" fill="#FFBE9D"/>
<path d="M211.36 150.616C209.775 149.4 208.546 147.781 207.802 145.927C207.057 144.074 206.824 142.054 207.128 140.08C207.536 137.68 208.728 135.504 209.672 133.264C210.616 131.024 211.344 128.536 210.768 126.176C210.45 125.3 210.235 124.39 210.128 123.464C210.128 122.536 210.728 121.496 211.656 121.456C212.007 121.484 212.346 121.594 212.647 121.776C212.949 121.957 213.204 122.207 213.392 122.504C214.952 124.432 216.2 130.064 215.416 134.272" fill="#FFBE9D"/>
<path d="M215.416 134.272C215.416 134.272 215.496 133.624 215.544 132.456C215.594 130.808 215.457 129.161 215.136 127.544C214.921 126.431 214.599 125.34 214.176 124.288C213.953 123.715 213.652 123.177 213.28 122.688C213.113 122.426 212.894 122.2 212.637 122.025C212.38 121.851 212.089 121.73 211.784 121.672C211.469 121.687 211.169 121.805 210.927 122.007C210.686 122.209 210.518 122.485 210.448 122.792C210.276 123.474 210.321 124.192 210.576 124.848C210.845 125.58 211.033 126.339 211.136 127.112C211.213 127.912 211.184 128.719 211.048 129.512C210.488 132.76 208.76 135.384 207.848 137.984C207.398 139.199 207.158 140.481 207.136 141.776C207.131 142.904 207.298 144.026 207.632 145.104C208.117 146.676 208.935 148.125 210.032 149.352C210.832 150.208 211.352 150.584 211.328 150.624C211.185 150.551 211.051 150.463 210.928 150.36C210.567 150.085 210.227 149.783 209.912 149.456C208.743 148.25 207.867 146.791 207.352 145.192C206.987 144.09 206.798 142.937 206.792 141.776C206.799 140.439 207.034 139.113 207.488 137.856C208.368 135.2 210.072 132.576 210.6 129.448C210.737 128.688 210.766 127.912 210.688 127.144C210.592 126.393 210.412 125.655 210.152 124.944C209.875 124.209 209.836 123.406 210.04 122.648C210.159 122.269 210.377 121.93 210.672 121.664C210.819 121.527 210.993 121.421 211.183 121.353C211.373 121.286 211.575 121.258 211.776 121.272C212.142 121.32 212.495 121.446 212.809 121.64C213.123 121.835 213.393 122.094 213.6 122.4C213.989 122.93 214.301 123.511 214.528 124.128C214.951 125.202 215.262 126.318 215.456 127.456C215.759 129.096 215.853 130.768 215.736 132.432C215.708 132.883 215.649 133.332 215.56 133.776C215.536 133.947 215.487 134.114 215.416 134.272Z" fill="#EB996E"/>
<path d="M320 199.24C320.262 200.384 320.881 201.416 321.769 202.184C322.656 202.952 323.766 203.417 324.936 203.512C326.109 203.569 327.277 203.328 328.33 202.81C329.384 202.292 330.289 201.515 330.96 200.552C332.288 198.593 332.823 196.202 332.456 193.864C332 190.496 329.76 187.256 326.512 186.256C323.264 185.256 319.224 187.056 318.328 190.32L314.584 195.544L320 199.24Z" fill="#263238"/>
<path d="M315.576 188.976C315.939 186.081 315.717 183.143 314.923 180.335C314.129 177.527 312.779 174.908 310.953 172.632C309.127 170.356 306.862 168.471 304.294 167.087C301.725 165.703 298.905 164.849 296 164.576C284.392 163.472 274.064 172.12 272.328 183.656C270.8 193.768 269.488 203.976 269.536 207.656C269.68 218.856 276.216 223.192 278.872 224.456C279.825 224.8 280.812 225.044 281.816 225.184C281.825 225.186 281.835 225.19 281.843 225.195C281.851 225.201 281.858 225.208 281.863 225.216C281.868 225.224 281.872 225.233 281.873 225.243C281.875 225.253 281.874 225.263 281.872 225.272L279.392 238.072C278.264 246.48 282.96 253.984 291.352 255.208C299.744 256.432 306.36 249.976 307.648 241.56L315.576 188.976Z" fill="#FFBE9D"/>
<path d="M274.256 190.192C274.44 190.456 275.912 189.664 277.808 189.944C279.704 190.224 280.944 191.376 281.184 191.168C281.304 191.08 281.136 190.64 280.6 190.112C279.864 189.424 278.934 188.98 277.936 188.84C276.951 188.697 275.946 188.868 275.064 189.328C274.4 189.688 274.16 190.072 274.256 190.192Z" fill="#263238"/>
<path d="M291.088 193.84C291.272 194.104 292.752 193.312 294.64 193.592C296.528 193.872 297.784 195.024 298.024 194.816C298.136 194.728 297.976 194.288 297.432 193.752C296.698 193.068 295.77 192.627 294.776 192.488C293.791 192.344 292.786 192.515 291.904 192.976C291.256 193.336 291 193.72 291.088 193.84Z" fill="#263238"/>
<path d="M284.544 202.784C283.592 202.328 282.587 201.992 281.552 201.784C281.072 201.664 280.632 201.496 280.6 201.16C280.631 200.656 280.816 200.173 281.128 199.776L283.096 196.304C285.84 191.352 287.896 187.256 287.704 187.144C287.512 187.032 285.112 190.96 282.368 195.944L280.456 199.44C280.073 199.983 279.887 200.641 279.928 201.304C279.979 201.48 280.067 201.643 280.187 201.781C280.308 201.919 280.457 202.029 280.624 202.104C280.88 202.213 281.149 202.291 281.424 202.336C282.441 202.617 283.489 202.767 284.544 202.784Z" fill="#263238"/>
<path d="M281.888 225.264C281.888 225.264 289.088 226.928 299.048 222.768C299.048 222.768 294.76 232.008 281.224 228.72L281.888 225.264Z" fill="#EB996E"/>
<path d="M284.68 207.464C285.104 207.074 285.619 206.796 286.178 206.656C286.737 206.517 287.322 206.519 287.88 206.664C288.292 206.766 288.679 206.948 289.02 207.201C289.36 207.453 289.647 207.771 289.864 208.136C290.072 208.487 290.166 208.894 290.133 209.301C290.1 209.708 289.942 210.095 289.68 210.408C289.328 210.705 288.895 210.89 288.437 210.937C287.979 210.984 287.517 210.891 287.112 210.672C286.263 210.229 285.512 209.62 284.904 208.88C284.709 208.699 284.551 208.482 284.44 208.24C284.385 208.125 284.366 207.996 284.386 207.87C284.406 207.744 284.464 207.628 284.552 207.536" fill="#EB996E"/>
<path d="M289.92 204.904C289.616 204.84 289.312 206.896 287.344 208.104C285.376 209.312 283.216 208.76 283.16 209.048C283.112 209.176 283.592 209.52 284.512 209.68C285.712 209.87 286.941 209.632 287.984 209.008C288.985 208.406 289.713 207.44 290.016 206.312C290.216 205.456 290.064 204.912 289.92 204.904Z" fill="#263238"/>
<path d="M292.392 187.68C292.504 188.224 294.432 188.256 296.608 188.848C298.784 189.44 300.504 190.304 300.864 189.888C301.024 189.688 300.784 189.16 300.136 188.552C299.258 187.8 298.22 187.259 297.102 186.968C295.983 186.676 294.813 186.644 293.68 186.872C292.8 187.08 292.352 187.424 292.392 187.68Z" fill="#263238"/>
<path d="M276.168 184.36C276.432 184.84 277.808 184.584 279.368 184.792C280.928 185 282.224 185.496 282.568 185.096C282.736 184.896 282.568 184.432 282.064 183.944C281.357 183.341 280.486 182.962 279.562 182.857C278.639 182.751 277.705 182.924 276.88 183.352C276.296 183.712 276.048 184.128 276.168 184.36Z" fill="#263238"/>
<path d="M270.136 181.152C272.448 184.68 279.792 182.496 284.224 180.072C286.539 181.549 289.339 182.064 292.028 181.508C294.718 180.952 297.084 179.369 298.624 177.096C301.16 180.296 306.32 179.256 308.224 175.616C310.128 171.976 309.024 166.96 306.464 163.776C303.904 160.592 300.112 158.976 296.384 158.296C287.544 156.696 277.92 160.088 272.632 168.08C270.192 171.768 268.728 176.736 270.176 181.152" fill="#263238"/>
<path d="M294.568 159.552C294.568 159.712 292.48 159.312 289.2 159.856C284.94 160.565 281.034 162.666 278.096 165.832C275.33 169.146 273.502 173.14 272.8 177.4C272.557 179.176 272.463 180.969 272.52 182.76C272.35 182.298 272.25 181.812 272.224 181.32C272.084 179.989 272.106 178.646 272.288 177.32C272.868 172.895 274.706 168.73 277.584 165.32C280.626 162.026 284.724 159.901 289.168 159.312C290.494 159.134 291.837 159.112 293.168 159.248C293.648 159.277 294.12 159.38 294.568 159.552Z" fill="#455A64"/>
<path d="M282.616 176C282.484 175.595 282.425 175.17 282.44 174.744C282.398 173.583 282.519 172.423 282.8 171.296C283.228 169.406 284.038 167.624 285.181 166.059C286.323 164.494 287.774 163.179 289.444 162.196C291.114 161.213 292.967 160.582 294.89 160.342C296.812 160.102 298.764 160.258 300.624 160.8C301.747 161.108 302.823 161.565 303.824 162.16C304.21 162.361 304.554 162.632 304.84 162.96C303.445 162.3 301.994 161.764 300.504 161.36C296.881 160.437 293.04 160.984 289.818 162.881C286.596 164.778 284.254 167.872 283.304 171.488C282.52 174.16 282.768 176 282.616 176Z" fill="#455A64"/>
<path d="M303.824 172.16C302.957 175.291 302.457 178.513 302.336 181.76C302.216 185.025 303.231 188.231 305.208 190.832C308.296 194.552 313.448 195.688 318.2 196.592C320.742 190.25 321.508 183.336 320.416 176.592C319.872 173.32 318.816 169.984 316.512 167.6C314.799 165.91 312.574 164.836 310.185 164.547C307.796 164.257 305.379 164.768 303.312 166" fill="#263238"/>
<path d="M306.464 187.648C305.216 190.352 305.304 193.48 305.736 196.448C306.168 199.416 306.92 202.32 306.888 205.296C306.856 208.272 305.912 211.432 303.576 213.296C302.868 213.768 302.204 214.304 301.592 214.896C301.29 215.197 301.088 215.583 301.014 216.002C300.939 216.422 300.996 216.854 301.176 217.24C301.624 217.96 302.976 217.944 303.168 217.12L303.048 217.328C302.93 217.527 302.867 217.754 302.864 217.986C302.862 218.217 302.92 218.445 303.034 218.647C303.147 218.849 303.312 219.017 303.511 219.135C303.71 219.253 303.937 219.317 304.168 219.32C304.986 219.281 305.786 219.075 306.521 218.714C307.256 218.354 307.909 217.847 308.44 217.224C309.968 215.456 310.576 213.08 310.976 210.824C312.208 203.76 311.968 196.424 313.92 189.536" fill="#263238"/>
<path d="M279.336 234.04C279.887 236.446 280.949 238.706 282.451 240.666C283.952 242.625 285.858 244.239 288.038 245.397C290.218 246.555 292.622 247.23 295.086 247.377C297.55 247.524 300.018 247.139 302.32 246.248C306.464 244.648 309.808 241.528 313.032 238.48C313.609 241.95 313.45 245.502 312.566 248.907C311.681 252.311 310.091 255.492 307.898 258.242C305.705 260.992 302.959 263.251 299.837 264.871C296.715 266.492 293.287 267.438 289.776 267.648C284.472 267.968 278.776 266.352 275.44 262.216C273.112 259.336 272.176 255.52 272.24 251.816C272.402 248.106 273.108 244.44 274.336 240.936C275.28 237.912 276.776 234.536 279.832 233.696" fill="#3052C5"/>
<path d="M317.288 196.8C320.488 198.52 322.2 202.12 322.816 205.672C323.432 209.224 323.12 212.872 323.272 216.464C323.424 220.056 324.112 223.832 326.392 226.624C328.792 229.6 332.592 231.008 335.992 232.824C343.448 236.824 349.592 243.648 351.832 251.824C354.072 260 352.04 269.424 345.92 275.304C340.32 280.632 332.24 282.504 324.528 282.504C319.032 282.504 312.992 281.32 309.56 277.024C306.128 272.728 306.36 266.704 307.56 261.408C308.76 256.112 310.96 250.968 311.048 245.536C310.227 248.899 308.795 252.082 306.824 254.928C306.256 255.728 305.288 256.608 304.424 256.144C303.56 255.68 303.824 254.184 304.272 253.184C310.896 238.44 308.592 208.72 312.52 192.44" fill="#263238"/>
<path d="M311.832 195.128C312.032 195.064 319.768 193.6 318.768 201.248C317.768 208.896 310.304 206.32 310.32 206.104C310.336 205.888 311.832 195.128 311.832 195.128Z" fill="#FFBE9D"/>
<path d="M313.032 203.512C313.032 203.512 313.152 203.616 313.368 203.752C313.667 203.928 314.022 203.982 314.36 203.904C315.208 203.712 316.056 202.512 316.272 201.144C316.373 200.489 316.329 199.82 316.144 199.184C316.104 198.935 316.003 198.7 315.851 198.5C315.699 198.299 315.5 198.138 315.272 198.032C315.128 197.981 314.972 197.979 314.827 198.027C314.682 198.075 314.557 198.17 314.472 198.296C314.344 198.496 314.368 198.656 314.328 198.664C314.288 198.672 314.184 198.512 314.28 198.208C314.348 198.023 314.478 197.868 314.648 197.768C314.767 197.696 314.899 197.65 315.037 197.632C315.175 197.615 315.315 197.625 315.448 197.664C315.754 197.767 316.029 197.947 316.246 198.187C316.463 198.426 316.615 198.717 316.688 199.032C316.925 199.737 316.988 200.489 316.872 201.224C316.624 202.76 315.648 204.096 314.472 204.272C314.259 204.306 314.041 204.292 313.834 204.229C313.628 204.167 313.438 204.058 313.28 203.912C313.024 203.696 313.008 203.52 313.032 203.512Z" fill="#EB996E"/>
<path d="M271.432 250.52C271.807 249.703 272.241 248.915 272.728 248.16C273.843 246.314 274.768 244.36 275.488 242.328C276.188 240.294 276.423 238.129 276.176 235.992C276.02 235.115 275.817 234.247 275.568 233.392C275.719 233.587 275.835 233.806 275.912 234.04C276.173 234.653 276.361 235.295 276.472 235.952C276.809 238.135 276.608 240.368 275.888 242.456C275.162 244.519 274.187 246.485 272.984 248.312C272.536 249.016 272.184 249.576 271.888 249.952C271.592 250.328 271.456 250.536 271.432 250.52Z" fill="#263238"/>
<path d="M275.328 241.696C275.216 241.696 275 241.04 274.312 240.584C273.624 240.128 272.936 240.128 272.92 240.008C272.904 239.888 273.088 239.872 273.4 239.864C273.813 239.868 274.216 239.999 274.552 240.24C274.891 240.477 275.152 240.808 275.304 241.192C275.408 241.488 275.384 241.68 275.328 241.696Z" fill="#FAFAFA"/>
<path d="M280.272 241.68C279.673 241.006 279.014 240.388 278.304 239.832C277.516 239.391 276.685 239.032 275.824 238.76C276.3 238.694 276.785 238.725 277.25 238.85C277.714 238.975 278.149 239.192 278.528 239.488C279.373 239.963 279.999 240.75 280.272 241.68Z" fill="#FAFAFA"/>
<path d="M283.376 257.912C283.395 256.809 283.55 255.713 283.84 254.648C283.994 253.549 284.287 252.474 284.712 251.448C284.694 252.554 284.538 253.653 284.248 254.72C284.093 255.816 283.8 256.889 283.376 257.912Z" fill="#FAFAFA"/>
<path d="M295.856 260.36C295.656 258.063 295.728 255.751 296.072 253.472C296.283 255.768 296.21 258.081 295.856 260.36Z" fill="#FAFAFA"/>
<path d="M41.0479 295.912L28.7119 349.632L54.7999 349.712L66.8479 302.472L41.0479 295.912Z" fill="#B78876"/>
<path d="M169.16 229.912C166.68 226.592 163.832 223.4 162.528 219.464C161.896 217.56 161.648 215.544 160.976 213.656C160.304 211.768 159.08 209.928 157.208 209.216C155.336 208.504 153.912 209.216 152.696 210.56L143.744 236.744L148.904 256.856C154.056 255.696 160.504 254.32 165.32 252.152C170.136 249.984 173.32 246.512 173.656 241.24C173.888 237.104 171.64 233.24 169.16 229.912Z" fill="#263238"/>
<path d="M87.696 225.288C87.696 225.288 56.576 238.832 52.688 244.944C48.8 251.056 36 294.632 36 294.632L68.8 304.232L68.24 349.6H148.64L147.976 269.6L137.896 225.392C137.896 225.392 120.144 224.248 118.496 223.44C116.848 222.632 87.696 225.288 87.696 225.288Z" fill="#FFC727"/>
<path d="M198.288 114.4C198.544 112.568 197.256 110.552 198.184 108.944C198.798 108.115 199.675 107.52 200.672 107.256C201.155 107.035 201.677 106.913 202.208 106.896C202.473 106.892 202.733 106.965 202.956 107.107C203.179 107.25 203.356 107.454 203.464 107.696C203.521 108.002 203.495 108.318 203.386 108.61C203.277 108.901 203.091 109.158 202.848 109.352C202.36 109.735 201.95 110.207 201.64 110.744C201.423 112.061 201.524 113.41 201.936 114.68C203.002 117.473 203.886 120.333 204.584 123.24" fill="#B78876"/>
<path d="M191.72 115.024C191.832 112.248 194.12 101.312 194.2 98.536C196.08 99.112 197.168 101.112 197.52 103.048C197.872 104.984 197.688 106.976 198.024 108.912C198.472 111.512 199.824 113.856 201.184 116.112C202.544 118.368 203.968 120.664 204.584 123.224C205.2 125.784 207.52 132.44 205.712 134.36" fill="#B78876"/>
<path d="M191.2 133.744L180.072 186.608C179.68 189.008 137.896 225.448 137.896 225.448L146.144 258.4L200.544 205.176C204.472 200.977 206.61 195.413 206.504 189.664L205.576 140.064L191.2 133.744Z" fill="#B78876"/>
<path d="M189.296 115.36L191.2 133.76L205.6 140.096C205.6 140.096 205.776 138.792 206.4 132.416C207.08 125.392 199.528 122.376 196.16 117.216C194.72 115 195.096 110.92 193.984 105.864C193.856 105.28 193.056 101.744 192.624 99.848C192.396 98.7943 191.779 97.8656 190.896 97.248C190.24 96.816 189.504 96.6 188.968 97.248C188.432 97.896 189.296 115.36 189.296 115.36Z" fill="#B78876"/>
<path d="M198.288 136.8C199.888 135.416 200.272 132.936 199.672 130.88C198.937 128.855 197.778 127.011 196.272 125.472C194.768 123.936 193.503 122.183 192.52 120.272C191.912 118.896 191.624 117.376 190.92 116.024C190.216 114.672 189.024 113.432 187.52 113.376C188.728 120.984 188.696 125.376 191.168 133.712" fill="#B78876"/>
<path d="M189.016 122.064C189.016 122.064 188.96 121.856 188.872 121.456C188.784 121.056 188.632 120.392 188.488 119.712C188.144 118.112 187.688 116.072 187.216 113.728L187.168 113.504H187.4C187.892 113.486 188.384 113.566 188.845 113.739C189.306 113.912 189.729 114.175 190.088 114.512C191.186 115.557 191.968 116.891 192.344 118.36C192.663 119.502 193.083 120.613 193.6 121.68C193.991 122.381 194.464 123.033 195.008 123.624C195.206 123.851 195.368 124.107 195.488 124.384C195.269 124.181 195.066 123.962 194.88 123.728C194.284 123.165 193.768 122.525 193.344 121.824C192.779 120.753 192.318 119.631 191.968 118.472C191.596 117.076 190.849 115.809 189.808 114.808C189.159 114.199 188.298 113.869 187.408 113.888L187.6 113.648C188.568 118.464 189.192 122.072 189.016 122.064Z" fill="#7C5142"/>
<path d="M195.488 117.384C194.907 114.909 194.464 112.404 194.16 109.88C193.716 107.376 193.408 104.85 193.24 102.312C193.825 104.789 194.268 107.297 194.568 109.824C195.012 112.325 195.319 114.849 195.488 117.384Z" fill="#7C5142"/>
<path d="M200.072 118.008C200.072 118.008 200.128 118.088 200.176 118.288H200.056C199.461 116.576 198.975 114.829 198.6 113.056C198.256 111.512 198.008 110.104 197.856 109.056C197.732 108.508 197.684 107.945 197.712 107.384C197.832 107.384 198.32 109.872 199.008 112.984C199.56 115.472 200.072 117.568 200.176 118.272H200.056C200.048 118.104 200.048 118.008 200.072 118.008Z" fill="#7C5142"/>
<path d="M202.912 128.144C202.848 128.144 202.56 127.728 201.984 127.112C200.462 125.495 198.396 124.498 196.184 124.312C195.721 124.316 195.258 124.287 194.8 124.224C195.243 124.052 195.718 123.981 196.192 124.016C197.345 124.03 198.481 124.298 199.519 124.8C200.557 125.302 201.472 126.025 202.2 126.92C202.527 127.268 202.771 127.687 202.912 128.144Z" fill="#7C5142"/>
<path d="M192.504 135.2C192.108 134.512 191.789 133.782 191.552 133.024C190.894 131.229 190.344 129.396 189.904 127.536C189.456 125.691 189.12 123.821 188.896 121.936C188.765 121.143 188.717 120.339 188.752 119.536C188.953 120.3 189.097 121.078 189.184 121.864C189.424 123.296 189.792 125.28 190.304 127.464C190.816 129.648 191.392 131.56 191.832 132.952C192.108 133.685 192.332 134.436 192.504 135.2Z" fill="#7C5142"/>
<path d="M128.128 226.4C128.841 225.308 129.946 224.533 131.216 224.235C132.485 223.937 133.82 224.14 134.944 224.8C140.816 220 146.824 215.344 152.696 210.568C150.776 220.168 149.496 233.552 153.792 242.336C153.792 242.336 159.208 252.4 167.832 250.864L160.136 258.4L148 269.656" fill="#FFC727"/>
<path d="M126.224 230.88C126.233 229.592 126.626 228.336 127.352 227.272C127.965 226.136 128.9 225.206 130.04 224.6C128.232 226.317 126.915 228.485 126.224 230.88Z" fill="#263238"/>
<path d="M132.568 236.8C132.235 236.267 132.007 235.675 131.896 235.056C131.551 233.572 131.509 232.034 131.775 230.534C132.04 229.034 132.607 227.603 133.44 226.328C133.758 225.783 134.176 225.302 134.672 224.912C134.728 224.96 134.264 225.504 133.696 226.512C132.957 227.787 132.445 229.181 132.184 230.632C131.933 232.085 131.933 233.571 132.184 235.024C132.384 236.064 132.632 236.736 132.568 236.8Z" fill="#263238"/>
<path d="M161.96 257.344C161.369 257.711 160.724 257.981 160.048 258.144C158.2 258.59 156.266 258.532 154.448 257.976C151.755 257.121 149.399 255.442 147.712 253.176C145.685 250.397 144.317 247.194 143.712 243.808C142.582 237.711 142.259 231.493 142.752 225.312C142.936 222.912 143.2 221.04 143.424 219.712C143.528 219.056 143.624 218.552 143.696 218.208C143.721 218.031 143.764 217.857 143.824 217.688C143.829 217.868 143.813 218.048 143.776 218.224L143.584 219.736C143.416 221.048 143.192 222.936 143.048 225.336C142.639 231.49 142.999 237.671 144.12 243.736C144.719 247.034 146.044 250.158 148 252.88C149.617 255.123 151.898 256.802 154.52 257.68C156.29 258.25 158.178 258.352 160 257.976C160.667 257.809 161.321 257.598 161.96 257.344Z" fill="#FAFAFA"/>
<path d="M68.9519 317.736C68.8399 317.736 68.7439 306.36 68.7439 292.336C68.7439 278.312 68.8399 266.936 68.9519 266.936C69.0639 266.936 69.1599 278.304 69.1599 292.336C69.1599 306.368 69.0719 317.736 68.9519 317.736Z" fill="#263238"/>
<path d="M68.3119 258.16C68.2239 258.16 68.2479 257.024 67.8559 255.256C67.6224 254.223 67.2874 253.215 66.8559 252.248C66.3183 251.071 65.6558 249.955 64.8799 248.92C64.0824 247.899 63.1787 246.966 62.1839 246.136C61.3649 245.467 60.4835 244.877 59.5519 244.376C57.9519 243.536 56.8399 243.256 56.8639 243.176C57.137 243.19 57.4065 243.244 57.6639 243.336C57.9671 243.412 58.264 243.511 58.5519 243.632C58.9444 243.767 59.3267 243.93 59.6959 244.12C60.6569 244.59 61.5637 245.165 62.3999 245.832C63.4269 246.671 64.3579 247.62 65.1759 248.664C65.9743 249.726 66.6456 250.878 67.1759 252.096C67.6116 253.092 67.9362 254.133 68.1439 255.2C68.226 255.607 68.2821 256.018 68.3119 256.432C68.3493 256.743 68.3653 257.055 68.3599 257.368C68.3744 257.633 68.3583 257.899 68.3119 258.16Z" fill="#263238"/>
<path d="M123.104 224.936C123.17 225.158 123.216 225.386 123.24 225.616C123.348 226.265 123.417 226.919 123.448 227.576C123.544 230.003 123.205 232.428 122.448 234.736C121.321 238.178 119.323 241.27 116.648 243.712C113.293 246.644 109.08 248.412 104.638 248.752C100.195 249.092 95.7622 247.987 92 245.6C88.9925 243.587 86.5564 240.832 84.928 237.6C83.8373 235.431 83.1411 233.085 82.872 230.672C82.807 230.018 82.7776 229.361 82.784 228.704C82.7647 228.475 82.7647 228.245 82.784 228.016C82.8215 228.241 82.8403 228.468 82.84 228.696C82.8605 229.349 82.9139 230 83 230.648C83.3277 233.026 84.0581 235.331 85.16 237.464C86.7923 240.63 89.2075 243.327 92.176 245.296C95.8701 247.619 100.212 248.696 104.563 248.369C108.914 248.042 113.046 246.329 116.352 243.48C118.998 241.088 120.986 238.059 122.128 234.68C122.895 232.405 123.273 230.017 123.248 227.616C123.248 226.768 123.176 226.112 123.112 225.664C123.048 225.216 123.096 224.944 123.104 224.936Z" fill="#263238"/>
<path d="M68.2638 294.344C68.2638 294.456 61.6158 292.368 53.5038 289.688C45.3918 287.008 38.8398 284.744 38.8798 284.632C38.9198 284.52 45.5198 286.608 53.6398 289.288C61.7598 291.968 68.2958 294.232 68.2638 294.344Z" fill="#FAFAFA"/>
<path d="M147.2 283.24C147.2 283.36 129.56 283.528 107.8 283.616C86.0398 283.704 68.3918 283.688 68.3918 283.616C68.3918 283.544 86.0318 283.328 107.8 283.24C129.568 283.152 147.2 283.128 147.2 283.24Z" fill="#FAFAFA"/>
<path d="M147.6 290.208C147.6 290.32 129.864 290.416 108 290.416C86.1358 290.416 68.3918 290.32 68.3918 290.208C68.3918 290.096 86.1198 290 108 290C129.88 290 147.6 290.088 147.6 290.208Z" fill="#FAFAFA"/>
<path d="M136.736 298.672C136.682 298.894 136.607 299.111 136.512 299.32C136.336 299.768 136.096 300.376 135.8 301.144L135.272 302.456C135.064 302.936 134.816 303.44 134.56 303.992C134.032 305.08 133.488 306.344 132.728 307.672L131.576 309.768C131.176 310.496 130.696 311.216 130.232 311.984C129.32 313.528 128.2 315.08 127.032 316.736C124.434 320.255 121.573 323.571 118.472 326.656C115.327 329.698 111.955 332.495 108.384 335.024C106.704 336.144 105.128 337.24 103.584 338.12C102.784 338.568 102.08 339.032 101.344 339.424L99.1999 340.528C97.8639 341.256 96.5839 341.784 95.4879 342.288C94.9359 342.528 94.4239 342.768 93.9439 342.968L92.6159 343.472L90.7839 344.152C90.5726 344.243 90.3529 344.312 90.1279 344.36C90.3276 344.247 90.5363 344.15 90.7519 344.072L92.5599 343.32L93.8639 342.784C94.3439 342.576 94.8479 342.328 95.3919 342.072C96.4799 341.552 97.7439 341.008 99.0639 340.264L101.168 339.144C101.896 338.744 102.624 338.272 103.392 337.824C104.936 336.936 106.496 335.832 108.192 334.712C115.318 329.684 121.585 323.538 126.752 316.512C127.912 314.872 129.04 313.312 129.952 311.8C130.424 311.04 130.912 310.328 131.32 309.608L132.48 307.528C133.28 306.224 133.816 304.968 134.36 303.888C134.624 303.344 134.888 302.848 135.104 302.376C135.32 301.904 135.496 301.472 135.664 301.08C135.992 300.328 136.256 299.736 136.464 299.288C136.544 299.078 136.635 298.872 136.736 298.672Z" fill="#263238"/>
<g opacity="0.3">
<path d="M133.488 305.6C128.112 312.144 122.48 316.888 114.584 319.944C110.8 321.4 106.84 322.4 103.176 324.136C99.512 325.872 96.056 328.488 94.376 332.192C93.104 335.056 93.72 339.392 96.776 340.016C97.9632 340.162 99.1676 339.976 100.256 339.48C115.896 333.808 126.176 319.48 133.44 305.6" fill="black"/>
</g>
<path d="M77.544 163.264C74.168 165.912 73.944 170.864 74.112 175.152C74.28 179.44 74.328 184.32 71.2 187.28C68.64 189.72 64.16 190.624 63.424 194.088C63.2377 194.904 63.3122 195.758 63.637 196.53C63.9617 197.301 64.5203 197.952 65.2342 198.389C65.948 198.826 66.7811 199.028 67.616 198.967C68.4509 198.906 69.2455 198.585 69.888 198.048C68.8 200.76 69.296 204.232 71.608 206.048C73.92 207.864 77.96 207 78.808 204.216C78.6769 204.676 78.6408 205.159 78.7017 205.634C78.7627 206.109 78.9195 206.566 79.1626 206.979C79.4057 207.392 79.7301 207.75 80.1161 208.034C80.5021 208.317 80.9416 208.519 81.408 208.628C81.8745 208.736 82.358 208.749 82.8295 208.665C83.3009 208.581 83.7504 208.402 84.1506 208.139C84.5508 207.876 84.8934 207.535 85.1577 207.135C85.422 206.736 85.6024 206.287 85.688 205.816" fill="#263238"/>
<path d="M126.536 194.312C126.697 194.874 126.972 195.397 127.343 195.848C127.715 196.299 128.175 196.669 128.695 196.935C129.216 197.201 129.786 197.357 130.369 197.394C130.952 197.43 131.537 197.346 132.087 197.147C132.636 196.948 133.139 196.639 133.564 196.237C133.989 195.836 134.326 195.351 134.556 194.814C134.786 194.276 134.903 193.697 134.899 193.113C134.896 192.528 134.772 191.951 134.536 191.416C133.872 189.752 132.136 188.496 132.096 186.712C131.992 184.552 134.264 183.12 136.256 182.28C138.248 181.44 140.584 180.32 140.896 178.184C141.208 176.048 139.424 174.408 137.936 172.944C136.448 171.48 135.016 169.256 136.064 167.448C136.6 166.528 137.664 166.032 138.352 165.224C139.904 163.432 139.28 160.424 137.488 158.896C135.696 157.368 133.128 157.016 130.784 157.296C128.44 157.576 126.2 158.456 123.904 159.024C120.097 159.943 116.14 160.062 112.284 159.373C108.429 158.685 104.758 157.204 101.504 155.024" fill="#263238"/>
<path d="M79.8399 179.76L88.0719 227.472C88.413 229.469 89.1459 231.378 90.2285 233.091C91.311 234.803 92.7218 236.284 94.3794 237.449C96.037 238.613 97.9087 239.438 99.8867 239.876C101.865 240.314 103.91 240.356 105.904 240C109.682 239.323 113.071 237.256 115.401 234.206C117.732 231.156 118.836 227.343 118.496 223.52C118.12 219.288 117.8 215.784 117.8 215.784C117.8 215.784 129.752 212.712 128.72 200.584C128.216 194.712 126.208 182.704 124.256 171.856C123.244 166.241 120.155 161.213 115.604 157.773C111.053 154.332 105.374 152.731 99.6959 153.288L98.5279 153.4C95.5525 153.866 92.7005 154.924 90.1405 156.51C87.5804 158.097 85.364 160.18 83.6222 162.637C81.8803 165.094 80.6482 167.875 79.9986 170.816C79.349 173.757 79.295 176.798 79.8399 179.76Z" fill="#B78876"/>
<path d="M121.704 179.688C121.756 180.139 121.628 180.593 121.348 180.951C121.068 181.309 120.659 181.542 120.208 181.6C119.99 181.64 119.765 181.636 119.549 181.587C119.332 181.539 119.127 181.447 118.947 181.318C118.766 181.189 118.613 181.025 118.497 180.836C118.381 180.646 118.305 180.436 118.272 180.216C118.22 179.765 118.348 179.311 118.628 178.953C118.908 178.595 119.317 178.362 119.768 178.304C119.986 178.264 120.21 178.268 120.427 178.317C120.644 178.365 120.849 178.457 121.029 178.586C121.21 178.715 121.363 178.879 121.479 179.068C121.594 179.258 121.671 179.468 121.704 179.688Z" fill="#263238"/>
<path d="M122.232 178.032C122.04 178.272 120.632 177.432 118.768 177.616C116.904 177.8 115.624 178.872 115.4 178.664C115.296 178.568 115.472 178.144 116.024 177.648C116.777 177.008 117.711 176.62 118.696 176.536C119.665 176.439 120.64 176.652 121.48 177.144C122.096 177.528 122.328 177.92 122.232 178.032Z" fill="#263238"/>
<path d="M103.464 181.824C103.509 182.274 103.378 182.725 103.097 183.08C102.817 183.436 102.409 183.668 101.96 183.728C101.742 183.767 101.518 183.762 101.302 183.713C101.085 183.664 100.881 183.572 100.701 183.443C100.52 183.314 100.368 183.151 100.251 182.962C100.135 182.773 100.058 182.563 100.024 182.344C99.976 181.893 100.105 181.442 100.385 181.085C100.664 180.728 101.071 180.494 101.52 180.432C101.739 180.393 101.964 180.399 102.181 180.448C102.399 180.497 102.604 180.589 102.785 180.719C102.966 180.849 103.119 181.013 103.236 181.203C103.353 181.393 103.43 181.604 103.464 181.824Z" fill="#263238"/>
<path d="M103.936 180.16C103.744 180.408 102.336 179.568 100.472 179.752C98.6078 179.936 97.3358 181.008 97.1038 180.8C96.9998 180.704 97.1758 180.28 97.7278 179.784C98.4829 179.147 99.416 178.759 100.4 178.672C101.369 178.571 102.345 178.785 103.184 179.28C103.8 179.664 104 180.056 103.936 180.16Z" fill="#263238"/>
<path d="M112.056 193.336C112.056 193.224 113.176 192.912 115.024 192.488C115.496 192.392 115.944 192.256 115.992 191.92C115.978 191.426 115.82 190.948 115.536 190.544L113.768 187.056C111.312 182.08 109.488 177.976 109.688 177.88C109.888 177.784 112.04 181.736 114.488 186.68L116.192 190.2C116.546 190.744 116.697 191.396 116.616 192.04C116.568 192.22 116.478 192.386 116.355 192.524C116.231 192.663 116.077 192.771 115.904 192.84C115.645 192.935 115.377 192.999 115.104 193.032C114.104 193.257 113.08 193.359 112.056 193.336Z" fill="#263238"/>
<path d="M103.704 172.8C103.568 173.328 101.688 173.264 99.5279 173.744C97.3679 174.224 95.6479 174.992 95.3199 174.544C95.1679 174.344 95.4239 173.832 96.1199 173.272C97.0084 172.57 98.0499 172.088 99.1599 171.864C100.267 171.62 101.416 171.645 102.512 171.936C103.32 172.2 103.76 172.56 103.704 172.8Z" fill="#263238"/>
<path d="M121.024 172.696C120.736 173.152 119.424 172.84 117.824 172.968C116.224 173.096 115 173.536 114.624 173.12C114.472 172.92 114.624 172.472 115.168 172.016C115.884 171.449 116.759 171.12 117.672 171.072C118.581 170.998 119.49 171.21 120.272 171.68C120.92 172.064 121.144 172.48 121.024 172.696Z" fill="#263238"/>
<path d="M91.712 165.168L91.648 165.232C89.8652 166.943 88.8107 169.275 88.704 171.744C88.704 171.832 88.704 171.92 88.704 171.992C88.568 175.504 88.992 179.016 88.824 182.52C88.656 186.024 87.8 189.656 85.472 192.288C84.52 193.368 82.728 194.224 81.752 193.16C81.4124 192.712 81.2071 192.176 81.16 191.616C79.704 183.328 76.696 176.136 75.864 167.392C75.7447 166.223 75.9068 165.042 76.3368 163.948C76.7668 162.854 77.4523 161.879 78.336 161.104C80.032 159.608 82.136 158.032 84.264 158.8C86.392 159.568 89.392 163.112 91.128 164.568" fill="#263238"/>
<path d="M84.4639 184.848C84.2479 184.784 75.8879 183.2 76.9599 191.464C78.0319 199.728 86.1119 196.952 86.0959 196.712C86.0799 196.472 84.4639 184.848 84.4639 184.848Z" fill="#B78876"/>
<path d="M83.1999 193.912C83.1999 193.912 83.0719 194.032 82.8399 194.168C82.6811 194.265 82.5046 194.33 82.3207 194.359C82.1367 194.388 81.9489 194.38 81.7679 194.336C80.8559 194.128 79.9359 192.832 79.7039 191.352C79.5904 190.644 79.6368 189.92 79.8399 189.232C79.8855 188.963 79.9951 188.71 80.1594 188.493C80.3237 188.275 80.5379 188.101 80.7839 187.984C80.9436 187.921 81.12 187.916 81.2833 187.968C81.4465 188.021 81.5867 188.128 81.6799 188.272C81.8239 188.488 81.7919 188.664 81.8399 188.672C81.8879 188.68 81.9999 188.512 81.8879 188.176C81.8156 187.976 81.6773 187.807 81.4959 187.696C81.2519 187.562 80.9662 187.524 80.6959 187.592C80.3645 187.704 80.0671 187.899 79.8319 188.158C79.5968 188.417 79.4316 188.731 79.3519 189.072C79.092 189.844 79.0234 190.668 79.1519 191.472C79.4239 193.128 80.4799 194.576 81.7199 194.768C81.9503 194.805 82.1862 194.789 82.4094 194.721C82.6327 194.654 82.8374 194.535 83.0079 194.376C83.1999 194.112 83.1999 193.92 83.1999 193.912Z" fill="#7C5142"/>
<path d="M84.0959 160.112C81.6959 156.992 86.8639 151.68 90.8319 149.992C94.7999 148.304 100.392 149.768 104.6 150.72C107.248 151.328 109.928 152.264 112.6 151.888C114.391 151.53 116.12 150.907 117.728 150.04C119.334 149.158 121.104 148.614 122.928 148.44C123.841 148.37 124.757 148.552 125.575 148.965C126.392 149.378 127.082 150.007 127.568 150.784C128.416 152.384 127.656 154.784 125.88 155.224C126.426 154.848 127.055 154.61 127.714 154.531C128.372 154.452 129.04 154.534 129.659 154.77C130.279 155.006 130.832 155.389 131.271 155.886C131.71 156.383 132.022 156.979 132.18 157.623C132.338 158.267 132.337 158.94 132.177 159.583C132.018 160.227 131.705 160.822 131.265 161.318C130.824 161.814 130.27 162.195 129.65 162.43C129.03 162.664 128.362 162.745 127.704 162.664C128.8 161.656 130.752 162.96 130.752 164.44C130.752 165.92 129.512 167.136 128.216 167.864C124.904 169.72 120.824 169.624 117.128 168.768C113.432 167.912 109.928 166.368 106.248 165.408C102.568 164.448 96.3999 162.72 92.9599 164.328C90.4319 165.504 88.9119 168.84 87.3599 168.328C86.6254 168.023 85.9728 167.55 85.4546 166.947C84.9363 166.344 84.5668 165.628 84.3759 164.856C84.0185 163.304 83.9158 161.705 84.0719 160.12" fill="#263238"/>
<path d="M84.5679 186.264C84.671 190.658 85.1744 195.033 86.0719 199.336C86.9688 203.653 89.0172 207.648 91.9999 210.896C95.9999 215 101.248 218.896 106.928 219.864C113.128 220.888 120.712 219.592 125.76 215.864C128.16 214.096 129.896 210.264 129.152 207.368C130.168 206.888 131.038 206.146 131.671 205.218C132.303 204.29 132.677 203.209 132.752 202.088C132.88 199.848 131.512 197.048 129.744 196.752C131.072 196.528 131.456 194.416 130.952 193.224C130.448 192.032 128.696 191.672 127.368 191.928C126.055 192.272 124.834 192.9 123.792 193.768C122.755 194.637 121.586 195.334 120.328 195.832C116.04 197.224 111.696 193.432 107.192 193.616C103.12 193.776 99.4959 197.16 95.4559 196.592C94.3344 196.378 93.2704 195.931 92.3332 195.279C91.3959 194.627 90.6064 193.785 90.0159 192.808C88.7679 190.896 89.3119 183.832 88.8239 181.608" fill="#263238"/>
<g opacity="0.6">
<path d="M117.248 205.312C116.911 205.233 116.579 205.132 116.256 205.008C115.473 204.784 114.648 204.743 113.846 204.889C113.044 205.034 112.287 205.363 111.632 205.848C111.12 206.216 110.832 206.512 110.832 206.472C110.832 206.432 110.992 206.08 111.48 205.672C112.137 205.093 112.94 204.706 113.801 204.551C114.663 204.395 115.551 204.479 116.368 204.792C116.96 204.992 117.272 205.272 117.248 205.312Z" fill="#455A64"/>
</g>
<path d="M108.488 196.12C108.792 196.072 108.992 198.096 110.888 199.32C112.784 200.544 114.888 200.16 114.936 200.44C114.976 200.56 114.496 200.88 113.584 200.992C112.402 201.131 111.209 200.847 110.216 200.192C109.265 199.557 108.599 198.575 108.36 197.456C108.176 196.64 108.352 196.12 108.488 196.12Z" fill="white"/>
<path d="M102.472 218.512C102.653 218.553 102.828 218.618 102.992 218.704C103.336 218.832 103.84 219.008 104.504 219.192C106.386 219.701 108.317 220.004 110.264 220.096C111.597 220.174 112.935 220.148 114.264 220.016C115.797 219.879 117.311 219.584 118.784 219.136C120.41 218.65 121.96 217.942 123.392 217.032C124.949 216.093 126.307 214.859 127.392 213.4C128.68 211.682 129.254 209.532 128.992 207.4V207.232L129.136 207.168C130.131 206.705 130.993 205.998 131.64 205.112C131.954 204.694 132.222 204.243 132.44 203.768C132.631 203.306 132.75 202.818 132.792 202.32C132.879 201.419 132.75 200.51 132.416 199.668C132.083 198.826 131.553 198.076 130.872 197.48L130.752 197.384L130.848 197.264C131.209 196.806 131.444 196.262 131.531 195.686C131.618 195.109 131.554 194.52 131.344 193.976C131.179 193.563 130.931 193.19 130.614 192.878C130.297 192.567 129.919 192.325 129.504 192.168C128.974 191.956 128.4 191.876 127.832 191.936C127.44 191.984 127.248 192.056 127.24 192.032C127.425 191.944 127.621 191.885 127.824 191.856C128.584 191.733 129.363 191.865 130.04 192.231C130.718 192.597 131.255 193.177 131.568 193.88C131.805 194.466 131.885 195.104 131.801 195.731C131.717 196.358 131.471 196.953 131.088 197.456V197.24C131.819 197.864 132.39 198.653 132.755 199.542C133.119 200.431 133.266 201.395 133.184 202.352C133.143 202.902 133.016 203.442 132.808 203.952C132.576 204.453 132.295 204.93 131.968 205.376C131.287 206.326 130.372 207.084 129.312 207.576L129.432 207.336C129.753 209.576 129.178 211.853 127.832 213.672C126.715 215.174 125.316 216.443 123.712 217.408C122.251 218.337 120.664 219.051 119 219.528C117.502 219.978 115.96 220.268 114.4 220.392C113.045 220.499 111.683 220.499 110.328 220.392C108.366 220.269 106.424 219.917 104.544 219.344C104.034 219.185 103.534 218.996 103.048 218.776C102.847 218.709 102.654 218.62 102.472 218.512Z" fill="#455A64"/>
<path d="M66.2079 197.4C66.0548 197.358 65.9109 197.287 65.7839 197.192C65.4235 196.922 65.1462 196.556 64.9839 196.136C64.7136 195.46 64.655 194.718 64.8159 194.008C65.0683 193.068 65.6325 192.241 66.4159 191.664C67.3364 190.97 68.3629 190.43 69.4559 190.064C70.6808 189.679 71.8651 189.175 72.9919 188.56C74.1777 187.809 75.1069 186.715 75.6559 185.424C76.2582 184.034 76.579 182.539 76.5999 181.024C76.6639 177.896 75.9439 174.928 75.8639 172.168C75.7839 169.408 76.2639 166.832 77.5199 165.104C78.4606 163.719 79.8889 162.739 81.5199 162.36C81.9622 162.272 82.4152 162.25 82.8639 162.296C83.0205 162.314 83.1756 162.343 83.3279 162.384C82.7352 162.356 82.1413 162.401 81.5599 162.52C79.9878 162.935 78.6237 163.915 77.7279 165.272C76.5599 166.952 76.0719 169.448 76.2159 172.152C76.3599 174.856 77.0159 177.824 77.0159 181.04C76.9826 182.612 76.6373 184.162 75.9999 185.6C75.4118 186.963 74.4208 188.113 73.1599 188.896C72.0022 189.523 70.7823 190.027 69.5199 190.4C68.4581 190.736 67.4563 191.238 66.5519 191.888C65.8091 192.414 65.2651 193.175 65.0079 194.048C64.8336 194.713 64.8642 195.416 65.0959 196.064C65.3068 196.621 65.6983 197.091 66.2079 197.4Z" fill="#455A64"/>
<path d="M126.184 155.088C126.297 155.019 126.418 154.963 126.544 154.92C126.696 154.852 126.854 154.799 127.016 154.76C127.233 154.696 127.455 154.65 127.68 154.624C128.426 154.543 129.182 154.632 129.889 154.886C130.595 155.139 131.235 155.551 131.76 156.088C132.285 156.792 132.664 157.592 132.877 158.444C133.09 159.295 133.132 160.18 133 161.048C132.843 162.124 132.472 163.158 131.908 164.088C131.345 165.018 130.601 165.826 129.72 166.464C127.691 167.941 125.267 168.777 122.76 168.864C120.042 168.971 117.322 168.68 114.688 168C110.504 166.973 106.533 165.215 102.96 162.808C101.432 161.758 99.8279 160.825 98.1599 160.016C96.699 159.34 95.1261 158.939 93.5199 158.832C91.1802 158.67 88.8377 159.105 86.7119 160.096C85.2159 160.8 84.5039 161.408 84.4719 161.36C85.1289 160.794 85.8579 160.318 86.6399 159.944C88.7783 158.886 91.1542 158.401 93.5359 158.536C95.1941 158.621 96.8219 159.014 98.3359 159.696C100.028 160.503 101.657 161.436 103.208 162.488C106.756 164.848 110.686 166.575 114.824 167.592C117.417 168.273 120.096 168.574 122.776 168.488C125.207 168.403 127.559 167.601 129.536 166.184C130.385 165.577 131.104 164.808 131.654 163.921C132.203 163.033 132.571 162.046 132.736 161.016C132.877 160.182 132.851 159.329 132.66 158.505C132.469 157.681 132.117 156.903 131.624 156.216C131.128 155.696 130.522 155.292 129.852 155.033C129.181 154.775 128.461 154.668 127.744 154.72C127.215 154.802 126.694 154.925 126.184 155.088Z" fill="#455A64"/>
<path d="M121.944 148.04C121.943 148.67 121.815 149.293 121.568 149.872C120.874 151.464 119.669 152.778 118.144 153.608C117.114 154.207 115.984 154.614 114.808 154.808C113.46 155.004 112.091 155.004 110.744 154.808C107.888 154.448 104.936 153.328 101.832 152.36C98.7279 151.392 95.5999 150.816 92.8479 151.408C90.4093 151.941 88.2007 153.228 86.5359 155.088C85.4018 156.328 84.5334 157.788 83.9839 159.376C83.6159 160.512 83.5439 161.176 83.4959 161.168C83.4763 161.009 83.4763 160.847 83.4959 160.688C83.5599 160.228 83.6589 159.773 83.7919 159.328C84.2888 157.685 85.1379 156.17 86.2799 154.888C87.9611 152.946 90.2212 151.594 92.7279 151.032C95.5759 150.4 98.7919 150.984 101.912 151.96C105.032 152.936 107.96 154.056 110.752 154.424C112.065 154.616 113.399 154.616 114.712 154.424C115.853 154.251 116.953 153.875 117.96 153.312C119.451 152.53 120.649 151.287 121.376 149.768C121.611 149.208 121.801 148.63 121.944 148.04Z" fill="#455A64"/>
<path d="M182.496 97.408C182.424 97.496 177.928 93.84 172.448 89.2401C166.968 84.6401 162.592 80.8 162.672 80.744C162.752 80.688 167.24 84.312 172.72 88.92C178.2 93.528 182.576 97.32 182.496 97.408Z" fill="#263238"/>
<path d="M205.312 91.928C205.2 91.928 204.744 84.824 204.304 76.048C203.864 67.272 203.592 60.152 203.704 60.144C203.816 60.136 204.272 67.248 204.72 76.032C205.168 84.816 205.424 91.928 205.312 91.928Z" fill="#263238"/>
<path d="M190.784 86.848C190.672 86.848 189.272 82.848 187.648 77.784C186.024 72.72 184.8 68.632 184.912 68.6C185.024 68.568 186.424 72.6 188.048 77.656C189.672 82.712 190.888 86.816 190.784 86.848Z" fill="#263238"/>
<path d="M177.832 104.912C175.725 104.171 173.665 103.303 171.664 102.312C169.604 101.443 167.6 100.447 165.664 99.328C167.771 100.069 169.83 100.937 171.832 101.928C173.891 102.798 175.895 103.795 177.832 104.912Z" fill="#263238"/>
<path d="M156.8 95.7201C156.8 95.8321 156.12 95.8481 155.312 95.7201C154.504 95.5921 153.864 95.4481 153.88 95.3361C153.896 95.2241 154.56 95.2081 155.36 95.3361C156.16 95.4641 156.8 95.6081 156.8 95.7201Z" fill="#263238"/>
<path d="M185.432 63.4321C185.312 63.4321 185.224 62.7841 185.224 61.9761C185.224 61.1681 185.312 60.5121 185.432 60.5121C185.552 60.5121 185.64 61.1681 185.64 61.9761C185.64 62.7841 185.544 63.4321 185.432 63.4321Z" fill="#263238"/>
<path d="M233.6 74.7281C233.688 74.8081 229.992 79.0401 225.36 84.1841C220.728 89.3281 216.904 93.4401 216.8 93.3601C216.696 93.2801 220.408 89.0561 225.04 83.9041C229.672 78.7521 233.52 74.6561 233.6 74.7281Z" fill="#263238"/>
<path d="M239.48 68.912C239.56 68.992 239.136 69.552 238.528 70.16C237.92 70.768 237.368 71.184 237.288 71.104C237.208 71.024 237.632 70.464 238.24 69.864C238.848 69.264 239.4 68.8 239.48 68.912Z" fill="#263238"/>
<path d="M253.736 89.3921C253.393 89.6392 253.029 89.856 252.648 90.0401C251.936 90.4321 250.896 90.9841 249.6 91.6401C247 92.9521 243.36 94.6641 239.264 96.3681C235.168 98.0721 231.384 99.4321 228.616 100.368C227.24 100.824 226.12 101.168 225.336 101.4C224.939 101.544 224.529 101.649 224.112 101.712C224.49 101.525 224.884 101.37 225.288 101.248L228.488 100.088C231.224 99.1041 234.976 97.6881 239.072 96.0081C243.168 94.3281 246.808 92.6401 249.472 91.4001L252.576 89.9281C252.949 89.721 253.336 89.5419 253.736 89.3921Z" fill="#263238"/>
<path d="M242.04 109.088C241.356 109.392 240.643 109.626 239.912 109.784C238.584 110.152 236.712 110.584 234.648 110.944C232.584 111.304 230.648 111.504 229.296 111.6C228.556 111.694 227.807 111.708 227.064 111.64C227.79 111.473 228.529 111.36 229.272 111.304C230.632 111.136 232.512 110.88 234.576 110.504C236.64 110.128 238.504 109.768 239.848 109.48C240.565 109.282 241.299 109.151 242.04 109.088Z" fill="#263238"/>
<path d="M252.672 107.12C251.148 107.397 249.587 107.397 248.064 107.12C249.587 106.843 251.148 106.843 252.672 107.12Z" fill="#263238"/>
<path d="M192.544 305.6C193.67 305.792 194.746 306.208 195.708 306.823C196.67 307.439 197.498 308.242 198.144 309.184C199.418 311.088 200.239 313.258 200.544 315.528C201.272 319.88 200.096 324.824 198.48 328.936C194.04 326.848 191.672 321.68 190.64 318.976C189.04 314.712 188.632 306 192.504 305.6" fill="#00FF19"/>
<path d="M205.064 335.088C204.395 333.998 204.028 332.749 203.998 331.471C203.969 330.192 204.278 328.928 204.896 327.808C205.529 326.698 206.378 325.726 207.391 324.949C208.405 324.171 209.564 323.604 210.8 323.28C211.352 323.069 211.944 322.981 212.534 323.023C213.124 323.064 213.698 323.234 214.216 323.52C214.647 323.866 214.978 324.32 215.175 324.836C215.372 325.352 215.427 325.911 215.336 326.456C215.138 327.545 214.658 328.563 213.944 329.408C211.624 332.4 208.84 334.864 205.064 335.088Z" fill="#00FF19"/>
<path d="M203.944 348.88C203.851 348.585 203.8 348.278 203.792 347.968C203.736 347.376 203.656 346.512 203.6 345.448C203.398 342.665 203.567 339.867 204.104 337.128C204.678 334.362 205.985 331.8 207.888 329.712C208.475 329.099 209.136 328.562 209.856 328.112C210.096 327.928 210.367 327.787 210.656 327.696C209.746 328.379 208.895 329.136 208.112 329.96C206.337 332.051 205.116 334.554 204.56 337.24C204.03 339.942 203.816 342.697 203.92 345.448C203.997 346.591 204.005 347.737 203.944 348.88Z" fill="#263238"/>
<path d="M193.6 312.232C193.824 312.691 194.011 313.167 194.16 313.656C194.488 314.584 194.96 315.928 195.488 317.6C196.584 320.944 198.016 325.6 199.488 330.76C200.96 335.92 202.144 340.64 202.96 344.064C203.368 345.776 203.68 347.16 203.88 348.128C204.013 348.621 204.104 349.124 204.152 349.632C203.956 349.162 203.804 348.674 203.696 348.176C203.416 347.136 203.056 345.776 202.624 344.176C201.72 340.776 200.464 336.08 199.008 330.92C197.552 325.76 196.176 321.096 195.168 317.728L193.992 313.728C193.82 313.241 193.689 312.741 193.6 312.232Z" fill="#263238"/>
<path d="M199.152 339.2C198.035 336.754 196.353 334.607 194.245 332.938C192.136 331.269 189.661 330.125 187.024 329.6C185.68 329.344 184.024 329.376 183.272 330.528C182.52 331.68 183.168 333.216 183.976 334.32C185.7 336.61 188.064 338.336 190.77 339.282C193.476 340.228 196.401 340.349 199.176 339.632" fill="#00FF19"/>
<path d="M188.496 333.432C188.795 333.421 189.094 333.453 189.384 333.528C189.727 333.575 190.067 333.647 190.4 333.744C190.85 333.85 191.293 333.981 191.728 334.136C192.865 334.534 193.958 335.046 194.992 335.664C197.544 337.175 199.704 339.266 201.296 341.768C201.935 342.778 202.472 343.85 202.896 344.968C203.069 345.396 203.216 345.834 203.336 346.28C203.447 346.612 203.532 346.952 203.592 347.296C203.676 347.582 203.714 347.879 203.704 348.176C203.616 348.176 203.368 346.952 202.576 345.104C202.106 344.024 201.541 342.988 200.888 342.008C200.08 340.815 199.156 339.706 198.128 338.696C197.087 337.702 195.951 336.813 194.736 336.04C193.734 335.416 192.679 334.881 191.584 334.44C189.728 333.736 188.48 333.528 188.496 333.432Z" fill="#263238"/>
</svg>
