<svg width="600" height="600" viewBox="0 0 600 600" fill="none" xmlns="http://www.w3.org/2000/svg">
<path opacity="0.7" d="M81.516 200.508C81.516 200.508 48.06 286.908 95.076 373.908C142.092 460.908 238.932 506.868 316.44 546.168C393.948 585.468 474.432 566.328 512.676 501.96C550.92 437.592 498.468 391.644 498.396 299.856C498.324 208.068 512.136 183.768 462.396 106.224C412.656 28.68 290.724 11.508 198.516 69.024C106.308 126.54 81.516 200.508 81.516 200.508Z" fill="white"/>
<path d="M132 134.964C148.152 115.668 169.98 100.8 195.996 101.052C240.396 101.604 264.396 140.904 289.86 171.216C303.06 186.936 318.048 202.104 337.656 209.496C367.068 220.572 399.828 214.104 428.484 203.82C441.324 199.212 456.528 192.732 470.988 196.044C514.944 206.1 510.372 259.74 503.112 293.712C493.308 339.6 477.372 388.392 445.08 423.6C367.764 507.948 228.624 456.24 158.88 388.932C153.756 383.976 148.848 378.816 144.228 373.332C132.226 359.339 122.067 343.865 114 327.288C91.5362 280.548 88.4402 223.74 108 175.44C113.874 160.795 121.969 147.143 132 134.964Z" fill="#3052C5"/>
<path opacity="0.7" d="M132 134.964C148.152 115.668 169.98 100.8 195.996 101.052C240.396 101.604 264.396 140.904 289.86 171.216C303.06 186.936 318.048 202.104 337.656 209.496C367.068 220.572 399.828 214.104 428.484 203.82C441.324 199.212 456.528 192.732 470.988 196.044C514.944 206.1 510.372 259.74 503.112 293.712C493.308 339.6 477.372 388.392 445.08 423.6C367.764 507.948 228.624 456.24 158.88 388.932C153.756 383.976 148.848 378.816 144.228 373.332C132.226 359.339 122.067 343.865 114 327.288C91.5362 280.548 88.4402 223.74 108 175.44C113.874 160.795 121.969 147.143 132 134.964Z" fill="white"/>
<path d="M64.8599 532.116H535.14" stroke="#263238" stroke-linecap="round" stroke-linejoin="round"/>
<path d="M350.364 288.96V112.392H361.296" stroke="#263238" stroke-linecap="round" stroke-linejoin="round"/>
<path d="M350.364 309.972V305.292" stroke="#263238" stroke-linecap="round" stroke-linejoin="round"/>
<path d="M389.412 112.392H502.224V326.436H350.364" stroke="#263238" stroke-linecap="round" stroke-linejoin="round"/>
<path d="M375.588 112.392H385.5" stroke="#263238" stroke-linecap="round" stroke-linejoin="round"/>
<path d="M496.512 118.092H356.076V320.736H496.512V118.092Z" stroke="#263238" stroke-linecap="round" stroke-linejoin="round"/>
<path d="M489.984 128.94V213.096H362.604V207.6" stroke="#263238" stroke-linecap="round" stroke-linejoin="round"/>
<path d="M362.604 194.736V124.068H489.984" stroke="#263238" stroke-linecap="round" stroke-linejoin="round"/>
<path d="M362.604 203.388V198.048" stroke="#263238" stroke-linecap="round" stroke-linejoin="round"/>
<path d="M468.468 219.408H496.512" stroke="#263238" stroke-linecap="round" stroke-linejoin="round"/>
<path d="M458.496 219.408H462.468" stroke="#263238" stroke-linecap="round" stroke-linejoin="round"/>
<path d="M356.076 219.408H453.768" stroke="#263238" stroke-linecap="round" stroke-linejoin="round"/>
<path d="M419.232 213.096V210.192H430.98V211.836H426.3V213.096" stroke="#263238" stroke-linecap="round" stroke-linejoin="round"/>
<path d="M356.316 295.2C356.316 295.2 358.272 296.676 359.64 305.604C359.64 305.604 362.04 291.348 364.848 291.132C367.656 290.916 367.128 300.396 367.128 300.396C367.128 300.396 367.608 295.728 369.84 295.944C372.072 296.16 369.84 305.544 369.84 305.544C369.84 305.544 372.528 298.176 375.072 298.344C377.616 298.512 373.392 311.688 373.392 311.688C373.392 311.688 379.92 306.96 382.56 309.288C385.2 311.616 381.096 317.424 381.096 317.424C381.096 317.424 390.456 315.396 391.896 320.892" stroke="#263238" stroke-linecap="round" stroke-linejoin="round"/>
<path d="M391.908 315.6C391.908 315.6 395.988 312.924 399.204 314.172C399.204 314.172 397.164 311.064 399.204 309.168C401.244 307.272 403.86 314.172 403.86 314.172C403.86 314.172 404.16 302.592 408.24 303.18C412.32 303.768 408.24 314.172 408.24 314.172C408.24 314.172 415.524 307.716 417.276 309.96C419.028 312.204 416.076 315.6 416.076 315.6C417.393 315.226 418.785 315.201 420.114 315.527C421.444 315.853 422.666 316.519 423.66 317.46C423.66 317.46 428.544 312.48 433.968 311.76C433.968 311.76 430.368 301.284 432.108 299.172C433.848 297.06 437.04 308.316 437.04 308.316C437.04 308.316 438.432 300.996 443.04 300.42C443.04 300.42 439.236 298.356 440.364 295.224C441.492 292.092 446.736 295.968 446.736 295.968C446.736 295.968 444.576 290.46 447.996 288.948C451.416 287.436 452.796 293.556 452.796 293.556C452.796 293.556 453.756 287.148 457.764 287.556C461.772 287.964 460.476 295.284 460.476 295.284C460.476 295.284 464.256 289.428 466.284 290.016C470.328 291.216 469.104 300.48 469.104 300.48C469.104 300.48 474.744 296.556 476.208 298.368C477.672 300.18 470.328 305.34 470.328 305.34C470.328 305.34 475.932 305.952 479.424 309.228" stroke="#263238" stroke-linecap="round" stroke-linejoin="round"/>
<path d="M496.512 297.36C496.512 297.36 495.864 291.48 489.984 291.168C484.104 290.856 491.604 304.068 491.604 304.068C491.604 304.068 486.744 300.048 485.004 301.284C483.264 302.52 489.984 309.336 489.984 309.336C489.984 309.336 486.756 306.348 483.36 307.272C479.964 308.196 485.292 317.664 485.292 317.664C480.268 316.658 475.054 317.271 470.4 319.416" stroke="#263238" stroke-linecap="round" stroke-linejoin="round"/>
<path d="M296.028 479.58V531.804" stroke="#263238" stroke-linecap="round" stroke-linejoin="round"/>
<path d="M296.028 462.492V473.676" stroke="#263238" stroke-linecap="round" stroke-linejoin="round"/>
<path d="M76.188 532.116V434.796H296.028V456.156" stroke="#263238" stroke-linecap="round" stroke-linejoin="round"/>
<path d="M108.216 445.44H89.1362V523.188" stroke="#263238" stroke-linecap="round" stroke-linejoin="round"/>
<path d="M283.08 531.804V445.44H119.292" stroke="#263238" stroke-linecap="round" stroke-linejoin="round"/>
<path d="M273.936 424.716H267.876" stroke="#263238" stroke-linecap="round" stroke-linejoin="round"/>
<path d="M259.176 424.716H70.728V434.724H301.488V424.716H277.8" stroke="#263238" stroke-linecap="round" stroke-linejoin="round"/>
<path d="M83.7241 360.588C83.7241 360.588 101.724 362.016 102.54 375.336C102.54 375.336 84.2401 383.76 83.7241 360.588Z" stroke="#263238" stroke-linecap="round" stroke-linejoin="round"/>
<path d="M119.448 363.9C119.448 363.9 129.54 350.256 145.848 357.252C145.848 357.252 135.888 373.74 119.448 363.9Z" stroke="#263238" stroke-linecap="round" stroke-linejoin="round"/>
<path d="M144.468 320.82C144.468 320.82 147.372 347.064 123.48 339.84C123.48 339.84 131.064 320.544 144.468 320.82Z" stroke="#263238" stroke-linecap="round" stroke-linejoin="round"/>
<path d="M115.128 306.204C115.128 306.204 134.028 316.404 120.132 331.86C120.132 331.86 106.884 320.82 115.128 306.204Z" stroke="#263238" stroke-linecap="round" stroke-linejoin="round"/>
<path d="M91.8838 329.664C91.8838 329.664 112.428 327.6 112.428 346.608C112.428 346.608 91.8838 347.424 91.8838 329.664Z" stroke="#263238" stroke-linecap="round" stroke-linejoin="round"/>
<path d="M107.28 386.076C106.98 379.692 106.98 371.484 110.88 362.808C119.868 342.792 122.88 325.932 118.212 314.052" stroke="#263238" stroke-linecap="round" stroke-linejoin="round"/>
<path d="M98.6279 334.8C98.6279 334.8 110.94 339.696 115.128 352.38" stroke="#263238" stroke-linecap="round" stroke-linejoin="round"/>
<path d="M138 331.32C138 331.32 130.884 341.016 118.8 339.972" stroke="#263238" stroke-linecap="round" stroke-linejoin="round"/>
<path d="M138 360C138 360 118.284 365.676 110.4 363.816" stroke="#263238" stroke-linecap="round" stroke-linejoin="round"/>
<path d="M89.604 366.588C89.604 366.588 98.424 376.26 107.28 376.104" stroke="#263238" stroke-linecap="round" stroke-linejoin="round"/>
<path d="M130.716 386.076H87.8882C87.6113 386.076 87.3458 386.186 87.15 386.382C86.9542 386.578 86.8442 386.843 86.8442 387.12V390.372C86.8442 390.509 86.8713 390.644 86.9239 390.77C86.9765 390.896 87.0536 391.01 87.1507 391.106C87.2478 391.202 87.363 391.278 87.4896 391.329C87.6162 391.38 87.7517 391.406 87.8882 391.404H89.0882L92.9042 424.716H125.64L129.456 391.404H130.716C130.852 391.406 130.987 391.38 131.113 391.329C131.239 391.277 131.353 391.201 131.45 391.105C131.546 391.009 131.622 390.895 131.673 390.769C131.724 390.643 131.75 390.508 131.748 390.372V387.12C131.75 386.983 131.724 386.848 131.673 386.721C131.622 386.595 131.546 386.48 131.45 386.383C131.354 386.285 131.24 386.208 131.114 386.156C130.988 386.103 130.853 386.076 130.716 386.076V386.076Z" stroke="#263238" stroke-miterlimit="10"/>
<path d="M91.8838 391.404H116.796" stroke="#263238" stroke-linecap="round" stroke-linejoin="round"/>
<path d="M121.488 391.404H125.232" stroke="#263238" stroke-linecap="round" stroke-linejoin="round"/>
<path d="M394.452 253.308L389.652 279.396L350.508 303.18L355.92 313.116C355.92 313.116 401.172 299.316 402.276 296.088C403.38 292.86 413.808 258.672 413.808 258.672L394.452 253.308Z" fill="#263238"/>
<path d="M411.6 209.196L408.984 240.828L407.604 257.424C400.056 261.096 392.676 255.576 392.22 255.216C394.272 249.192 396.66 215.196 411.6 209.196Z" fill="#FFC727" stroke="#263238" stroke-linecap="round" stroke-linejoin="round"/>
<path d="M408.936 240.828L407.556 257.424C400.008 261.096 392.628 255.576 392.172 255.216C392.496 255.36 396.468 257.04 399.048 255.216C398.146 254.242 397.342 253.181 396.648 252.048C396.492 251.424 399.048 251.256 399.048 251.256C399.048 251.256 397.368 237.804 401.844 232.056C403.596 229.872 406.332 234.432 408.936 240.828Z" fill="#263238"/>
<path d="M438.708 502.128L439.908 505.656C438.09 508.658 436.052 511.522 433.812 514.224C433.812 514.224 432.612 513.84 430.644 515.58C429.432 516.789 428.684 518.387 428.532 520.092C428.532 520.092 419.364 531.084 407.736 531.24C396.108 531.396 399.612 525.54 399.612 525.54L438.708 502.128Z" fill="#3052C5" stroke="#263238" stroke-linecap="round" stroke-linejoin="round"/>
<path d="M427.776 474.156C427.776 474.156 412.176 468.408 409.128 479.904C409.128 479.904 411.912 492.564 410.244 499.488C408.576 506.412 400.176 519.636 399.66 522.144C398.64 527.064 399.408 527.4 399.408 527.4C399.408 527.4 405.516 530.928 413.724 527.148C421.932 523.368 436.14 507.096 438.36 503.748C440.58 500.4 431.4 487.2 431.4 487.2L427.776 474.156Z" fill="white"/>
<path opacity="0.4" d="M427.776 474.156C427.776 474.156 412.176 468.408 409.128 479.904C409.128 479.904 411.912 492.564 410.244 499.488C408.576 506.412 400.176 519.636 399.66 522.144C398.64 527.064 399.408 527.4 399.408 527.4C399.408 527.4 405.516 530.928 413.724 527.148C421.932 523.368 436.14 507.096 438.36 503.748C440.58 500.4 431.4 487.2 431.4 487.2L427.776 474.156Z" fill="#3052C5"/>
<path d="M427.776 474.156C427.776 474.156 412.176 468.408 409.128 479.904C409.128 479.904 411.912 492.564 410.244 499.488C408.576 506.412 400.176 519.636 399.66 522.144C398.64 527.064 399.408 527.4 399.408 527.4C399.408 527.4 405.516 530.928 413.724 527.148C421.932 523.368 436.14 507.096 438.36 503.748C440.58 500.4 431.4 487.2 431.4 487.2L427.776 474.156Z" stroke="#263238" stroke-linecap="round" stroke-linejoin="round"/>
<path d="M419.796 490.416C421.154 498.161 419.775 506.137 415.896 512.976" stroke="#263238" stroke-linecap="round" stroke-linejoin="round"/>
<path d="M415.896 516C415.315 517.461 414.415 518.774 413.26 519.841C412.105 520.909 410.726 521.704 409.224 522.168C406.079 523.01 402.769 523.01 399.624 522.168L403.368 514.584C407.342 516.167 411.669 516.656 415.896 516Z" fill="#3052C5" stroke="#263238" stroke-linecap="round" stroke-linejoin="round"/>
<path d="M418.104 511.404C418.104 511.404 409.944 511.896 405.684 510.204" stroke="#263238" stroke-linecap="round" stroke-linejoin="round"/>
<path d="M419.616 506.904C419.616 506.904 411.984 508.104 407.724 505.704" stroke="#263238" stroke-linecap="round" stroke-linejoin="round"/>
<path d="M420.912 501.9C420.912 501.9 414.228 502.872 409.86 500.808" stroke="#263238" stroke-linecap="round" stroke-linejoin="round"/>
<path d="M421.656 496.236C421.656 496.236 414.216 498.564 410.7 496.236" stroke="#263238" stroke-linecap="round" stroke-linejoin="round"/>
<path d="M422.772 482.244L424.068 490.416C424.068 490.416 414.228 496.896 407.724 488.796V480.264C407.724 480.264 410.172 486 422.772 482.244Z" fill="#3052C5" stroke="#263238" stroke-linecap="round" stroke-linejoin="round"/>
<path d="M414.228 298.8C404.256 330.396 373.308 381.072 376.44 394.044C378.156 401.124 388.368 441.24 396.36 458.844C399.396 465.576 405.96 470.076 405.96 470.076L410.7 480.24C422.256 485.268 426.396 475.044 426.396 475.044L424.068 463.524C430.26 452.268 427.668 452.268 419.616 393.924C418.668 387.048 434.616 365.796 434.616 365.796L442.8 419.268L444.132 463.068L448.38 476.604C448.38 476.604 449.436 489.312 449.34 490.08H468.336L470.4 476.112C470.4 476.112 479.22 467.796 479.22 458.196C479.22 448.596 477.324 399.696 479.22 385.452C481.116 371.208 474.78 304.8 474.78 304.8L414.228 298.8Z" fill="#263238"/>
<path d="M285.091 270.647L311.491 273.023C312.09 273.077 312.642 273.366 313.027 273.827C313.412 274.289 313.598 274.884 313.544 275.482L311.849 294.322L280.937 291.54L282.632 272.7C282.686 272.102 282.976 271.549 283.437 271.164C283.898 270.779 284.493 270.593 285.091 270.647Z" fill="#3052C5"/>
<path opacity="0.3" d="M285.091 270.647L311.491 273.023C312.09 273.077 312.642 273.366 313.027 273.827C313.412 274.289 313.598 274.884 313.544 275.482L311.849 294.322L280.937 291.54L282.632 272.7C282.686 272.102 282.976 271.549 283.437 271.164C283.898 270.779 284.493 270.593 285.091 270.647Z" fill="black" fill-opacity="0.7"/>
<path opacity="0.3" d="M311.907 272.696L304.338 272.046L303.038 287.182L310.606 287.832L311.907 272.696Z" fill="black"/>
<path d="M285.091 270.647L311.491 273.023C312.09 273.077 312.642 273.366 313.027 273.827C313.412 274.289 313.598 274.884 313.544 275.482L311.849 294.322L280.937 291.54L282.632 272.7C282.686 272.102 282.976 271.549 283.437 271.164C283.898 270.779 284.493 270.593 285.091 270.647V270.647Z" stroke="#D7E0FF" stroke-opacity="0.75" stroke-width="1.00404" stroke-linecap="round" stroke-linejoin="round"/>
<path d="M330.659 272.315L356.962 274.574C357.558 274.626 358.11 274.912 358.495 275.369C358.88 275.827 359.068 276.419 359.017 277.015L357.404 295.786L326.606 293.14L328.218 274.37C328.269 273.773 328.555 273.222 329.013 272.837C329.471 272.451 330.063 272.264 330.659 272.315Z" fill="#3052C5"/>
<path opacity="0.3" d="M330.659 272.315L356.962 274.574C357.559 274.626 358.11 274.912 358.495 275.369C358.881 275.827 359.068 276.419 359.017 277.015L357.405 295.786L326.606 293.14L328.219 274.369C328.27 273.773 328.556 273.222 329.013 272.837C329.471 272.451 330.063 272.264 330.659 272.315Z" fill="black" fill-opacity="0.7"/>
<path opacity="0.3" d="M356.82 276.562L352.252 276.17L350.952 291.306L355.519 291.698L356.82 276.562Z" fill="white" fill-opacity="0.7"/>
<path d="M330.659 272.315L356.962 274.574C357.558 274.626 358.11 274.912 358.495 275.369C358.88 275.827 359.068 276.419 359.017 277.015L357.404 295.786L326.606 293.14L328.218 274.37C328.269 273.773 328.555 273.222 329.013 272.837C329.471 272.451 330.063 272.264 330.659 272.315Z" stroke="#263238" stroke-linecap="round" stroke-linejoin="round"/>
<path d="M321.105 271.487L347.408 273.747C348.004 273.798 348.556 274.084 348.941 274.542C349.326 275 349.514 275.592 349.463 276.188L347.85 294.959L317.052 292.313L318.664 273.542C318.716 272.946 319.001 272.394 319.459 272.009C319.917 271.624 320.509 271.436 321.105 271.487Z" fill="#D7E0FF" fill-opacity="0.75" stroke="#263238" stroke-linecap="round" stroke-linejoin="round"/>
<path d="M366.528 275.398L392.831 277.657C393.427 277.708 393.978 277.994 394.363 278.452C394.749 278.91 394.936 279.502 394.885 280.098L393.274 298.857L362.475 296.211L364.088 277.44C364.142 276.846 364.429 276.298 364.886 275.915C365.343 275.533 365.933 275.346 366.528 275.398Z" fill="#D7E0FF" fill-opacity="0.75" stroke="#263238" stroke-linecap="round" stroke-linejoin="round"/>
<path opacity="0.3" d="M347.775 275.779L340.207 275.129L338.906 290.265L346.474 290.915L347.775 275.779Z" fill="white" fill-opacity="0.7"/>
<path opacity="0.3" d="M392.699 279.634L385.131 278.984L383.831 294.12L391.399 294.77L392.699 279.634Z" fill="white" fill-opacity="0.7"/>
<path d="M407.028 295.668L399.6 381.984L260.532 369.984L267.96 283.68C268.021 282.966 268.221 282.27 268.551 281.634C268.881 280.997 269.333 280.432 269.881 279.971C270.43 279.509 271.064 279.16 271.747 278.944C272.431 278.728 273.15 278.649 273.864 278.712L402.048 289.728C402.767 289.787 403.467 289.988 404.107 290.319C404.747 290.65 405.316 291.105 405.779 291.658C406.242 292.21 406.591 292.849 406.806 293.538C407.02 294.226 407.096 294.95 407.028 295.668Z" fill="#3052C5"/>
<path opacity="0.3" d="M407.028 295.668L399.6 381.984L260.532 369.984L267.96 283.68C268.021 282.966 268.221 282.27 268.551 281.634C268.881 280.997 269.333 280.432 269.881 279.971C270.43 279.509 271.064 279.16 271.747 278.944C272.431 278.728 273.15 278.649 273.864 278.712L402.048 289.728C402.767 289.787 403.467 289.988 404.107 290.319C404.747 290.65 405.316 291.105 405.779 291.658C406.242 292.21 406.591 292.849 406.806 293.538C407.02 294.226 407.096 294.95 407.028 295.668Z" fill="#D7E0FF" fill-opacity="0.75"/>
<path d="M407.028 295.668L399.6 381.984L260.532 369.984L267.96 283.68C268.021 282.966 268.221 282.27 268.551 281.634C268.881 280.997 269.333 280.432 269.881 279.971C270.43 279.509 271.064 279.16 271.747 278.944C272.431 278.728 273.15 278.649 273.864 278.712L402.048 289.728C402.767 289.787 403.467 289.988 404.107 290.319C404.747 290.65 405.316 291.105 405.779 291.658C406.242 292.21 406.591 292.849 406.806 293.538C407.02 294.226 407.096 294.95 407.028 295.668V295.668Z" stroke="#263238" stroke-linecap="round" stroke-linejoin="round"/>
<path d="M407.028 295.668L399.6 381.984L296.4 373.104L303.84 286.8C303.901 286.086 304.102 285.39 304.431 284.754C304.761 284.117 305.213 283.552 305.761 283.091C306.31 282.629 306.944 282.28 307.627 282.064C308.311 281.848 309.03 281.769 309.744 281.832L402.06 289.764C402.775 289.824 403.47 290.025 404.106 290.355C404.743 290.684 405.308 291.136 405.77 291.685C406.231 292.233 406.58 292.868 406.796 293.551C407.012 294.235 407.091 294.954 407.028 295.668Z" fill="#D7E0FF" fill-opacity="0.75" stroke="#263238" stroke-linecap="round" stroke-linejoin="round"/>
<path opacity="0.3" d="M399.78 298.14L311.568 290.556C310.98 290.504 310.436 290.224 310.053 289.775C309.669 289.326 309.476 288.745 309.516 288.156C309.568 287.568 309.849 287.024 310.298 286.64C310.746 286.257 311.327 286.064 311.916 286.104L400.128 293.688C400.716 293.74 401.261 294.02 401.644 294.469C402.028 294.918 402.22 295.499 402.18 296.088C402.128 296.676 401.848 297.22 401.399 297.604C400.951 297.988 400.369 298.18 399.78 298.14Z" fill="white" fill-opacity="0.7"/>
<path d="M468.96 490.572C468.96 490.572 462.312 485.832 448.56 486.78C448.56 486.78 447.552 503.28 445.68 508.08C443.808 512.88 433.944 521.196 432.108 522.624C430.272 524.052 430.272 529.032 430.272 529.032H472.056C471.52 521.89 470.409 514.803 468.732 507.84L468.96 490.572Z" fill="white"/>
<path opacity="0.4" d="M468.96 490.572C468.96 490.572 462.312 485.832 448.56 486.78C448.56 486.78 447.552 503.28 445.68 508.08C443.808 512.88 433.944 521.196 432.108 522.624C430.272 524.052 430.272 529.032 430.272 529.032H472.056C471.52 521.89 470.409 514.803 468.732 507.84L468.96 490.572Z" fill="#3052C5"/>
<path d="M468.96 490.572C468.96 490.572 462.312 485.832 448.56 486.78C448.56 486.78 447.552 503.28 445.68 508.08C443.808 512.88 433.944 521.196 432.108 522.624C430.272 524.052 430.272 529.032 430.272 529.032H472.056C471.52 521.89 470.409 514.803 468.732 507.84L468.96 490.572Z" stroke="#263238" stroke-linecap="round" stroke-linejoin="round"/>
<path d="M460.332 492.708C460.332 492.708 459.348 507.9 456.984 511.908C455.722 514.11 454.163 516.129 452.352 517.908" stroke="#263238" stroke-linecap="round" stroke-linejoin="round"/>
<path d="M451.2 520.008C451.2 520.008 449.1 522.624 446.772 522.972C444.444 523.32 432.144 522.624 432.144 522.624L437.16 518.28C437.16 518.28 447.36 516.564 451.2 520.008Z" fill="#3052C5" stroke="#263238" stroke-linecap="round" stroke-linejoin="round"/>
<path d="M455.544 516.444C455.544 516.444 446.64 511.332 440.292 515.244" stroke="#263238" stroke-linecap="round" stroke-linejoin="round"/>
<path d="M457.692 512.976C457.692 512.976 451.476 508.116 444.144 510.78" stroke="#263238" stroke-linecap="round" stroke-linejoin="round"/>
<path d="M460.332 507.684C460.332 507.684 453.636 502.476 446.58 505.788" stroke="#263238" stroke-linecap="round" stroke-linejoin="round"/>
<path d="M461.244 501.072C461.244 501.072 453.12 496.704 447.216 500.016" stroke="#263238" stroke-linecap="round" stroke-linejoin="round"/>
<path d="M472.044 529.032V532.116H467.244C467.244 532.116 463.128 529.716 459.216 532.116H436.68C434.299 532.108 431.948 531.58 429.792 530.568L430.26 529.032H472.044Z" fill="#3052C5" stroke="#263238" stroke-linecap="round" stroke-linejoin="round"/>
<path d="M466.056 489.6L464.988 496.332C464.988 496.332 452.448 492.264 445.524 494.904V486.624C445.524 486.624 458.4 482.112 466.056 489.6Z" fill="#3052C5" stroke="#263238" stroke-linecap="round" stroke-linejoin="round"/>
<path d="M479.616 321.876C479.616 321.876 452.964 327.096 426.816 318.624C420.863 316.727 415.167 314.099 409.86 310.8C409.86 310.8 409.932 309.12 409.98 306.372C410.196 295.644 410.136 268.656 404.484 261.972C400.884 257.76 398.064 231.72 405.012 218.556L426.264 201.468C455.688 207.216 461.904 215.004 466.764 231.804C467.664 234.876 468.504 238.248 469.44 241.968C470.46 246.024 471.42 250.98 472.332 256.368C476.748 283.2 479.616 321.876 479.616 321.876Z" fill="#FFC727"/>
<path opacity="0.2" d="M472.332 256.368L460.332 309.972C460.332 309.972 442.992 314.772 426.828 318.624C420.871 316.728 415.171 314.1 409.86 310.8C409.86 310.8 409.932 309.12 409.98 306.372C424.5 298.944 445.692 288.024 445.524 287.508C445.248 286.704 445.524 258.708 445.524 258.708C445.524 258.708 464.724 254.256 466.764 231.768C467.664 234.84 468.504 238.212 469.44 241.932C470.46 246 471.42 250.92 472.332 256.368Z" fill="black"/>
<path d="M479.616 321.876C479.616 321.876 452.964 327.096 426.816 318.624C420.863 316.727 415.167 314.099 409.86 310.8C409.86 310.8 409.932 309.12 409.98 306.372C410.196 295.644 410.136 268.656 404.484 261.972C400.884 257.76 398.064 231.72 405.012 218.556L426.264 201.468C455.688 207.216 461.904 215.004 466.764 231.804C467.664 234.876 468.504 238.248 469.44 241.968C470.46 246.024 471.42 250.98 472.332 256.368C476.748 283.2 479.616 321.876 479.616 321.876Z" stroke="#263238" stroke-linecap="round" stroke-linejoin="round"/>
<path d="M427.2 179.04C427.2 179.04 417.816 192.48 430.296 202.968C430.296 202.968 415.152 219.96 410.172 217.62C408.072 216.636 410.172 210.504 410.172 210.504L401.388 194.256L427.2 179.04Z" fill="white" stroke="#263238" stroke-linecap="round" stroke-linejoin="round"/>
<path d="M424.14 186C427.068 173.196 425.664 154.128 407.724 155.82C395.148 157.02 386.184 163.98 389.724 180.852C391.2 187.968 392.412 198.048 398.94 207.144C400.752 209.664 419.712 200.748 418.56 193.536" fill="white"/>
<path d="M424.14 186C427.068 173.196 425.664 154.128 407.724 155.82C395.148 157.02 386.184 163.98 389.724 180.852C391.2 187.968 392.412 198.048 398.94 207.144C400.752 209.664 419.712 200.748 418.56 193.536" stroke="#263238" stroke-linecap="round" stroke-linejoin="round"/>
<path d="M398.472 177.996C399.737 177.506 401.1 177.319 402.45 177.451C403.8 177.582 405.101 178.028 406.248 178.752" stroke="#263238" stroke-linecap="round" stroke-linejoin="round"/>
<path d="M389.448 179.568C389.679 179.077 390.079 178.685 390.574 178.465C391.07 178.244 391.629 178.21 392.148 178.368" stroke="#263238" stroke-linecap="round" stroke-linejoin="round"/>
<path d="M393.936 182.232C393.936 182.232 390.24 188.964 390.228 189.924C390.216 190.884 394.776 191.208 394.776 191.208" fill="white"/>
<path d="M393.936 182.232C393.936 182.232 390.24 188.964 390.228 189.924C390.216 190.884 394.776 191.208 394.776 191.208" stroke="#263238" stroke-linecap="round" stroke-linejoin="round"/>
<path d="M401.88 183.6C401.88 184.332 401.556 184.932 401.1 184.956C400.644 184.98 400.26 184.38 400.236 183.648C400.212 182.916 400.56 182.316 401.016 182.304C401.472 182.292 401.856 182.892 401.88 183.6Z" fill="#263238"/>
<path d="M396.66 196.104C396.66 196.104 403.752 194.772 405.06 192.276" stroke="#263238" stroke-linecap="round" stroke-linejoin="round"/>
<path d="M389.4 169.2L394.92 167.592C394.92 167.592 402.66 163.992 404.304 164.496C405.948 165 409.284 170.124 409.176 173.052C409.176 173.052 414.384 177.636 415.044 184.284L416.628 183.564C416.628 183.564 416.544 177.564 419.952 177.72C423.36 177.876 424.896 181.956 424.668 183.24C424.44 184.524 420.708 189.852 420.708 189.852C420.708 189.852 429.252 188.58 429.528 171.852C429.804 155.124 411.468 152.4 402.552 153.084C398.038 153.516 393.502 153.685 388.968 153.588L389.472 158.388L385.872 159.336L388.584 162.66L385.608 164.016L389.4 169.2Z" fill="#263238"/>
<path d="M420.312 351.6C420.312 351.6 442.032 357.348 447.912 373.524" stroke="white" stroke-linecap="round" stroke-linejoin="round"/>
<path d="M430.26 360.3C430.26 360.3 418.524 379.848 400.56 390" stroke="white" stroke-linecap="round" stroke-linejoin="round"/>
<path d="M413.76 470.232C413.76 470.232 420.432 468.732 422.256 466.14" stroke="white" stroke-linecap="round" stroke-linejoin="round"/>
<path d="M450.912 472.716C450.912 472.716 457.44 469.332 463.944 472.716" stroke="white" stroke-linecap="round" stroke-linejoin="round"/>
<path d="M472.044 381.708C472.044 381.708 461.088 410.088 455.544 412.716" stroke="white" stroke-linecap="round" stroke-linejoin="round"/>
<path d="M424.068 337.26C424.368 340.344 437.268 354.636 447.912 360.3" stroke="white" stroke-linecap="round" stroke-linejoin="round"/>
<path d="M435.072 325.2C436.625 329.027 436.948 333.242 435.996 337.26C434.961 340.728 434.961 344.424 435.996 347.892" stroke="white" stroke-linecap="round" stroke-linejoin="round"/>
<path d="M411.6 266.184C411.6 266.184 431.796 292.32 453.504 300.9" stroke="#263238" stroke-linecap="round" stroke-linejoin="round"/>
<path d="M432.504 223.932C432.504 223.932 432.432 241.704 445.248 249.72" stroke="#263238" stroke-linecap="round" stroke-linejoin="round"/>
<path d="M439.716 249.864C437.004 252.528 439.956 285.96 439.956 285.96C439.956 285.96 424.2 292.128 419.268 296.1C414.336 300.072 390.972 309.192 390.972 309.192C390.972 309.192 387.372 321.456 391.86 321.876C396.348 322.296 442.824 306.456 453.456 300.9C453.456 300.9 460.38 260.1 460.332 249.72" fill="white"/>
<path d="M439.716 249.864C437.004 252.528 439.956 285.96 439.956 285.96C439.956 285.96 424.2 292.128 419.268 296.1C414.336 300.072 390.972 309.192 390.972 309.192C390.972 309.192 387.372 321.456 391.86 321.876C396.348 322.296 442.824 306.456 453.456 300.9C453.456 300.9 460.38 260.1 460.332 249.72" stroke="#263238" stroke-linecap="round" stroke-linejoin="round"/>
<path d="M392.82 308.46C390.66 308.052 386.82 306.636 384.804 307.104C382.788 307.572 379.104 309.792 375.312 310.704C371.52 311.616 373.092 313.104 375.312 313.548C376.937 313.819 378.596 313.819 380.22 313.548L377.136 316.56C375.37 317.516 373.547 318.362 371.676 319.092C370.56 319.092 366.612 320.16 366.876 321.84C367.14 323.52 369.408 323.328 371.94 323.424C371.94 323.424 367.908 324.228 368.34 326.52C368.604 328.092 373.14 326.676 375.456 326.676C375.456 326.676 373.56 328.74 374.976 329.376C376.392 330.012 379.536 328.428 379.536 328.428C379.536 328.428 379.416 330.132 380.832 330.3C382.248 330.468 385.812 329.1 388.236 327.636C390.623 326.098 392.908 324.406 395.076 322.572C395.994 321.733 397.044 321.052 398.184 320.556" fill="white"/>
<path d="M392.82 308.46C390.66 308.052 386.82 306.636 384.804 307.104C382.788 307.572 379.104 309.792 375.312 310.704C371.52 311.616 373.092 313.104 375.312 313.548C376.937 313.819 378.596 313.819 380.22 313.548L377.136 316.56C375.37 317.516 373.547 318.362 371.676 319.092C370.56 319.092 366.612 320.16 366.876 321.84C367.14 323.52 369.408 323.328 371.94 323.424C371.94 323.424 367.908 324.228 368.34 326.52C368.604 328.092 373.14 326.676 375.456 326.676C375.456 326.676 373.56 328.74 374.976 329.376C376.392 330.012 379.536 328.428 379.536 328.428C379.536 328.428 379.416 330.132 380.832 330.3C382.248 330.468 385.812 329.1 388.236 327.636C390.623 326.098 392.908 324.406 395.076 322.572C395.994 321.733 397.044 321.052 398.184 320.556" stroke="#263238" stroke-linecap="round" stroke-linejoin="round"/>
<path d="M372 323.472C373.115 323.412 374.225 323.283 375.324 323.088C376.272 322.848 377.22 322.536 377.22 322.536" stroke="#263238" stroke-linecap="round" stroke-linejoin="round"/>
<path d="M375.468 326.724C376.918 326.52 378.316 326.039 379.584 325.308" stroke="#263238" stroke-linecap="round" stroke-linejoin="round"/>
<path d="M379.548 328.476C380.621 328.341 381.648 327.959 382.548 327.36" stroke="#263238" stroke-linecap="round" stroke-linejoin="round"/>
<path d="M377.52 317.472C377.52 317.472 376.656 319.452 377.52 320.556C378.384 321.66 379.428 321.756 379.584 322.956C379.74 324.156 381.804 324.156 382.548 324.936C383.292 325.716 383.856 327.216 386.232 327.336" stroke="#263238" stroke-linecap="round" stroke-linejoin="round"/>
<path d="M438.708 215.196C430.536 233.688 438.708 259.344 438.708 259.344C438.708 259.344 458.484 266.064 460.308 263.172C462.132 260.28 465.468 246.096 466.032 239.544" fill="#FFC727"/>
<path d="M438.708 215.196C430.536 233.688 438.708 259.344 438.708 259.344C438.708 259.344 458.484 266.064 460.308 263.172C462.132 260.28 465.468 246.096 466.032 239.544" stroke="#263238" stroke-linecap="round" stroke-linejoin="round"/>
<path d="M460.332 241.596C460.332 241.596 451.932 253.152 445.248 253.308" stroke="#263238" stroke-linecap="round" stroke-linejoin="round"/>
<path d="M160.092 532.116C160.092 532.116 158.04 524.28 160.44 521.376C164.736 516.168 159.912 511.776 164.232 509.988L166.044 512.088C166.392 509.964 165.384 503.472 173.4 502.632C183.096 501.612 183.276 508.632 183.804 511.032L183.636 507.78C187.776 507.78 185.628 511.908 191.892 518.652C193.534 520.473 194.784 522.612 195.565 524.936C196.345 527.261 196.639 529.721 196.428 532.164L160.092 532.116Z" fill="#263238"/>
<path d="M234 532.116C230.1 530.376 233.676 515.664 233.676 515.664C233.676 515.664 228.432 512.148 233.676 508.464C235.704 510.183 238.163 511.315 240.788 511.738C243.412 512.161 246.102 511.858 248.568 510.864C248.568 510.864 249.588 501.024 255.768 502.284C255.768 502.284 257.352 508.524 260.964 512.088C270.744 521.688 283.38 522.888 285.492 527.496C286.128 528.888 285.36 532.068 285.36 532.068L234 532.116Z" fill="#263238"/>
<path d="M217.332 297.492L222.132 307.668C222.132 307.668 241.98 348.684 254.136 395.652C254.424 396.768 260.712 419.016 255.672 474.42L258.552 484.14L255.408 500.196C255.408 500.196 260.136 507.024 259.968 509.256C259.968 509.256 248.304 511.428 244.368 513.516C241.344 515.148 232.26 524.112 232.26 524.112C229.68 523.584 229.452 513.168 229.452 513.168C229.452 513.168 224.064 420.684 222.516 416.7C220.968 412.716 211.512 395.532 196.752 356.208C196.752 356.208 196.416 411.132 192.48 425.028C188.964 437.388 193.128 471.984 193.128 471.984L190.728 510.492C190.728 510.492 199.032 519.12 192.3 521.436C192.3 521.436 187.8 512.784 174.984 510.816C168.468 509.808 160.356 521.376 160.356 521.376C157.5 520.464 161.556 505.932 161.556 505.932C152.472 437.388 159.156 449.796 157.356 416.292C156.156 394.788 150.096 302.796 157.248 295.32L217.332 297.492Z" fill="#BFBFBF"/>
<path opacity="0.2" d="M153.912 329.172C186 331.692 213.78 321.192 225.84 315.708C223.548 310.572 222.144 307.668 222.144 307.668L217.344 297.504L157.344 295.32C154.8 298.02 153.9 311.736 153.912 329.172Z" fill="black"/>
<path opacity="0.2" d="M197.076 356.916C211.68 395.736 221.076 412.728 222.588 416.688C223.464 418.992 225.612 450.396 227.292 476.748C229.212 452.748 231.192 427.464 231.36 422.508C231.72 412.62 224.58 399.072 223.512 395.568C222.444 392.064 224.856 388.272 224.856 388.272L212.016 372.072C212.448 366.576 205.644 342.588 205.644 342.588C201.6 346.416 198 354.564 197.076 356.916Z" fill="black"/>
<path d="M217.332 297.492L222.132 307.668C222.132 307.668 241.98 348.684 254.136 395.652C254.424 396.768 260.712 419.016 255.672 474.42L258.552 484.14L255.408 500.196C255.408 500.196 260.136 507.024 259.968 509.256C259.968 509.256 248.304 511.428 244.368 513.516C241.344 515.148 232.26 524.112 232.26 524.112C229.68 523.584 229.452 513.168 229.452 513.168C229.452 513.168 224.064 420.684 222.516 416.7C220.968 412.716 211.512 395.532 196.752 356.208C196.752 356.208 196.416 411.132 192.48 425.028C188.964 437.388 193.128 471.984 193.128 471.984L190.728 510.492C190.728 510.492 199.032 519.12 192.3 521.436C192.3 521.436 187.8 512.784 174.984 510.816C168.468 509.808 160.356 521.376 160.356 521.376C157.5 520.464 161.556 505.932 161.556 505.932C152.472 437.388 159.156 449.796 157.356 416.292C156.156 394.788 150.096 302.796 157.248 295.32L217.332 297.492Z" stroke="#263238" stroke-linecap="round" stroke-linejoin="round"/>
<path d="M196.8 356.208C196.8 356.208 204.132 342.06 210.384 338.112" stroke="#263238" stroke-linecap="round" stroke-linejoin="round"/>
<path d="M213.144 333.528C213.144 333.528 190.872 340.308 183.144 341.616" stroke="#263238" stroke-linecap="round" stroke-linejoin="round"/>
<path d="M201.744 310.8C202.704 329.34 209.244 332.496 202.944 336.54C202.944 336.54 203.124 345.216 199.98 350.712" stroke="#263238" stroke-linecap="round" stroke-linejoin="round"/>
<path d="M162.72 303.708C162.72 303.708 165.348 332.208 156.576 337.572" stroke="#263238" stroke-linecap="round" stroke-linejoin="round"/>
<path d="M156.576 312.9C156.576 312.9 155.916 331.872 156.576 347.16C156.576 347.16 158.772 411.78 160.968 419.892C163.164 428.004 157.584 440.292 158.064 475.356" stroke="#263238" stroke-linecap="round" stroke-linejoin="round"/>
<path d="M177.6 502.8C175.523 502.348 173.354 502.637 171.468 503.616" stroke="#263238" stroke-linecap="round" stroke-linejoin="round"/>
<path d="M190.8 510.492C188.048 507.814 184.858 505.626 181.368 504.024" stroke="#263238" stroke-linecap="round" stroke-linejoin="round"/>
<path d="M187.2 360.684C182.28 366.204 174.48 376.608 166.488 377.484" stroke="#263238" stroke-linecap="round" stroke-linejoin="round"/>
<path d="M194.724 351.708C193.212 353.616 191.652 355.488 190.068 357.348" stroke="#263238" stroke-linecap="round" stroke-linejoin="round"/>
<path d="M187.716 416.292C187.716 416.292 176.532 431.52 170.4 432.396" stroke="#263238" stroke-linecap="round" stroke-linejoin="round"/>
<path d="M200.868 353.46C200.868 353.46 220.788 408.936 227.712 414.408C227.712 414.408 228.492 455.208 228.72 469.452C228.948 483.696 232.224 502.632 232.224 502.632" stroke="#263238" stroke-linecap="round" stroke-linejoin="round"/>
<path d="M253.488 502.224C253.488 502.224 245.82 504.876 242.088 506.568C239.796 507.687 238.001 509.615 237.048 511.98" stroke="#263238" stroke-linecap="round" stroke-linejoin="round"/>
<path d="M234.084 394.404C223.392 387.696 209.292 379.308 203.604 367.488" stroke="#263238" stroke-linecap="round" stroke-linejoin="round"/>
<path d="M243.408 399.936C241.38 398.82 239.388 397.656 237.408 396.456" stroke="#263238" stroke-linecap="round" stroke-linejoin="round"/>
<path d="M209.712 318.3C203.964 318.216 197.712 317.46 192.756 314.208" stroke="#263238" stroke-linecap="round" stroke-linejoin="round"/>
<path d="M218.844 317.76C217.2 317.988 215.544 318.132 213.888 318.216" stroke="#263238" stroke-linecap="round" stroke-linejoin="round"/>
<path d="M229.512 190.368C225.12 183.72 202.74 182.028 188.376 182.028C174.012 182.028 156.576 179.628 148.704 195.828C142.704 208.2 156.528 273.624 156.528 273.624L153.144 301.872C179.16 310.032 223.728 308.232 223.728 308.232L217.728 282.696C217.728 282.696 233.904 197.004 229.512 190.368Z" fill="#AD6359"/>
<path d="M179.844 165.6C179.844 165.6 181.776 180.996 175.92 184.32C175.92 184.32 178.848 195.612 189.12 196.32C199.392 197.028 203.928 186 203.928 186L179.844 165.6Z" fill="white" stroke="#263238" stroke-linecap="round" stroke-linejoin="round"/>
<path d="M234.28 126.07L260.569 123.645C261.164 123.59 261.758 123.774 262.218 124.156C262.678 124.539 262.967 125.088 263.022 125.684L264.753 144.444L234.019 147.279L232.289 128.519C232.234 127.931 232.412 127.346 232.785 126.888C233.157 126.43 233.694 126.136 234.28 126.07Z" fill="#3052C5"/>
<path opacity="0.3" d="M234.28 126.07L260.569 123.645C261.164 123.59 261.758 123.774 262.218 124.156C262.678 124.539 262.967 125.088 263.022 125.684L264.753 144.444L234.019 147.279L232.289 128.519C232.234 127.931 232.412 127.346 232.785 126.888C233.157 126.43 233.694 126.136 234.28 126.07Z" fill="black" fill-opacity="0.7"/>
<path opacity="0.3" d="M261.334 125.542L253.771 126.24L255.166 141.368L262.73 140.67L261.334 125.542Z" fill="white" fill-opacity="0.7"/>
<path d="M234.28 126.07L260.569 123.645C261.164 123.59 261.758 123.774 262.218 124.156C262.678 124.539 262.967 125.088 263.022 125.684L264.753 144.444L234.019 147.279L232.289 128.519C232.234 127.931 232.412 127.346 232.785 126.888C233.157 126.43 233.694 126.136 234.28 126.07V126.07Z" stroke="#263238" stroke-linecap="round" stroke-linejoin="round"/>
<path d="M279.733 121.852L306.022 119.427C306.617 119.372 307.211 119.556 307.671 119.939C308.131 120.321 308.42 120.871 308.475 121.467L310.206 140.227L279.424 143.066L277.694 124.306C277.639 123.71 277.823 123.117 278.205 122.657C278.588 122.197 279.137 121.907 279.733 121.852Z" fill="#3052C5"/>
<path opacity="0.3" d="M279.733 121.852L306.022 119.427C306.617 119.372 307.211 119.556 307.671 119.939C308.131 120.321 308.42 120.871 308.475 121.467L310.206 140.227L279.424 143.066L277.694 124.306C277.639 123.71 277.823 123.117 278.205 122.657C278.588 122.197 279.137 121.907 279.733 121.852Z" fill="black" fill-opacity="0.7"/>
<path opacity="0.3" d="M306.244 121.412L301.68 121.833L303.075 136.961L307.64 136.54L306.244 121.412Z" fill="white" fill-opacity="0.7"/>
<path d="M279.733 121.852L306.022 119.427C306.617 119.372 307.211 119.556 307.671 119.939C308.131 120.321 308.42 120.871 308.475 121.467L310.206 140.227L279.424 143.066L277.694 124.306C277.639 123.71 277.823 123.117 278.205 122.657C278.588 122.197 279.137 121.907 279.733 121.852V121.852Z" stroke="#263238" stroke-linecap="round" stroke-linejoin="round"/>
<path d="M270.182 122.726L296.47 120.301C297.066 120.246 297.659 120.43 298.12 120.812C298.58 121.195 298.869 121.744 298.924 122.34L300.655 141.101L269.825 143.944L268.095 125.184C268.067 124.885 268.1 124.583 268.19 124.297C268.281 124.01 268.427 123.745 268.622 123.516C268.816 123.287 269.054 123.099 269.322 122.964C269.59 122.828 269.882 122.747 270.182 122.726Z" fill="#3052C5" stroke="#263238" stroke-linecap="round" stroke-linejoin="round"/>
<path d="M315.59 118.537L341.878 116.112C342.474 116.057 343.067 116.241 343.527 116.624C343.987 117.006 344.277 117.556 344.332 118.151L346.062 136.912L315.281 139.751L313.55 120.991C313.496 120.395 313.679 119.802 314.062 119.341C314.444 118.881 314.994 118.592 315.59 118.537Z" fill="#3052C5" stroke="#263238" stroke-linecap="round" stroke-linejoin="round"/>
<path opacity="0.3" d="M297.192 122.239L289.628 122.937L291.023 138.064L298.587 137.367L297.192 122.239Z" fill="white" fill-opacity="0.7"/>
<path opacity="0.3" d="M342.101 118.084L334.537 118.782L335.932 133.91L343.496 133.212L342.101 118.084Z" fill="white" fill-opacity="0.7"/>
<path d="M359.052 131.304L367.02 217.56L228 230.4L220.08 144.12C219.946 142.678 220.391 141.243 221.316 140.129C222.241 139.015 223.57 138.314 225.012 138.18L353.124 126.36C353.838 126.294 354.558 126.37 355.243 126.583C355.928 126.796 356.564 127.142 357.115 127.601C357.665 128.06 358.12 128.624 358.452 129.259C358.785 129.895 358.989 130.59 359.052 131.304Z" fill="#3052C5"/>
<path opacity="0.3" d="M359.052 131.304L367.02 217.56L228 230.4L220.08 144.12C219.946 142.678 220.391 141.243 221.316 140.129C222.241 139.015 223.57 138.314 225.012 138.18L353.124 126.36C353.838 126.294 354.558 126.37 355.243 126.583C355.928 126.796 356.564 127.142 357.115 127.601C357.665 128.06 358.12 128.624 358.452 129.259C358.785 129.895 358.989 130.59 359.052 131.304Z" fill="black" fill-opacity="0.7"/>
<path d="M359.052 131.304L367.02 217.56L228 230.4L220.08 144.12C219.946 142.678 220.391 141.243 221.316 140.129C222.241 139.015 223.57 138.314 225.012 138.18L353.124 126.36C353.838 126.294 354.558 126.37 355.243 126.583C355.928 126.796 356.564 127.142 357.115 127.601C357.665 128.06 358.12 128.624 358.452 129.259C358.785 129.895 358.989 130.59 359.052 131.304V131.304Z" stroke="#263238" stroke-linecap="round" stroke-linejoin="round"/>
<path d="M359.052 131.304L367.02 217.56L263.82 227.076L255.864 140.82C255.73 139.378 256.175 137.943 257.1 136.829C258.024 135.715 259.354 135.014 260.796 134.88L353.064 126.36C353.782 126.286 354.509 126.355 355.201 126.564C355.892 126.773 356.536 127.118 357.093 127.578C357.65 128.038 358.11 128.604 358.447 129.244C358.783 129.884 358.989 130.584 359.052 131.304Z" fill="#3052C5" stroke="#263238" stroke-linecap="round" stroke-linejoin="round"/>
<path opacity="0.3" d="M352.368 135.012L264.204 143.148C263.617 143.188 263.037 142.997 262.589 142.616C262.141 142.235 261.859 141.694 261.804 141.108C261.761 140.522 261.949 139.943 262.328 139.494C262.707 139.045 263.247 138.763 263.832 138.708L351.996 130.572C352.583 130.532 353.163 130.723 353.611 131.104C354.059 131.485 354.341 132.026 354.396 132.612C354.433 133.196 354.243 133.773 353.865 134.22C353.487 134.667 352.951 134.951 352.368 135.012Z" fill="white" fill-opacity="0.7"/>
<path d="M197.448 135.072C197.448 135.072 177.108 130.992 174.828 144.084C172.548 157.176 180 162.744 180 162.744L197.448 135.072Z" fill="#263238"/>
<path d="M180 169.932C177.676 163.424 177.313 156.377 178.956 149.664C180.948 141.264 190.956 129.708 206.136 140.208C213.948 145.62 214.428 157.368 211.992 168.12C211.416 170.688 211.848 173.196 210.996 175.56C207.996 183.84 202.512 190.212 199.512 190.356C194.508 190.608 184.5 184.548 184.908 179.268" fill="white"/>
<path d="M180 169.932C177.676 163.424 177.313 156.377 178.956 149.664C180.948 141.264 190.956 129.708 206.136 140.208C213.948 145.62 214.428 157.368 211.992 168.12C211.416 170.688 211.848 173.196 210.996 175.56C207.996 183.84 202.512 190.212 199.512 190.356C194.508 190.608 184.5 184.548 184.908 179.268" stroke="#263238" stroke-linecap="round" stroke-linejoin="round"/>
<path d="M200.268 166.128C200.268 166.128 196.224 163.2 192.336 165.6" stroke="#263238" stroke-linecap="round" stroke-linejoin="round"/>
<path d="M207.9 165.6C207.9 165.6 210.96 162.792 212.952 163.2" stroke="#263238" stroke-linecap="round" stroke-linejoin="round"/>
<path d="M194.556 170.616C194.556 171.36 194.928 171.972 195.396 171.972C195.864 171.972 196.248 171.36 196.248 170.616C196.248 169.872 195.864 169.272 195.396 169.272C194.928 169.272 194.556 169.872 194.556 170.616Z" fill="#263238"/>
<path d="M207.9 171.216C208.37 171.216 208.752 170.614 208.752 169.872C208.752 169.13 208.37 168.528 207.9 168.528C207.429 168.528 207.048 169.13 207.048 169.872C207.048 170.614 207.429 171.216 207.9 171.216Z" fill="#263238"/>
<path d="M206.184 168.432C204.696 170.376 206.784 177.78 206.184 178.308C205.584 178.836 201.768 177.336 201.768 177.336C201.768 177.336 200.88 176.208 202.74 175.608" stroke="#263238" stroke-linecap="round" stroke-linejoin="round"/>
<path d="M202.8 182.028C202.8 182.028 197.676 182.028 196.308 180.156" stroke="#263238" stroke-linecap="round" stroke-linejoin="round"/>
<path d="M190.536 154.296L190.14 160.488C190.14 160.488 185.748 162.756 184.644 165.06C183.987 166.569 183.746 168.227 183.948 169.86C183.948 169.86 181.284 165.204 179.844 165.588C179.328 165.72 179.328 167.676 179.328 167.676C179.328 167.676 173.328 154.284 178.752 147.204C184.176 140.124 190.536 154.296 190.536 154.296Z" fill="#757575" stroke="#263238" stroke-linecap="round" stroke-linejoin="round"/>
<path d="M182.076 168.528C182.076 168.528 180.876 164.028 176.832 162.84C172.788 161.652 175.56 172.44 179.004 173.844C182.448 175.248 183.312 176.244 183.516 174.96" fill="white"/>
<path d="M182.076 168.528C182.076 168.528 180.876 164.028 176.832 162.84C172.788 161.652 175.56 172.44 179.004 173.844C182.448 175.248 183.312 176.244 183.516 174.96" stroke="#263238" stroke-linecap="round" stroke-linejoin="round"/>
<path d="M176.568 153.516C176.232 153.06 174.744 141.516 182.364 136.332C189.984 131.148 202.86 131.7 211.056 138.876C219.252 146.052 216.924 158.496 211.056 162.744V157.548C211.056 157.548 208.356 162.756 200.256 163.188L202.728 159.372C202.728 159.372 198.744 161.772 191.724 161.568C191.724 161.568 195.024 158.94 194.544 156.6C194.556 156.6 183.408 162.876 176.568 153.516Z" fill="#263238"/>
<path d="M177.996 195.132C172.38 195.804 164.388 203.136 169.596 216.156C172.92 224.412 200.232 219.504 200.232 219.504C210.36 215.328 225.156 200.304 236.016 193.332C236.016 193.332 233.724 178.932 231.084 180.972C218.808 190.368 208.716 191.016 191.592 199.248C191.628 199.2 181.524 194.712 177.996 195.132Z" fill="white" stroke="#263238" stroke-linecap="round" stroke-linejoin="round"/>
<path d="M190.536 211.116C190.368 216.492 192.576 217.44 196.296 218.712L190.536 211.116Z" fill="white"/>
<path d="M190.536 211.116C190.368 216.492 192.576 217.44 196.296 218.712" stroke="#263238" stroke-linecap="round" stroke-linejoin="round"/>
<path d="M230.268 182.028C230.52 181.248 235.068 173.256 236.352 171.228C237.636 169.2 243.372 167.364 245.592 166.14C247.812 164.916 247.992 163.056 249.192 164.388C250.392 165.72 249.192 168.756 242.544 171.984C244.906 172.115 247.273 172.115 249.636 171.984C251.412 171.72 252.996 170.112 253.788 171.228C254.58 172.344 254.736 174.348 250.776 175.572C248.892 176.255 246.92 176.659 244.92 176.772C246.857 177.186 248.762 177.739 250.62 178.428C251.256 178.896 252.204 179.988 253.152 180.156C254.1 180.324 255.132 181.356 253.392 182.556C252.775 182.897 252.083 183.082 251.379 183.095C250.674 183.107 249.976 182.947 249.348 182.628C249.348 182.628 253.944 184.848 252.516 186.228C251.088 187.608 246.516 187.332 246.516 187.332C246.516 187.332 239.736 195.6 234 193.872" fill="white"/>
<path d="M230.268 182.028C230.52 181.248 235.068 173.256 236.352 171.228C237.636 169.2 243.372 167.364 245.592 166.14C247.812 164.916 247.992 163.056 249.192 164.388C250.392 165.72 249.192 168.756 242.544 171.984C244.906 172.115 247.273 172.115 249.636 171.984C251.412 171.72 252.996 170.112 253.788 171.228C254.58 172.344 254.736 174.348 250.776 175.572C248.892 176.255 246.92 176.659 244.92 176.772C246.857 177.186 248.762 177.739 250.62 178.428C251.256 178.896 252.204 179.988 253.152 180.156C254.1 180.324 255.132 181.356 253.392 182.556C252.775 182.897 252.083 183.082 251.379 183.095C250.674 183.107 249.976 182.947 249.348 182.628C249.348 182.628 253.944 184.848 252.516 186.228C251.088 187.608 246.516 187.332 246.516 187.332C246.516 187.332 239.736 195.6 234 193.872" stroke="#263238" stroke-linecap="round" stroke-linejoin="round"/>
<path d="M238.392 171.216C238.78 171.306 239.135 171.502 239.419 171.781C239.703 172.061 239.904 172.413 240 172.8C240.396 174.216 241.56 174.3 242.268 175.884C242.976 177.468 242.772 179.916 243.468 180.756C244.164 181.596 243.468 185.136 243.468 185.136" stroke="#263238" stroke-linecap="round" stroke-linejoin="round"/>
<path d="M179.172 194.112C176.232 190.368 169.632 192.06 169.632 192.06" stroke="#1E1E1E" stroke-linecap="round" stroke-linejoin="round"/>
<path d="M166.032 185.16C166.032 185.16 172.824 186.156 174.828 191.808" stroke="#020100" stroke-linecap="round" stroke-linejoin="round"/>
<path d="M177.996 220.944C177.996 220.944 171.372 226.068 161.292 218.712" stroke="#1E1E1E" stroke-linecap="round" stroke-linejoin="round"/>
<path d="M169.632 222.492C169.632 222.492 166.272 227.136 158.088 227.076" stroke="#020100" stroke-linecap="round" stroke-linejoin="round"/>
<path d="M211.728 280.92C211.728 280.92 194.4 294.732 176.796 292.92" stroke="#1E1E1E" stroke-linecap="round" stroke-linejoin="round"/>
<path d="M164.892 250.572C164.892 250.572 191.784 270.3 211.692 271.56" stroke="#020100" stroke-linecap="round" stroke-linejoin="round"/>
<path d="M165.6 396.612C170.226 394.046 175.665 393.366 180.78 394.716C189.552 396.924 212.34 429.516 215.508 432.696C218.676 435.876 224.604 437.496 230.064 443.244C238.704 452.256 251.268 460.224 252.54 460.224C253.812 460.224 254.832 459.432 256.416 459.12C258 458.808 270.264 457.692 270.264 457.692C270.264 457.692 274.38 458.604 270.264 460.368C266.148 462.132 266.46 463.704 266.46 463.704C266.46 463.704 265.632 465.036 267.288 466.308C268.944 467.58 269.916 466.884 272.28 470.232C274.644 473.58 268.944 471.684 268.944 471.684C268.944 471.684 270.204 475.284 267.672 474.924C265.14 474.564 267.36 478.44 263.244 477.912C259.128 477.384 250.32 471.828 248.112 466.008C248.112 466.008 212.184 448.836 206.808 444.408C201.432 439.98 178.8 416.232 177.252 415.92" fill="#263238"/>
<path d="M259.596 428.772H285.996C286.594 428.772 287.168 429.01 287.591 429.433C288.014 429.856 288.252 430.43 288.252 431.028V449.868H257.34V431.028C257.34 430.43 257.578 429.856 258.001 429.433C258.424 429.01 258.998 428.772 259.596 428.772Z" fill="#3052C5"/>
<path opacity="0.3" d="M259.596 428.772H285.996C286.594 428.772 287.168 429.01 287.591 429.433C288.014 429.856 288.252 430.43 288.252 431.028V449.868H257.34V431.028C257.34 430.43 257.578 429.856 258.001 429.433C258.424 429.01 258.998 428.772 259.596 428.772Z" fill="black" fill-opacity="0.7"/>
<path opacity="0.3" d="M286.536 430.764H278.94V445.956H286.536V430.764Z" fill="white" fill-opacity="0.7"/>
<path d="M259.596 428.772H285.996C286.594 428.772 287.168 429.01 287.591 429.433C288.014 429.856 288.252 430.43 288.252 431.028V449.868H257.34V431.028C257.34 430.43 257.578 429.856 258.001 429.433C258.424 429.01 258.998 428.772 259.596 428.772V428.772Z" stroke="#263238" stroke-linecap="round" stroke-linejoin="round"/>
<path d="M305.196 428.772H331.596C332.194 428.772 332.768 429.01 333.191 429.433C333.614 429.856 333.852 430.43 333.852 431.028V449.868H302.94V431.028C302.94 430.732 302.998 430.438 303.112 430.165C303.225 429.891 303.391 429.642 303.601 429.433C303.81 429.223 304.059 429.057 304.333 428.944C304.606 428.83 304.9 428.772 305.196 428.772Z" fill="#3052C5"/>
<path opacity="0.3" d="M305.196 428.772H331.596C332.194 428.772 332.768 429.01 333.191 429.433C333.614 429.856 333.852 430.43 333.852 431.028V449.868H302.94V431.028C302.94 430.732 302.998 430.438 303.112 430.165C303.225 429.891 303.391 429.642 303.601 429.433C303.81 429.223 304.059 429.057 304.333 428.944C304.606 428.83 304.9 428.772 305.196 428.772Z" fill="black" fill-opacity="0.7"/>
<path opacity="0.3" d="M331.632 430.764H327.048V445.956H331.632V430.764Z" fill="white" fill-opacity="0.7"/>
<path d="M305.196 428.772H331.596C332.194 428.772 332.768 429.01 333.191 429.433C333.614 429.856 333.852 430.43 333.852 431.028V449.868H302.94V431.028C302.94 430.732 302.998 430.438 303.112 430.165C303.225 429.891 303.391 429.642 303.601 429.433C303.81 429.223 304.059 429.057 304.333 428.944C304.606 428.83 304.9 428.772 305.196 428.772V428.772Z" stroke="#263238" stroke-linecap="round" stroke-linejoin="round"/>
<path d="M295.596 428.772H321.996C322.595 428.772 323.168 429.01 323.592 429.433C324.015 429.856 324.252 430.43 324.252 431.028V449.868H293.34V431.028C293.34 430.732 293.399 430.438 293.512 430.165C293.625 429.891 293.792 429.642 294.001 429.433C294.211 429.223 294.459 429.057 294.733 428.944C295.007 428.83 295.3 428.772 295.596 428.772Z" fill="#3052C5" stroke="#263238" stroke-linecap="round" stroke-linejoin="round"/>
<path d="M341.196 428.772H367.596C368.194 428.772 368.768 429.01 369.191 429.433C369.614 429.856 369.852 430.43 369.852 431.028V449.868H338.94V431.028C338.94 430.43 339.178 429.856 339.601 429.433C340.024 429.01 340.598 428.772 341.196 428.772Z" fill="#3052C5" stroke="#263238" stroke-linecap="round" stroke-linejoin="round"/>
<path opacity="0.3" d="M322.536 430.764H314.94V445.956H322.536V430.764Z" fill="white" fill-opacity="0.7"/>
<path opacity="0.3" d="M367.632 430.764H360.036V445.956H367.632V430.764Z" fill="white" fill-opacity="0.7"/>
<path d="M383.304 445.476V532.104H243.732V445.476C243.732 444.028 244.307 442.639 245.331 441.615C246.355 440.591 247.744 440.016 249.192 440.016H377.844C379.292 440.016 380.681 440.591 381.705 441.615C382.729 442.639 383.304 444.028 383.304 445.476Z" fill="#3052C5"/>
<path opacity="0.3" d="M383.304 445.476V532.104H243.732V445.476C243.732 444.028 244.307 442.639 245.331 441.615C246.355 440.591 247.744 440.016 249.192 440.016H377.844C379.292 440.016 380.681 440.591 381.705 441.615C382.729 442.639 383.304 444.028 383.304 445.476Z" fill="black" fill-opacity="0.7"/>
<path d="M383.304 445.476V532.104H243.732V445.476C243.732 444.028 244.307 442.639 245.331 441.615C246.355 440.591 247.744 440.016 249.192 440.016H377.844C379.292 440.016 380.681 440.591 381.705 441.615C382.729 442.639 383.304 444.028 383.304 445.476V445.476Z" stroke="#263238" stroke-linecap="round" stroke-linejoin="round"/>
<path d="M383.304 445.476V532.104H279.732V445.476C279.732 444.028 280.307 442.639 281.331 441.615C282.355 440.591 283.744 440.016 285.192 440.016H377.844C379.292 440.016 380.681 440.591 381.705 441.615C382.729 442.639 383.304 444.028 383.304 445.476Z" fill="#3052C5" stroke="#263238" stroke-linecap="round" stroke-linejoin="round"/>
<path opacity="0.3" d="M376.296 448.56H287.76C287.162 448.56 286.588 448.322 286.165 447.899C285.742 447.476 285.504 446.902 285.504 446.304C285.498 446.004 285.551 445.705 285.662 445.426C285.772 445.147 285.937 444.892 286.147 444.678C286.358 444.463 286.608 444.293 286.885 444.176C287.162 444.06 287.46 444 287.76 444H376.296C376.894 444 377.468 444.238 377.891 444.661C378.314 445.084 378.552 445.658 378.552 446.256C378.558 446.556 378.505 446.855 378.394 447.134C378.284 447.413 378.119 447.668 377.908 447.882C377.698 448.097 377.447 448.267 377.171 448.384C376.894 448.5 376.596 448.56 376.296 448.56Z" fill="white" fill-opacity="0.7"/>
<path d="M212.4 532.104C205.2 532.104 195.084 527.472 183.432 522.576C171.348 517.488 157.584 512.112 143.616 511.308C138.408 511.008 141.564 532.104 141.564 532.104H130.164C130.164 532.104 118.908 517.08 117.6 503.628C117.6 503.628 126.792 497.952 129 497.628C129.761 497.548 130.527 497.512 131.292 497.52C133.764 497.52 137.064 497.628 137.064 497.628C136.536 497.316 128.124 492.252 123.48 487.104C119.652 482.856 117.9 476.148 117.768 472.14C117.916 469.486 118.209 466.842 118.644 464.22L178.548 465.216C178.548 465.216 179.196 465.672 180.348 466.524C187.296 471.588 212.688 490.452 225.384 504.672C229.488 509.268 232.26 513.372 232.668 516.372C234.576 530.208 223.26 532.104 212.4 532.104Z" fill="#757575" stroke="#263238" stroke-linecap="round" stroke-linejoin="round"/>
<path d="M225.396 504.648L196.26 511.308C191.265 514.166 186.894 517.997 183.408 522.576C171.324 517.488 157.56 512.112 143.592 511.308C138.384 511.008 141.54 532.104 141.54 532.104H130.14C130.14 532.104 118.908 517.08 117.6 503.628C117.6 503.628 128.208 518.748 130.8 526.428C130.8 526.428 134.916 512.22 141.6 506.52C138.581 503.12 135.151 500.109 131.388 497.556C133.86 497.556 137.16 497.664 137.16 497.664C136.632 497.352 128.22 492.288 123.576 487.14C119.748 482.892 118.2 476.172 117.864 472.176C117.696 470.208 117.936 464.256 117.936 464.256C117.936 464.256 162.612 470.628 180.444 466.56C187.308 471.6 212.7 490.428 225.396 504.648Z" fill="#263238"/>
<path d="M178.56 503.628C178.56 503.628 202.296 515.52 208.632 520.176C214.968 524.832 216.852 523.572 216.852 523.572" stroke="#263238" stroke-linecap="round" stroke-linejoin="round"/>
<path d="M123.492 502.368C123.492 502.368 129.192 511.068 129.492 513.672" stroke="#263238" stroke-linecap="round" stroke-linejoin="round"/>
<path d="M218.964 335.376C218.964 335.376 231.6 329.88 230.4 353.256C229.2 376.632 233.484 377.832 233.484 377.832C233.484 377.832 201.684 390.888 193.608 379.728C185.532 368.568 193.2 338.028 218.964 335.376Z" fill="#263238"/>
<path d="M217.2 377.832C217.2 377.832 204.12 384 202.932 389.7C201.744 395.4 185.364 386.82 185.364 386.82L197.232 369.756L217.2 377.832Z" fill="white" stroke="#263238" stroke-linecap="round" stroke-linejoin="round"/>
<path d="M131.436 440.4C101.436 478.608 125.784 497.04 159.792 493.992L152.976 504.792L170.088 507.756C170.088 507.756 183.204 499.188 201.084 490.032C231.516 474.432 243.816 475.368 240.684 459.756C237.552 444.144 200.256 434.016 162.864 450.468C162.828 450.456 142.524 426.336 131.436 440.4Z" fill="#757575" stroke="#263238" stroke-linecap="round" stroke-linejoin="round"/>
<path d="M141.9 523.572C141.9 523.572 149.712 501.972 152.976 500.772C156.24 499.572 168.576 504.252 170.088 507.732C170.088 507.732 174.252 501.348 175.956 504.06C177.66 506.772 175.2 511.26 175.956 514.692C176.712 518.124 185.148 522.924 188.52 523.56C191.892 524.196 193.812 526.092 193.812 527.988V532.104H141.9C141.324 530.756 141.027 529.304 141.027 527.838C141.027 526.372 141.324 524.92 141.9 523.572Z" fill="white" stroke="#263238" stroke-linecap="round" stroke-linejoin="round"/>
<path d="M175.956 511.308C175.956 511.308 169.08 514.704 166.572 513.708C164.064 512.712 167.856 519.408 168.804 520.044C169.752 520.68 176.004 517.824 176.004 517.824" stroke="#263238" stroke-linecap="round" stroke-linejoin="round"/>
<path d="M148.392 507.744C148.392 507.744 157.728 507.924 160.572 511.344" stroke="#263238" stroke-linecap="round" stroke-linejoin="round"/>
<path d="M141.9 523.572C141.9 523.572 156.78 527.052 158.04 527.052C160.086 526.646 162.094 526.064 164.04 525.312C164.04 525.312 168.12 527.364 170.832 528.636C173.544 529.908 191.232 528.636 191.232 528.636" stroke="#263238" stroke-linecap="round" stroke-linejoin="round"/>
<path d="M159.792 494.016C174 492.48 201.6 474.972 211.2 468.888C220.8 462.804 223.2 464.4 223.2 464.4" stroke="#263238" stroke-linecap="round" stroke-linejoin="round"/>
<path d="M117.852 464.196L120.12 446.976L125.592 442.848C134.46 421.332 174.636 381.144 185.592 381.276C202.044 381.468 204.948 398.736 206.976 417.636C209.004 436.536 183.372 433.692 183.372 433.692V438.432L168.792 445.98L177.624 445.704C177.624 445.704 152.22 470.4 117.852 464.196Z" fill="#3052C5" stroke="#263238" stroke-linecap="round" stroke-linejoin="round"/>
<path d="M189.06 348C192.504 337.2 208.26 334.32 213.924 336.084C218.573 337.899 222.383 341.376 224.616 345.84C226.056 348.948 223.044 354.444 225.192 357.648C228.264 362.244 228 371.94 226.896 378.048C226.296 381.288 212.82 383.208 201.804 375.648C189.972 367.464 185.724 358.392 189.06 348Z" fill="white" stroke="#263238" stroke-linecap="round" stroke-linejoin="round"/>
<path d="M204.984 332.856C204.984 332.856 218.856 330.6 218.952 334.164C219.564 357.84 205.368 362.808 205.368 362.808C205.368 362.808 199.572 358.188 198.276 361.356C196.98 364.524 200.316 373.284 204.42 373.464C203.474 374.933 202.957 376.637 202.928 378.384C202.898 380.131 203.357 381.852 204.252 383.352C204.252 383.352 180.756 387.276 178.812 376.392C179.72 372.609 180.37 368.768 180.756 364.896C182.28 349.644 178.716 339.384 204.984 332.856Z" fill="#263238"/>
<path d="M223.512 356.988C226.404 359.592 228.48 359.592 228.444 360.528C228.336 363.444 224.844 364.896 224.844 364.896" fill="white"/>
<path d="M223.512 356.988C226.404 359.592 228.48 359.592 228.444 360.528C228.336 363.444 224.844 364.896 224.844 364.896" stroke="#263238" stroke-linecap="round" stroke-linejoin="round"/>
<path d="M224.772 369.756C222.729 370.448 220.523 370.502 218.448 369.912" stroke="#263238" stroke-linecap="round" stroke-linejoin="round"/>
<path d="M217.08 342.456C217.08 342.456 226.308 339.78 224.616 354.756C224.616 354.756 228.456 349.536 228.444 343.668C228.444 333.504 214.848 335.544 214.848 335.544L216.624 342.744" fill="#263238"/>
<path d="M225.468 349.788C225.118 349.556 224.726 349.397 224.313 349.321C223.901 349.244 223.477 349.252 223.068 349.344" stroke="#263238" stroke-linecap="round" stroke-linejoin="round"/>
<path d="M219.252 349.62C219.252 349.62 214.296 349.908 212.148 353.22" stroke="#263238" stroke-linecap="round" stroke-linejoin="round"/>
<path d="M218.064 357.504C218.136 358.296 217.8 358.98 217.308 359.028C216.816 359.076 216.36 358.464 216.276 357.672C216.192 356.88 216.54 356.196 217.032 356.148C217.524 356.1 217.992 356.712 218.064 357.504Z" fill="#263238"/>
<path d="M160.572 497.616C160.572 497.616 171.612 498.816 174.012 503.616" stroke="#263238" stroke-linecap="round" stroke-linejoin="round"/>
<path d="M188.52 389.376C193.146 386.81 198.585 386.13 203.7 387.48C212.484 389.7 235.26 422.28 238.428 425.46C241.596 428.64 247.524 430.26 252.984 436.008C261.624 445.02 274.188 452.988 275.46 452.988C276.732 452.988 277.752 452.196 279.336 451.884C280.92 451.572 293.184 450.456 293.184 450.456C293.184 450.456 297.3 451.38 293.184 453.132C289.068 454.884 289.38 456.48 289.38 456.48C289.38 456.48 288.564 457.8 290.208 459.072C291.852 460.344 292.836 459.648 295.2 462.996C297.564 466.344 291.864 464.448 291.864 464.448C291.864 464.448 293.124 468.048 290.592 467.688C288.06 467.328 290.28 471.204 286.164 470.676C282.048 470.148 273.24 464.592 271.032 458.772C271.032 458.772 235.104 441.6 229.728 437.172C224.352 432.744 201.744 408.996 200.148 408.684" fill="white"/>
<path d="M188.52 389.376C193.146 386.81 198.585 386.13 203.7 387.48C212.484 389.7 235.26 422.28 238.428 425.46C241.596 428.64 247.524 430.26 252.984 436.008C261.624 445.02 274.188 452.988 275.46 452.988C276.732 452.988 277.752 452.196 279.336 451.884C280.92 451.572 293.184 450.456 293.184 450.456C293.184 450.456 297.3 451.38 293.184 453.132C289.068 454.884 289.38 456.48 289.38 456.48C289.38 456.48 288.564 457.8 290.208 459.072C291.852 460.344 292.836 459.648 295.2 462.996C297.564 466.344 291.864 464.448 291.864 464.448C291.864 464.448 293.124 468.048 290.592 467.688C288.06 467.328 290.28 471.204 286.164 470.676C282.048 470.148 273.24 464.592 271.032 458.772C271.032 458.772 235.104 441.6 229.728 437.172C224.352 432.744 201.744 408.996 200.148 408.684" stroke="#263238" stroke-linecap="round" stroke-linejoin="round"/>
<path d="M183.36 385.896C183.36 385.896 201.072 381.156 207.252 384.636C213.432 388.116 225.144 404.256 225.144 404.256C225.144 404.256 210.864 417.036 206.448 415.872C202.032 414.708 188.52 412.8 188.52 412.8" fill="#3052C5"/>
<path d="M183.36 385.896C183.36 385.896 201.072 381.156 207.252 384.636C213.432 388.116 225.144 404.256 225.144 404.256C225.144 404.256 210.864 417.036 206.448 415.872C202.032 414.708 188.52 412.8 188.52 412.8" stroke="#263238" stroke-linecap="round" stroke-linejoin="round"/>
<path d="M198.72 414.36C198.72 414.36 192.3 417.888 189.936 417.888" stroke="#263238" stroke-linecap="round" stroke-linejoin="round"/>
<path d="M188.52 396.66C189.06 397.608 188.88 407.988 200.148 411.216" stroke="#263238" stroke-linecap="round" stroke-linejoin="round"/>
<path d="M128.292 443.184C128.292 443.184 152.292 447.3 160.572 440.016" stroke="#263238" stroke-linecap="round" stroke-linejoin="round"/>
<path d="M168.78 445.98C168.78 445.98 162.78 444.924 160.572 448.008C158.364 451.092 146.34 454.008 146.34 454.008" stroke="#263238" stroke-linecap="round" stroke-linejoin="round"/>
<path d="M120.54 468.888C120.54 468.888 117.072 483.84 131.868 490.488" stroke="#263238" stroke-linecap="round" stroke-linejoin="round"/>
<path d="M128.292 469.92C128.292 469.92 128.376 477.288 130.692 481.32L138.048 483.72L146.28 479.136C146.28 479.136 144.528 469.716 144.372 467.808" stroke="#263238" stroke-linecap="round" stroke-linejoin="round"/>
</svg>
