<svg width="700" height="700" viewBox="0 0 700 700" fill="none" xmlns="http://www.w3.org/2000/svg">
<g clip-path="url(#clip0_4_3085)">
<path d="M632.366 387.128C626.29 438.494 602.84 498.232 555.982 525.728C485.198 567.21 491.12 630.994 352.982 658.728C332.83 662.868 312.289 664.811 291.718 664.524C281.652 664.343 271.607 663.52 261.646 662.06C173.838 649.236 114.73 588.196 93.058 514.514C64.526 417.606 121.492 354.172 159.25 315.938C197.008 277.704 224.644 158.55 360.262 130.2C380.962 125.79 402.102 123.784 423.262 124.222C471.506 125.412 524.132 141.246 560.56 174.328C563.285 176.811 565.945 179.382 568.54 182.042C619.136 234.01 640.64 317.086 632.366 387.128Z" fill="#3052C5"/>
<path opacity="0.7" d="M632.366 387.128C626.29 438.494 602.84 498.232 555.982 525.728C485.198 567.21 491.12 630.994 352.982 658.728C332.83 662.868 312.289 664.811 291.718 664.524C281.652 664.343 271.607 663.52 261.646 662.06C173.838 649.236 114.73 588.196 93.058 514.514C64.526 417.606 121.492 354.172 159.25 315.938C197.008 277.704 224.644 158.55 360.262 130.2C380.962 125.79 402.102 123.784 423.262 124.222C471.506 125.412 524.132 141.246 560.56 174.328C563.285 176.811 565.945 179.382 568.54 182.042C619.136 234.01 640.64 317.086 632.366 387.128Z" fill="white"/>
<g opacity="0.15">
<path d="M450.926 137.2C444.29 141.806 426.454 144.9 426.44 144.9C426.426 144.9 427.966 132.524 428.162 131.754C430.458 122.836 440.118 106.946 450.422 106.316C457.828 105.868 463.274 112.308 463.022 119.434C462.77 126.56 456.582 133.238 450.926 137.2Z" fill="black"/>
<path d="M401.8 361.634C401.8 362.054 401.8 362.446 401.8 362.866L395.64 366.8C395.64 365.12 395.64 363.426 395.64 361.662C395.64 356.706 395.738 351.4 395.878 345.954C390.768 344.999 385.719 343.742 380.758 342.188C376.684 348.81 364.714 357.994 363.16 359.17C365.834 363.258 368.494 367.192 371.042 370.888C372.806 373.422 374.514 375.844 376.166 378.182L369.46 379.498C368.312 377.818 367.164 376.096 365.988 374.304C363.188 370.174 360.388 365.694 357.518 361.074C355.698 361.844 340.718 368.074 333.158 367.864C326.284 367.682 317.576 365.526 313.348 359.604C309.12 353.682 310.24 345.436 316.694 341.754C325.654 336.63 342.44 344.638 349.23 350.854C349.636 351.218 353.542 355.684 355.964 358.54C354.802 356.65 353.64 354.816 352.464 352.856C350.112 348.978 347.886 345.044 345.464 340.83L342.132 334.53C340.984 332.444 340.032 330.106 338.954 327.866C336.56 322.644 334.404 317.24 332.346 311.752C328.958 313.81 316.792 320.922 309.946 321.776C303.1 322.63 294.196 321.776 289.114 316.61C284.032 311.444 283.892 303.072 289.716 298.41C297.794 291.998 315.602 297.374 323.316 302.484C323.806 302.792 328.916 307.09 331.632 309.484C330.414 306.166 329.196 302.862 328.076 299.474C324.856 289.674 321.902 279.678 318.906 269.71C317.973 266.658 317.039 263.615 316.106 260.582C314.916 261.324 300.706 270.102 292.964 271.054C286.132 271.922 277.2 271.054 272.132 265.888C267.064 260.722 266.91 252.35 272.734 247.688C280.812 241.276 298.62 246.652 306.334 251.762C306.908 252.154 314.216 258.328 315.994 259.994C313.922 253.288 311.794 246.638 309.442 240.17C306.251 231.456 302.495 222.958 298.2 214.732C297.64 215.068 282.8 224.294 274.932 225.274C268.1 226.128 259.168 225.274 254.086 220.108C249.004 214.942 248.864 206.57 254.688 201.908C262.766 195.496 280.574 200.872 288.288 205.982C288.876 206.388 296.688 212.982 298.088 214.382C297.85 213.906 297.64 213.388 297.388 212.982C292.889 204.805 287.675 197.042 281.806 189.784C278.628 185.724 275.352 182.042 272.006 178.584C269.416 180.586 257.488 189.602 250.502 191.268C243.81 192.864 234.836 193.046 229.222 188.468C223.608 183.89 222.544 175.588 227.822 170.366C235.158 163.1 253.442 166.488 261.618 170.73C262.066 170.954 266.322 173.796 269.402 175.91C267.904 174.342 266.378 172.704 264.922 171.234C259.42 165.634 254.058 160.958 249.27 156.8C246.47 154.462 244.006 152.404 241.612 150.5C238.056 151.13 223.65 153.524 216.804 151.816C209.958 150.108 202.09 146.216 199.234 139.482C196.378 132.748 199.234 124.978 206.346 122.766C216.146 119.7 230.86 131.166 236.166 138.656C236.628 139.314 242.62 150.304 242.438 150.346H242.228C244.552 152.124 247.03 154.07 249.704 156.254C254.59 160.314 260.078 164.934 265.706 170.38C271.841 176.175 277.628 182.327 283.038 188.804C289.148 196.015 294.597 203.76 299.32 211.946L299.474 212.254C298.83 209.3 297.332 200.984 297.29 200.326C296.688 191.142 300.916 173.026 310.506 169.218C317.408 166.418 324.59 170.898 326.536 177.758C328.482 184.618 324.8 192.752 320.6 198.24C315.924 204.442 301.14 212.45 299.964 213.094C304.565 221.537 308.597 230.279 312.032 239.26C314.062 244.482 315.952 249.816 317.772 255.178C317.31 252.602 316.904 250.292 316.89 249.97C316.288 240.786 320.516 222.67 330.106 218.862C337.008 216.062 344.19 220.542 346.136 227.402C348.082 234.262 344.4 242.55 340.2 248.038C336 253.526 323.526 260.638 320.194 262.528C320.88 264.6 321.594 266.644 322.252 268.716C325.458 278.628 328.622 288.54 332.052 298.116C333.242 301.504 334.544 304.794 335.846 308.098C335.426 305.816 335.104 303.898 335.076 303.59C334.474 294.406 338.702 276.29 348.292 272.482C355.194 269.752 362.376 274.162 364.322 281.022C366.268 287.882 362.6 296.226 358.4 301.714C354.2 307.202 343 313.684 338.996 315.868C340.396 319.214 341.796 322.56 343.378 325.668C344.47 327.81 345.38 329.952 346.598 332.052C347.816 334.152 348.922 336.252 350.056 338.282C352.408 342.16 354.802 346.178 357.182 349.902C358.82 352.506 360.43 354.956 362.04 357.434C360.808 354.06 358.526 347.438 358.4 346.85C356.958 338.895 357.57 330.703 360.178 323.05C359.977 322.167 359.86 321.267 359.828 320.362C359.576 313.25 365.05 306.838 372.428 307.328C382.718 308 392.294 323.946 394.534 332.878C394.674 333.396 395.472 339.276 395.934 342.986C396.018 340.774 396.06 338.604 396.158 336.322C396.34 331.8 396.634 327.278 396.942 322.42C397.18 320.082 397.418 317.716 397.656 315.336C397.894 312.956 398.342 310.478 398.664 308.028C399.56 302.428 400.736 296.66 402.052 290.934C398.09 290.78 384.02 290.01 377.832 286.944C371.644 283.878 364.658 278.278 363.3 271.138C361.942 263.998 366.422 256.956 373.814 256.326C384.09 255.43 395.99 269.738 399.56 278.222C399.784 278.754 401.66 285.138 402.626 288.652C403.438 285.222 404.236 281.792 405.174 278.362C407.89 268.408 410.942 258.44 413.938 248.472C414.862 245.42 415.744 242.368 416.64 239.302C415.24 239.302 398.44 238.714 391.552 235.27C385.392 232.218 378.378 226.618 377.02 219.464C375.662 212.31 380.142 205.296 387.548 204.652C397.81 203.77 409.71 218.064 413.28 226.562C413.546 227.192 416.234 236.362 416.808 238.756C418.768 232.022 420.672 225.302 422.268 218.61C424.48 209.574 426.098 200.403 427.112 191.156C426.454 191.156 408.912 190.638 401.912 187.11C395.738 184.058 388.738 178.458 387.38 171.304C386.022 164.15 390.488 157.136 397.894 156.492C408.17 155.61 420.056 169.904 423.626 178.402C423.92 179.06 426.804 188.944 427.196 190.778C427.196 190.246 427.364 189.686 427.42 189.154C428.187 179.833 428.122 170.463 427.224 161.154C426.804 156.016 426.104 151.13 425.32 146.398C422.058 146.636 407.12 147.574 400.386 145.11C393.918 142.758 386.386 137.956 384.216 130.998C382.046 124.04 385.756 116.564 393.036 115.122C403.158 113.106 416.542 126.014 421.036 134.064C421.274 134.498 423.262 139.216 424.662 142.688C424.27 140.546 423.92 138.334 423.514 136.304C421.988 128.66 420.126 121.744 418.418 115.64C417.424 112.168 416.458 109.06 415.52 106.148C412.188 104.748 398.86 98.77 394.1 93.548C389.34 88.326 384.93 80.724 386.246 73.556C387.562 66.388 394.24 61.6 401.38 63.644C411.292 66.528 417.214 84.154 417.494 93.366C417.494 94.15 416.444 106.638 416.276 106.568L416.066 106.484C417.032 109.284 418.026 112.238 419.048 115.528C420.882 121.604 422.898 128.492 424.648 136.15C426.569 144.366 428.009 152.687 428.96 161.07C430.064 170.459 430.331 179.928 429.758 189.364V189.7C430.864 186.9 434.196 179.116 434.518 178.5C439.082 170.506 452.606 157.738 462.7 159.852C469.966 161.378 473.522 169.022 471.366 175.826C469.21 182.63 461.566 187.474 455.042 189.826C447.72 192.402 430.962 190.932 429.632 190.806C428.813 200.394 427.354 209.917 425.264 219.31C424.074 224.784 422.716 230.272 421.274 235.746C422.31 233.338 423.248 231.196 423.402 230.916C427.966 222.922 441.49 210.14 451.584 212.268C458.864 213.794 462.406 221.438 460.25 228.228C458.094 235.018 450.45 239.89 443.926 242.228C437.402 244.566 423.038 243.628 419.244 243.278C418.684 245.378 418.124 247.478 417.55 249.564C414.75 259.616 411.95 269.626 409.458 279.538C408.59 283.024 407.862 286.538 407.12 289.954C408.03 287.826 408.814 286.034 408.968 285.754C413.532 277.76 427.056 264.992 437.15 267.106C444.416 268.632 447.972 276.276 445.816 283.08C443.66 289.884 436.016 294.728 429.492 297.08C422.968 299.432 409.99 298.48 405.496 298.172C404.838 301.756 404.18 305.34 403.704 308.826C403.438 311.22 403.004 313.502 402.878 315.924C402.752 318.346 402.5 320.684 402.318 323.022C402.136 327.558 401.912 332.22 401.842 336.644C401.842 339.724 401.758 342.65 401.744 345.604C402.57 342.118 404.334 335.328 404.544 334.782C407.848 326.186 419.286 311.514 429.576 312.074C436.996 312.48 441.658 319.508 440.552 326.55C439.446 333.592 432.6 339.556 426.552 342.804C419.874 346.374 403.746 347.494 401.73 347.62C401.604 352.394 401.632 357.154 401.8 361.634Z" fill="black"/>
<path d="M272.048 176.484C271.908 176.61 266.448 165.284 266.224 164.556C263.214 155.862 262.514 137.27 270.76 131.068C276.696 126.602 284.76 128.968 288.484 135.072C292.208 141.176 290.766 150.15 288.218 156.548C285.222 164.038 272.062 176.47 272.048 176.484Z" fill="black"/>
</g>
<g opacity="0.15">
<path d="M179.102 396.578C177.954 400.582 171.85 407.652 171.85 407.666C171.85 407.68 168.42 402.22 168.238 401.856C166.236 397.544 164.906 388.052 168.798 384.426C169.465 383.846 170.247 383.412 171.092 383.153C171.937 382.894 172.828 382.815 173.705 382.922C174.583 383.029 175.428 383.319 176.187 383.774C176.945 384.228 177.6 384.837 178.108 385.56C180.362 388.556 180.068 393.162 179.102 396.578Z" fill="black"/>
<path d="M232.862 502.194L233.268 502.67L232.12 506.254L230.44 504.21C228.816 502.236 227.122 500.094 225.4 497.868C223.047 499.156 220.621 500.306 218.134 501.312C218.68 505.288 216.902 512.862 216.664 513.828C219.072 514.584 221.41 515.298 223.664 515.928C225.204 516.376 226.674 516.782 228.102 517.16L225.848 519.96L222.768 519.022C220.318 518.266 217.728 517.412 215.068 516.502C214.592 517.412 210.658 524.79 207.578 527.184C204.778 529.354 200.578 531.384 196.966 530.362C196.106 530.159 195.299 529.777 194.597 529.241C193.894 528.706 193.312 528.029 192.889 527.254C192.465 526.479 192.209 525.624 192.137 524.743C192.065 523.863 192.179 522.977 192.472 522.144C194.362 517.174 203.672 514.878 208.418 515.144C208.698 515.144 211.722 515.662 213.612 516.012C212.534 515.634 211.47 515.284 210.364 514.878C208.166 514.108 205.982 513.268 203.644 512.372L200.256 510.972C199.108 510.524 197.96 509.908 196.812 509.362C194.152 508.06 191.52 506.562 188.902 505.092C188.216 507.024 185.696 513.828 183.302 516.418C180.908 519.008 177.03 521.584 173.306 521.164C172.425 521.095 171.569 520.841 170.793 520.419C170.017 519.997 169.339 519.417 168.801 518.716C168.264 518.015 167.88 517.209 167.675 516.35C167.469 515.491 167.446 514.598 167.608 513.73C168.728 508.536 177.59 504.854 182.322 504.392C182.616 504.392 186.046 504.392 187.922 504.462C186.354 503.538 184.786 502.628 183.232 501.662C178.752 498.862 174.3 495.796 169.848 492.8C168.448 491.876 167.048 490.98 165.746 490C165.508 490.686 162.68 498.848 159.936 501.746C157.5 504.322 153.664 506.912 149.94 506.492C149.06 506.423 148.203 506.169 147.427 505.747C146.651 505.325 145.973 504.745 145.435 504.044C144.898 503.343 144.514 502.537 144.309 501.678C144.103 500.819 144.08 499.926 144.242 499.058C145.362 493.864 154.224 490.182 158.956 489.72C159.306 489.72 164.248 489.72 165.494 489.832C162.484 487.844 159.46 485.884 156.408 484.078C152.291 481.607 148.017 479.409 143.612 477.498C143.514 477.82 140.602 486.36 137.788 489.314C135.338 491.89 131.516 494.494 127.778 494.074C126.897 494.003 126.041 493.747 125.266 493.324C124.49 492.901 123.813 492.319 123.277 491.616C122.74 490.914 122.358 490.107 122.154 489.247C121.951 488.387 121.93 487.494 122.094 486.626C123.214 481.432 132.076 477.75 136.794 477.288C137.172 477.288 142.478 477.288 143.444 477.414C143.192 477.316 142.926 477.176 142.674 477.064C138.214 475.249 133.598 473.844 128.884 472.864C126.28 472.29 123.774 471.884 121.324 471.548C120.946 473.186 119.126 480.69 116.886 483.63C114.646 486.57 111.216 489.468 107.464 489.454C106.582 489.482 105.703 489.324 104.886 488.99C104.069 488.656 103.331 488.154 102.721 487.516C102.111 486.878 101.642 486.119 101.345 485.288C101.048 484.457 100.929 483.572 100.996 482.692C101.542 477.4 109.942 472.766 114.59 471.786C114.842 471.786 117.474 471.478 119.392 471.31C118.272 471.184 117.138 471.016 116.074 470.904C112.07 470.498 108.374 470.358 105.112 470.274C103.25 470.274 101.57 470.274 100.002 470.274C98.784 471.674 93.814 477.344 90.538 478.898C87.262 480.452 82.824 481.46 79.492 479.724C78.6945 479.343 77.9862 478.799 77.4135 478.125C76.8407 477.452 76.4163 476.666 76.1679 475.818C75.9195 474.97 75.8528 474.079 75.972 473.203C76.0913 472.328 76.3939 471.487 76.86 470.736C79.786 466.298 89.376 466.06 93.954 467.334C94.346 467.432 100.338 469.868 100.282 469.938L100.198 470.022C101.71 470.022 103.334 469.938 105.112 469.938C108.388 469.938 112.112 470.008 116.116 470.344C120.457 470.655 124.776 471.216 129.052 472.024C133.824 472.913 138.509 474.22 143.052 475.93L143.22 476C142.002 475.034 138.684 472.206 138.446 471.968C135.198 468.496 130.97 459.886 133.546 455.168C133.998 454.408 134.605 453.752 135.327 453.242C136.049 452.731 136.87 452.378 137.737 452.205C138.604 452.032 139.498 452.043 140.36 452.238C141.223 452.432 142.035 452.806 142.744 453.334C145.824 455.476 146.944 459.956 147.126 463.498C147.28 467.502 144.004 475.524 143.738 476.098C148.338 477.956 152.805 480.126 157.108 482.594C159.628 483.994 162.12 485.52 164.598 487.06C163.576 486.192 162.666 485.394 162.554 485.268C159.306 481.81 155.064 473.2 157.654 468.552C158.103 467.791 158.708 467.133 159.429 466.622C160.149 466.11 160.97 465.756 161.836 465.583C162.703 465.41 163.596 465.422 164.458 465.617C165.32 465.813 166.131 466.188 166.838 466.718C169.918 468.86 171.038 473.34 171.22 476.882C171.402 480.424 168.714 487.382 167.986 489.202L170.786 490.994C175.308 493.892 179.816 496.818 184.324 499.548C185.906 500.5 187.502 501.396 189.098 502.348C188.188 501.564 187.432 500.948 187.32 500.794C184.072 497.322 179.844 488.712 182.42 484.064C182.871 483.305 183.476 482.649 184.197 482.138C184.918 481.628 185.738 481.275 186.604 481.102C187.47 480.929 188.362 480.94 189.224 481.134C190.085 481.329 190.896 481.702 191.604 482.23C194.684 484.372 195.804 488.852 196 492.394C196.196 495.936 193.732 502.194 192.878 504.392C194.544 505.26 196.21 506.128 197.848 506.898C198.996 507.388 200.046 507.948 201.222 508.382L204.638 509.782C206.836 510.566 209.104 511.378 211.274 512.092C212.786 512.596 214.228 513.044 215.67 513.492C214.088 512.554 211.008 510.692 210.77 510.454C207.582 507.753 205.143 504.277 203.686 500.36C203.313 500.08 202.97 499.761 202.664 499.408C202.057 498.767 201.592 498.004 201.3 497.17C201.007 496.337 200.895 495.451 200.969 494.571C201.043 493.69 201.302 492.836 201.729 492.062C202.156 491.289 202.742 490.615 203.448 490.084C207.76 486.99 216.804 490.21 220.612 493.038C220.836 493.206 223.076 495.292 224.476 496.622C223.776 495.712 223.076 494.844 222.376 493.892C220.976 492.03 219.576 490.126 218.176 488.096L216.146 485.03C215.446 484.036 214.83 482.874 214.158 481.796C212.66 479.234 211.26 476.574 209.958 473.872C208.334 475.104 202.468 479.388 198.996 480.186C195.524 480.984 190.918 481.04 188.034 478.632C187.338 478.089 186.763 477.406 186.349 476.626C185.934 475.846 185.688 474.988 185.627 474.107C185.567 473.226 185.692 472.342 185.996 471.513C186.3 470.683 186.775 469.927 187.39 469.294C191.198 465.57 200.606 467.39 204.806 469.616C205.072 469.756 207.914 471.688 209.44 472.766C208.656 471.142 207.844 469.504 207.102 467.824C204.932 462.98 202.902 458.024 200.816 453.04C200.186 451.528 199.542 450.016 198.898 448.504C198.324 448.952 191.464 454.202 187.586 455.098C184.128 455.896 179.494 455.952 176.624 453.544C175.928 453 175.354 452.315 174.939 451.535C174.525 450.754 174.278 449.896 174.216 449.014C174.154 448.133 174.278 447.248 174.579 446.417C174.881 445.587 175.353 444.829 175.966 444.192C179.774 440.482 189.196 442.302 193.396 444.514C193.718 444.682 197.792 447.468 198.786 448.224C197.386 444.906 195.986 441.602 194.376 438.424C192.318 434.1 189.979 429.914 187.376 425.894C187.096 426.104 179.97 431.606 175.98 432.53C172.522 433.328 167.902 433.384 165.018 430.976C164.321 430.432 163.747 429.747 163.332 428.966C162.917 428.185 162.671 427.326 162.611 426.444C162.55 425.562 162.675 424.677 162.979 423.846C163.283 423.016 163.758 422.259 164.374 421.624C168.182 417.914 177.604 419.734 181.804 421.946C182.126 422.128 186.508 425.124 187.264 425.726C187.11 425.488 186.984 425.236 186.83 424.998C184.091 421.043 181.009 417.337 177.618 413.924C175.77 412.006 173.894 410.284 172.018 408.66C170.8 409.822 165.144 415.072 161.658 416.29C158.172 417.508 153.72 418.026 150.584 415.954C149.833 415.488 149.189 414.87 148.692 414.139C148.195 413.408 147.857 412.581 147.7 411.711C147.543 410.842 147.57 409.949 147.78 409.09C147.99 408.232 148.378 407.427 148.918 406.728C152.292 402.626 161.854 403.396 166.278 405.146C166.516 405.23 168.854 406.546 170.478 407.4C169.624 406.672 168.77 405.902 167.93 405.23C164.822 402.682 161.826 400.526 159.152 398.65C157.626 397.586 156.212 396.662 154.952 395.85C153.146 396.354 145.894 398.342 142.352 397.824C138.81 397.306 134.498 395.71 132.692 392.42C132.236 391.661 131.946 390.814 131.842 389.934C131.737 389.055 131.819 388.164 132.084 387.318C132.348 386.473 132.789 385.694 133.376 385.031C133.964 384.369 134.685 383.838 135.492 383.474C140.378 381.388 148.512 386.47 151.634 390.054C151.9 390.362 155.554 395.654 155.456 395.654H155.358C156.646 396.452 158.018 397.32 159.558 398.3C162.274 400.12 165.326 402.206 168.504 404.698C171.931 407.355 175.203 410.207 178.304 413.238C181.811 416.621 185.011 420.308 187.866 424.256L187.964 424.41C187.474 422.926 186.27 418.81 186.214 418.404C185.416 413.714 186.634 404.208 191.352 401.758C192.146 401.37 193.014 401.153 193.898 401.123C194.781 401.092 195.662 401.248 196.481 401.581C197.3 401.914 198.04 402.416 198.652 403.055C199.264 403.693 199.734 404.453 200.032 405.286C201.432 408.772 199.92 413.154 198.086 416.192C196 419.608 188.846 424.494 188.286 424.886C191.09 428.979 193.621 433.254 195.86 437.682C197.176 440.258 198.422 442.89 199.64 445.536C199.262 444.248 198.94 443.086 198.912 442.918C198.114 438.228 199.332 428.722 204.05 426.272C204.844 425.884 205.712 425.667 206.596 425.637C207.479 425.606 208.36 425.762 209.179 426.095C209.998 426.428 210.738 426.93 211.35 427.569C211.962 428.207 212.432 428.967 212.73 429.8C214.13 433.286 212.618 437.668 210.77 440.706C208.922 443.744 202.888 448.07 201.278 449.19C201.726 450.212 202.202 451.22 202.678 452.256C204.848 457.17 206.99 462.056 209.244 466.844C210.042 468.524 210.882 470.148 211.722 471.772C211.386 470.624 211.12 469.644 211.092 469.49C210.294 464.814 211.512 455.294 216.23 452.844C217.026 452.458 217.894 452.244 218.777 452.216C219.661 452.187 220.541 452.345 221.36 452.679C222.179 453.013 222.918 453.516 223.53 454.155C224.141 454.793 224.612 455.554 224.91 456.386C226.31 459.872 224.798 464.24 222.95 467.278C221.102 470.316 215.656 474.278 213.752 475.566C214.648 477.204 215.558 478.842 216.552 480.396C217.224 481.432 217.812 482.482 218.54 483.49C219.268 484.498 219.94 485.506 220.64 486.514C222.04 488.376 223.44 490.308 224.91 492.114C225.89 493.36 226.842 494.536 227.794 495.712C226.982 494.06 225.47 490.77 225.372 490.476C223.888 485.982 223.65 476.392 227.934 473.242C228.662 472.742 229.488 472.401 230.356 472.241C231.225 472.08 232.117 472.103 232.976 472.309C233.835 472.515 234.641 472.899 235.343 473.436C236.044 473.973 236.625 474.651 237.048 475.426C238.952 478.66 238.126 483.224 236.768 486.5C235.27 490.098 229.208 495.824 228.452 496.524C229.782 498.554 231.35 500.444 232.862 502.194Z" fill="black"/>
<path d="M120.61 470.736C120.61 470.834 114.744 468.104 114.394 467.936C110.348 465.458 103.992 458.262 105.252 453.096C105.483 452.24 105.893 451.442 106.454 450.755C107.016 450.068 107.716 449.508 108.51 449.111C109.303 448.715 110.171 448.49 111.058 448.453C111.944 448.416 112.828 448.567 113.652 448.896C117.194 450.142 119.504 454.16 120.568 457.534C121.8 461.468 120.61 470.736 120.61 470.736Z" fill="black"/>
</g>
<g opacity="0.15">
<path d="M520.674 396.578C521.808 400.582 527.912 407.652 527.926 407.666C527.94 407.68 531.356 402.22 531.538 401.856C533.54 397.544 534.87 388.052 530.964 384.426C530.298 383.846 529.518 383.413 528.674 383.154C527.829 382.895 526.94 382.816 526.064 382.923C525.187 383.03 524.343 383.32 523.586 383.774C522.828 384.229 522.175 384.837 521.668 385.56C519.4 388.556 519.694 393.162 520.674 396.578Z" fill="black"/>
<path d="M466.914 502.194L466.508 502.67L467.656 506.254L469.336 504.21C470.96 502.236 472.654 500.094 474.376 497.868C476.727 499.159 479.154 500.309 481.642 501.312C481.096 505.288 482.874 512.862 483.112 513.828C480.704 514.584 478.352 515.298 476.112 515.928C474.586 516.376 473.116 516.782 471.688 517.16L473.942 519.96L477.022 519.022C479.458 518.266 482.062 517.412 484.722 516.502C485.198 517.412 489.118 524.79 492.212 527.184C495.012 529.354 499.212 531.384 502.824 530.362C503.684 530.159 504.491 529.777 505.193 529.241C505.896 528.706 506.478 528.029 506.901 527.254C507.325 526.479 507.581 525.624 507.653 524.743C507.725 523.863 507.611 522.977 507.318 522.144C505.414 517.174 496.118 514.878 491.358 515.144C491.078 515.144 488.068 515.662 486.164 516.012C487.256 515.634 488.306 515.284 489.426 514.878C491.624 514.108 493.808 513.268 496.146 512.372L499.534 510.972C500.668 510.524 501.816 509.908 502.978 509.362C505.638 508.06 508.27 506.562 510.874 505.092C511.56 507.024 514.094 513.828 516.544 516.418C518.994 519.008 522.816 521.584 526.54 521.164C527.421 521.095 528.277 520.841 529.053 520.419C529.829 519.997 530.507 519.417 531.045 518.716C531.582 518.015 531.966 517.209 532.171 516.35C532.377 515.491 532.4 514.598 532.238 513.73C531.104 508.536 522.256 504.854 517.524 504.392C517.23 504.392 513.8 504.392 511.924 504.462C513.478 503.538 515.046 502.628 516.6 501.662C521.094 498.862 525.546 495.796 529.998 492.8C531.398 491.876 532.728 490.98 534.1 490C534.338 490.686 537.152 498.848 539.91 501.746C542.346 504.322 546.182 506.912 549.906 506.492C550.787 506.423 551.643 506.169 552.419 505.747C553.195 505.325 553.873 504.745 554.411 504.044C554.948 503.343 555.332 502.537 555.537 501.678C555.743 500.819 555.766 499.926 555.604 499.058C554.47 493.864 545.622 490.182 540.89 489.72C540.54 489.72 535.598 489.72 534.352 489.832C537.362 487.844 540.386 485.884 543.438 484.078C547.551 481.61 551.821 479.412 556.22 477.498C556.332 477.82 559.244 486.36 562.058 489.314C564.508 491.89 568.33 494.494 572.054 494.074C572.936 494.005 573.793 493.751 574.571 493.328C575.348 492.905 576.027 492.324 576.565 491.621C577.102 490.919 577.486 490.111 577.69 489.25C577.895 488.389 577.916 487.495 577.752 486.626C576.632 481.432 567.77 477.75 563.038 477.288C562.674 477.288 557.368 477.288 556.402 477.414C556.654 477.316 556.906 477.176 557.172 477.064C561.632 475.249 566.248 473.844 570.962 472.864C573.552 472.29 576.072 471.884 578.522 471.548C578.9 473.186 580.72 480.69 582.96 483.63C585.2 486.57 588.56 489.468 592.382 489.454C593.264 489.48 594.141 489.32 594.957 488.986C595.773 488.651 596.51 488.149 597.12 487.511C597.73 486.874 598.199 486.116 598.497 485.285C598.795 484.455 598.915 483.572 598.85 482.692C598.304 477.4 589.904 472.766 585.256 471.786C585.004 471.786 582.372 471.478 580.454 471.31C581.574 471.184 582.708 471.016 583.772 470.904C587.776 470.498 591.458 470.358 594.734 470.274C596.596 470.274 598.276 470.274 599.844 470.274C601.062 471.674 606.018 477.344 609.308 478.898C612.598 480.452 617.022 481.46 620.354 479.724C621.15 479.342 621.857 478.796 622.429 478.123C623 477.449 623.423 476.663 623.67 475.815C623.917 474.967 623.982 474.076 623.862 473.201C623.742 472.326 623.439 471.486 622.972 470.736C620.06 466.298 610.47 466.06 605.892 467.334C605.486 467.432 599.508 469.868 599.564 469.938L599.634 470.022C598.122 470.022 596.498 469.938 594.734 469.938C591.458 469.938 587.734 470.008 583.73 470.344C579.389 470.654 575.07 471.215 570.794 472.024C565.999 472.911 561.291 474.218 556.724 475.93L556.57 476C557.788 475.034 561.106 472.206 561.344 471.968C564.578 468.496 568.82 459.886 566.23 455.168C565.781 454.407 565.176 453.749 564.455 453.238C563.735 452.726 562.914 452.372 562.048 452.199C561.181 452.026 560.288 452.038 559.426 452.233C558.564 452.429 557.753 452.804 557.046 453.334C553.966 455.476 552.846 459.956 552.664 463.498C552.51 467.502 555.786 475.524 556.052 476.098C551.449 477.958 546.977 480.129 542.668 482.594C540.162 483.994 537.67 485.52 535.178 487.06C536.214 486.192 537.124 485.394 537.236 485.268C540.484 481.81 544.712 473.2 542.136 468.552C541.687 467.791 541.082 467.133 540.361 466.622C539.641 466.11 538.82 465.756 537.954 465.583C537.087 465.41 536.194 465.422 535.332 465.617C534.47 465.813 533.659 466.188 532.952 466.718C529.872 468.86 528.752 473.34 528.57 476.882C528.388 480.424 531.076 487.382 531.804 489.202L529.004 490.994C524.482 493.892 519.988 496.818 515.48 499.548C513.898 500.5 512.302 501.396 510.706 502.348C511.616 501.564 512.372 500.948 512.484 500.794C515.732 497.322 519.96 488.712 517.384 484.064C516.932 483.304 516.325 482.648 515.603 482.138C514.881 481.627 514.06 481.274 513.193 481.101C512.326 480.928 511.432 480.939 510.57 481.134C509.707 481.328 508.895 481.702 508.186 482.23C505.106 484.372 503.986 488.852 503.804 492.394C503.622 495.936 506.072 502.194 506.926 504.392C505.26 505.26 503.594 506.128 501.942 506.898C500.808 507.388 499.744 507.948 498.582 508.382L495.166 509.782C492.954 510.566 490.7 511.378 488.53 512.092C487.018 512.596 485.576 513.044 484.134 513.492C485.716 512.554 488.796 510.692 489.034 510.454C492.222 507.753 494.661 504.277 496.118 500.36C496.488 500.076 496.831 499.757 497.14 499.408C497.745 498.766 498.208 498.003 498.499 497.169C498.79 496.336 498.902 495.451 498.828 494.571C498.754 493.692 498.496 492.837 498.07 492.064C497.644 491.291 497.06 490.616 496.356 490.084C492.03 486.99 483 490.21 479.192 493.038C478.954 493.206 476.728 495.292 475.328 496.622C476.028 495.712 476.728 494.844 477.428 493.892C478.828 492.03 480.228 490.126 481.628 488.096L483.658 485.03C484.358 484.036 484.974 482.874 485.646 481.796C487.144 479.234 488.53 476.574 489.846 473.872C491.484 475.104 497.35 479.388 500.822 480.186C504.294 480.984 508.9 481.04 511.784 478.632C512.48 478.089 513.055 477.406 513.469 476.626C513.884 475.846 514.13 474.988 514.191 474.107C514.251 473.226 514.126 472.342 513.822 471.513C513.518 470.683 513.043 469.927 512.428 469.294C508.62 465.57 499.198 467.39 494.998 469.616C494.746 469.756 491.904 471.688 490.364 472.766C491.162 471.142 491.974 469.504 492.716 467.824C494.886 462.98 496.916 458.024 498.988 453.04C499.618 451.528 500.262 450.016 500.906 448.504C501.494 448.952 508.34 454.202 512.232 455.098C515.69 455.896 520.31 455.952 523.194 453.544C523.891 453 524.465 452.315 524.88 451.534C525.295 450.753 525.541 449.894 525.601 449.012C525.662 448.13 525.537 447.244 525.233 446.414C524.929 445.584 524.454 444.827 523.838 444.192C520.03 440.482 510.622 442.302 506.422 444.514C506.1 444.682 502.026 447.468 501.032 448.224C502.432 444.906 503.832 441.602 505.428 438.424C507.492 434.103 509.83 429.917 512.428 425.894C512.694 426.104 519.834 431.606 523.81 432.53C527.268 433.328 531.902 433.384 534.772 430.976C535.469 430.432 536.043 429.747 536.458 428.966C536.873 428.185 537.119 427.326 537.179 426.444C537.24 425.562 537.115 424.677 536.811 423.846C536.507 423.016 536.032 422.259 535.416 421.624C531.622 417.914 522.2 419.734 518 421.946C517.664 422.128 513.282 425.124 512.54 425.726C512.68 425.488 512.82 425.236 512.974 424.998C515.713 421.043 518.795 417.337 522.186 413.924C524.034 412.006 525.91 410.284 527.786 408.66C529.004 409.822 534.66 415.072 538.146 416.29C541.632 417.508 546.084 418.026 549.22 415.954C549.971 415.488 550.615 414.87 551.112 414.139C551.609 413.408 551.947 412.581 552.104 411.711C552.261 410.842 552.234 409.949 552.024 409.09C551.814 408.232 551.426 407.427 550.886 406.728C547.512 402.626 537.95 403.396 533.526 405.146C533.288 405.23 530.95 406.546 529.326 407.4C530.166 406.672 531.034 405.902 531.86 405.23C534.968 402.682 537.978 400.526 540.652 398.65C542.178 397.586 543.592 396.662 544.852 395.85C546.644 396.354 553.91 398.342 557.452 397.824C560.994 397.306 565.292 395.71 567.112 392.42C567.563 391.66 567.849 390.813 567.952 389.935C568.054 389.056 567.971 388.166 567.707 387.323C567.443 386.479 567.004 385.7 566.419 385.037C565.834 384.374 565.116 383.841 564.312 383.474C559.412 381.388 551.292 386.47 548.17 390.054C547.904 390.362 544.25 395.654 544.334 395.654H544.446C543.158 396.452 541.786 397.32 540.246 398.3C537.53 400.12 534.464 402.206 531.3 404.698C527.873 407.355 524.601 410.207 521.5 413.238C517.993 416.621 514.793 420.308 511.938 424.256L511.84 424.41C512.316 422.926 513.534 418.81 513.59 418.404C514.374 413.714 513.156 404.208 508.438 401.758C507.645 401.37 506.778 401.153 505.895 401.123C505.013 401.093 504.133 401.249 503.315 401.582C502.497 401.915 501.759 402.417 501.148 403.056C500.537 403.694 500.069 404.454 499.772 405.286C498.372 408.772 499.884 413.154 501.718 416.192C503.79 419.608 510.958 424.494 511.518 424.886C508.708 428.976 506.178 433.251 503.944 437.682C502.628 440.258 501.382 442.89 500.164 445.536C500.542 444.248 500.864 443.086 500.892 442.918C501.69 438.228 500.472 428.722 495.754 426.272C494.96 425.884 494.092 425.667 493.208 425.637C492.325 425.606 491.444 425.762 490.625 426.095C489.806 426.428 489.066 426.93 488.454 427.569C487.842 428.207 487.372 428.967 487.074 429.8C485.674 433.286 487.186 437.668 489.02 440.706C490.854 443.744 496.916 448.07 498.526 449.19C498.064 450.212 497.602 451.22 497.126 452.256C494.956 457.17 492.8 462.056 490.56 466.844C489.762 468.524 488.922 470.148 488.082 471.772C488.418 470.624 488.684 469.644 488.712 469.49C489.51 464.814 488.292 455.294 483.56 452.844C482.765 452.46 481.898 452.248 481.016 452.221C480.134 452.194 479.256 452.352 478.439 452.686C477.622 453.02 476.884 453.522 476.273 454.16C475.663 454.797 475.193 455.555 474.894 456.386C473.494 459.872 475.006 464.24 476.84 467.278C478.674 470.316 484.148 474.278 486.052 475.566C485.142 477.204 484.246 478.842 483.252 480.396C482.566 481.432 481.992 482.482 481.264 483.49L479.15 486.514C477.75 488.376 476.35 490.308 474.95 492.114C473.97 493.36 473.018 494.536 472.066 495.712C472.864 494.06 474.39 490.77 474.474 490.476C475.972 485.982 476.21 476.392 471.926 473.242C471.198 472.742 470.372 472.401 469.504 472.241C468.635 472.08 467.743 472.103 466.884 472.309C466.025 472.515 465.219 472.899 464.517 473.436C463.816 473.973 463.235 474.651 462.812 475.426C460.908 478.66 461.734 483.224 463.092 486.5C464.576 490.098 470.652 495.824 471.408 496.524C469.994 498.554 468.426 500.444 466.914 502.194Z" fill="black"/>
<path d="M579.166 470.736C579.166 470.834 585.032 468.104 585.382 467.936C589.428 465.458 595.784 458.262 594.524 453.096C594.293 452.24 593.883 451.442 593.322 450.755C592.76 450.068 592.06 449.508 591.266 449.111C590.473 448.715 589.604 448.49 588.718 448.453C587.832 448.416 586.948 448.567 586.124 448.896C582.582 450.142 580.272 454.16 579.208 457.534C577.976 461.468 579.166 470.736 579.166 470.736Z" fill="black"/>
</g>
<path d="M458.22 421.428L365.47 382.55L443.716 194.558L536.466 233.436L458.22 421.428Z" fill="#D1D1D1" stroke="#263238" stroke-linecap="round" stroke-linejoin="round"/>
<path d="M517.846 252.63C516.254 251.971 514.822 250.979 513.645 249.721C512.468 248.463 511.573 246.967 511.022 245.335C510.47 243.703 510.274 241.972 510.447 240.257C510.619 238.543 511.156 236.886 512.022 235.396L458.822 213.08C458.686 213.556 458.522 214.023 458.332 214.48C457.72 215.959 456.821 217.302 455.687 218.431C454.553 219.56 453.206 220.454 451.725 221.061C450.244 221.667 448.657 221.975 447.057 221.965C445.456 221.955 443.874 221.628 442.4 221.004C442.162 220.906 441.938 220.78 441.714 220.668L382.69 362.824C382.928 362.908 383.166 362.978 383.39 363.076C384.99 363.725 386.431 364.712 387.614 365.969C388.798 367.227 389.696 368.724 390.248 370.361C390.799 371.997 390.991 373.733 390.81 375.45C390.63 377.167 390.08 378.825 389.2 380.31L442.47 402.626C442.598 402.15 442.757 401.682 442.946 401.226C443.563 399.756 444.463 398.422 445.595 397.3C446.728 396.178 448.07 395.29 449.546 394.687C451.021 394.084 452.601 393.777 454.195 393.784C455.789 393.792 457.366 394.113 458.836 394.73C459.298 394.926 459.746 395.164 460.236 395.402L519.316 253.134C518.814 253.004 518.322 252.836 517.846 252.63ZM442.4 326.466C438.775 324.945 435.681 322.384 433.511 319.106C431.341 315.827 430.192 311.979 430.209 308.048C430.226 304.117 431.408 300.278 433.606 297.019C435.804 293.759 438.919 291.224 442.557 289.735C446.196 288.246 450.194 287.868 454.047 288.651C457.9 289.434 461.434 291.341 464.203 294.132C466.971 296.923 468.85 300.473 469.602 304.332C470.354 308.191 469.945 312.186 468.426 315.812C467.419 318.222 465.946 320.41 464.092 322.25C462.239 324.09 460.04 325.547 457.623 326.537C455.205 327.526 452.616 328.029 450.004 328.017C447.392 328.005 444.808 327.478 442.4 326.466Z" fill="white" stroke="#263238" stroke-linecap="round" stroke-linejoin="round"/>
<path d="M457.002 421.904L368.998 373.226L467.138 194.796L555.142 243.488L457.002 421.904Z" fill="#D1D1D1" stroke="#263238" stroke-linecap="round" stroke-linejoin="round"/>
<path d="M534.548 260.54C533.152 259.77 531.922 258.732 530.928 257.486C529.934 256.24 529.196 254.81 528.755 253.278C528.314 251.746 528.18 250.143 528.359 248.559C528.539 246.975 529.029 245.442 529.802 244.048C530.056 243.614 530.332 243.194 530.628 242.788L480.088 214.788C479.905 215.266 479.695 215.734 479.458 216.188C477.897 219.001 475.284 221.08 472.191 221.967C469.099 222.855 465.781 222.478 462.966 220.92C462.743 220.803 462.528 220.672 462.322 220.528L388.262 355.46C388.491 355.556 388.716 355.663 388.934 355.782C391.75 357.34 393.831 359.953 394.721 363.045C395.611 366.138 395.237 369.457 393.68 372.274C393.432 372.712 393.157 373.132 392.854 373.534L443.38 401.534C443.567 401.055 443.782 400.588 444.024 400.134C444.794 398.738 445.832 397.508 447.078 396.514C448.324 395.52 449.754 394.782 451.286 394.341C452.818 393.9 454.421 393.766 456.005 393.945C457.589 394.125 459.122 394.615 460.516 395.388C460.952 395.639 461.372 395.915 461.776 396.214L535.976 261.17C535.486 260.994 535.008 260.784 534.548 260.54ZM451.584 325.794C448.141 323.889 445.34 321.006 443.535 317.509C441.731 314.012 441.004 310.059 441.447 306.149C441.889 302.239 443.481 298.548 446.022 295.543C448.562 292.537 451.937 290.353 455.719 289.266C459.501 288.179 463.52 288.238 467.269 289.436C471.017 290.633 474.326 292.916 476.777 295.994C479.228 299.072 480.712 302.808 481.039 306.73C481.367 310.651 480.524 314.582 478.618 318.024C476.063 322.638 471.779 326.049 466.71 327.506C461.64 328.963 456.2 328.347 451.584 325.794Z" fill="white" stroke="#263238" stroke-linecap="round" stroke-linejoin="round"/>
<path d="M455.378 422.324L374.962 361.928L496.846 198.8L577.262 259.196L455.378 422.324Z" fill="#D1D1D1" stroke="#263238" stroke-linecap="round" stroke-linejoin="round"/>
<path d="M554.512 273.238C553.229 272.282 552.149 271.082 551.332 269.706C550.515 268.331 549.979 266.807 549.754 265.223C549.529 263.639 549.619 262.027 550.02 260.478C550.421 258.929 551.125 257.476 552.09 256.2C552.395 255.8 552.727 255.421 553.084 255.066L506.884 220.374C506.632 220.813 506.356 221.238 506.058 221.648C504.124 224.217 501.249 225.914 498.065 226.365C494.881 226.817 491.648 225.986 489.076 224.056C488.866 223.902 488.684 223.734 488.488 223.58L396.466 346.948C396.676 347.088 396.886 347.214 397.082 347.368C399.654 349.303 401.354 352.179 401.808 355.365C402.262 358.551 401.433 361.788 399.504 364.364C399.199 364.764 398.867 365.143 398.51 365.498L444.71 400.176C444.949 399.737 445.221 399.315 445.522 398.916C446.48 397.642 447.679 396.569 449.052 395.758C450.424 394.948 451.943 394.416 453.521 394.192C455.1 393.968 456.706 394.058 458.25 394.455C459.794 394.853 461.244 395.55 462.518 396.508C462.918 396.808 463.297 397.135 463.652 397.488L555.8 274.064C555.354 273.816 554.924 273.54 554.512 273.238ZM463.316 326.438C460.171 324.075 457.797 320.832 456.494 317.12C455.191 313.407 455.019 309.392 455.998 305.581C456.977 301.771 459.064 298.336 461.995 295.712C464.926 293.087 468.57 291.391 472.465 290.837C476.36 290.283 480.332 290.897 483.878 292.6C487.425 294.303 490.387 297.02 492.39 300.406C494.392 303.792 495.346 307.697 495.13 311.625C494.914 315.553 493.538 319.33 491.176 322.476C489.604 324.563 487.636 326.32 485.385 327.646C483.134 328.972 480.643 329.841 478.056 330.204C475.468 330.567 472.835 330.416 470.305 329.76C467.776 329.104 465.401 327.956 463.316 326.382V326.438Z" fill="white" stroke="#263238" stroke-linecap="round" stroke-linejoin="round"/>
<path d="M453.768 422.506L382.144 351.89L524.748 206.528L596.372 277.144L453.768 422.506Z" fill="#D1D1D1" stroke="#263238" stroke-linecap="round" stroke-linejoin="round"/>
<path d="M571.942 288.022C569.649 285.762 568.348 282.685 568.325 279.466C568.301 276.247 569.557 273.151 571.816 270.858C572.174 270.504 572.552 270.172 572.95 269.864L531.832 229.264C531.524 229.658 531.197 230.037 530.852 230.398C528.592 232.691 525.515 233.992 522.296 234.015C519.077 234.039 515.981 232.783 513.688 230.524C513.509 230.348 513.341 230.161 513.184 229.964L405.482 339.934C405.664 340.102 405.86 340.256 406.042 340.438C408.335 342.697 409.636 345.775 409.659 348.994C409.683 352.213 408.427 355.309 406.168 357.602C405.804 357.952 405.426 358.288 405.034 358.596L446.152 399.196C446.456 398.791 446.789 398.407 447.146 398.048C448.264 396.913 449.594 396.01 451.061 395.389C452.527 394.769 454.102 394.443 455.695 394.432C457.287 394.42 458.867 394.722 460.343 395.321C461.818 395.92 463.162 396.804 464.296 397.922C464.65 398.28 464.982 398.658 465.29 399.056L573.09 289.002C572.688 288.698 572.305 288.371 571.942 288.022ZM474.474 328.482C471.676 325.72 469.76 322.191 468.967 318.341C468.175 314.491 468.542 310.492 470.021 306.85C471.501 303.208 474.028 300.086 477.281 297.88C480.535 295.673 484.369 294.481 488.3 294.454C492.232 294.426 496.082 295.565 499.366 297.726C502.651 299.887 505.22 302.973 506.751 306.594C508.281 310.215 508.704 314.208 507.965 318.069C507.226 321.93 505.359 325.486 502.6 328.286C500.767 330.147 498.585 331.628 496.179 332.645C493.772 333.662 491.19 334.194 488.578 334.213C485.965 334.231 483.375 333.734 480.955 332.751C478.535 331.767 476.333 330.317 474.474 328.482Z" fill="white" stroke="#263238" stroke-linecap="round" stroke-linejoin="round"/>
<path d="M362.698 406.756L233.898 488.6L96.936 272.272L225.736 190.428C227.988 188.998 230.716 188.521 233.32 189.101C235.924 189.681 238.192 191.271 239.624 193.522L365.848 392.868C366.554 393.987 367.032 395.233 367.255 396.537C367.479 397.84 367.443 399.175 367.151 400.465C366.858 401.754 366.315 402.974 365.55 404.053C364.786 405.133 363.817 406.051 362.698 406.756Z" fill="#A8A8A8" stroke="#263238" stroke-linecap="round" stroke-linejoin="round"/>
<path d="M359.072 406.896L230.272 488.74L93.324 272.412L222.124 190.568C224.376 189.138 227.104 188.661 229.708 189.241C232.312 189.821 234.58 191.411 236.012 193.662L362.222 393.008C362.928 394.127 363.406 395.373 363.629 396.677C363.853 397.98 363.817 399.315 363.525 400.605C363.232 401.895 362.688 403.114 361.924 404.193C361.16 405.273 360.191 406.191 359.072 406.896Z" fill="white" stroke="#263238" stroke-linecap="round" stroke-linejoin="round"/>
<path d="M354.872 409.752L226.072 491.596L89.11 275.268L217.91 193.424C220.164 191.993 222.895 191.515 225.501 192.096C228.107 192.676 230.377 194.266 231.812 196.518L358.022 395.864C358.728 396.983 359.206 398.229 359.429 399.533C359.653 400.836 359.617 402.171 359.325 403.461C359.032 404.75 358.488 405.97 357.724 407.049C356.96 408.129 355.991 409.047 354.872 409.752Z" fill="#A8A8A8" stroke="#263238" stroke-linecap="round" stroke-linejoin="round"/>
<path d="M157.934 302.162L148.036 286.594L151.9 284.2C152.656 283.671 153.542 283.357 154.462 283.29C155.24 283.27 156.001 283.517 156.618 283.99C157.368 284.552 158.001 285.256 158.48 286.062C158.971 286.782 159.288 287.606 159.404 288.47C159.509 289.23 159.372 290.004 159.012 290.682C158.586 291.44 157.968 292.073 157.22 292.516L155.498 293.594L160.104 300.846L157.934 302.162ZM154.518 291.97L155.512 291.34C156.044 291.045 156.518 290.656 156.912 290.192C157.046 290.019 157.143 289.821 157.196 289.609C157.249 289.396 157.257 289.175 157.22 288.96C157.092 288.37 156.844 287.813 156.492 287.322C156.147 286.734 155.729 286.193 155.246 285.712C155.09 285.557 154.9 285.44 154.691 285.372C154.482 285.304 154.259 285.286 154.042 285.32C153.408 285.471 152.809 285.741 152.278 286.118L151.256 286.762L154.518 291.97Z" fill="white"/>
<path d="M165.592 297.29L158.998 279.622L161.098 278.292L174.314 291.746L172.256 293.048L169.05 289.59L165.886 291.606L167.622 296.002L165.592 297.29ZM165.2 289.8L167.79 288.162L162.022 281.974L165.2 289.8Z" fill="white"/>
<path d="M179.676 288.582C178.909 289.113 178.004 289.41 177.072 289.436C176.223 289.425 175.396 289.167 174.692 288.694C173.894 288.152 173.201 287.469 172.648 286.678L174.244 284.942C174.629 285.443 175.055 285.912 175.518 286.342C175.914 286.726 176.393 287.014 176.918 287.182C177.193 287.24 177.477 287.24 177.752 287.183C178.026 287.125 178.286 287.01 178.514 286.846C178.76 286.713 178.974 286.53 179.143 286.308C179.312 286.086 179.432 285.83 179.494 285.558C179.56 284.981 179.405 284.401 179.06 283.934C178.706 283.313 178.161 282.822 177.506 282.534C176.843 282.296 176.159 282.122 175.462 282.016L171.388 281.372C170.652 281.268 169.946 281.01 169.316 280.616C168.662 280.159 168.113 279.567 167.706 278.88C167.368 278.412 167.131 277.88 167.008 277.316C166.885 276.753 166.88 276.17 166.992 275.604C167.308 274.484 168.052 273.533 169.064 272.958C169.609 272.6 170.21 272.335 170.842 272.174C171.38 272.041 171.942 272.041 172.48 272.174C173.044 272.332 173.572 272.599 174.034 272.958C174.596 273.411 175.103 273.928 175.546 274.498L174.02 276.178C173.682 275.719 173.302 275.293 172.886 274.904C172.538 274.571 172.1 274.348 171.626 274.26C171.093 274.225 170.563 274.365 170.116 274.658C169.669 274.951 169.329 275.381 169.148 275.884C169.094 276.156 169.099 276.437 169.162 276.707C169.224 276.977 169.344 277.231 169.512 277.452C169.752 277.862 170.089 278.208 170.492 278.46C170.925 278.7 171.4 278.852 171.892 278.908L175.994 279.552C176.965 279.687 177.909 279.971 178.794 280.392C179.74 280.859 180.532 281.588 181.076 282.492C181.526 283.18 181.795 283.969 181.86 284.788C181.893 285.526 181.718 286.258 181.356 286.902C180.941 287.59 180.364 288.167 179.676 288.582Z" fill="white"/>
<path d="M188.762 282.8C187.995 283.331 187.09 283.628 186.158 283.654C185.314 283.644 184.491 283.386 183.792 282.912C182.988 282.377 182.294 281.693 181.748 280.896L183.4 279.16C183.781 279.665 184.207 280.133 184.674 280.56C185.069 280.946 185.548 281.233 186.074 281.4C186.349 281.459 186.633 281.46 186.908 281.402C187.183 281.344 187.443 281.229 187.67 281.064C187.917 280.937 188.133 280.757 188.302 280.536C188.472 280.316 188.59 280.061 188.65 279.79C188.724 279.21 188.573 278.625 188.23 278.152C187.867 277.533 187.318 277.043 186.662 276.752C186.004 276.513 185.324 276.34 184.632 276.234L180.544 275.59C179.808 275.486 179.102 275.228 178.472 274.834C177.818 274.377 177.269 273.785 176.862 273.098C176.524 272.63 176.287 272.098 176.164 271.534C176.041 270.971 176.036 270.388 176.148 269.822C176.47 268.705 177.22 267.759 178.234 267.19C178.775 266.831 179.371 266.562 179.998 266.392C180.54 266.252 181.108 266.252 181.65 266.392C182.213 266.545 182.741 266.806 183.204 267.162C183.765 267.612 184.268 268.129 184.702 268.702L183.176 270.382C182.838 269.923 182.458 269.497 182.042 269.108C181.697 268.771 181.258 268.546 180.782 268.464C180.25 268.436 179.723 268.579 179.277 268.871C178.832 269.163 178.491 269.589 178.304 270.088C178.254 270.36 178.26 270.64 178.323 270.91C178.385 271.18 178.503 271.434 178.668 271.656C178.913 272.067 179.248 272.417 179.648 272.678C180.088 272.901 180.56 273.053 181.048 273.126L185.15 273.756C186.091 273.905 187.005 274.188 187.866 274.596C188.809 275.067 189.6 275.795 190.148 276.696C190.604 277.38 190.874 278.172 190.932 278.992C190.965 279.73 190.791 280.462 190.428 281.106C190.023 281.801 189.45 282.383 188.762 282.8Z" fill="white"/>
<path d="M194.068 279.188L184.17 263.62L188.034 261.17C188.787 260.632 189.673 260.312 190.596 260.246C191.373 260.233 192.131 260.479 192.752 260.946C193.503 261.513 194.135 262.222 194.614 263.032C195.111 263.749 195.428 264.575 195.538 265.44C195.643 266.196 195.506 266.965 195.146 267.638C194.724 268.399 194.105 269.033 193.354 269.472L191.632 270.564L196.238 277.802L194.068 279.188ZM190.652 269.01L191.646 268.366C192.181 268.076 192.656 267.686 193.046 267.218C193.179 267.045 193.274 266.846 193.324 266.633C193.375 266.421 193.38 266.2 193.34 265.986C193.212 265.399 192.969 264.842 192.626 264.348C192.286 263.762 191.866 263.225 191.38 262.752C191.224 262.597 191.034 262.48 190.825 262.412C190.616 262.344 190.393 262.326 190.176 262.36C189.541 262.498 188.94 262.765 188.412 263.144L187.39 263.802L190.652 269.01Z" fill="white"/>
<path d="M207.382 270.97C206.53 271.568 205.524 271.909 204.484 271.95C203.585 271.939 202.716 271.623 202.02 271.054C201.184 270.366 200.47 269.542 199.906 268.618L196.154 262.724C195.56 261.838 195.133 260.851 194.894 259.812C194.689 258.962 194.783 258.067 195.16 257.278C195.649 256.364 196.387 255.607 197.288 255.094C198.135 254.495 199.136 254.15 200.172 254.1C201.046 254.103 201.894 254.398 202.58 254.94C203.412 255.596 204.119 256.398 204.666 257.306L208.432 263.228C209.018 264.12 209.449 265.104 209.706 266.14C209.913 267.014 209.835 267.932 209.482 268.758C209.015 269.686 208.284 270.455 207.382 270.97ZM206.304 269.262C206.785 268.995 207.164 268.577 207.382 268.072C207.538 267.618 207.538 267.126 207.382 266.672C207.179 266.108 206.906 265.572 206.57 265.076L202.244 258.244C201.928 257.738 201.557 257.269 201.138 256.844C200.816 256.516 200.391 256.308 199.934 256.256C199.384 256.255 198.849 256.432 198.408 256.76C197.93 257.026 197.544 257.431 197.302 257.922C197.131 258.373 197.131 258.871 197.302 259.322C197.497 259.88 197.76 260.411 198.086 260.904L202.426 267.722C202.74 268.233 203.116 268.704 203.546 269.122C203.872 269.465 204.308 269.683 204.778 269.738C205.325 269.747 205.86 269.58 206.304 269.262Z" fill="white"/>
<path d="M213.654 266.742L203.756 251.174L206.892 249.172C207.74 248.593 208.69 248.18 209.692 247.954C210.494 247.794 211.327 247.923 212.044 248.318C212.875 248.835 213.563 249.553 214.046 250.404C214.409 250.951 214.696 251.544 214.9 252.168C215.088 252.692 215.15 253.253 215.082 253.806C214.998 254.322 214.775 254.806 214.438 255.206L221.606 261.604L219.52 262.934L212.842 256.928L211.148 257.992L215.782 265.3L213.654 266.742ZM210.196 256.494L211.022 255.976C211.56 255.672 212.035 255.268 212.422 254.786C212.698 254.407 212.819 253.936 212.758 253.47C212.648 252.847 212.405 252.254 212.044 251.734C211.659 251.005 211.043 250.425 210.294 250.082C209.876 250.015 209.447 250.039 209.039 250.152C208.631 250.266 208.252 250.466 207.928 250.74L206.962 251.342L210.196 256.494Z" fill="white"/>
<path d="M225.4 259.308L216.524 245.308L213.892 246.988L212.8 245.42L220.164 240.73L221.186 242.354L218.624 243.978L227.5 257.978L225.4 259.308Z" fill="white"/>
<path d="M281.153 356.174C287.274 329.932 270.964 303.697 244.722 297.576C218.481 291.455 192.246 307.766 186.124 334.008C180.003 360.249 196.314 386.484 222.556 392.605C248.797 398.726 275.032 382.416 281.153 356.174Z" stroke="white" stroke-miterlimit="10"/>
<path d="M259.797 386.277C269.546 380.081 265.731 356.622 251.277 333.881C236.823 311.14 217.202 297.728 207.453 303.924C197.704 310.121 201.518 333.579 215.973 356.32C230.427 379.062 250.048 392.474 259.797 386.277Z" stroke="white" stroke-miterlimit="10"/>
<path d="M190.008 323.862L233.198 296.408" stroke="white" stroke-miterlimit="10"/>
<path d="M185.15 351.694L260.456 303.814" stroke="white" stroke-miterlimit="10"/>
<path d="M207.046 386.162L282.366 338.282" stroke="white" stroke-miterlimit="10"/>
<path d="M192.36 371.308L275.17 318.682" stroke="white" stroke-miterlimit="10"/>
<path d="M234.71 394.184L277.9 366.73" stroke="white" stroke-miterlimit="10"/>
<path d="M461.007 613.501C522.066 552.442 522.066 453.445 461.007 392.386C399.948 331.326 300.951 331.326 239.892 392.386C178.833 453.445 178.833 552.442 239.892 613.501C300.951 674.56 399.948 674.56 461.007 613.501Z" fill="#3052C5" stroke="#263238" stroke-linecap="round" stroke-linejoin="round"/>
<path d="M319.046 647.598C327.428 649.422 335.954 650.509 344.526 650.846" stroke="#263238" stroke-linecap="round" stroke-linejoin="round"/>
<path d="M299.88 642.04C304.127 643.58 308.439 644.933 312.816 646.1" stroke="#263238" stroke-linecap="round" stroke-linejoin="round"/>
<path d="M208.082 462.448C198.134 497.49 201.452 534.97 217.4 567.72C233.349 600.47 260.81 626.192 294.532 639.968" stroke="#263238" stroke-linecap="round" stroke-linejoin="round"/>
<path d="M227.976 419.874C222.629 427.756 218.053 436.134 214.312 444.892" stroke="#263238" stroke-linecap="round" stroke-linejoin="round"/>
<path d="M329.266 433.496L345.198 436.8L350.63 442.442L357.714 443.534L359.968 450.254L358.316 454.804L353.486 457.016L341.656 455.084L341.334 453.628L346.934 449.722L343.07 442.596L332.486 441.154L326.844 436.324L329.266 433.496Z" fill="white"/>
<path d="M457.716 580.58L445.116 578.452L429.8 576.52L418.6 579.012L407.61 579.166L396.592 584.276L390.152 586.096L386.162 586.978L379.526 593.012L372.918 597.52L361.718 593.53L361.998 582.82L355.278 581.658L348.04 583.268L346.22 580.244L345.506 573.566L342.16 570.514L337.246 572.362L336.602 576.31L330.526 578.032L323.638 572.726L319.536 564.508L322.728 553.154L333.382 551.544L336.854 553.448L341.194 552.482L345.912 548.016L350.938 548.408L359.954 558.208L362.404 557.284L359.828 549.108L356.692 545.244L355.894 538.244L368.004 529.48L366.842 515.676L371.588 509.67L374.388 500.29L377.86 498.764L384.972 491.484L384.692 488.502L378.98 490.154L377.258 487.494L373.268 488.376L367.43 491.176L369.278 485.814L381.15 479.374L383.334 475.482L390.166 482.314L394.156 484.862L398.902 482.286L395.682 478.086L386.876 474.334L376.012 466.494L365.582 462.294L356.566 462.784L351.4 459.382L345.24 459.2L344.834 460.81L346.444 471.478L348.698 474.768L348.012 487.088L339.472 482.888V477.568L331.072 475.636L326.872 472.374L326.662 462.924L335.482 452.984L334.278 444.122L330.372 445.368L327.11 442.68L324.8 437.528L322.182 437.724L322 443.8L318.178 445.41L313.6 433.174L310.31 432.012L304.71 430.962L299.558 435.162L308.336 440.44L311.136 446.278L295.918 439.39L284.718 431.62L281.82 422.002L271.754 421.19L265.566 427.504C264.043 428.958 262.445 430.332 260.778 431.62C258.063 432.945 255.255 434.073 252.378 434.994L252.294 441.476L244.034 443.688L245.644 447.51L259.532 446.712L268.1 452.788L270.9 465.472L269.402 477.582L272.776 489.37L266.574 509.376L270.284 536.298L276.92 550.788L284.2 561.344L289.8 560.854L286.692 555.464L282.842 551.754L279.258 544.194L282.352 542.794L290.318 554.708L296.52 565.502L298.606 574.924L307.342 581.728L321.748 588L341.712 588.882L348.712 593.082L354.312 597.912L361.718 600.446L370.118 600.852L378 598.71C378 598.71 378.448 602.42 378.84 604.226C379.232 606.032 375.536 613.326 375.536 613.326L373.17 621.46L377.832 628.782L386.526 630.266L400.33 639.366L405.93 640.416L407.134 645.848L408.324 648.242C435.498 637.435 459.079 619.192 476.364 595.602L475.972 592.928L481.81 573.006L476.378 570.794L457.716 580.58Z" fill="white"/>
<path d="M463.61 429.128L458.094 423.136L451.248 416.29L447.398 405.748L454.16 405.384L453.712 401.688L448.924 402.374L452.508 399.672L456.288 396.172L455.49 392.546L449.89 387.716L447.23 380.128C420.457 359.044 387.53 347.28 353.458 346.626C319.385 345.971 286.031 356.462 258.468 376.502L268.128 380.562L264.516 388.22L257.95 391.188L259.35 401.128L256.704 402.864L253.904 407.652L255.71 414.092L262.038 413.448L260.862 420.168L267.022 418.768L274.554 403.032L274.358 396.984L284.34 394.016L285.908 389.102L296.17 385.686L295.89 379.288L303.408 377.23C303.408 377.23 308.21 373.128 309.288 372.89C311.484 372.871 313.679 373.016 315.854 373.324L322.252 376.474L329.854 374.78L335.454 369.348L343.938 368.228C345.31 368.758 346.788 368.95 348.25 368.788C350.056 368.382 354.928 364.588 354.928 364.588L366.884 368.788L371.952 371.084L373.156 376.516L378.756 376.026L379.848 372.372L385.042 373.492L385.322 376.474L375.088 381.794L383.026 388.388L397.67 392.742L404.67 398.776L412.804 397.726L413.812 393.708L416.542 392.308L405.524 387.156L399.56 387.716L403.942 385.224L398.23 380.03L404.306 378.308L413.252 380.884L416.99 389.172L422.016 392.994L427.616 402.794L436.87 406.812L439.516 418.768L449.064 422.352L449.582 426.412V431.368L453.208 437.402L454.608 440.51L461.006 440.23L462.546 433.426L463.61 429.128Z" fill="white"/>
<path d="M460.208 391.594L460.67 393.68L460.152 399.868L462.364 404.698L466.676 405.272L468.202 412.146L463.456 411.306L466.704 431.102L464.128 440.048L469.28 449.54L474.95 452.844L479.304 472.444L487.382 486.612L495.026 497.084L503.846 497.406L505.134 489.51L506.114 488.334C505.5 481.833 504.485 475.376 503.076 469C496.577 439.594 481.685 412.705 460.208 391.594Z" fill="white"/>
<path d="M376.04 407.918L349.79 402.71L339.374 405.412L338.366 412.86L332.962 409.108L325.402 412.692L327.334 424.816L334.894 428.064L338.072 420.14L344.722 424.368L358.12 431.648L362.628 441.672L374.696 451.542L389.354 445.62L387.786 440.272L383.152 434.84L379.204 420.504L381.472 413.546L376.04 407.918Z" fill="white"/>
<path d="M397.362 411.53L391.608 411.292L387.786 416.332L392.658 426.272L397.362 425.222V411.53Z" fill="white"/>
<path d="M432.586 410.942L418.81 407.148L415.31 403.368L412.664 405.104L416.808 411.782L421.064 420.714L426.986 421.68L427.756 420L423.276 415.282L433.51 416.822L432.586 410.942Z" fill="white"/>
<path d="M355.852 565.194L354.718 566.972L366.31 567.812L371.784 571.914L378.826 571.116L380.478 566.566L371.826 566.972L355.852 565.194Z" fill="white"/>
<path d="M389.62 564.914L382.494 568.778L384.216 571.438L393.638 569.352L394.8 566.048L391.622 567.14L389.62 564.914Z" fill="white"/>
<path d="M329.266 433.496L345.198 436.8L350.63 442.442L357.714 443.534L359.968 450.254L358.316 454.804L353.486 457.016L341.656 455.084L341.334 453.628L346.934 449.722L343.07 442.596L332.486 441.154L326.844 436.324L329.266 433.496Z" stroke="#263238" stroke-linecap="round" stroke-linejoin="round"/>
<path d="M457.716 580.58L445.116 578.452L429.8 576.52L418.6 579.012L407.61 579.166L396.592 584.276L390.152 586.096L386.162 586.978L379.526 593.012L372.918 597.52L361.718 593.53L361.998 582.82L355.278 581.658L348.04 583.268L346.22 580.244L345.506 573.566L342.16 570.514L337.246 572.362L336.602 576.31L330.526 578.032L323.638 572.726L319.536 564.508L322.728 553.154L333.382 551.544L336.854 553.448L341.194 552.482L345.912 548.016L350.938 548.408L359.954 558.208L362.404 557.284L359.828 549.108L356.692 545.244L355.894 538.244L368.004 529.48L366.842 515.676L371.588 509.67L374.388 500.29L377.86 498.764L384.972 491.484L384.692 488.502L378.98 490.154L377.258 487.494L373.268 488.376L367.43 491.176L369.278 485.814L381.15 479.374L383.334 475.482L390.166 482.314L394.156 484.862L398.902 482.286L395.682 478.086L386.876 474.334L376.012 466.494L365.582 462.294L356.566 462.784L351.4 459.382L345.24 459.2L344.834 460.81L346.444 471.478L348.698 474.768L348.012 487.088L339.472 482.888V477.568L331.072 475.636L326.872 472.374L326.662 462.924L335.482 452.984L334.278 444.122L330.372 445.368L327.11 442.68L324.8 437.528L322.182 437.724L322 443.8L318.178 445.41L313.6 433.174L310.31 432.012L304.71 430.962L299.558 435.162L308.336 440.44L311.136 446.278L295.918 439.39L284.718 431.62L281.82 422.002L271.754 421.19L265.566 427.504C264.043 428.958 262.445 430.332 260.778 431.62C258.063 432.945 255.255 434.073 252.378 434.994L252.294 441.476L244.034 443.688L245.644 447.51L259.532 446.712L268.1 452.788L270.9 465.472L269.402 477.582L272.776 489.37L266.574 509.376L270.284 536.298L276.92 550.788L284.2 561.344L289.8 560.854L286.692 555.464L282.842 551.754L279.258 544.194L282.352 542.794L290.318 554.708L296.52 565.502L298.606 574.924L307.342 581.728L321.748 588L341.712 588.882L348.712 593.082L354.312 597.912L361.718 600.446L370.118 600.852L378 598.71C378 598.71 378.448 602.42 378.84 604.226C379.232 606.032 375.536 613.326 375.536 613.326L373.17 621.46L377.832 628.782L386.526 630.266L400.33 639.366L405.93 640.416L407.134 645.848L408.324 648.242C435.498 637.435 459.079 619.192 476.364 595.602L475.972 592.928L481.81 573.006L476.378 570.794L457.716 580.58Z" stroke="#263238" stroke-linecap="round" stroke-linejoin="round"/>
<path d="M463.61 429.128L458.094 423.136L451.248 416.29L447.398 405.748L454.16 405.384L453.712 401.688L448.924 402.374L452.508 399.672L456.288 396.172L455.49 392.546L449.89 387.716L447.23 380.128C420.457 359.044 387.53 347.28 353.458 346.626C319.385 345.971 286.031 356.462 258.468 376.502L268.128 380.562L264.516 388.22L257.95 391.188L259.35 401.128L256.704 402.864L253.904 407.652L255.71 414.092L262.038 413.448L260.862 420.168L267.022 418.768L274.554 403.032L274.358 396.984L284.34 394.016L285.908 389.102L296.17 385.686L295.89 379.288L303.408 377.23C303.408 377.23 308.21 373.128 309.288 372.89C311.484 372.871 313.679 373.016 315.854 373.324L322.252 376.474L329.854 374.78L335.454 369.348L343.938 368.228C345.31 368.758 346.788 368.95 348.25 368.788C350.056 368.382 354.928 364.588 354.928 364.588L366.884 368.788L371.952 371.084L373.156 376.516L378.756 376.026L379.848 372.372L385.042 373.492L385.322 376.474L375.088 381.794L383.026 388.388L397.67 392.742L404.67 398.776L412.804 397.726L413.812 393.708L416.542 392.308L405.524 387.156L399.56 387.716L403.942 385.224L398.23 380.03L404.306 378.308L413.252 380.884L416.99 389.172L422.016 392.994L427.616 402.794L436.87 406.812L439.516 418.768L449.064 422.352L449.582 426.412V431.368L453.208 437.402L454.608 440.51L461.006 440.23L462.546 433.426L463.61 429.128Z" stroke="#263238" stroke-linecap="round" stroke-linejoin="round"/>
<path d="M460.208 391.594L460.67 393.68L460.152 399.868L462.364 404.698L466.676 405.272L468.202 412.146L463.456 411.306L466.704 431.102L464.128 440.048L469.28 449.54L474.95 452.844L479.304 472.444L487.382 486.612L495.026 497.084L503.846 497.406L505.134 489.51L506.114 488.334C505.5 481.833 504.485 475.376 503.076 469C496.577 439.594 481.685 412.705 460.208 391.594V391.594Z" stroke="#263238" stroke-linecap="round" stroke-linejoin="round"/>
<path d="M376.04 407.918L349.79 402.71L339.374 405.412L338.366 412.86L332.962 409.108L325.402 412.692L327.334 424.816L334.894 428.064L338.072 420.14L344.722 424.368L358.12 431.648L362.628 441.672L374.696 451.542L389.354 445.62L387.786 440.272L383.152 434.84L379.204 420.504L381.472 413.546L376.04 407.918Z" stroke="#263238" stroke-linecap="round" stroke-linejoin="round"/>
<path d="M397.362 411.53L391.608 411.292L387.786 416.332L392.658 426.272L397.362 425.222V411.53Z" stroke="#263238" stroke-linecap="round" stroke-linejoin="round"/>
<path d="M432.586 410.942L418.81 407.148L415.31 403.368L412.664 405.104L416.808 411.782L421.064 420.714L426.986 421.68L427.756 420L423.276 415.282L433.51 416.822L432.586 410.942Z" stroke="#263238" stroke-linecap="round" stroke-linejoin="round"/>
<path d="M355.852 565.194L354.718 566.972L366.31 567.812L371.784 571.914L378.826 571.116L380.478 566.566L371.826 566.972L355.852 565.194Z" stroke="#263238" stroke-linecap="round" stroke-linejoin="round"/>
<path d="M389.62 564.914L382.494 568.778L384.216 571.438L393.638 569.352L394.8 566.048L391.622 567.14L389.62 564.914Z" stroke="#263238" stroke-linecap="round" stroke-linejoin="round"/>
<path d="M495.908 396.914C493.062 396.914 490.244 397.475 487.616 398.566C484.987 399.656 482.599 401.254 480.589 403.268C478.578 405.283 476.985 407.673 475.9 410.304C474.814 412.935 474.259 415.754 474.264 418.6C474.264 430.556 495.908 454.678 495.908 454.678C495.908 454.678 517.566 430.556 517.566 418.6C517.57 415.753 517.012 412.934 515.925 410.303C514.839 407.672 513.244 405.281 511.232 403.267C509.221 401.253 506.832 399.655 504.203 398.565C501.573 397.475 498.755 396.914 495.908 396.914ZM495.908 428.092C494.019 428.1 492.17 427.547 490.596 426.503C489.021 425.458 487.793 423.97 487.066 422.226C486.339 420.482 486.147 418.562 486.513 416.708C486.88 414.855 487.789 413.152 489.125 411.817C490.46 410.481 492.163 409.572 494.016 409.205C495.87 408.839 497.79 409.031 499.534 409.758C501.278 410.485 502.766 411.713 503.811 413.287C504.855 414.862 505.408 416.711 505.4 418.6C505.393 421.115 504.39 423.525 502.612 425.304C500.833 427.082 498.423 428.085 495.908 428.092Z" fill="#263238" stroke="#263238" stroke-miterlimit="10"/>
<path d="M327.95 452.48C322.941 452.48 318.137 454.47 314.596 458.012C311.054 461.553 309.064 466.357 309.064 471.366C309.064 481.796 327.95 502.838 327.95 502.838C327.95 502.838 346.836 481.838 346.836 471.366C346.836 466.357 344.846 461.553 341.304 458.012C337.763 454.47 332.959 452.48 327.95 452.48ZM327.95 479.682C326.305 479.682 324.697 479.194 323.33 478.281C321.962 477.367 320.896 476.068 320.267 474.548C319.638 473.029 319.473 471.357 319.794 469.744C320.115 468.13 320.907 466.649 322.07 465.486C323.233 464.323 324.714 463.531 326.328 463.21C327.941 462.889 329.613 463.054 331.132 463.683C332.652 464.312 333.951 465.378 334.864 466.746C335.778 468.113 336.266 469.721 336.266 471.366C336.266 473.572 335.39 475.687 333.83 477.246C332.271 478.806 330.156 479.682 327.95 479.682Z" fill="#263238" stroke="#263238" stroke-miterlimit="10"/>
<path d="M399.364 599.76C396.845 599.76 394.43 600.76 392.647 602.539C390.865 604.319 389.862 606.733 389.858 609.252C389.858 614.502 399.364 625.086 399.364 625.086C399.364 625.086 408.856 614.502 408.856 609.252C408.852 606.736 407.851 604.324 406.072 602.544C404.293 600.765 401.88 599.764 399.364 599.76ZM399.364 613.438C398.533 613.438 397.721 613.192 397.031 612.73C396.34 612.269 395.802 611.613 395.484 610.845C395.166 610.078 395.083 609.233 395.245 608.419C395.407 607.604 395.807 606.856 396.394 606.268C396.982 605.681 397.73 605.281 398.545 605.119C399.359 604.957 400.204 605.04 400.971 605.358C401.739 605.676 402.395 606.214 402.856 606.905C403.318 607.595 403.564 608.407 403.564 609.238C403.564 609.79 403.455 610.336 403.244 610.845C403.033 611.355 402.724 611.818 402.334 612.208C401.944 612.598 401.481 612.907 400.971 613.118C400.462 613.329 399.916 613.438 399.364 613.438Z" fill="#263238" stroke="#263238" stroke-miterlimit="10"/>
<path d="M281.232 512.05C278.713 512.054 276.299 513.057 274.519 514.839C272.74 516.622 271.74 519.037 271.74 521.556C271.74 526.806 281.232 537.39 281.232 537.39C281.232 537.39 290.738 526.806 290.738 521.556C290.738 519.035 289.736 516.617 287.954 514.834C286.171 513.052 283.753 512.05 281.232 512.05ZM281.232 525.742C280.401 525.742 279.589 525.496 278.899 525.034C278.208 524.573 277.67 523.917 277.352 523.149C277.034 522.382 276.951 521.537 277.113 520.723C277.275 519.908 277.675 519.16 278.262 518.572C278.85 517.985 279.598 517.585 280.413 517.423C281.227 517.261 282.072 517.344 282.839 517.662C283.607 517.98 284.263 518.518 284.724 519.209C285.186 519.899 285.432 520.711 285.432 521.542C285.432 522.656 284.989 523.724 284.202 524.512C283.414 525.299 282.346 525.742 281.232 525.742Z" fill="#263238" stroke="#263238" stroke-miterlimit="10"/>
<path d="M314.832 552.034C313.584 552.034 312.349 552.28 311.196 552.758C310.044 553.236 308.997 553.936 308.115 554.819C307.234 555.702 306.535 556.75 306.058 557.903C305.582 559.057 305.338 560.292 305.34 561.54C305.34 566.79 314.832 577.374 314.832 577.374C314.832 577.374 324.338 566.79 324.338 561.54C324.338 559.019 323.336 556.601 321.554 554.818C319.771 553.036 317.353 552.034 314.832 552.034ZM314.832 565.726C314.001 565.726 313.189 565.48 312.499 565.018C311.808 564.557 311.27 563.901 310.952 563.133C310.634 562.366 310.551 561.521 310.713 560.707C310.875 559.892 311.275 559.144 311.862 558.556C312.45 557.969 313.198 557.569 314.013 557.407C314.827 557.245 315.672 557.328 316.439 557.646C317.207 557.964 317.863 558.502 318.324 559.193C318.786 559.883 319.032 560.695 319.032 561.526C319.032 562.64 318.589 563.708 317.802 564.496C317.014 565.284 315.946 565.726 314.832 565.726Z" fill="#263238" stroke="#263238" stroke-miterlimit="10"/>
<path d="M432.838 569.982C431.358 569.982 429.892 570.274 428.525 570.84C427.158 571.406 425.915 572.236 424.869 573.283C423.822 574.329 422.992 575.572 422.426 576.939C421.859 578.306 421.568 579.772 421.568 581.252C421.568 587.468 432.838 600.012 432.838 600.012C432.838 600.012 444.038 587.412 444.038 581.252C444.047 579.775 443.764 578.311 443.206 576.944C442.647 575.578 441.823 574.335 440.782 573.287C439.742 572.24 438.504 571.408 437.14 570.841C435.777 570.274 434.315 569.982 432.838 569.982ZM432.838 586.208C431.854 586.211 430.891 585.921 430.072 585.376C429.252 584.831 428.613 584.055 428.235 583.146C427.857 582.238 427.758 581.237 427.949 580.272C428.14 579.306 428.614 578.42 429.31 577.724C430.006 577.028 430.892 576.554 431.858 576.363C432.823 576.172 433.824 576.271 434.732 576.649C435.641 577.027 436.417 577.666 436.962 578.486C437.507 579.305 437.797 580.268 437.794 581.252C437.794 581.903 437.666 582.547 437.417 583.149C437.168 583.75 436.803 584.296 436.342 584.756C435.882 585.217 435.336 585.582 434.735 585.831C434.133 586.08 433.489 586.208 432.838 586.208Z" fill="#263238" stroke="#263238" stroke-miterlimit="10"/>
<path d="M432.012 354.648C429.361 354.648 426.818 355.701 424.944 357.576C423.069 359.45 422.016 361.993 422.016 364.644C422.016 370.244 432.012 381.318 432.012 381.318C432.012 381.318 442.022 370.118 442.022 364.644C442.018 361.992 440.962 359.449 439.085 357.575C437.208 355.701 434.664 354.648 432.012 354.648ZM432.012 369.054C431.14 369.054 430.287 368.795 429.562 368.311C428.837 367.826 428.271 367.137 427.938 366.332C427.604 365.526 427.517 364.639 427.687 363.784C427.857 362.928 428.277 362.142 428.894 361.526C429.51 360.909 430.296 360.489 431.152 360.319C432.007 360.149 432.894 360.236 433.7 360.57C434.505 360.903 435.194 361.469 435.679 362.194C436.163 362.919 436.422 363.772 436.422 364.644C436.422 365.814 435.957 366.935 435.13 367.762C434.303 368.589 433.182 369.054 432.012 369.054Z" fill="#263238" stroke="#263238" stroke-miterlimit="10"/>
<path d="M260.806 417.2C259.492 417.198 258.191 417.455 256.976 417.957C255.762 418.458 254.658 419.194 253.729 420.123C252.799 421.051 252.061 422.154 251.558 423.367C251.055 424.581 250.796 425.882 250.796 427.196C250.796 432.726 260.806 443.87 260.806 443.87C260.806 443.87 270.802 432.67 270.802 427.196C270.802 424.545 269.749 422.002 267.874 420.128C266 418.253 263.457 417.2 260.806 417.2ZM260.806 431.606C259.933 431.609 259.079 431.353 258.352 430.87C257.625 430.387 257.058 429.699 256.722 428.893C256.386 428.088 256.296 427.201 256.465 426.344C256.634 425.488 257.053 424.701 257.669 424.083C258.285 423.464 259.071 423.043 259.927 422.872C260.782 422.7 261.67 422.787 262.476 423.12C263.283 423.454 263.973 424.019 264.458 424.744C264.943 425.47 265.202 426.323 265.202 427.196C265.202 428.363 264.739 429.483 263.915 430.309C263.091 431.136 261.973 431.602 260.806 431.606Z" fill="#263238" stroke="#263238" stroke-miterlimit="10"/>
<path d="M379.484 201.782C379.484 201.782 378.616 280.602 378.616 293.622C378.616 306.642 377.538 319.242 377.538 319.242C377.538 319.242 381.444 322.042 380.786 325.318C380.057 328.095 379.039 330.789 377.748 333.354C376.255 333.017 374.715 332.946 373.198 333.144C371.672 333.578 362.558 337.694 361.032 337.694C359.506 337.694 358.862 338.996 358.428 334.894C357.955 331.223 357.81 327.517 357.994 323.82C358.266 320.521 358.776 317.246 359.52 314.02L350.392 214.368L348.222 311.416C348.222 311.416 348.656 317.282 349.314 318.416C350.177 319.969 350.764 321.66 351.05 323.414C351.05 324.492 349.09 334.698 348.25 335.132C347.41 335.566 344.778 337.092 344.778 337.092C344.778 337.092 343.042 336.658 340.648 333.62C338.254 330.582 332.626 330.82 331.534 331.226L330.442 331.66C330.442 331.66 327.194 327.754 326.536 324.926C325.878 322.098 330.232 321.888 330.008 314.286C329.784 306.684 323.26 242.2 323.26 242.2L321.734 198.8L379.918 197.064L379.484 201.782Z" fill="#263238" stroke="#263238" stroke-miterlimit="10"/>
<path d="M356.692 101.038L333.466 102.564L332.598 201.782C332.598 201.782 334.334 203.308 348.656 203.518C362.978 203.728 366.03 202.006 366.03 202.006L356.692 101.038Z" fill="white" stroke="#263238" stroke-miterlimit="10"/>
<path d="M355.264 52.178C355.264 52.178 360.948 60.2 360.864 61.418C360.704 62.6165 360.47 63.8041 360.164 64.974C360.164 64.974 366.352 71.358 365.764 71.876L362.32 74.816C362.32 74.816 362.418 80.794 362.418 81.718C362.418 82.642 363.734 84.966 363.328 85.918C362.859 86.9571 362.209 87.905 361.41 88.718C360.696 89.32 355.516 89.222 355.516 89.222L355.418 97.44C355.418 97.44 356.328 102.62 355.516 104.44C354.704 106.26 352.366 107.688 346.486 107.996C340.606 108.304 337.736 106.302 336.014 104.874C334.292 103.446 334.516 90.342 334.404 88.312C334.292 86.282 334.208 82.418 333.088 80.696C331.968 78.974 324.688 66.696 323.456 63.644C322.224 60.592 322.126 57.456 324.464 54.726C326.802 51.996 329.742 50.764 330.064 49.238C330.386 47.712 330.064 46.2 332.29 45.486C333.911 45.0599 335.599 44.9553 337.26 45.178C337.26 45.178 341.53 40.012 343.756 40.614L345.996 41.216C345.996 41.216 352.184 39.494 355.432 42.238C358.68 44.982 359.324 49.336 355.264 52.178Z" fill="white" stroke="#263238" stroke-miterlimit="10"/>
<path d="M356.426 66.528C356.426 67.816 356.818 68.866 357.322 68.866C357.826 68.866 358.218 67.816 358.218 66.528C358.218 65.24 357.812 64.176 357.322 64.176C356.832 64.176 356.426 65.226 356.426 66.528Z" fill="#263238" stroke="#263238" stroke-miterlimit="10"/>
<path d="M329.994 49.238C330.288 47.712 329.994 46.2 332.22 45.486C333.841 45.0599 335.529 44.9553 337.19 45.178C337.19 45.178 341.46 40.012 343.686 40.614L345.926 41.216C345.926 41.216 352.114 39.494 355.362 42.238C358.61 44.982 359.324 49.336 355.264 52.178C355.264 52.178 344.064 53.396 345.464 55.426C346.864 57.456 347.494 59.08 346.388 59.626C345.282 60.172 340.2 62.762 340.704 63.98C341.208 65.198 341.712 68.446 341.012 68.656C340.312 68.866 340.396 68.446 338.212 66.822C336.028 65.198 333.536 66.416 333.242 69.622C333.129 70.7887 333.406 71.9599 334.029 72.9527C334.652 73.9455 335.586 74.7041 336.686 75.11C337.806 75.306 337.19 79.31 335.062 80.794C334.574 81.119 334.047 81.3823 333.494 81.578C333.374 81.232 333.219 80.899 333.032 80.584C331.912 78.862 324.632 66.584 323.4 63.532C322.168 60.48 322.07 57.344 324.408 54.614C326.746 51.884 329.686 50.764 329.994 49.238Z" fill="#263238" stroke="#263238" stroke-miterlimit="10"/>
<path d="M361.2 77.952C361.2 77.952 356.636 78.764 354.004 75.53" stroke="#263238" stroke-miterlimit="10"/>
<path d="M355.46 89.222L346.122 86.282L355.264 95.508L355.46 89.222Z" fill="#263238" stroke="#263238" stroke-miterlimit="10"/>
<path d="M358.61 61.362C358.61 61.362 355.306 59.556 353.388 62.272" stroke="#263238" stroke-miterlimit="10"/>
<path d="M380.254 138.838C380.254 138.838 392.924 160.062 393.274 164.164C393.624 168.266 386.596 182.364 384.538 182.826C382.48 183.288 376.656 176.666 375.984 173.922C375.312 171.178 374.262 140.21 375.466 137.522C376.67 134.834 380.254 138.838 380.254 138.838Z" fill="#263238" stroke="#263238" stroke-miterlimit="10"/>
<path d="M359.24 100.8L371.392 101.724C371.392 101.724 378.084 100.17 380.1 100.8C382.116 101.43 410.774 112.476 413.896 114.66C417.018 116.844 416.542 124.768 415.758 128.044C415.489 129.187 414.859 130.213 413.961 130.969C413.064 131.726 411.946 132.173 410.774 132.244C409.374 132.398 380.422 130.536 380.422 130.536L387.884 206.36L372.316 211.4L361.27 212.8L355.81 118.286L359.24 100.8Z" fill="#3052C5" stroke="#263238" stroke-miterlimit="10"/>
<path d="M355.264 95.522L359.24 100.8C359.24 100.8 359.702 108.738 358.624 112C357.863 114.199 356.926 116.334 355.824 118.384L350.84 106.862C352.978 103.375 354.476 99.5352 355.264 95.522Z" fill="#3052C5" stroke="#263238" stroke-miterlimit="10"/>
<path d="M336 121.31L337.4 213.136C337.4 213.136 323.708 211.596 319.2 209.706C316.631 208.633 314.117 207.432 311.668 206.108C311.668 206.108 316.12 172.508 316.288 169.82C316.456 167.132 316.456 164.85 316.456 164.85C316.456 164.85 306.362 168.448 302.596 167.258C298.83 166.068 298.312 162.12 298.662 157.15C298.861 154.401 298.889 151.642 298.746 148.89C298.746 148.036 299.768 133.854 303.884 123.242C308 112.63 305.508 112.294 308.42 110.418C311.332 108.542 332.556 100.996 332.556 100.996L334.95 105.966L336 121.31Z" fill="#3052C5" stroke="#263238" stroke-miterlimit="10"/>
<path d="M319.83 106.134C319.83 106.134 322.91 142.422 319.312 154.406L313.712 154.588C314.062 158.788 316.61 151.326 317.296 128.562C317.59 118.762 313.194 108.36 313.194 108.36C315.348 107.455 317.566 106.711 319.83 106.134Z" fill="#263238" stroke="#263238" stroke-miterlimit="10"/>
<path d="M334.796 96.082C334.796 96.082 336.826 101.22 338.058 103.866C339.29 106.512 340.2 108.234 340.2 108.234L336 121.31C334.251 116.472 332.962 111.48 332.15 106.4C331.52 100.478 330.96 101.388 330.96 101.388C330.96 101.388 333.704 94.99 334.796 96.082Z" fill="#3052C5" stroke="#263238" stroke-miterlimit="10"/>
<path d="M376.992 78.96C375.733 78.5299 374.53 77.9519 373.408 77.238C372.47 76.468 370.608 73.5 369.978 72.884C369.348 72.268 366.268 73.346 365.778 71.876C365.288 70.406 364.938 68.894 366.786 69.328C368.613 69.656 370.461 69.8525 372.316 69.916L369.39 60.354H382.816C382.816 60.354 386.708 73.598 386.708 74.676C386.599 75.8852 386.393 77.0837 386.092 78.26C386.092 78.26 404.46 98.812 408.352 103.95C412.244 109.088 417.074 116.102 417.55 118.748C418.026 121.394 416.612 129.794 413.35 130.886C410.088 131.978 407.12 130.732 403.704 127.47C400.288 124.208 389.998 103.18 389.536 102.396C389.074 101.612 381.136 81.998 380.66 81.396C379.51 80.4797 378.283 79.6647 376.992 78.96Z" fill="white" stroke="#263238" stroke-miterlimit="10"/>
<path d="M370.16 101.85C370.16 101.85 374.094 127.54 378.378 140.21C382.662 152.88 386.246 160.916 386.246 160.916L384.37 172.116C379.308 162.958 375.014 153.396 371.532 143.528C365.708 127.092 362.46 101.416 362.46 101.416L370.16 101.85Z" fill="#263238" stroke="#263238" stroke-miterlimit="10"/>
<path d="M335.888 126.462L340.508 167.468L314.16 164.346L307.286 123.48L335.888 126.462Z" fill="white" stroke="#263238" stroke-miterlimit="10"/>
<path d="M332.5 126.672L340.886 167.076L314.342 166.39L303.73 126.336L332.5 126.672Z" fill="white" stroke="#263238" stroke-miterlimit="10"/>
<path d="M306.81 149.968C309.7 151.527 312.673 152.929 315.714 154.168C317.086 154.715 318.558 154.967 320.034 154.909C321.51 154.851 322.957 154.484 324.282 153.832C325.781 153.144 327.121 152.153 328.216 150.92C328.216 150.92 329.07 146.3 330.092 145.614C331.114 144.928 333.522 144.41 334.544 142.814C335.566 141.218 336.084 141.414 336.434 142.982C336.784 144.55 337.12 146.244 336.084 146.93C335.483 147.325 335.056 147.937 334.894 148.638C334.894 148.638 335.062 149.842 336.434 149.324C337.806 148.806 338.66 147.098 340.032 147.616C340.333 147.665 340.619 147.786 340.865 147.967C341.111 148.148 341.31 148.385 341.447 148.658C341.584 148.932 341.654 149.234 341.651 149.539C341.648 149.845 341.573 150.145 341.432 150.416C341.041 151.256 340.572 152.057 340.032 152.81C340.032 152.81 341.74 156.758 340.886 159.32C340.032 161.882 335.748 163.436 333.69 163.604C331.632 163.772 325.822 163.94 325.822 163.94C325.822 163.94 317.422 166.74 312.298 168.224C307.174 169.708 305.62 169.428 302.708 167.202C301.21 166.045 300.108 164.45 299.557 162.639C299.005 160.828 299.03 158.89 299.628 157.094C300.818 153.048 302.19 150.822 306.81 149.968Z" fill="white" stroke="#263238" stroke-miterlimit="10"/>
<path d="M376.446 330.106C376.446 330.106 379.246 336.826 379.918 338.128C381.363 340.465 383.383 342.392 385.784 343.728C389.046 345.674 392.952 346.976 392.084 348.712C391.216 350.448 387.31 350.882 384.048 351.316C380.786 351.75 373.198 350.448 370.146 350.448C367.094 350.448 360.346 349.37 359.73 347.844C359.114 346.318 359.954 335.468 359.954 335.468C359.954 335.468 364.938 329.882 376.446 330.106Z" fill="white" stroke="#263238" stroke-miterlimit="10"/>
<path d="M359.8 347.9C359.559 346.731 359.478 345.535 359.562 344.344L367.388 346.668C372.176 347.868 377.055 348.664 381.976 349.048C385.375 349.221 388.773 348.692 391.958 347.494C392.118 347.66 392.222 347.872 392.258 348.1C392.293 348.328 392.256 348.561 392.154 348.768C391.286 350.504 387.38 350.938 384.118 351.372C380.856 351.806 373.268 350.504 370.216 350.504C367.164 350.504 360.388 349.426 359.8 347.9Z" fill="white" stroke="#263238" stroke-miterlimit="10"/>
<path d="M345.422 336C345.422 336 344.778 347.2 344.624 348.012C344.47 348.824 343.672 349.412 341.46 349.678C339.248 349.944 338.282 349.832 337.022 350.448C335.762 351.064 333.06 352.422 325.458 352.422C317.856 352.422 315.476 351.022 316.428 348.32C317.38 345.618 324.66 340.256 326.41 338.128C327.867 336.032 329.101 333.789 330.092 331.436C330.092 331.436 332.262 329.616 336.546 330.526C340.83 331.436 341.936 333.116 342.412 333.872C343.305 334.726 344.319 335.443 345.422 336Z" fill="white" stroke="#263238" stroke-miterlimit="10"/>
<path d="M316.4 348.376C316.464 348.197 316.544 348.024 316.638 347.858C317.377 348.645 318.261 349.282 319.242 349.734C322.042 351.134 333.354 350.35 335.888 348.978C338.784 347.702 341.769 346.64 344.82 345.8C344.736 347.004 344.666 347.9 344.624 348.096C344.47 348.852 343.672 349.496 341.46 349.762C339.248 350.028 338.282 349.916 337.022 350.532C335.762 351.148 333.06 352.506 325.458 352.506C317.856 352.506 315.476 351.106 316.4 348.376Z" fill="white" stroke="#263238" stroke-miterlimit="10"/>
<path d="M365.82 62.496L376.18 61.81V69.916L365.82 69.23C365.33 69.23 364.924 67.732 364.924 65.87C364.924 64.008 365.4 62.496 365.82 62.496Z" fill="white" stroke="#263238" stroke-miterlimit="10"/>
<path d="M362.978 61.684H366.24C366.325 61.6846 366.408 61.7059 366.482 61.7461C366.557 61.7863 366.62 61.8442 366.667 61.9146C366.714 61.9851 366.743 62.066 366.752 62.1503C366.76 62.2345 366.748 62.3196 366.716 62.398C366.359 63.5196 366.193 64.6933 366.226 65.87C366.192 67.0421 366.357 68.2115 366.716 69.328C366.748 69.4064 366.76 69.4914 366.752 69.5757C366.743 69.66 366.714 69.7409 366.667 69.8113C366.62 69.8818 366.557 69.9397 366.482 69.9799C366.408 70.0201 366.325 70.0414 366.24 70.042H362.978C362.362 70.042 361.858 68.166 361.858 65.842C361.858 63.518 362.362 61.684 362.978 61.684Z" fill="white" stroke="#263238" stroke-miterlimit="10"/>
<path d="M373.254 60.354L395.752 59.234V72.506L373.254 71.4C372.442 71.4 371.854 68.922 371.854 65.884C371.854 62.846 372.4 60.354 373.254 60.354Z" fill="white" stroke="#263238" stroke-miterlimit="10"/>
<path d="M393.988 65.87C393.988 69.524 394.786 72.506 395.752 72.506C396.718 72.506 397.516 69.524 397.516 65.87C397.516 62.216 396.732 59.234 395.752 59.234C394.772 59.234 393.988 62.202 393.988 65.87Z" fill="white" stroke="#263238" stroke-miterlimit="10"/>
<path d="M361.886 62.496L372.246 61.81V69.916L361.886 69.23C361.396 69.23 360.99 67.732 360.99 65.87C360.99 64.008 361.396 62.496 361.886 62.496Z" fill="#263238" stroke="#263238" stroke-miterlimit="10"/>
<path d="M359.044 61.684H362.306C362.391 61.6846 362.474 61.7059 362.548 61.7461C362.623 61.7863 362.686 61.8442 362.733 61.9146C362.78 61.9851 362.809 62.066 362.818 62.1503C362.826 62.2345 362.814 62.3196 362.782 62.398C362.43 63.5206 362.27 64.6942 362.306 65.87C362.268 67.0413 362.429 68.2105 362.782 69.328C362.814 69.4064 362.826 69.4914 362.818 69.5757C362.809 69.66 362.78 69.7409 362.733 69.8113C362.686 69.8818 362.623 69.9397 362.548 69.9799C362.474 70.0201 362.391 70.0414 362.306 70.042H359.044C358.428 70.042 357.924 68.166 357.924 65.842C357.924 63.518 358.4 61.684 359.044 61.684Z" fill="white" stroke="#263238" stroke-miterlimit="10"/>
<path d="M369.32 60.354L391.818 59.234V72.506L369.32 71.4C368.522 71.4 367.92 68.922 367.92 65.884C367.92 62.846 368.522 60.354 369.32 60.354Z" fill="#263238" stroke="#263238" stroke-miterlimit="10"/>
<path d="M390.054 65.87C390.054 69.524 390.852 72.506 391.818 72.506C392.784 72.506 393.582 69.524 393.582 65.87C393.582 62.216 392.798 59.234 391.818 59.234C390.838 59.234 390.054 62.202 390.054 65.87Z" fill="white" stroke="#263238" stroke-miterlimit="10"/>
<path d="M382.368 59.556C382.368 59.556 379.47 56.434 378.392 56.434C377.314 56.434 375.592 59.234 375.284 59.556C374.976 59.878 375.172 60.41 376.348 60.522C377.243 60.4927 378.108 60.1898 378.826 59.654L382.368 59.556Z" fill="white" stroke="#263238" stroke-miterlimit="10"/>
<path d="M378.392 56.434C376.918 56.0543 375.406 55.8384 373.884 55.79C373.016 56 371.406 59.654 371.728 60.2C372.05 60.746 375.284 59.556 375.284 59.556C375.284 59.556 377.426 56.322 378.392 56.434Z" fill="white" stroke="#263238" stroke-miterlimit="10"/>
<path d="M373.128 56.112C373.128 56.112 371.406 55.034 370.552 55.79C369.698 56.546 367.864 59.122 368.298 60.088C368.732 61.054 371.728 60.2 371.728 60.2C371.728 60.2 372.4 56.434 373.128 56.112Z" fill="white" stroke="#263238" stroke-miterlimit="10"/>
<path d="M369.698 56.434C369.698 56.434 367.542 55.58 366.786 56.434C366.03 57.288 364.112 59.976 365.386 60.634C366.66 61.292 367.962 59.346 367.962 59.346L369.698 56.434Z" fill="white" stroke="#263238" stroke-miterlimit="10"/>
</g>
<defs>
<clipPath id="clip0_4_3085">
<rect width="700" height="700" fill="white"/>
</clipPath>
</defs>
</svg>
