<svg width="600" height="600" viewBox="0 0 600 600" fill="none" xmlns="http://www.w3.org/2000/svg">
<path d="M480.84 517.908C510.492 491.244 532.524 454.824 549.156 419.508C573.864 367.044 587.016 301.584 552.528 250.572C532.632 221.148 501.552 202.572 467.052 195.576C433.86 188.856 401.58 190.308 373.032 169.272C344.16 147.972 319.032 121.404 293.184 96.672C226.728 33.072 105.984 51.312 49.9079 136.944C-6.1681 222.576 9.1079 333.816 63.1079 385.416C111.6 431.772 179.256 440.832 232.8 477.072C259.332 495.072 277.884 521.556 306 537.36C338.7 555.732 378.792 563.268 415.632 553.884C440.712 547.488 462.264 534.612 480.84 517.908Z" fill="#3052C5"/>
<path opacity="0.7" d="M480.84 517.908C510.492 491.244 532.524 454.824 549.156 419.508C573.864 367.044 587.016 301.584 552.528 250.572C532.632 221.148 501.552 202.572 467.052 195.576C433.86 188.856 401.58 190.308 373.032 169.272C344.16 147.972 319.032 121.404 293.184 96.672C226.728 33.072 105.984 51.312 49.9079 136.944C-6.1681 222.576 9.1079 333.816 63.1079 385.416C111.6 431.772 179.256 440.832 232.8 477.072C259.332 495.072 277.884 521.556 306 537.36C338.7 555.732 378.792 563.268 415.632 553.884C440.712 547.488 462.264 534.612 480.84 517.908Z" fill="#000D3A" fill-opacity="0.75"/>
<path d="M536.112 532.62L531.468 489.024" stroke="#263238" stroke-width="0.985332" stroke-linecap="round" stroke-linejoin="round"/>
<path d="M531.444 490.248C531.444 490.248 523.104 483.756 523.104 468.912C523.104 454.068 534.228 442.02 534.228 442.02C534.228 442.02 546.288 456.864 543.504 471.696C540.72 486.528 531.444 490.248 531.444 490.248Z" fill="#00FF19" stroke="#263238" stroke-width="0.985332" stroke-linecap="round" stroke-linejoin="round"/>
<path d="M531.468 489.024L533.592 456.264" stroke="#263238" stroke-width="0.985332" stroke-linecap="round" stroke-linejoin="round"/>
<path d="M540.396 529.404C544.444 518.969 549.387 508.904 555.168 499.32" stroke="#263238" stroke-width="0.985332" stroke-linecap="round" stroke-linejoin="round"/>
<path d="M550.8 507.204C550.8 507.204 546.168 497.688 552.72 484.404C559.272 471.12 574.584 465.204 574.584 465.204C574.584 465.204 578.844 483.84 569.784 495.924C560.724 508.008 550.8 507.204 550.8 507.204Z" fill="#00FF19" stroke="#263238" stroke-width="0.985332" stroke-linecap="round" stroke-linejoin="round"/>
<path d="M550.8 507.204L567.684 479.448" stroke="#263238" stroke-width="0.985332" stroke-linecap="round" stroke-linejoin="round"/>
<path d="M528.588 533.292C526.072 524.91 522.652 516.826 518.388 509.184L511.896 498" stroke="#263238" stroke-width="0.985332" stroke-linecap="round" stroke-linejoin="round"/>
<path d="M517.116 506.652C511.993 508.225 506.555 508.476 501.31 507.381C496.064 506.285 491.181 503.88 487.116 500.388C472.716 488.292 473.52 463.608 473.52 463.608C473.52 463.608 501.432 459.624 512.7 475.44C515.966 479.868 518.08 485.04 518.851 490.488C519.622 495.937 519.026 501.491 517.116 506.652Z" fill="#00FF19" stroke="#263238" stroke-width="0.985332" stroke-linecap="round" stroke-linejoin="round"/>
<path d="M517.116 506.652L484.032 472.176" stroke="#263238" stroke-width="0.985332" stroke-linecap="round" stroke-linejoin="round"/>
<path d="M551.376 523.284H516.06V557.916H551.376V523.284Z" fill="#263238" stroke="#263238" stroke-width="0.985332" stroke-linecap="round" stroke-linejoin="round"/>
<path d="M492.372 34.8H256.14V233.82H492.372V34.8Z" fill="white" stroke="#263238" stroke-width="0.985332" stroke-linecap="round" stroke-linejoin="round"/>
<path d="M305.172 146.688H303.252L302.928 144.504H300.6L300.264 146.688H298.524L300.456 134.604H303.24L305.172 146.688ZM300.84 142.86H302.664L301.752 136.74L300.84 142.86Z" fill="#263238"/>
<path d="M307.86 134.604V143.928C307.86 144.792 308.244 145.128 308.844 145.128C309.444 145.128 309.84 144.816 309.84 143.928V134.604H311.628V143.808C311.628 145.74 310.668 146.844 308.796 146.844C306.924 146.844 305.964 145.74 305.964 143.808V134.604H307.86Z" fill="#263238"/>
<path d="M312.372 134.604H318.24V136.332H316.26V146.688H314.4V136.332H312.42L312.372 134.604Z" fill="#263238"/>
<path d="M320.976 146.688H319.068V134.604H320.976V139.788H323.124V134.604H325.068V146.688H323.124V141.516H320.976V146.688Z" fill="#263238"/>
<path d="M328.344 139.692H330.948V141.42H328.344V145.02H331.62V146.748H326.4V134.604H331.572V136.332H328.296L328.344 139.692Z" fill="#263238"/>
<path d="M334.488 138V146.748H332.784V134.604H335.184L337.14 141.804V134.604H338.832V146.688H336.876L334.488 138Z" fill="#263238"/>
<path d="M339.6 134.604H345.48V136.332H343.488V146.688H341.592V136.332H339.6V134.604Z" fill="#263238"/>
<path d="M346.32 134.604H348.216V146.688H346.32V134.604Z" fill="#263238"/>
<path d="M355.104 142.188V143.796C355.104 145.728 354.144 146.832 352.272 146.832C350.4 146.832 349.44 145.728 349.44 143.796V137.508C349.44 135.564 350.412 134.46 352.272 134.46C354.132 134.46 355.104 135.564 355.104 137.508V138.708H353.316V137.412C353.316 136.548 352.932 136.212 352.332 136.212C351.732 136.212 351.348 136.548 351.348 137.412V143.94C351.348 144.804 351.72 145.14 352.332 145.14C352.944 145.14 353.316 144.84 353.316 143.94V142.212L355.104 142.188Z" fill="#263238"/>
<path d="M362.4 146.688H360.48L360.156 144.504H357.84L357.504 146.688H355.764L357.696 134.604H360.48L362.4 146.688ZM358.068 142.86H359.892L358.98 136.74L358.068 142.86Z" fill="#263238"/>
<path d="M362.076 134.604H367.956V136.332H366V146.688H364.104V136.332H362.112L362.076 134.604Z" fill="#263238"/>
<path d="M370.68 139.692H373.284V141.42H370.68V145.02H373.968V146.748H368.784V134.604H373.968V136.332H370.68V139.692Z" fill="#263238"/>
<path d="M379.596 142.68L377.196 134.604H379.2L380.652 140.112L382.104 134.604H383.916L381.516 142.68V146.688H379.62L379.596 142.68Z" fill="#263238"/>
<path d="M384.24 137.508C384.24 136.744 384.544 136.012 385.084 135.472C385.624 134.931 386.356 134.628 387.12 134.628C387.884 134.628 388.617 134.931 389.157 135.472C389.697 136.012 390 136.744 390 137.508V143.796C390 144.56 389.697 145.292 389.157 145.832C388.617 146.373 387.884 146.676 387.12 146.676C386.356 146.676 385.624 146.373 385.084 145.832C384.544 145.292 384.24 144.56 384.24 143.796V137.508ZM386.136 143.916C386.136 144.78 386.52 145.116 387.12 145.116C387.72 145.116 388.104 144.792 388.104 143.916V137.388C388.104 136.524 387.72 136.188 387.12 136.188C386.52 136.188 386.136 136.524 386.136 137.388V143.916Z" fill="#263238"/>
<path d="M393.036 134.604V143.928C393.036 144.792 393.42 145.128 394.02 145.128C394.62 145.128 395.004 144.816 395.004 143.928V134.604H396.804V143.808C396.804 145.74 395.844 146.844 393.972 146.844C392.1 146.844 391.14 145.74 391.14 143.808V134.604H393.036Z" fill="#263238"/>
<path d="M402.072 146.688C401.912 146.209 401.855 145.702 401.904 145.2V143.304C401.904 142.188 401.52 141.768 400.704 141.768H400.044V146.688H398.148V134.604H401.016C402.984 134.604 403.824 135.516 403.824 137.388V138.336C403.886 138.81 403.804 139.292 403.591 139.719C403.377 140.147 403.04 140.501 402.624 140.736C403.572 141.132 403.884 142.044 403.884 143.304V145.2C403.847 145.697 403.916 146.196 404.088 146.664L402.072 146.688ZM399.996 136.332V140.04H400.8C401.508 140.04 401.94 139.728 401.94 138.768V137.568C401.94 136.704 401.652 136.368 400.98 136.368L399.996 136.332Z" fill="#263238"/>
<path d="M413.868 146.688H411.948L411.624 144.504H409.284L408.96 146.688H407.22L409.2 134.604H411.984L413.868 146.688ZM409.536 142.86H411.36L410.4 136.8L409.536 142.86Z" fill="#263238"/>
<path d="M420.24 142.188V143.796C420.24 145.728 419.268 146.832 417.408 146.832C415.548 146.832 414.576 145.728 414.576 143.796V137.508C414.576 135.564 415.536 134.46 417.408 134.46C419.28 134.46 420.24 135.564 420.24 137.508V138.708H418.44V137.412C418.44 136.548 418.056 136.212 417.456 136.212C416.856 136.212 416.472 136.548 416.472 137.412V143.94C416.472 144.804 416.856 145.14 417.456 145.14C418.056 145.14 418.44 144.84 418.44 143.94V142.212L420.24 142.188Z" fill="#263238"/>
<path d="M426.9 142.188V143.796C426.9 145.728 425.94 146.832 424.068 146.832C422.196 146.832 421.236 145.728 421.236 143.796V137.508C421.236 135.564 422.208 134.46 424.068 134.46C425.928 134.46 426.9 135.564 426.9 137.508V138.708H425.1V137.412C425.1 136.548 424.728 136.212 424.116 136.212C423.504 136.212 423.132 136.548 423.132 137.412V143.94C423.132 144.804 423.516 145.14 424.116 145.14C424.716 145.14 425.1 144.84 425.1 143.94V142.212L426.9 142.188Z" fill="#263238"/>
<path d="M427.896 137.508C427.871 137.113 427.926 136.718 428.06 136.345C428.193 135.973 428.402 135.632 428.672 135.344C428.943 135.055 429.27 134.825 429.633 134.668C429.995 134.511 430.387 134.43 430.782 134.43C431.178 134.43 431.569 134.511 431.932 134.668C432.295 134.825 432.621 135.055 432.892 135.344C433.162 135.632 433.371 135.973 433.504 136.345C433.638 136.718 433.694 137.113 433.668 137.508V143.796C433.694 144.191 433.638 144.586 433.504 144.959C433.371 145.331 433.162 145.672 432.892 145.96C432.621 146.249 432.295 146.479 431.932 146.636C431.569 146.793 431.178 146.874 430.782 146.874C430.387 146.874 429.995 146.793 429.633 146.636C429.27 146.479 428.943 146.249 428.672 145.96C428.402 145.672 428.193 145.331 428.06 144.959C427.926 144.586 427.871 144.191 427.896 143.796V137.508ZM429.804 143.916C429.804 144.78 430.176 145.116 430.788 145.116C431.4 145.116 431.772 144.792 431.772 143.916V137.388C431.772 136.524 431.388 136.188 430.788 136.188C430.188 136.188 429.804 136.524 429.804 137.388V143.916Z" fill="#263238"/>
<path d="M436.704 134.604V143.928C436.704 144.792 437.088 145.128 437.688 145.128C438.288 145.128 438.672 144.816 438.672 143.928V134.604H440.472V143.808C440.472 145.74 439.512 146.844 437.64 146.844C435.768 146.844 434.808 145.74 434.808 143.808V134.604H436.704Z" fill="#263238"/>
<path d="M443.46 138V146.748H441.756V134.604H444.156L446.112 141.804V134.604H447.804V146.688H445.848L443.46 138Z" fill="#263238"/>
<path d="M448.584 134.604H454.464V136.332H452.472V146.688H450.576V136.332H448.584V134.604Z" fill="#263238"/>
<path d="M402.114 97.5441C404.494 82.7698 394.446 68.8638 379.672 66.4841C364.898 64.1044 350.992 74.1522 348.612 88.9265C346.232 103.701 356.28 117.607 371.054 119.987C385.829 122.366 399.735 112.318 402.114 97.5441Z" fill="#3052C5"/>
<path d="M387.18 86.988C387.18 89.3257 386.487 91.611 385.188 93.5548C383.889 95.4986 382.043 97.0136 379.883 97.9082C377.724 98.8029 375.347 99.0369 373.054 98.5809C370.761 98.1248 368.655 96.999 367.002 95.346C365.349 93.6929 364.223 91.5868 363.767 89.2939C363.311 87.0011 363.545 84.6245 364.44 82.4646C365.334 80.3048 366.849 78.4588 368.793 77.16C370.737 75.8612 373.022 75.168 375.36 75.168C378.495 75.168 381.501 76.4133 383.718 78.63C385.935 80.8467 387.18 83.8531 387.18 86.988Z" fill="#263238"/>
<path d="M355.908 112.08C358.432 114.688 361.455 116.761 364.797 118.178C368.139 119.594 371.731 120.323 375.36 120.323C378.99 120.323 382.582 119.594 385.924 118.178C389.265 116.761 392.288 114.688 394.812 112.08V111.3C394.814 109.931 394.546 108.575 394.023 107.31C393.5 106.045 392.733 104.895 391.766 103.927C390.798 102.959 389.65 102.19 388.385 101.666C387.12 101.142 385.765 100.872 384.396 100.872H366.336C363.571 100.872 360.918 101.971 358.963 103.926C357.007 105.882 355.908 108.534 355.908 111.3V112.08Z" fill="#263238"/>
<path d="M456.564 168.468H293.1V188.34H456.564V168.468Z" stroke="#263238" stroke-width="0.985332" stroke-miterlimit="10"/>
<path d="M456.564 198.264H293.1V218.136H456.564V198.264Z" fill="#3052C5" stroke="#263238" stroke-width="0.985332" stroke-miterlimit="10"/>
<path d="M347.928 178.968V180.168H344.976V184.464H348.576V185.664H343.608V173.616H348.576V174.816H344.976V178.944L347.928 178.968Z" fill="#BDBDBD"/>
<path d="M351.036 185.712H349.836V173.616H351.6L354.396 182.352V173.616H355.596V185.712H354.192L351.096 175.932L351.036 185.712Z" fill="#BDBDBD"/>
<path d="M358.668 185.712V174.84H356.4V173.64H362.208V174.84H360V185.712H358.668Z" fill="#BDBDBD"/>
<path d="M367.476 178.968V180.168H364.524V184.464H368.124V185.664H363.156V173.616H368.124V174.816H364.524V178.944L367.476 178.968Z" fill="#BDBDBD"/>
<path d="M372.084 173.616C373.992 173.616 374.784 174.588 374.784 176.376V177.36C374.867 177.886 374.762 178.424 374.488 178.881C374.213 179.337 373.787 179.682 373.284 179.856C374.388 180.18 374.796 181.056 374.796 182.376V184.26C374.761 184.756 374.843 185.254 375.036 185.712H373.68C373.488 185.245 373.41 184.739 373.452 184.236V182.4C373.452 181.032 372.816 180.6 371.688 180.6H370.8V185.772H369.456V173.616H372.084ZM371.748 179.316C372.816 179.316 373.452 178.968 373.452 177.66V176.46C373.452 175.38 373.056 174.804 372.048 174.804H370.8V179.28L371.748 179.316Z" fill="#BDBDBD"/>
<path d="M384.216 176.532V177.6H382.932V176.4C382.932 175.308 382.5 174.648 381.516 174.648C380.532 174.648 380.1 175.308 380.1 176.4V182.784C380.1 183.876 380.544 184.536 381.516 184.536C382.488 184.536 382.932 183.876 382.932 182.784V181.212H384.216V182.712C384.216 184.548 383.34 185.76 381.48 185.76C379.62 185.76 378.768 184.56 378.768 182.712V176.46C378.768 174.636 379.632 173.424 381.48 173.424C383.328 173.424 384.216 174.708 384.216 176.532Z" fill="#BDBDBD"/>
<path d="M385.332 176.532C385.332 174.684 386.244 173.496 388.092 173.496C389.94 173.496 390.876 174.696 390.876 176.532V182.784C390.876 184.62 389.964 185.832 388.092 185.832C386.22 185.832 385.332 184.632 385.332 182.784V176.532ZM386.664 182.856C386.664 183.96 387.132 184.608 388.092 184.608C389.052 184.608 389.532 183.96 389.532 182.856V176.472C389.532 175.38 389.076 174.72 388.092 174.72C387.108 174.72 386.664 175.38 386.664 176.472V182.856Z" fill="#BDBDBD"/>
<path d="M394.98 173.616C396.864 173.616 397.728 174.756 397.728 176.628V182.724C397.728 184.572 396.864 185.712 394.98 185.712H392.148V173.616H394.98ZM394.98 184.416C395.94 184.416 396.408 183.816 396.408 182.712V176.496C396.408 175.392 395.94 174.78 394.956 174.78H393.504V184.38L394.98 184.416Z" fill="#BDBDBD"/>
<path d="M403.284 178.968V180.168H400.332V184.464H403.932V185.664H398.952V173.616H403.932V174.816H400.332V178.944L403.284 178.968Z" fill="#BDBDBD"/>
<path d="M363.84 203.52C365.712 203.52 366.576 204.72 366.576 206.532V212.628C366.576 214.476 365.712 215.616 363.84 215.616H360.996V203.52H363.84ZM363.84 214.392C364.812 214.392 365.28 213.78 365.28 212.676V206.46C365.28 205.356 364.812 204.756 363.828 204.756H362.4V214.356L363.84 214.392Z" fill="#263238"/>
<path d="M367.74 206.4C367.74 204.552 368.652 203.352 370.5 203.352C372.348 203.352 373.284 204.552 373.284 206.4V212.652C373.34 213.042 373.308 213.44 373.192 213.816C373.075 214.192 372.877 214.538 372.61 214.829C372.344 215.119 372.017 215.347 371.652 215.495C371.287 215.644 370.894 215.71 370.5 215.688C368.652 215.688 367.74 214.488 367.74 212.652V206.4ZM369.06 212.724C369.06 213.828 369.528 214.464 370.5 214.464C371.472 214.464 371.928 213.828 371.928 212.724V206.4C371.928 205.308 371.484 204.648 370.5 204.648C369.516 204.648 369.06 205.308 369.06 206.4V212.724Z" fill="#263238"/>
<path d="M375.744 215.616H374.544V203.52H376.248L379.044 212.268V203.52H380.244V215.616H378.84L375.744 205.836V215.616Z" fill="#263238"/>
<path d="M385.92 208.884V210.084H382.968V214.392H386.568V215.592H381.6V203.52H386.58V204.72H382.98V208.848L385.92 208.884Z" fill="#263238"/>
<path d="M492.372 34.8H256.14V44.424H492.372V34.8Z" fill="#3052C5" stroke="#263238" stroke-width="0.985332" stroke-linecap="round" stroke-linejoin="round"/>
<path d="M98.064 342.324V340.548" stroke="#263238" stroke-width="0.985332" stroke-linecap="round" stroke-linejoin="round"/>
<path d="M98.064 337.032V184.884C98.064 181.81 98.6696 178.766 99.8463 175.926C101.023 173.087 102.748 170.507 104.922 168.333C107.096 166.16 109.677 164.437 112.517 163.262C115.358 162.087 118.402 161.482 121.476 161.484H232.8" stroke="#263238" stroke-width="0.985332" stroke-linecap="round" stroke-linejoin="round" stroke-dasharray="2.93 2.93"/>
<path d="M234.612 161.484H236.376" stroke="#263238" stroke-width="0.985332" stroke-linecap="round" stroke-linejoin="round"/>
<path d="M248.076 162.456L228.948 151.404V173.496L248.076 162.456Z" fill="#263238"/>
<path d="M430.68 490.512H432.456" stroke="#263238" stroke-width="0.985332" stroke-linecap="round" stroke-linejoin="round"/>
<path d="M435.972 490.512H442.536C448.765 490.512 454.738 488.038 459.142 483.634C463.546 479.23 466.02 473.256 466.02 467.028V245.028" stroke="#263238" stroke-width="0.985332" stroke-linecap="round" stroke-linejoin="round" stroke-dasharray="2.93 2.93"/>
<path d="M466.02 243.276V241.512" stroke="#263238" stroke-width="0.985332" stroke-linecap="round" stroke-linejoin="round"/>
<path d="M423.984 489.48L443.112 500.52V478.428L423.984 489.48Z" fill="#263238"/>
<path d="M323.748 345.432C324.768 343.49 326.3 341.865 328.179 340.733C330.058 339.601 332.211 339.006 334.404 339.012H437.064C437.064 339.012 444.48 339.012 442.26 353.112C440.04 367.212 409.608 453.3 402.18 479.268C394.752 505.236 393.276 560.16 393.276 560.16H270.084C270.084 560.16 279.96 429.036 323.748 345.432Z" fill="white" stroke="#263238" stroke-width="0.985332" stroke-linecap="round" stroke-linejoin="round"/>
<path d="M419.256 363.504C408.876 387.72 386.856 483.504 383.352 560.16H393.276C393.276 560.16 394.8 505.2 402.18 479.268C409.56 453.336 440.028 367.212 442.26 353.112C444.492 339.012 437.064 339.012 437.064 339.012C437.064 339.012 427.572 344.088 419.256 363.504Z" fill="#263238" stroke="#263238" stroke-width="0.985332" stroke-linecap="round" stroke-linejoin="round"/>
<path d="M224.04 340.956C224.04 340.956 205.2 338.664 192.756 325.584C180.312 312.504 219.804 265.86 240.888 254.868C261.972 243.876 270.66 246.888 293.268 263.556C315.876 280.224 337.944 306.972 337.668 324.912C337.392 342.852 327.624 351.432 341.268 360.276C354.912 369.12 393.528 394.236 399.168 411.492C404.808 428.748 395.028 450.216 372.384 461.892C349.74 473.568 312.588 473.028 276.804 461.46C241.02 449.892 233.232 413.292 237.84 398.4C242.448 383.508 254.64 373.272 250.968 361.944C247.296 350.616 224.04 340.956 224.04 340.956Z" fill="#263238" stroke="#263238" stroke-width="0.985332" stroke-linecap="round" stroke-linejoin="round"/>
<path d="M240.192 392.4C240.192 392.4 220.704 389.688 211.704 395.508C202.704 401.328 158.232 477.336 158.232 477.336L133.668 444.276L112.368 453.84C112.368 453.84 122.352 492.48 133.968 511.704C145.584 530.928 152.208 532.872 156.192 532.236C168.048 530.352 202.392 490.62 202.392 490.62L214.872 532.14L206.4 562.32H364.2L345.06 530.4C345.06 530.4 370.032 415.2 363.672 402.996C357.312 390.792 320.256 392.4 308.604 392.4H275.244C270.188 393.402 265.05 393.933 259.896 393.984C253.305 393.792 246.729 393.263 240.192 392.4Z" fill="#AD6359"/>
<path d="M345.6 396.288L345.924 396.42L342.9 404.124L342.564 403.992L345.6 396.288ZM344.772 404.856L345.096 404.988L348.132 397.284L347.796 397.152L344.772 404.856ZM358.536 429.372L358.188 429.276L356.856 434.016H357.228L358.536 429.372ZM360.816 430.02L360.468 429.924L359.268 434.016H359.628L360.816 430.02ZM346.416 430.284L347.544 434.016H347.916L346.716 430.176L346.416 430.284ZM349.032 429.504L348.684 429.6L350.016 434.016H350.388L349.032 429.504ZM358.692 411.876L362.808 404.676L362.508 404.496L358.392 411.696L358.692 411.876ZM360.756 413.076L364.608 406.344C364.608 406.14 364.608 405.96 364.536 405.768L360.444 412.908L360.756 413.076ZM363.456 423.312L364.14 422.412L364.212 421.752L363.168 423.096L363.456 423.312ZM353.268 416.004L359.004 422.004L359.256 421.764L353.52 415.764L353.268 416.004ZM351.456 417.6L357.18 423.6L357.444 423.36L351.708 417.36L351.456 417.6ZM345.132 417.6L345.228 417.252L340.8 416.16V416.52L345.132 417.6ZM340.74 414L345.72 415.26L345.804 414.912L340.8 413.712L340.74 414ZM346.296 424.716L346.188 424.38L340.8 426.252V426.624L346.296 424.716ZM345.444 422.124L340.74 423.684V424.056L345.54 422.46L345.444 422.124ZM342.84 489.168L345.864 481.464L345.54 481.332L342.504 489.036L342.84 489.168ZM347.736 482.196L344.712 489.9L345.036 490.032L348.072 482.328L347.736 482.196ZM347.58 518.316L346.656 515.232L346.308 515.328L347.436 519.048L347.58 518.316ZM353.58 466.5L353.244 466.62L356.052 474.408H356.124L356.232 473.868L353.58 466.5ZM355.464 465.816L356.94 469.884C356.94 469.656 357.024 469.428 357.06 469.188L355.8 465.696L355.464 465.816ZM360.72 445.536L360.912 446.172L361.02 445.452L360.72 445.536ZM352.824 445.068L352.344 453.324H352.692L353.172 445.056L352.824 445.068ZM354.708 453.468H355.056L355.536 445.2H355.188L354.708 453.468ZM344.616 444.708L344.784 444.396L340.704 442.2V442.608L344.616 444.708ZM340.704 439.908L345.732 442.608L345.9 442.296L340.8 439.596L340.704 439.908ZM343.848 452.4L343.62 452.136L340.8 454.8V455.268L343.848 452.4ZM342.3 450.612L342.072 450.336L340.704 451.536V452.004L342.3 450.612ZM340.8 464.808V465.18L348.264 462.264L348.132 461.94L340.8 464.808ZM340.8 462.264V462.648L347.4 460.068L347.268 459.732L340.8 462.264ZM345.204 477.288L345.288 476.94L340.8 475.932V476.292L345.204 477.288ZM345.72 474.984L345.804 474.636L340.8 473.508V473.868L345.72 474.984ZM345.132 502.8L345.228 502.464L340.74 501.324V501.696L345.132 502.8ZM340.8 499.2L345.78 500.472L345.864 500.124L340.8 498.852V499.2ZM346.356 509.916L346.248 509.58L340.8 511.38V511.764L346.356 509.916ZM345.612 507.672L345.504 507.336L340.8 508.896V509.268L345.612 507.672ZM356.28 437.328L357.228 434.004H356.856L355.944 437.232L356.28 437.328ZM359.676 434.004H359.316L358.224 437.868L358.56 437.976L359.676 434.004ZM348.756 438.192L349.104 438.096L347.904 434.004H347.532L348.756 438.192ZM351.36 437.412L350.34 434.004H349.968L351.024 437.52L351.36 437.412ZM353.34 551.832L356.148 559.608L356.484 559.488L353.676 551.712L353.34 551.832ZM358.704 558.684L355.896 550.908L355.56 551.028L358.38 558.804L358.704 558.684ZM362.676 560.604L362.328 560.508L361.824 562.308H362.196L362.676 560.604ZM340.8 527.82L344.712 529.92L344.88 529.608L340.8 527.412V527.82ZM340.8 525.132L345.6 527.76L345.672 527.4L340.8 524.736V525.132ZM343.884 537.6L343.656 537.324L340.8 539.88V540.336L343.884 537.6ZM342.336 535.8L342.108 535.536L340.74 536.736V537.204L342.336 535.8ZM348.072 547.032L340.8 549.936V550.32L348.264 547.392L348.072 547.032ZM340.74 547.74L347.34 545.16L347.208 544.836L340.74 547.356V547.74ZM340.74 561.024V561.396L344.712 562.284H345.168L345.228 562.044L340.74 561.024ZM345.66 560.076L345.744 559.728L340.74 558.6V558.972L345.66 560.076ZM257.376 403.956L257.7 404.088L260.736 396.384L260.4 396.252L257.376 403.956ZM259.572 404.82L259.908 404.952L262.932 397.248L262.608 397.116L259.572 404.82ZM337.116 415.56L340.716 416.484V416.124L337.176 415.224L337.116 415.56ZM337.788 412.932L337.692 413.268L340.74 414.048V413.676L337.788 412.932ZM340.8 426.624V426.252L338.4 427.056L338.508 427.392L340.8 426.624ZM337.584 424.8L337.692 425.136L340.74 424.128V423.756L337.584 424.8ZM331.2 434.016H331.608L333.168 431.304L332.868 431.124L331.2 434.016ZM333.936 434.016H334.344L335.22 432.48L334.92 432.3L333.936 434.016ZM316.092 430.704L315.816 430.932L318.348 434.016H318.804L316.092 430.704ZM317.652 429.432L321.408 434.016H321.864L317.928 429.216L317.652 429.432ZM308.7 433.476L308.376 433.596L308.52 434.016H308.904L308.7 433.476ZM310.596 432.792L311.04 433.992H311.412L310.932 432.648L310.596 432.792ZM297.612 433.992L298.632 429.972L298.284 429.888L297.24 433.992H297.612ZM300.576 430.464L299.676 433.992H300L300.876 430.56L300.576 430.464ZM273.372 429.348L273.024 429.252L271.68 433.992H272.052L273.372 429.348ZM275.64 429.996L275.304 429.9L274.104 433.992H274.476L275.64 429.996ZM261.24 430.26L262.368 433.992H262.74L261.54 430.152L261.24 430.26ZM263.844 429.48L263.508 429.576L264.84 433.992H265.2L263.844 429.48ZM273.516 411.852L277.632 404.652L277.32 404.472L273.204 411.672L273.516 411.852ZM275.268 412.86L275.568 413.028L279.684 405.828L279.372 405.648L275.268 412.86ZM322.224 418.14L329.844 421.368L329.976 421.044L322.356 417.816L322.224 418.14ZM321.3 420.312L328.92 423.54L329.052 423.216L321.372 420L321.3 420.312ZM327.72 407.88L328.056 407.976L330.312 400.02L329.964 399.912L327.72 407.88ZM329.988 408.528L330.336 408.624L332.58 400.656L332.244 400.56L329.988 408.528ZM317.604 393.72L320.004 401.64L320.34 401.544L318 393.6L317.604 393.72ZM319.86 393.036L322.26 400.956L322.596 400.86L320.196 392.94L319.86 393.036ZM293.712 426.96L291.312 419.04L290.976 419.136L293.376 427.068L293.712 426.96ZM295.98 426.276L293.58 418.356L293.232 418.452L295.632 426.384L295.98 426.276ZM305.34 421.692L313.536 420.492V420.144L305.34 421.344V421.692ZM305.676 424.032L313.872 422.832V422.484L305.676 423.684V424.032ZM311.676 413.94L312.024 414.024L313.872 405.96L313.524 405.876L311.676 413.94ZM315.828 406.404L313.98 414.468L314.328 414.552L316.176 406.488L315.828 406.404ZM286.8 409.344L287.1 409.536L291.528 402.54L291.228 402.36L286.8 409.344ZM293.532 403.812L293.232 403.62L288.804 410.616L289.104 410.808L293.532 403.812ZM285.84 395.76L293.424 392.448V392.364H292.776L285.732 395.436L285.84 395.76ZM286.644 397.596L286.788 397.92L294.372 394.62L294.228 394.296L286.644 397.596ZM279.444 392.364H279.072L277.2 398.868L277.548 398.964L279.444 392.364ZM275.304 398.364L276.984 392.364H276.612L274.956 398.22L275.304 398.364ZM307.776 394.908L306.96 392.4H306.588L307.368 394.992L307.776 394.908ZM305.172 395.688L305.52 395.592L304.56 392.412H304.188L305.172 395.688ZM278.004 423.12L278.28 423.336L283.32 416.772L283.032 416.556L278.004 423.12ZM279.876 424.56L280.164 424.776L285.192 418.2L284.916 417.984L279.876 424.56ZM268.092 416.028L273.828 422.028L274.092 421.788L268.356 415.788L268.092 416.028ZM266.316 417.6L272.052 423.6L272.304 423.36L266.58 417.36L266.316 417.6ZM297.732 406.992L297.588 407.316L305.208 410.556L305.352 410.22L297.732 406.992ZM298.512 405.144L306.132 408.372L306.276 408.048L298.656 404.82L298.512 405.144ZM260.004 417.6L260.088 417.252L255.6 416.16V416.52L260.004 417.6ZM255.612 414L260.58 415.26L260.676 414.912L255.6 413.712L255.612 414ZM261.168 424.716L261.048 424.38L255.6 426.252V426.624L261.168 424.716ZM260.304 422.124L255.612 423.684V424.056L260.412 422.46L260.304 422.124ZM260.4 481.332L257.376 489.036L257.7 489.168L260.736 481.464L260.4 481.332ZM262.608 482.196L259.572 489.9L259.908 490.032L262.932 482.328L262.608 482.196ZM337.368 440.784L340.74 442.608V442.2L337.536 440.472L337.368 440.784ZM338.652 438.384L338.484 438.684L340.74 439.884V439.476L338.652 438.384ZM340.8 454.8L337.452 457.704L337.68 457.968L340.8 455.268V454.8ZM336.132 456.18L340.8 452.148V451.68L335.904 455.904L336.132 456.18ZM340.428 465.012L340.548 465.348L340.8 465.24V464.868L340.428 465.012ZM339.564 462.816L339.684 463.14L340.8 462.708V462.324L339.564 462.816ZM340.764 476.016L337.164 475.2L337.08 475.548L340.752 476.376L340.764 476.016ZM340.764 473.616L337.692 472.92L337.62 473.268L340.764 473.976V473.616ZM340.764 501.396L337.2 500.4L337.116 500.748L340.716 501.672L340.764 501.396ZM337.812 498.204L337.716 498.552L340.8 499.2V498.84L337.812 498.204ZM340.8 511.764V511.38L338.4 512.184L338.508 512.52L340.8 511.764ZM340.8 509.268V508.896L337.644 509.94L337.752 510.276L340.8 509.268ZM292.08 438.216L284.46 434.976L284.328 435.3L291.948 438.54L292.08 438.216ZM283.404 437.484L291.024 440.712L291.156 440.388L283.536 437.16L283.404 437.484ZM333.144 516.432L332.844 516.264L331.2 519.156H331.608L333.144 516.432ZM335.196 517.632L334.896 517.452L333.912 519.18H334.32L335.196 517.632ZM315.792 516.084L318.324 519.18H318.78L316.068 515.856L315.792 516.084ZM317.628 514.584L321.384 519.18H321.84L317.904 514.38L317.628 514.584ZM308.676 518.64L308.352 518.76L308.496 519.18H308.88L308.676 518.64ZM310.572 517.956L311.016 519.156H311.388L310.908 517.812L310.572 517.956ZM298.572 515.16L298.224 515.064L297.18 519.18H297.6L298.572 515.16ZM300.516 515.652L299.616 519.18H300L300.876 515.736L300.516 515.652ZM273.312 514.524L272.964 514.428L271.62 519.228H271.992L273.312 514.524ZM275.58 515.172L275.244 515.076L274.044 519.18H274.416L275.58 515.172ZM261.18 515.436L262.308 519.18H262.68L261.48 515.34L261.18 515.436ZM263.448 514.764L264.78 519.18H265.14L263.784 514.656L263.448 514.764ZM277.26 489.684L273.144 496.884L273.456 497.064L277.572 489.864L277.26 489.684ZM279.66 491.028L279.348 490.848L275.244 498.048L275.544 498.228L279.66 491.028ZM313.128 451.596L307.848 445.2L307.584 445.428L312.816 451.836L313.128 451.596ZM311.304 453.096L306 446.664L305.724 446.892L310.968 453.3L311.304 453.096ZM298.332 449.592L301.14 457.368L301.476 457.248L298.668 449.472L298.332 449.592ZM300.564 448.788L303.372 456.564L303.696 456.444L300.888 448.668L300.564 448.788ZM329.952 506.22L322.332 502.992L322.2 503.316L329.82 506.544L329.952 506.22ZM329.028 508.404L321.408 505.164L321.276 505.5L328.896 508.728L329.028 508.404ZM329.94 485.1L327.696 493.068L328.032 493.164L330.288 485.196L329.94 485.1ZM332.556 485.844L332.22 485.748L329.964 493.704L330.312 493.8L332.556 485.844ZM320.352 486.696L317.952 478.776L317.616 478.872L320.016 486.804L320.352 486.696ZM322.62 486.012L320.22 478.092L319.872 478.188L322.272 486.12L322.62 486.012ZM298.62 465.288L294.504 472.488L294.804 472.656L298.92 465.456L298.62 465.288ZM296.868 464.292L296.556 464.112L292.452 471.312L292.752 471.48L296.868 464.292ZM282.888 470.832L277.644 464.4L277.368 464.628L282.612 471.036L282.888 470.832ZM284.712 469.332L279.48 462.924L279.204 463.152L284.436 469.56L284.712 469.332ZM268.152 466.728L270.96 474.516L271.296 474.396L268.476 466.608L268.152 466.728ZM270.372 465.924L273.18 473.712L273.516 473.592L270.708 465.804L270.372 465.924ZM327.6 472.224L327.948 472.308L329.988 464.292L329.64 464.196L327.6 472.224ZM332.28 464.868L331.932 464.784L329.892 472.8L330.24 472.884L332.28 464.868ZM318.744 471.6L311.124 468.372L310.992 468.696L318.612 471.936L318.744 471.6ZM319.668 469.428L312 466.2L311.868 466.524L319.488 469.752L319.668 469.428ZM293.712 512.1L291.312 504.168L290.976 504.276L293.376 512.196L293.712 512.1ZM295.98 511.416L293.58 503.484L293.232 503.592L295.632 511.512L295.98 511.416ZM313.536 505.668V505.32L305.34 506.52V506.868L313.536 505.668ZM313.872 508.008V507.66L305.676 508.86V509.208L313.872 508.008ZM312 499.2L313.848 491.136L313.5 491.052L311.652 499.128L312 499.2ZM314.304 499.728L316.152 491.664L315.804 491.58L313.956 499.656L314.304 499.728ZM291.504 487.728L291.204 487.536L286.8 494.484L287.1 494.676L291.504 487.728ZM293.508 488.988L293.208 488.796L288.78 495.792L289.08 495.984L293.508 488.988ZM293.4 477.624L293.268 477.3L285.672 480.612L285.816 480.936L293.4 477.624ZM294.348 479.796L294.204 479.472L286.62 482.784L286.764 483.108L294.348 479.796ZM279.768 476.196L279.432 476.088L277.2 483.996L277.548 484.092L279.768 476.196ZM275.244 483.516L277.488 475.548L277.152 475.452L274.896 483.42L275.244 483.516ZM307.704 480L305.304 472.08L304.956 472.176L307.356 480.108L307.704 480ZM302.724 472.8L305.124 480.72L305.472 480.624L303.072 472.704L302.724 472.8ZM291.216 452.4L284.604 457.392L284.82 457.668L291.432 452.688L291.216 452.4ZM286.248 459.6L292.848 454.608L292.644 454.332L286.032 459.312L286.248 459.6ZM280.536 452.748L278.244 444.792L277.896 444.9L280.2 452.844L280.536 452.748ZM275.628 445.548L277.92 453.6L278.268 453.504L276 445.524L275.628 445.548ZM267.732 445.08L267.252 453.336H267.6L268.08 445.068L267.732 445.08ZM269.604 453.48H269.964L270.444 445.212H270.084L269.604 453.48ZM283.2 501.852L282.912 501.636L277.884 508.212L278.16 508.428L283.2 501.852ZM285.072 503.292L284.796 503.076L279.756 509.652L280.044 509.868L285.072 503.292ZM267.972 501.108L273.708 507.108L273.972 506.856L268.236 500.856L267.972 501.108ZM266.316 502.8L272.052 508.8L272.304 508.56L266.58 502.56L266.316 502.8ZM326.58 456.708L326.304 456.492L321.096 462.924L321.372 463.152L326.58 456.708ZM324.468 455.004L319.26 461.436L319.536 461.664L324.732 455.22L324.468 455.004ZM325.92 442.8H325.572L324.636 451.02H324.996L325.92 442.8ZM323.22 442.488L322.296 450.72H322.644L323.568 442.5L323.22 442.488ZM305.352 495.408L297.732 492.18L297.588 492.504L305.208 495.732L305.352 495.408ZM298.512 490.32L306.132 493.548L306.276 493.224L298.656 489.996L298.512 490.32ZM259.524 444.828L259.692 444.516L255.612 442.32V442.728L259.524 444.828ZM255.612 440.028L260.64 442.728L260.808 442.416L255.6 439.596L255.612 440.028ZM258.756 452.52L258.516 452.256L255.6 454.8V455.268L258.756 452.52ZM257.208 450.732L256.968 450.456L255.612 451.656V452.124L257.208 450.732ZM262.932 461.964L255.612 464.832V465.204L263.064 462.288L262.932 461.964ZM262.2 460.092L262.08 459.756L255.6 462.264V462.648L262.2 460.092ZM260.016 477.312L260.088 476.964L255.612 475.956V476.316L260.016 477.312ZM255.6 473.868L260.52 474.984L260.604 474.636L255.6 473.508V473.868ZM260.004 502.8L260.088 502.464L255.612 501.324V501.696L260.004 502.8ZM255.6 499.2L260.568 500.472L260.664 500.124L255.6 498.852V499.2ZM261.156 509.916L261.036 509.58L255.6 511.38V511.764L261.156 509.916ZM260.412 507.672L260.292 507.336L255.6 508.896V509.268L260.412 507.672ZM328.716 438.3L329.016 438.468L331.572 434.004H331.2L328.716 438.3ZM330.768 439.5L331.068 439.668L334.308 434.028H333.9L330.768 439.5ZM321.3 437.1L318.768 434.004H318.312L321.024 437.316L321.3 437.1ZM322.86 435.828L323.136 435.6L321.828 434.004H321.372L322.86 435.828ZM311.484 441.252L308.868 434.052H308.484L311.148 441.42L311.484 441.252ZM313.368 440.568L313.704 440.448L311.376 434.004H311.004L313.368 440.568ZM296.208 437.916L296.556 438L297.576 434.004H297.204L296.208 437.916ZM298.5 438.504L298.848 438.588L300.048 434.004H299.676L298.5 438.504ZM271.08 437.304L272.016 433.98H271.644L270.732 437.208L271.08 437.304ZM274.476 433.98H274.104L273.012 437.844L273.36 437.952L274.476 433.98ZM263.556 438.168L263.892 438.072L262.692 433.98H262.32L263.556 438.168ZM266.16 437.388L265.128 433.98H264.768L265.812 437.496L266.16 437.388ZM337.524 525.648L337.356 525.96L340.728 527.784V527.376L337.524 525.648ZM338.64 523.572L338.472 523.884L340.728 525.084V524.688L338.64 523.572ZM340.8 540.336V539.88L337.452 542.772L337.68 543.036L340.8 540.336ZM340.8 537.216V536.748L335.904 540.984L336.132 541.248L340.8 537.216ZM340.428 550.08L340.548 550.416L340.8 550.32V549.936L340.428 550.08ZM339.564 547.884L339.684 548.22L340.8 547.776V547.392L339.564 547.884ZM337.164 560.256L337.08 560.604L340.752 561.432V561.06L337.164 560.256ZM340.764 558.636L337.692 557.94L337.62 558.288L340.764 559.008V558.636ZM292.08 523.344L284.46 520.116L284.328 520.44L291.948 523.668L292.08 523.344ZM283.404 522.612L291.024 525.852L291.156 525.516L283.536 522.288L283.404 522.612ZM307.584 530.52L312.816 536.928L313.092 536.7L307.848 530.304L307.584 530.52ZM311.268 538.2L306 531.804L305.724 532.02L310.968 538.428L311.268 538.2ZM301.44 542.4L298.632 534.612L298.296 534.732L301.104 542.52L301.44 542.4ZM303.66 541.596L300.852 533.808L300.528 533.928L303.336 541.716L303.66 541.596ZM298.86 550.608L298.56 550.428L294.444 557.628L294.744 557.808L298.86 550.608ZM296.808 549.408L296.496 549.24L292.392 556.44L292.692 556.62L296.808 549.408ZM282.828 555.948L277.644 549.6L277.368 549.816L282.612 556.224L282.828 555.948ZM284.652 554.448L279.42 548.052L279.144 548.268L284.376 554.676L284.652 554.448ZM271.236 559.512L268.416 551.736L268.092 551.856L270.9 559.632L271.236 559.512ZM273.456 558.708L270.648 550.932L270.312 551.052L273.12 558.828L273.456 558.708ZM329.856 549.432L329.508 549.348L327.468 557.364L327.816 557.448L329.856 549.432ZM332.148 550.008L331.8 549.924L329.76 557.952L330.108 558.036L332.148 550.008ZM318.744 556.8L311.124 553.572L310.992 553.896L318.612 557.124L318.744 556.8ZM319.668 554.616L312 551.328L311.868 551.652L319.488 554.892L319.668 554.616ZM279.42 561.228L279.084 562.428H279.456L279.756 561.372L279.42 561.228ZM277.476 560.676L277.14 560.58L276.624 562.38H276.996L277.476 560.676ZM304.98 557.364L306.492 562.38H306.864L305.328 557.256L304.98 557.364ZM303.06 557.94L302.724 558.036L304.02 562.38H304.392L303.06 557.94ZM291.432 537.984L291.216 537.708L284.604 542.688L284.82 542.976L291.432 537.984ZM292.848 539.88L292.644 539.592L286.032 544.572L286.248 544.86L292.848 539.88ZM280.2 538.116L280.536 538.008L278.244 530.064L277.896 530.16L280.2 538.116ZM278.268 538.668L276 530.664L275.664 530.76L277.956 538.704L278.268 538.668ZM267.6 538.668L268.08 530.412H267.732L267.252 538.68L267.6 538.668ZM270 538.812L270.48 530.544H270.12L269.64 538.8L270 538.812ZM326.616 541.908L326.34 541.68L321.132 548.112L321.408 548.34L326.616 541.908ZM324.504 540.192L319.296 546.624L319.572 546.852L324.768 540.42L324.504 540.192ZM325.956 528H325.608L324.672 536.22H325.032L325.956 528ZM323.256 527.7L322.332 535.92H322.68L323.604 527.688L323.256 527.7ZM259.56 530.028L259.728 529.716L255.648 527.52V527.928L259.56 530.028ZM260.844 527.628L255.6 524.736V525.132L260.628 527.844L260.844 527.628ZM258.756 537.6L258.516 537.324L255.6 539.868V540.336L258.756 537.6ZM257.208 535.8L256.968 535.536L255.612 536.736V537.204L257.208 535.8ZM262.932 547.032L255.612 549.9V550.284L263.064 547.356L262.932 547.032ZM255.612 547.74L262.2 545.16L262.08 544.836L255.612 547.356V547.74ZM255.612 561.024V561.396L259.584 562.284H260.028L260.088 562.044L255.612 561.024ZM260.532 560.076L260.616 559.728L255.612 558.6V558.972L260.532 560.076ZM329.028 523.584L331.584 519.12H331.2L328.8 523.404L329.028 523.584ZM333.912 519.12L330.78 524.58L331.08 524.76L334.32 519.12H333.912ZM321.036 522.432L321.312 522.204L318.78 519.12H318.324L321.036 522.432ZM322.872 520.932L323.148 520.704L321.84 519.12H321.384L322.872 520.932ZM311.496 526.356L308.88 519.156H308.496L311.16 526.512L311.496 526.356ZM313.38 525.684L313.716 525.552L311.388 519.12H311.016L313.38 525.684ZM296.58 523.116L297.6 519.12H297.228L296.232 523.032L296.58 523.116ZM298.524 523.608L298.872 523.692L300.072 519.12H299.7L298.524 523.608ZM271.104 522.408L272.04 519.096H271.668L270.756 522.312L271.104 522.408ZM274.128 519.096L273.036 522.96L273.384 523.056L274.5 519.096H274.128ZM263.58 523.284L263.916 523.176L262.716 519.096H262.344L263.58 523.284ZM265.836 522.6L266.184 522.504L265.152 519.096H264.792L265.836 522.6ZM252 415.596L255.6 416.52V416.16L252.06 415.26L252 415.596ZM252.672 412.968L252.588 413.304L255.636 414.084V413.712L252.672 412.968ZM255.6 426.624V426.252L253.2 427.056L253.32 427.392L255.6 426.624ZM252.456 424.8L252.564 425.136L255.612 424.128V423.756L252.456 424.8ZM246 434.016H246.408L247.968 431.304L247.656 431.124L246 434.016ZM248.724 434.016H249.132L250.02 432.48L249.708 432.3L248.724 434.016ZM230.892 430.704L230.616 430.932L233.148 434.016H233.604L230.892 430.704ZM232.452 429.432L236.196 434.016H236.664L232.728 429.216L232.452 429.432ZM223.5 433.476L223.164 433.596L223.32 434.016H223.692L223.5 433.476ZM225.396 432.792L225.828 433.992H226.212L225.732 432.648L225.396 432.792ZM212.4 433.992L213.42 429.972L213.084 429.888L212.04 433.992H212.4ZM215.376 430.464L214.476 433.992H214.848L215.712 430.56L215.376 430.464ZM186.852 433.992L188.16 429.348L187.824 429.252L186.48 433.992H186.852ZM190.452 429.996L190.104 429.9L188.904 433.992H189.276L190.452 429.996ZM236.988 418.14L244.608 421.368L244.752 421.044L237.132 417.816L236.988 418.14ZM236.064 420.312L243.72 423.6L243.864 423.276L236.244 420L236.064 420.312ZM242.484 407.88L242.832 407.976L245.076 400.02L244.74 399.912L242.484 407.88ZM244.764 408.528L245.1 408.624L247.356 400.656L247.02 400.56L244.764 408.528ZM232.464 393.72L234.864 401.64L235.2 401.544L232.8 393.6L232.464 393.72ZM234.732 393.036L237.132 400.956L237.468 400.86L235.068 392.94L234.732 393.036ZM205.86 419.136L208.26 427.068L208.596 426.96L206.196 419.04L205.86 419.136ZM210.852 426.336L208.452 418.416L208.116 418.512L210.516 426.444L210.852 426.336ZM220.212 421.752L228.408 420.552V420.204L220.212 421.404V421.752ZM220.488 423.744V424.092L228.684 422.892V422.544L220.488 423.744ZM228.72 406.02L228.372 405.936L226.536 414L226.872 414.084L228.72 406.02ZM230.688 406.464L228.84 414.528L229.176 414.612L231.024 406.548L230.688 406.464ZM201.6 409.344L201.9 409.536L206.328 402.54L206.028 402.36L201.6 409.344ZM203.604 410.616L203.904 410.808L208.332 403.812L208.032 403.62L203.604 410.616ZM222.54 394.86L221.772 392.304H221.412L222.204 394.908L222.54 394.86ZM219.936 395.64L220.272 395.544L219.42 392.688L219.072 392.76L219.936 395.64ZM192.768 423.072L193.044 423.288L198.072 416.724L197.796 416.508L192.768 423.072ZM199.968 418.152L199.68 417.936L194.652 424.512L194.94 424.728L199.968 418.152ZM212.568 407.004L212.436 407.328L220.056 410.568L220.188 410.232L212.568 407.004ZM213.36 405.156L220.98 408.384L221.112 408.06L213.492 404.832L213.36 405.156ZM175.248 481.416L172.224 489.12L172.548 489.252L175.572 481.548L175.248 481.416ZM177.444 482.28L174.42 489.984L174.744 490.116L177.78 482.412L177.444 482.28ZM252.204 440.868L255.588 442.692V442.284L252.372 440.556L252.204 440.868ZM253.5 438.468L253.332 438.768L255.588 439.968V439.56L253.5 438.468ZM255.6 454.8L252.24 457.704L252.48 457.968L255.6 455.268V454.8ZM250.932 456.18L255.6 452.148V451.68L250.704 455.904L250.932 456.18ZM255.216 465.012L255.348 465.348L255.6 465.24V464.868L255.216 465.012ZM255.6 462.324L254.4 462.816L254.532 463.14L255.648 462.708L255.6 462.324ZM255.6 475.992L252 475.176L251.928 475.524L255.6 476.352V475.992ZM252.528 472.872L252.444 473.22L255.6 473.928V473.568L252.528 472.872ZM255.6 501.288L252.06 500.388L251.964 500.736L255.564 501.66L255.6 501.288ZM252.636 498.096L252.552 498.444L255.6 499.2V498.84L252.636 498.096ZM255.6 511.764V511.38L253.2 512.184L253.32 512.52L255.6 511.764ZM255.6 509.268V508.896L252.444 509.94L252.552 510.276L255.6 509.268ZM199.2 435.3L206.82 438.54L206.964 438.216L199.344 434.976L199.2 435.3ZM198.276 437.484L205.896 440.712L206.04 440.388L198.42 437.16L198.276 437.484ZM248.028 516.432L247.716 516.264L246 519.156H246.408L248.028 516.432ZM250.08 517.632L249.768 517.452L248.784 519.18H249.192L250.08 517.632ZM230.676 516.084L233.208 519.18H233.664L230.952 515.856L230.676 516.084ZM232.512 514.584L236.256 519.18H236.724L232.788 514.38L232.512 514.584ZM223.56 518.64L223.224 518.76L223.38 519.18H223.752L223.56 518.64ZM225.456 517.956L225.888 519.156H226.272L225.792 517.812L225.456 517.956ZM212.1 519.156H212.46L213.48 515.136L213.144 515.04L212.1 519.156ZM215.436 515.628L214.536 519.156H214.908L215.772 515.712L215.436 515.628ZM176.4 515.316L176.064 515.412L176.724 517.596L177.012 517.332L176.4 515.316ZM178.668 514.632L178.32 514.74L178.644 515.772L178.92 515.496L178.668 514.632ZM192.456 489.828L192.144 489.66L188.028 496.86L188.34 497.04L192.456 489.828ZM190.392 498.228L194.508 491.028L194.196 490.848L190.08 498.048L190.392 498.228ZM228 451.572L222.72 445.2L222.444 445.428L227.688 451.836L228 451.572ZM226.164 453.072L220.92 446.664L220.656 446.892L225.888 453.3L226.164 453.072ZM213.204 449.568L216.012 457.344L216.348 457.224L213.54 449.448L213.204 449.568ZM215.424 448.764L218.232 456.54L218.568 456.42L215.76 448.644L215.424 448.764ZM244.8 506.196L237.18 502.968L237.036 503.292L244.656 506.52L244.8 506.196ZM243.876 508.38L236.256 505.14L236.112 505.476L243.732 508.704L243.876 508.38ZM244.788 485.076L242.532 493.044L242.88 493.14L245.124 485.172L244.788 485.076ZM247.404 485.82L247.068 485.724L244.8 493.68L245.136 493.776L247.404 485.82ZM235.2 486.672L232.8 478.752L232.464 478.848L234.864 486.78L235.2 486.672ZM237.468 485.988L235.068 478.068L234.732 478.164L237.132 486.096L237.468 485.988ZM213.468 465.264L209.352 472.464L209.664 472.632L213.78 465.432L213.468 465.264ZM211.416 464.064L207.3 471.264L207.612 471.432L211.728 464.232L211.416 464.064ZM192.216 464.604L197.46 471.012L197.724 470.784L192.516 464.4L192.216 464.604ZM194.04 463.104L199.284 469.512L199.56 469.284L194.4 462.9L194.04 463.104ZM182.988 466.704L185.796 474.492L186.132 474.372L183.324 466.584L182.988 466.704ZM185.22 465.9L188.028 473.688L188.352 473.568L185.544 465.78L185.22 465.9ZM242.4 472.224L242.748 472.308L244.776 464.292L244.44 464.196L242.4 472.224ZM247.08 464.868L246.732 464.784L244.692 472.8L245.04 472.884L247.08 464.868ZM233.616 471.6L225.996 468.372L225.852 468.696L233.472 471.936L233.616 471.6ZM234.54 469.428L226.92 466.2L226.776 466.524L234.396 469.752L234.54 469.428ZM208.14 503.592L210.54 511.512L210.876 511.416L208.476 503.484L208.14 503.592ZM228.42 505.668V505.32L220.224 506.52V506.868L228.42 505.668ZM228.744 508.008V507.66L220.548 508.86V509.208L228.744 508.008ZM226.872 499.2L228.72 491.136L228.372 491.052L226.536 499.128L226.872 499.2ZM229.176 499.728L231.024 491.664L230.688 491.58L228.84 499.656L229.176 499.728ZM206.064 487.536L202.944 492.468L203.076 492.924L206.4 487.68L206.064 487.536ZM208.068 488.796L203.844 495.468L203.976 495.912L208.368 488.988L208.068 488.796ZM200.532 480.612L200.676 480.936L208.26 477.624L208.116 477.3L200.532 480.612ZM209.208 479.796L209.064 479.472L201.48 482.784L201.612 483.108L209.208 479.796ZM194.628 476.196L194.28 476.088L192 483.996L192.336 484.092L194.628 476.196ZM190.092 483.516L192.348 475.548L192.012 475.452L189.756 483.42L190.092 483.516ZM222.576 480L220.176 472.08L219.84 472.176L222.24 480.108L222.576 480ZM217.584 472.8L219.984 480.72L220.32 480.624L217.92 472.704L217.584 472.8ZM206.076 452.4L199.476 457.392L199.692 457.668L206.292 452.688L206.076 452.4ZM200.892 459.276L201.108 459.564L207.72 454.572L207.504 454.296L200.892 459.276ZM192.768 444.876L195.06 452.82L195.408 452.724L193.104 444.768L192.768 444.876ZM190.5 445.524L192.792 453.48L193.128 453.384L190.8 445.524H190.5ZM182.1 453.312H182.46L182.94 445.044H182.58L182.1 453.312ZM185.292 445.212H184.944L184.464 453.48H184.812L185.292 445.212ZM188.196 506.04L183.132 500.772L182.88 501.012L187.956 506.292L188.196 506.04ZM181.428 502.44L181.2 502.8L186.336 508.14L186.576 507.888L181.428 502.44ZM241.428 456.6L241.152 456.384L235.956 462.816L236.232 463.044L241.428 456.6ZM239.316 454.896L234.108 461.328L234.384 461.556L239.592 455.112L239.316 454.896ZM240.792 442.8H240.432L239.508 451.02H239.856L240.792 442.8ZM238.08 442.488L237.156 450.72H237.516L238.44 442.5L238.08 442.488ZM220.212 495.408L212.592 492.18L212.46 492.504L220.08 495.732L220.212 495.408ZM221.136 493.224L213.516 489.996L213.384 490.32L221.004 493.548L221.136 493.224ZM173.616 452.532L173.388 452.268L173.112 452.508L172.512 453.492L173.616 452.532ZM177.804 461.976L170.484 464.844V465.216L177.936 462.3L177.804 461.976ZM177.072 460.104L176.94 459.768L170.484 462.3V462.684L177.072 460.104ZM174.876 477.324L174.96 476.976L170.484 475.968V476.328L174.876 477.324ZM175.404 475.02L175.476 474.672L170.484 473.544V473.904L175.404 475.02ZM174.864 502.8L174.96 502.464L170.484 501.324V501.696L174.864 502.8ZM170.484 499.2L175.452 500.472L175.536 500.124L170.484 498.84V499.2ZM176.028 509.916L175.92 509.58L170.484 511.368V511.752L176.028 509.916ZM175.284 507.672L175.176 507.336L170.484 508.884V509.256L175.284 507.672ZM243.6 438.312L243.912 438.48L246.468 434.016H246L243.6 438.312ZM245.652 439.512L245.964 439.68L249.192 434.04H248.784L245.652 439.512ZM236.196 437.112L233.664 434.016H233.208L235.92 437.328L236.196 437.112ZM237.744 435.84L238.02 435.612L236.724 434.016H236.256L237.744 435.84ZM226.368 441.264L223.752 434.064H223.38L226.032 441.432L226.368 441.264ZM228.264 440.58L228.6 440.46L226.272 434.016H225.888L228.264 440.58ZM211.104 437.928L211.452 438.012L212.46 434.016H212.1L211.104 437.928ZM213.396 438.516L213.732 438.6L214.932 434.016H214.56L213.396 438.516ZM185.628 437.244L185.976 437.34L186.912 434.016H186.54L185.628 437.244ZM189.372 434.016H189L187.908 437.88L188.244 437.988L189.372 434.016ZM252.24 525.996L255.624 527.82V527.412L252.408 525.684L252.24 525.996ZM253.536 523.596L253.368 523.908L255.624 525.108V524.712L253.536 523.596ZM255.6 540.336V539.868L252.24 542.772L252.48 543.036L255.6 540.336ZM255.6 537.216V536.748L250.704 540.984L250.932 541.248L255.6 537.216ZM255.216 550.08L255.348 550.416L255.6 550.32V549.936L255.216 550.08ZM254.352 547.884L254.484 548.22L255.6 547.776V547.392L254.352 547.884ZM251.952 560.256L251.88 560.604L255.552 561.432V561.06L251.952 560.256ZM255.552 558.636L252.48 557.94L252.396 558.288L255.552 559.008V558.636ZM222.444 530.52L227.688 536.928L227.964 536.7L222.72 530.304L222.444 530.52ZM226.128 538.2L220.884 531.804L220.62 532.02L225.852 538.428L226.128 538.2ZM216.312 542.4L213.912 535.704L213.744 536.292L215.988 542.52L216.312 542.4ZM218.532 541.596L215.724 533.808L215.388 533.928L218.196 541.716L218.532 541.596ZM213.732 550.608L213.42 550.428L209.304 557.628L209.616 557.808L213.732 550.608ZM211.332 549.264L208.8 553.8L208.404 555.204L211.728 549.396L211.332 549.264ZM244.704 549.456L244.368 549.372L242.328 557.388L242.676 557.472L244.704 549.456ZM247.008 550.032L246.66 549.948L244.62 557.976L244.968 558.06L247.008 550.032ZM233.616 556.8L225.996 553.572L225.852 553.896L233.472 557.124L233.616 556.8ZM234.54 554.616L226.92 551.388L226.776 551.712L234.396 554.952L234.54 554.616ZM219.852 557.364L221.364 562.38H221.736L220.188 557.256L219.852 557.364ZM217.932 557.94L217.584 558.036L218.892 562.38H219.264L217.932 557.94ZM241.44 541.86L241.164 541.632L235.968 548.064L236.244 548.292L241.44 541.86ZM239.328 540.144L234.12 546.576L234.396 546.804L239.604 540.372L239.328 540.144ZM240.792 527.952H240.432L239.508 536.172H239.856L240.792 527.952ZM238.08 527.652L237.156 535.872H237.516L238.44 527.64L238.08 527.652ZM243.9 523.68L246.456 519.216H246L243.6 523.5L243.9 523.68ZM248.772 519.216L245.64 524.676L245.952 524.856L249.18 519.216H248.772ZM235.908 522.528L236.184 522.3L233.652 519.216H233.196L235.908 522.528ZM237.732 521.028L238.008 520.8L236.712 519.216H236.244L237.732 521.028ZM226.356 526.452L223.74 519.252H223.368L226.02 526.608L226.356 526.452ZM228.252 525.78L228.588 525.648L226.26 519.216H225.876L228.252 525.78ZM211.572 521.208L211.776 521.868L212.448 519.216H212.088L211.572 521.208ZM213.384 523.704L213.72 523.788L214.92 519.216H214.548L213.384 523.704ZM170.1 465.012L170.232 465.348L170.484 465.24V464.868L170.1 465.012ZM170.484 462.324L169.284 462.816L169.416 463.14L170.532 462.708L170.484 462.324ZM166.8 475.524L170.484 476.352V475.992L166.884 475.176L166.8 475.524ZM167.328 473.22L170.484 473.928V473.568L167.4 472.8L167.328 473.22ZM170.484 501.348L166.884 500.448L166.8 500.796L170.4 501.72L170.484 501.348ZM167.52 498.156L167.436 498.504L170.484 499.272V498.912L167.52 498.156ZM170.484 511.824V511.44L168.084 512.244L168.192 512.58L170.484 511.824ZM170.484 509.328V508.956L167.316 510L167.424 510.336L170.484 509.328ZM162.876 516.528L162.576 516.36L160.92 519.252H161.328L162.876 516.528ZM164.928 517.728L164.628 517.548L163.644 519.276H164.052L164.928 517.728ZM145.536 516.18L148.056 519.276H148.524L145.812 515.952L145.536 516.18ZM147.36 514.68L151.116 519.276H151.572L147.636 514.476L147.36 514.68ZM140.64 517.932L140.304 518.052L140.748 519.252H141.132L140.64 517.932ZM135.48 447.012L136.68 448.548L135.48 446.952V447.012ZM128.028 449.688L130.848 457.464L131.172 457.344L128.4 449.448L128.028 449.688ZM130.26 448.884L133.068 456.66L133.404 456.54L130.596 448.764L130.26 448.884ZM159.6 506.196L151.98 502.968L151.848 503.292L159.468 506.52L159.6 506.196ZM158.676 508.38L151.068 505.14L150.924 505.476L158.544 508.704L158.676 508.38ZM159.6 485.076L157.344 493.044L157.68 493.14L159.936 485.172L159.6 485.076ZM162.216 485.82L161.868 485.724L159.624 493.68L159.96 493.776L162.216 485.82ZM150.012 486.672L147.612 478.752L147.276 478.848L149.676 486.78L150.012 486.672ZM152.268 485.988L149.868 478.068L149.532 478.164L151.932 486.096L152.268 485.988ZM128.604 465.444L128.304 465.264L124.188 472.464L124.5 472.632L128.604 465.444ZM126.552 464.244L126.252 464.064L122.136 471.264L122.448 471.432L126.552 464.244ZM148.476 471.6L140.856 468.372L140.724 468.696L148.344 471.936L148.476 471.6ZM149.4 469.428L141.78 466.2L141.648 466.524L149.268 469.752L149.4 469.428ZM135.072 506.82L143.268 505.62V505.272L135.072 506.472V506.82ZM135.408 509.16L143.604 507.96V507.612L135.408 508.812V509.16ZM141.408 499.08L141.756 499.152L143.604 491.088L143.256 491.004L141.408 499.08ZM145.56 491.532L143.712 499.608L144.06 499.68L145.908 491.616L145.56 491.532ZM123 477.252L119.844 478.632L119.964 478.968L123.144 477.576L123 477.252ZM123.936 479.424L120.612 480.876L120.732 481.212L124.08 479.748L123.936 479.424ZM134.736 472.224L137.136 480.156L137.484 480.048L135.084 472.128L134.736 472.224ZM132.468 472.908L134.868 480.828L135.216 480.732L132.816 472.812L132.468 472.908ZM114.348 457.56L114.564 457.836L121.176 452.856L120.96 452.568L114.348 457.56ZM122.604 454.74L122.388 454.464L115.776 459.444L115.992 459.732L122.604 454.74ZM135.096 495.432L127.476 492.204L127.332 492.528L134.952 495.756L135.096 495.432ZM128.256 490.344L135.876 493.572L136.02 493.248L128.4 489.96L128.256 490.344ZM167.28 525.744L167.112 526.056L167.412 525.816L167.28 525.744ZM168.396 523.668L168.228 523.98L169.104 524.448L169.392 524.196L168.396 523.668ZM154.8 532.332H155.16L155.652 527.892H155.304L154.8 532.332ZM152.4 531.924L152.748 532.032L153.24 527.628H152.892L152.4 531.924ZM161.268 519.156H160.86L158.46 523.44L158.76 523.62L161.268 519.156ZM163.992 519.156H163.584L160.452 524.616L160.764 524.796L163.992 519.156ZM150.72 522.468L150.984 522.24L148.464 519.156H147.996L150.72 522.468ZM152.544 520.968L152.82 520.74L151.512 519.156H151.056L152.544 520.968ZM140.688 519.156L142.404 523.956L143.064 524.724L141.072 519.204L140.688 519.156Z" fill="white"/>
<path d="M240.192 392.4C240.192 392.4 220.704 389.688 211.704 395.508C202.704 401.328 158.232 477.336 158.232 477.336L133.668 444.276L112.368 453.84C112.368 453.84 122.352 492.48 133.968 511.704C145.584 530.928 152.208 532.872 156.192 532.236C168.048 530.352 202.392 490.62 202.392 490.62L214.872 532.14L206.4 562.32H364.2L345.06 530.4C345.06 530.4 370.032 415.2 363.672 402.996C357.312 390.792 320.256 392.4 308.604 392.4H275.244C270.188 393.402 265.05 393.933 259.896 393.984C253.305 393.792 246.729 393.263 240.192 392.4V392.4Z" stroke="#263238" stroke-width="0.985332"/>
<path d="M202.404 490.62C197.836 481.492 196.062 471.219 197.304 461.088C199.62 444.924 209.628 427.224 209.628 427.224C209.628 427.224 189.66 456.024 189.66 465.624C189.66 475.224 195.6 489.264 195.6 489.264L190.416 504.06L202.404 490.62Z" fill="#263238" stroke="#263238" stroke-width="0.985332" stroke-linecap="round" stroke-linejoin="round"/>
<path d="M256.716 376.476L257.244 393.42L242.952 393.948C242.952 393.948 240 456.12 252.72 467.244C265.44 478.368 303.84 392.4 303.84 392.4L290.64 389.748L286.404 355.332L256.716 376.476Z" fill="#CFCFCF" stroke="#263238" stroke-width="0.985332" stroke-linecap="round" stroke-linejoin="round"/>
<path d="M287.928 362.052L257.364 390.852V380.664L287.928 362.052Z" fill="#263238" stroke="#263238" stroke-width="0.985332" stroke-linecap="round" stroke-linejoin="round"/>
<path d="M252.72 467.244C252.72 467.244 254.256 457.236 261.948 444.156L252.72 467.244Z" fill="white"/>
<path d="M252.72 467.244C252.72 467.244 254.256 457.236 261.948 444.156" stroke="#263238" stroke-width="0.985332" stroke-linecap="round" stroke-linejoin="round"/>
<path d="M250.56 280.932L215.76 317.112C218.494 324.812 219.819 332.942 219.672 341.112C219.264 353.928 230.916 372.78 240.444 381.54C249.972 390.3 269.412 376.836 276.672 372.084C281.521 368.798 286.042 365.053 290.172 360.9C292.82 360.785 295.396 360.001 297.658 358.62C299.921 357.239 301.796 355.307 303.108 353.004C303.108 353.004 252.54 298.968 250.56 280.932Z" fill="#CFCFCF" stroke="#263238" stroke-width="0.985332" stroke-linecap="round" stroke-linejoin="round"/>
<path d="M241.128 318.084C242.331 320.535 243.11 323.173 243.432 325.884C243.54 329.232 237.672 344.916 238.512 345.96C239.352 347.004 241.98 350.46 244.032 350.016" stroke="#263238" stroke-width="0.985332" stroke-linecap="round" stroke-linejoin="round"/>
<path d="M255.6 335.232C260.503 333.395 265.895 333.331 270.84 335.052" stroke="#263238" stroke-width="0.492666" stroke-linecap="round" stroke-linejoin="round"/>
<path d="M228.516 336.48C231.137 335.744 233.846 335.365 236.568 335.352" stroke="#263238" stroke-width="0.492666" stroke-linecap="round" stroke-linejoin="round"/>
<path d="M236.736 309.216C235.391 309.116 234.042 309.329 232.793 309.836C231.544 310.344 230.429 311.134 229.536 312.144C226.524 315.612 225.06 318.636 224.304 316.188C223.548 313.74 226.908 309.24 228.096 308.328C229.284 307.416 234.852 303.84 236.736 309.216Z" fill="#263238"/>
<path d="M251.628 307.2C255.158 307.187 258.641 308.009 261.792 309.6C266.388 312.12 264.192 307.008 260.964 305.544C257.736 304.08 252.144 304.224 251.628 307.2Z" fill="#263238"/>
<path d="M304.908 367.38C305.124 370.98 303.264 373.98 300.78 374.124C298.296 374.268 296.1 371.484 295.884 367.908C295.668 364.332 297.168 355.104 299.652 354.96C302.136 354.816 304.704 363.792 304.908 367.38Z" fill="#FFC727" stroke="#263238" stroke-width="0.985332" stroke-linecap="round" stroke-linejoin="round"/>
<path d="M235.308 330C235.476 332.4 234.564 334.344 233.28 334.428C231.996 334.512 230.88 332.676 230.676 330.324C230.472 327.972 231.42 325.98 232.704 325.896C233.988 325.812 235.2 327.696 235.308 330Z" fill="#263238"/>
<path d="M261.204 329.076C261.372 331.476 260.46 333.408 259.188 333.504C257.916 333.6 256.788 331.752 256.572 329.388C256.356 327.024 257.328 325.056 258.6 324.972C259.872 324.888 261.048 326.724 261.204 329.076Z" fill="#263238"/>
<path d="M243.864 356.844C243.864 356.844 249.972 358.8 258.264 351.708" stroke="#263238" stroke-width="0.985332" stroke-linecap="round" stroke-linejoin="round"/>
<path d="M133.668 444.3L122.496 429.336C121.98 425.352 120.984 417.12 120.816 411.564C120.588 404.004 120.96 399.384 116.664 392.676C112.368 385.968 100.38 375.372 99.2523 372.912C98.1243 370.452 94.8603 377.388 96.9123 381.888C98.9643 386.388 100.836 387.768 100.836 387.768C100.836 387.768 78.7683 376.8 78.0363 378.588C77.3043 380.376 88.3083 411.996 93.3483 420.336C95.4483 423.816 101.268 428.472 104.076 432.504C105.45 434.494 106.627 436.611 107.592 438.828C110.208 449.952 113.256 462.192 114.792 462.636C118.284 463.656 133.104 463.896 133.668 444.3Z" fill="#CFCFCF" stroke="#263238" stroke-width="0.985332" stroke-miterlimit="10"/>
<path d="M102.3 409.92C102.099 409.974 101.888 409.988 101.681 409.961C101.474 409.933 101.274 409.865 101.094 409.761C100.913 409.656 100.755 409.516 100.628 409.35C100.502 409.184 100.409 408.994 100.356 408.792L82.8003 343.884C82.7064 343.491 82.7659 343.078 82.9666 342.728C83.1673 342.378 83.4941 342.117 83.8803 342C84.286 341.893 84.7174 341.95 85.0812 342.159C85.445 342.368 85.7119 342.712 85.8243 343.116L103.428 408C103.528 408.404 103.465 408.831 103.254 409.189C103.044 409.548 102.701 409.81 102.3 409.92Z" fill="#263238" stroke="#263238" stroke-width="0.985332" stroke-miterlimit="10"/>
<path d="M89.6402 368.628C89.6402 368.628 72.6962 377.58 73.7402 379.332C74.7842 381.084 77.8802 387.336 79.2962 387.192C80.7122 387.048 90.9962 378.648 91.7402 377.592C92.4842 376.536 89.6402 368.628 89.6402 368.628Z" fill="#CFCFCF" stroke="#263238" stroke-width="0.985332" stroke-miterlimit="10"/>
<path d="M92.664 379.62C92.664 379.62 78.588 390 79.044 391.512C79.5 393.024 86.4 410.916 87.6 412.368C88.8 413.82 99.816 408.768 99.816 408.768L92.664 379.62Z" fill="#CFCFCF" stroke="#263238" stroke-width="0.985332" stroke-miterlimit="10"/>
<path d="M94.8 389.268C94.8 389.268 81.324 399.852 82.212 400.188" stroke="#263238" stroke-width="0.985332" stroke-miterlimit="10"/>
<path d="M97.3441 400.74L86.0161 407.376" stroke="#263238" stroke-width="0.985332" stroke-miterlimit="10"/>
<path d="M100.8 387.768L107.016 393.84C107.016 393.84 98.7603 411.468 106.668 421.2" stroke="#263238" stroke-width="0.985332" stroke-miterlimit="10"/>
<path d="M346.068 396.156C346.068 396.156 361.152 394.188 367.668 406.656C374.184 419.124 414.9 529.32 415.56 539.856C416.22 550.392 388.656 552.972 379.476 548.388C370.296 543.804 344.676 489.348 342.084 482.124" fill="#AD6359"/>
<path d="M350.864 472.462L348.628 480.411L348.974 480.508L351.209 472.559L350.864 472.462Z" fill="white"/>
<path d="M356.076 450.048L353.784 442.092L353.436 442.2L355.74 450.144L356.076 450.048Z" fill="white"/>
<path d="M354.954 473.251L352.694 481.217L353.041 481.315L355.301 473.349L354.954 473.251Z" fill="white"/>
<path d="M358.428 468.036L353.184 461.628L352.908 461.856L358.152 468.252L358.428 468.036Z" fill="white"/>
<path d="M369.746 476.621L362.157 479.932L362.301 480.262L369.89 476.951L369.746 476.621Z" fill="white"/>
<path d="M369.036 486.168L368.736 485.976L364.308 492.972L364.608 493.164L369.036 486.168Z" fill="white"/>
<path d="M351.168 442.848L353.46 450.804L353.808 450.696L351.504 442.752L351.168 442.848Z" fill="white"/>
<path d="M362.304 491.7L362.604 491.892L367.032 484.908L366.732 484.716L362.304 491.7Z" fill="white"/>
<path d="M360.252 466.536L355.02 460.128L354.744 460.356L359.976 466.752L360.252 466.536Z" fill="white"/>
<path d="M368.189 451.6L361.57 456.575L361.786 456.863L368.405 451.888L368.189 451.6Z" fill="white"/>
<path d="M366.528 416.364L368.916 424.296L369.252 424.188L366.876 416.268L366.528 416.364Z" fill="white"/>
<path d="M366.972 450.024L366.756 449.736L360.144 454.716L360.36 455.004L366.972 450.024Z" fill="white"/>
<path d="M362.604 406.8L365.088 402.876C365.004 402.792 364.932 402.696 364.848 402.6L362.304 406.608L362.604 406.8Z" fill="white"/>
<path d="M355.344 421.74L355.632 421.956L360.66 415.38L360.384 415.164L355.344 421.74Z" fill="white"/>
<path d="M359.856 432.528L367.476 435.756L367.62 435.432L360 432.204L359.856 432.528Z" fill="white"/>
<path d="M368.796 415.68L371.184 423.612L371.52 423.504L369.144 415.584L368.796 415.68Z" fill="white"/>
<path d="M368.292 468.672L372.408 461.484L372.096 461.316L367.992 468.492L368.292 468.672Z" fill="white"/>
<path d="M359.086 434.411L358.95 434.731L366.573 437.965L366.708 437.645L359.086 434.411Z" fill="white"/>
<path d="M368.779 474.501L361.189 477.811L361.333 478.141L368.923 474.831L368.779 474.501Z" fill="white"/>
<path d="M387.6 548.556L387.468 548.88L391.296 550.512H392.232L387.6 548.556Z" fill="white"/>
<path d="M389.256 522.816L386.928 516.372L386.448 515.04L386.112 515.16L386.556 516.372L388.92 522.936L389.256 522.816Z" fill="white"/>
<path d="M381.288 529.248L386.532 535.656L386.796 535.428L381.564 529.02L381.288 529.248Z" fill="white"/>
<path d="M387.024 523.62L384.42 516.372L384.216 515.844L383.892 515.952L384.036 516.372L386.7 523.74L387.024 523.62Z" fill="white"/>
<path d="M389.352 504.888L381.156 506.04L381.204 506.388L389.4 505.236L389.352 504.888Z" fill="white"/>
<path d="M413.16 540.264L415.38 538.344L415.308 537.948L412.908 540L413.16 540.264Z" fill="white"/>
<path d="M353.472 420.3L353.748 420.516L358.788 413.94L358.5 413.724L353.472 420.3Z" fill="white"/>
<path d="M344.026 463.819L343.688 463.941L346.499 471.729L346.838 471.607L344.026 463.819Z" fill="white"/>
<path d="M411.6 538.476L414.768 535.74C414.729 535.614 414.697 535.486 414.672 535.356L411.372 538.212L411.6 538.476Z" fill="white"/>
<path d="M388.632 533.928L383.388 527.532L383.112 527.748L388.356 534.156L388.632 533.928Z" fill="white"/>
<path d="M345.647 442.541L345.167 450.807L345.526 450.828L346.007 442.561L345.647 442.541Z" fill="white"/>
<path d="M383.244 477.216L380.868 469.296L380.52 469.392L382.908 477.324L383.244 477.216Z" fill="white"/>
<path d="M376.397 445.848L376.069 445.966L378.88 453.755L379.207 453.637L376.397 445.848Z" fill="white"/>
<path d="M375.192 431.244L374.052 435.744L374.4 435.828L375.564 431.244L376.44 427.8L376.092 427.716L375.192 431.244Z" fill="white"/>
<path d="M372.756 431.244L371.76 435.156L372.108 435.24L373.116 431.244L374.148 427.224L373.8 427.14L372.756 431.244Z" fill="white"/>
<path d="M378.252 470.076L380.64 477.996L380.976 477.9L378.6 469.968L378.252 470.076Z" fill="white"/>
<path d="M374.153 446.686L373.826 446.804L376.637 454.592L376.965 454.474L374.153 446.686Z" fill="white"/>
<path d="M346.266 462.993L345.927 463.115L348.737 470.904L349.076 470.782L346.266 462.993Z" fill="white"/>
<path d="M364.608 408L366.624 404.82L366.408 404.484L364.308 407.82L364.608 408Z" fill="white"/>
<path d="M374.052 487.512L381.672 490.74L381.804 490.416L374.184 487.188L374.052 487.512Z" fill="white"/>
<path d="M353.112 401.928L352.8 401.748L348.684 408.924L348.996 409.104L353.112 401.928Z" fill="white"/>
<path d="M409.2 517.56L409.044 517.116L406.344 521.844L406.644 522.012L409.2 517.56Z" fill="white"/>
<path d="M401.46 525.12L401.112 525.084L400.176 533.304L400.536 533.34L401.46 525.12Z" fill="white"/>
<path d="M396.927 502.408L396.792 502.728L404.414 505.962L404.55 505.642L396.927 502.408Z" fill="white"/>
<path d="M407.124 516.372L408.168 514.56L408.024 514.104L406.716 516.372L404.256 520.668L404.568 520.836L407.124 516.372Z" fill="white"/>
<path d="M402.12 539.028L401.844 538.8L396.636 545.232L396.912 545.46L402.12 539.028Z" fill="white"/>
<path d="M404.172 502.884L397.836 500.196L397.704 500.52L404.328 503.328L404.172 502.884Z" fill="white"/>
<path d="M400.272 537.54L399.996 537.312L394.8 543.744L395.076 543.972L400.272 537.54Z" fill="white"/>
<path d="M391.704 488.844L391.356 488.76L389.508 496.824L389.856 496.908L391.704 488.844Z" fill="white"/>
<path d="M396.576 519.696L396.852 519.468L394.32 516.372L391.608 513.06L391.332 513.288L393.864 516.372L396.576 519.696Z" fill="white"/>
<path d="M350.736 410.1L351.048 410.28L355.164 403.092L354.852 402.924L350.736 410.1Z" fill="white"/>
<path d="M374.151 531.808L373.824 531.926L376.635 539.714L376.963 539.596L374.151 531.808Z" fill="white"/>
<path d="M405.48 546.648L405.132 546.552L404.496 549.048L404.892 548.94L405.48 546.648Z" fill="white"/>
<path d="M376.405 530.975L376.077 531.093L378.887 538.882L379.215 538.764L376.405 530.975Z" fill="white"/>
<path d="M387.456 463.752L390.624 465.096C390.624 464.94 390.504 464.784 390.456 464.64L387.588 463.44L387.456 463.752Z" fill="white"/>
<path d="M407.772 547.2L407.424 547.116L407.136 548.232L407.544 548.088L407.772 547.2Z" fill="white"/>
<path d="M366.696 522.744L360.408 520.08L360.672 520.572L366.552 523.068L366.696 522.744Z" fill="white"/>
<path d="M345.204 414.912L349.296 419.172L349.56 418.932L345.228 414.432L345.204 414.912Z" fill="white"/>
<path d="M381.288 444.12L384.096 447.54L383.7 446.508L381.6 443.892L381.288 444.12Z" fill="white"/>
<path d="M347.592 420.816L347.844 420.564L345.084 417.684L345.06 418.176L347.592 420.816Z" fill="white"/>
<path d="M393.132 476.076L395.52 484.008L395.856 483.9L393.48 475.98L393.132 476.076Z" fill="white"/>
<path d="M367.62 520.572L360 517.332L359.856 517.656L367.476 520.896L367.62 520.572Z" fill="white"/>
<path d="M358.788 499.08L358.5 498.864L353.472 505.428L353.748 505.644L358.788 499.08Z" fill="white"/>
<path d="M371.52 508.644L369.144 500.712L368.796 500.82L371.184 508.74L371.52 508.644Z" fill="white"/>
<path d="M369.252 509.328L366.876 501.396L366.528 501.504L368.916 509.424L369.252 509.328Z" fill="white"/>
<path d="M360.66 500.508L360.384 500.304L355.344 506.868L355.632 507.084L360.66 500.508Z" fill="white"/>
<path d="M348.564 435.108L348.912 435.204L350.028 431.244L351.156 427.248L350.82 427.14L349.656 431.244L348.564 435.108Z" fill="white"/>
<path d="M347.196 431.244L346.284 434.472L346.632 434.568L347.568 431.244L348.876 426.6L348.54 426.504L347.196 431.244Z" fill="white"/>
<path d="M353.112 487.056L352.8 486.876L348.684 494.064L348.996 494.232L353.112 487.056Z" fill="white"/>
<path d="M355.164 488.232L354.852 488.052L350.736 495.24L351.048 495.408L355.164 488.232Z" fill="white"/>
<path d="M374.16 462.492L370.044 469.668L370.344 469.848L374.46 462.66L374.16 462.492Z" fill="white"/>
<path d="M389.052 488.232L387.204 496.296L387.552 496.38L389.4 488.316L389.052 488.232Z" fill="white"/>
<path d="M391.572 467.676L386.664 465.6L386.532 465.924L391.74 468.132C391.68 468 391.632 467.832 391.572 467.676Z" fill="white"/>
<path d="M389.076 502.896L389.028 502.548L380.832 503.7L380.88 504.048L389.076 502.896Z" fill="white"/>
<path d="M393.444 511.56L393.168 511.788L396.924 516.372L398.412 518.196L398.688 517.968L397.38 516.372L393.444 511.56Z" fill="white"/>
<path d="M375.564 516.372L376.44 512.94L376.092 512.856L375.192 516.372L374.052 520.872L374.4 520.956L375.564 516.372Z" fill="white"/>
<path d="M373.267 489.401L373.131 489.721L380.753 492.955L380.889 492.634L373.267 489.401Z" fill="white"/>
<path d="M373.116 516.372L374.148 512.352L373.8 512.268L372.756 516.372L371.76 520.284L372.108 520.38L373.116 516.372Z" fill="white"/>
<path d="M398.184 533.076L399.108 524.856L398.76 524.82L397.824 533.04L398.184 533.076Z" fill="white"/>
<path d="M346.068 396.156C346.068 396.156 361.152 394.188 367.668 406.656C374.184 419.124 414.9 529.32 415.56 539.856C416.22 550.392 388.656 552.972 379.476 548.388C370.296 543.804 344.676 489.348 342.084 482.124" stroke="#263238" stroke-width="0.985332"/>
<path d="M254.88 546.384C254.88 546.384 224.052 542.448 218.796 543.096C213.54 543.744 189.936 559.5 189.936 559.5H256.8L254.88 546.384Z" fill="#CFCFCF" stroke="#263238" stroke-width="0.985332" stroke-linecap="round" stroke-linejoin="round"/>
<path d="M382.14 525.384L254.94 546.384L256.8 559.5H413.64C414.86 553.009 415.518 546.424 415.608 539.82C415.608 529.98 409.704 518.832 409.704 518.832" fill="#AD6359"/>
<path d="M392.676 547.044L395.064 554.964L395.4 554.868L393.024 546.936L392.676 547.044Z" fill="white"/>
<path d="M401.388 524.628L396.18 531.06L396.456 531.288L401.664 524.856L401.388 524.628Z" fill="white"/>
<path d="M394.344 529.572L394.62 529.8L399.816 523.368L399.54 523.14L394.344 529.572Z" fill="white"/>
<path d="M377.796 541.032L380.184 548.964L380.52 548.856L378.144 540.936L377.796 541.032Z" fill="white"/>
<path d="M397.668 554.184L395.28 546.252L394.944 546.36L397.332 554.28L397.668 554.184Z" fill="white"/>
<path d="M382.788 548.184L380.412 540.252L380.064 540.36L382.452 548.28L382.788 548.184Z" fill="white"/>
<path d="M404.685 532.385L402.646 540.41L402.995 540.499L405.034 532.474L404.685 532.385Z" fill="white"/>
<path d="M403.224 559.5H403.596L405.336 553.356L404.988 553.26L403.224 559.5Z" fill="white"/>
<path d="M373.728 558.144L373.596 558.468L376.02 559.5H376.932L373.728 558.144Z" fill="white"/>
<path d="M406.945 532.91L404.906 540.935L405.255 541.024L407.294 532.999L406.945 532.91Z" fill="white"/>
<path d="M345.799 533.948L345.46 534.07L348.27 541.859L348.609 541.737L345.799 533.948Z" fill="white"/>
<path d="M386.076 536.892L393.684 540.12L393.828 539.796L386.208 536.556L386.076 536.892Z" fill="white"/>
<path d="M388.596 559.2L388.524 559.5H388.884L388.944 559.272L388.596 559.2Z" fill="white"/>
<path d="M387.134 534.411L386.998 534.731L394.62 537.965L394.756 537.645L387.134 534.411Z" fill="white"/>
<path d="M352.452 532.812L357.696 539.22L357.972 538.992L352.728 532.584L352.452 532.812Z" fill="white"/>
<path d="M359.796 537.492L354.552 531.096L354.288 531.312L359.52 537.72L359.796 537.492Z" fill="white"/>
<path d="M411.156 524.304L411.888 523.668L411.744 523.32L410.928 524.04L411.156 524.304Z" fill="white"/>
<path d="M352.221 543.569L349.961 551.535L350.308 551.633L352.568 543.667L352.221 543.569Z" fill="white"/>
<path d="M412.68 541.344L415.572 542.004C415.572 541.884 415.572 541.764 415.572 541.644L412.74 540.996L412.68 541.344Z" fill="white"/>
<path d="M368.28 556.944L366.66 559.5H367.08L368.58 557.124L368.28 556.944Z" fill="white"/>
<path d="M415.488 544.044L412.236 543.312L412.152 543.648L415.464 544.404C415.476 544.284 415.488 544.164 415.488 544.044Z" fill="white"/>
<path d="M412.704 526.092L412.788 526.02L412.656 525.66L412.476 525.828L412.704 526.092Z" fill="white"/>
<path d="M368.319 545.449L360.729 548.758L360.873 549.088L368.463 545.779L368.319 545.449Z" fill="white"/>
<path d="M366.576 555.864L366.276 555.672L363.852 559.5H364.272L366.576 555.864Z" fill="white"/>
<path d="M354.523 544.276L352.263 552.242L352.609 552.34L354.87 544.375L354.523 544.276Z" fill="white"/>
<path d="M369.29 547.587L361.701 550.898L361.845 551.228L369.434 547.917L369.29 547.587Z" fill="white"/>
<path d="M374.004 533.628L373.704 533.448L369.588 540.636L369.888 540.816L374.004 533.628Z" fill="white"/>
<path d="M367.536 539.46L367.836 539.628L371.952 532.452L371.64 532.272L367.536 539.46Z" fill="white"/>
<path d="M283.195 545.455L275.605 548.765L275.749 549.095L283.339 545.785L283.195 545.455Z" fill="white"/>
<path d="M267.528 558.012L267.216 557.844L266.268 559.5H266.676L267.528 558.012Z" fill="white"/>
<path d="M265.176 551.64L267.24 544.344L266.856 544.404L264.84 551.544L265.176 551.64Z" fill="white"/>
<path d="M269.58 559.188L269.268 559.02L268.992 559.5H269.4L269.58 559.188Z" fill="white"/>
<path d="M309.48 537.936L309.624 537.612L309.168 537.432L308.52 537.528L309.48 537.936Z" fill="white"/>
<path d="M318.096 559.5H318.468L320.196 553.356L319.86 553.26L318.096 559.5Z" fill="white"/>
<path d="M321.204 535.44L319.8 540.984L320.136 541.08L321.588 535.38L321.204 535.44Z" fill="white"/>
<path d="M281.448 555.864L281.148 555.672L278.724 559.5H279.144L281.448 555.864Z" fill="white"/>
<path d="M283.452 557.124L283.152 556.944L281.52 559.5H281.94L283.452 557.124Z" fill="white"/>
<path d="M354.396 559.02L354.12 559.5H354.528L354.708 559.188L354.396 559.02Z" fill="white"/>
<path d="M407.268 553.908L405.684 559.5H406.056L407.604 554.004L407.268 553.908Z" fill="white"/>
<path d="M343.571 534.77L343.232 534.892L346.043 542.68L346.382 542.558L343.571 534.77Z" fill="white"/>
<path d="M322.128 553.908L320.556 559.5H320.916L322.476 554.004L322.128 553.908Z" fill="white"/>
<path d="M288.6 558.144L288.456 558.468L290.892 559.5H291.792L288.6 558.144Z" fill="white"/>
<path d="M352.656 558.012L352.344 557.844L351.396 559.5H351.804L352.656 558.012Z" fill="white"/>
<path d="M267.559 543.723L265.324 551.672L265.669 551.769L267.905 543.82L267.559 543.723Z" fill="white"/>
<path d="M335.82 549.744L335.484 549.612L332.46 557.316L332.784 557.448L335.82 549.744Z" fill="white"/>
<path d="M284.14 547.619L276.55 550.929L276.694 551.259L284.284 547.949L284.14 547.619Z" fill="white"/>
<path d="M338.016 550.596L337.68 550.476L334.656 558.18L334.992 558.3L338.016 550.596Z" fill="white"/>
<path d="M327.024 543.66L330.696 544.488L335.088 545.472L335.172 545.124L330.696 544.116L327.096 543.312L327.024 543.66Z" fill="white"/>
<path d="M335.616 543.168L335.7 542.82L330.696 541.692L327.624 540.996L327.54 541.344L330.696 542.052L335.616 543.168Z" fill="white"/>
<path d="M317.856 540.492L319.044 535.8L318.66 535.86L317.508 540.408L317.856 540.492Z" fill="white"/>
<path d="M308.7 539.796L304.812 538.14L304.164 538.248L308.556 540.12L308.7 539.796Z" fill="white"/>
<path d="M297.312 548.28L297.66 548.184L295.272 540.252L294.936 540.36L297.312 548.28Z" fill="white"/>
<path d="M295.392 548.856L293.004 540.936L292.668 541.032L295.056 548.964L295.392 548.856Z" fill="white"/>
<path d="M307.548 547.044L309.936 554.964L310.272 554.868L307.884 546.936L307.548 547.044Z" fill="white"/>
<path d="M303.456 559.2L303.384 559.5H303.756L303.804 559.272L303.456 559.2Z" fill="white"/>
<path d="M312.54 554.184L310.152 546.252L309.816 546.36L312.192 554.28L312.54 554.184Z" fill="white"/>
<path d="M382.14 525.384L254.94 546.384L256.8 559.5H413.64C414.86 553.009 415.518 546.424 415.608 539.82C415.608 529.98 409.704 518.832 409.704 518.832" stroke="#263238" stroke-width="0.985332"/>
<path d="M410.112 557.376H252L246.816 470.4C246.675 469.553 246.72 468.685 246.948 467.857C247.176 467.029 247.581 466.261 248.136 465.605C248.691 464.95 249.382 464.423 250.161 464.062C250.94 463.7 251.789 463.513 252.648 463.512H409.44C410.299 463.51 411.149 463.697 411.929 464.057C412.709 464.418 413.401 464.945 413.956 465.601C414.512 466.257 414.917 467.026 415.144 467.855C415.372 468.684 415.415 469.553 415.272 470.4L410.112 557.376Z" fill="#263238" stroke="#263238" stroke-width="0.985332" stroke-linecap="round" stroke-linejoin="round"/>
<path d="M259.764 465.6H408.3C409.138 465.591 409.969 465.766 410.733 466.111C411.497 466.457 412.177 466.965 412.724 467.6C413.272 468.236 413.674 468.983 413.902 469.79C414.131 470.597 414.181 471.444 414.048 472.272" stroke="white" stroke-width="0.985332" stroke-linecap="round" stroke-linejoin="round"/>
<path d="M247.992 470.94C248.104 469.48 248.766 468.117 249.844 467.126C250.922 466.135 252.335 465.59 253.8 465.6" stroke="white" stroke-width="0.985332" stroke-linecap="round" stroke-linejoin="round"/>
<path d="M410.772 548.904H251.316V557.376H410.772V548.904Z" fill="white" stroke="#263238" stroke-width="0.985332" stroke-linecap="round" stroke-linejoin="round"/>
<path d="M341.784 510.792C341.784 514.536 336.72 517.572 330.48 517.572C324.24 517.572 319.188 514.536 319.188 510.792C319.188 507.048 324.252 504.012 330.48 504.012C336.708 504.012 341.784 507.048 341.784 510.792Z" fill="white" stroke="#263238" stroke-width="0.985332" stroke-linecap="round" stroke-linejoin="round"/>
<path d="M94.7281 548.64C91.3769 548.474 88.0854 547.689 85.0201 546.324C84.2393 545.948 83.6338 545.286 83.3301 544.474C83.0264 543.663 83.0479 542.765 83.3902 541.969C83.7324 541.173 84.369 540.54 85.1669 540.202C85.9648 539.864 86.8623 539.848 87.6721 540.156C90.7681 541.476 94.7401 542.292 95.8081 541.836C97.7521 539.64 100.764 526.38 96.8761 520.056C96.672 519.61 96.3639 519.219 95.9776 518.916C95.5914 518.613 95.1382 518.408 94.6561 518.316C92.4481 518.016 89.1841 520.284 88.0321 521.364C87.3753 521.935 86.5224 522.229 85.6531 522.184C84.7838 522.139 83.9659 521.758 83.3717 521.122C82.7776 520.486 82.4535 519.644 82.4677 518.774C82.482 517.903 82.8335 517.072 83.4481 516.456C84.0601 515.88 89.6281 510.876 95.5441 511.656C97.0127 511.875 98.4113 512.429 99.6325 513.273C100.854 514.118 101.865 515.231 102.588 516.528C108.312 525.84 104.4 543.6 99.9961 547.08C98.4672 548.181 96.61 548.731 94.7281 548.64Z" fill="#263238" stroke="#263238" stroke-width="0.985332" stroke-linecap="round" stroke-linejoin="round"/>
<path d="M88.7881 508.92H51.7681V558.06H88.7881V508.92Z" fill="#263238" stroke="#263238" stroke-width="0.985332" stroke-linecap="round" stroke-linejoin="round"/>
<path d="M55.1279 506.232C55.1279 506.232 55.1279 502.14 62.6279 498.048C70.1279 493.956 74.2199 487.824 70.1279 476.232C66.0359 464.64 66.7199 456.456 74.9279 449.628" stroke="#263238" stroke-width="0.985332" stroke-linecap="round" stroke-linejoin="round"/>
<path d="M56.832 462.612C57.216 457.632 59.436 453.42 64.032 449.628" stroke="#263238" stroke-width="0.985332" stroke-linecap="round" stroke-linejoin="round"/>
<path d="M59.2202 476.232C58.471 474.164 57.8655 472.047 57.4082 469.896" stroke="#263238" stroke-width="0.985332" stroke-linecap="round" stroke-linejoin="round"/>
<path d="M85.5838 480.228C85.2964 478.871 84.9155 477.536 84.4438 476.232L83.8198 474.384" stroke="#263238" stroke-width="0.985332" stroke-linecap="round" stroke-linejoin="round"/>
<path d="M69.4438 506.232C69.4438 506.232 69.4439 502.14 76.9439 498.048C81.8639 495.36 85.3438 491.796 85.9558 486.396" stroke="#263238" stroke-width="0.985332" stroke-linecap="round" stroke-linejoin="round"/>
<path d="M576.036 557.22H17.5078V569.58H576.036V557.22Z" fill="#263238"/>
</svg>
