<svg width="200" height="200" viewBox="0 0 200 200" fill="none" xmlns="http://www.w3.org/2000/svg">
<path d="M42.456 127.14C39.5288 127.14 36.6674 126.272 34.2336 124.646C31.7997 123.02 29.9028 120.708 28.7826 118.004C27.6624 115.299 27.3693 112.324 27.9404 109.453C28.5115 106.582 29.921 103.945 31.9908 101.875C34.0606 99.805 36.6978 98.3955 39.5687 97.8244C42.4396 97.2534 45.4154 97.5465 48.1197 98.6666C50.8241 99.7868 53.1355 101.684 54.7618 104.118C56.388 106.551 57.256 109.413 57.256 112.34C57.256 116.265 55.6967 120.03 52.9212 122.805C50.1457 125.581 46.3812 127.14 42.456 127.14ZM42.456 98.228C39.6616 98.2273 36.9297 99.0552 34.6058 100.607C32.282 102.159 30.4705 104.365 29.4006 106.947C28.3307 109.528 28.0503 112.369 28.595 115.11C29.1397 117.851 30.4849 120.368 32.4606 122.345C34.4363 124.321 36.9536 125.667 39.6943 126.212C42.435 126.758 45.2759 126.478 47.8576 125.409C50.4394 124.34 52.6462 122.529 54.1987 120.206C55.7513 117.882 56.58 115.15 56.58 112.356C56.5758 108.611 55.0865 105.021 52.4388 102.372C49.791 99.7236 46.201 98.2333 42.456 98.228Z" fill="#EBEBEB"/>
<path d="M41.712 129.232C41.488 129.232 41.264 129.208 41.04 129.192L41.096 128.536C41.308 128.536 41.524 128.568 41.74 128.576L41.712 129.232ZM44.064 129.172L44 128.52C44.216 128.5 44.428 128.472 44.644 128.444L44.732 129.096C44.512 129.128 44.292 129.152 44.064 129.172ZM38.712 128.832C38.492 128.784 38.276 128.728 38.056 128.672L38.228 128.036C38.436 128.092 38.648 128.144 38.856 128.192L38.712 128.832ZM47.044 128.62L46.864 127.984C47.072 127.928 47.264 127.864 47.484 127.796L47.688 128.424L47.044 128.62ZM35.844 127.9C35.636 127.812 35.444 127.72 35.228 127.624L35.508 127.028C35.704 127.124 35.908 127.212 36.1 127.296L35.844 127.9ZM49.88 127.54L49.592 126.948C49.788 126.852 49.992 126.756 50.168 126.652L50.48 127.232C50.272 127.336 50.072 127.44 49.868 127.54H49.88ZM33.176 126.468C32.988 126.344 32.8 126.216 32.62 126.068L33.02 125.532C33.192 125.66 33.372 125.784 33.552 125.9L33.176 126.468ZM52.468 125.972L52.068 125.44L52.58 125.04L52.98 125.552C52.8 125.7 52.636 125.84 52.456 125.972H52.468ZM30.8 124.58C30.636 124.424 30.476 124.268 30.32 124.104L30.8 123.648C30.952 123.804 31.104 123.956 31.26 124.104L30.8 124.58ZM54.728 123.968L54.252 123.516C54.4 123.36 54.544 123.2 54.688 123.036L55.18 123.468C55.028 123.64 54.88 123.804 54.724 123.968H54.728ZM28.8 122.304C28.668 122.124 28.54 121.94 28.4 121.752L28.948 121.388C29.068 121.564 29.192 121.744 29.32 121.916L28.8 122.304ZM56.6 121.6L56.052 121.24C56.168 121.06 56.284 120.876 56.396 120.692L56.96 121.028C56.844 121.2 56.724 121.404 56.6 121.6ZM27.244 119.72C27.144 119.516 27.052 119.32 26.96 119.108L27.564 118.844C27.652 119.044 27.74 119.244 27.832 119.432L27.244 119.72ZM58.044 118.92L57.44 118.664C57.524 118.464 57.604 118.264 57.68 118.06L58.296 118.292C58.196 118.504 58.112 118.712 58.024 118.92H58.044ZM26.192 116.88C26.132 116.664 26.08 116.448 26.028 116.228L26.668 116.076C26.716 116.288 26.768 116.496 26.828 116.704L26.192 116.88ZM58.964 116.032L58.324 115.888C58.372 115.68 58.412 115.468 58.452 115.256L59.1 115.372C59.04 115.6 58.996 115.812 58.944 116.032H58.964ZM25.652 113.904C25.6307 113.68 25.6147 113.456 25.604 113.232L26.24 113.2C26.24 113.416 26.256 113.632 26.288 113.848L25.652 113.904ZM59.352 113.028L58.696 113.004C58.696 112.788 58.696 112.572 58.696 112.356V112.288H59.356V112.352C59.348 112.584 59.344 112.8 59.332 113.028H59.352ZM26.28 110.932L25.624 110.876C25.624 110.652 25.668 110.428 25.696 110.208L26.348 110.288C26.324 110.504 26.3 110.716 26.28 110.932ZM58.524 110.032C58.492 109.82 58.46 109.604 58.42 109.396L59.068 109.276C59.108 109.496 59.144 109.716 59.176 109.94L58.524 110.032ZM26.8 108.068L26.164 107.896C26.2253 107.68 26.2893 107.464 26.356 107.248L26.984 107.448C26.908 107.652 26.848 107.86 26.8 108.068ZM57.856 107.2C57.784 106.992 57.712 106.8 57.636 106.588L58.252 106.356C58.332 106.564 58.408 106.776 58.48 106.988L57.856 107.2ZM27.808 105.34L27.2 105.06C27.296 104.856 27.396 104.66 27.504 104.456L28.084 104.764C28 104.956 27.9 105.148 27.808 105.344V105.34ZM56.688 104.54C56.584 104.352 56.476 104.164 56.364 103.98L56.928 103.64C57.044 103.832 57.156 104.04 57.264 104.224L56.688 104.54ZM29.296 102.844L28.764 102.444C28.896 102.264 29.032 102.084 29.164 101.908L29.68 102.308C29.556 102.496 29.424 102.668 29.296 102.844ZM55.064 102.128C54.928 101.96 54.7947 101.796 54.664 101.636L55.16 101.2C55.308 101.368 55.452 101.54 55.592 101.712L55.064 102.128ZM31.2 100.648L30.744 100.172C30.908 100.016 31.072 99.864 31.24 99.716L31.676 100.208C31.524 100.352 31.364 100.496 31.2 100.648ZM53.028 100.044C52.864 99.9 52.696 99.764 52.528 99.644L52.928 99.128C53.104 99.268 53.276 99.408 53.448 99.556L53.028 100.044ZM33.468 98.844L33.104 98.296L33.672 97.932L34.016 98.496C33.84 98.592 33.656 98.708 33.476 98.828L33.468 98.844ZM50.668 98.364L50.104 98.048L50.412 97.468C50.612 97.576 50.812 97.684 51 97.8L50.668 98.364ZM36.032 97.44L35.772 96.836C35.976 96.748 36.172 96.664 36.392 96.584L36.632 97.196C36.428 97.276 36.228 97.356 36.032 97.44ZM48.032 97.108C47.828 97.032 47.632 96.964 47.416 96.896L47.62 96.268C47.832 96.34 48.048 96.412 48.256 96.488L48.032 97.108ZM38.8 96.536L38.652 95.896C38.868 95.844 39.088 95.8 39.312 95.756L39.432 96.404C39.2 96.444 39.004 96.488 38.8 96.536ZM45.228 96.356C45.016 96.32 44.804 96.288 44.588 96.26L44.672 95.608C44.896 95.636 45.12 95.672 45.34 95.708L45.228 96.356ZM41.68 96.14L41.648 95.484C41.872 95.484 42.096 95.484 42.324 95.464V96.124C42.108 96.124 41.892 96.128 41.676 96.14H41.68Z" fill="#EBEBEB"/>
<path d="M40.188 121.5H44.744V114.628H51.616V110.072H44.744V103.2H40.188V110.072H33.316V114.628H40.188V121.5Z" fill="#EBEBEB"/>
<path d="M166.732 51.7561C164.266 55.053 161.121 57.7813 157.508 59.7561C153.904 57.779 150.767 55.0508 148.308 51.7561C145.06 47.4601 145.22 40.7321 149.864 39.2761C155 37.6761 157.524 45.4001 157.524 45.4001C157.524 45.4001 160.084 37.6201 165.188 39.2761C169.8 40.8001 169.976 47.4601 166.732 51.7561Z" fill="#EBEBEB"/>
<path d="M153.888 56.36L152.488 50.532L151.572 52.588H145.92V51.928H151.148L152.672 48.492L153.764 53.036L155.308 43.62L156.672 51.068L157.748 47.96L159.444 53.052L159.82 51.928H169.108V52.584H160.296L159.444 55.128L157.736 50.004L156.472 53.652L155.344 47.472L153.888 56.36Z" fill="white"/>
<path d="M157.524 62.5201C154.597 62.5201 151.735 61.652 149.302 60.0258C146.868 58.3996 144.971 56.0881 143.851 53.3838C142.73 50.6794 142.437 47.7036 143.008 44.8327C143.579 41.9618 144.989 39.3247 147.059 37.2549C149.129 35.1851 151.766 33.7755 154.637 33.2044C157.508 32.6334 160.483 32.9265 163.188 34.0466C165.892 35.1668 168.204 37.0638 169.83 39.4976C171.456 41.9315 172.324 44.7929 172.324 47.7201C172.324 51.6453 170.765 55.4097 167.989 58.1852C165.214 60.9608 161.449 62.5201 157.524 62.5201ZM157.524 33.608C154.73 33.608 151.998 34.4366 149.675 35.989C147.352 37.5415 145.541 39.7479 144.471 42.3295C143.402 44.9111 143.122 47.7517 143.667 50.4923C144.213 53.2329 145.558 55.7502 147.534 57.7261C149.51 59.7019 152.027 61.0475 154.768 61.5926C157.508 62.1377 160.349 61.8579 162.931 60.7886C165.512 59.7193 167.719 57.9085 169.271 55.5851C170.823 53.2618 171.652 50.5303 171.652 47.736C171.651 43.9887 170.162 40.3949 167.513 37.7444C164.864 35.0938 161.271 33.6032 157.524 33.6V33.608Z" fill="#EBEBEB"/>
<path d="M156.8 64.6121C156.576 64.6121 156.352 64.5881 156.128 64.5681L156.184 63.9121C156.396 63.9321 156.612 63.9441 156.832 63.9561L156.8 64.6121ZM159.156 64.5521L159.092 63.8961C159.308 63.8761 159.524 63.8521 159.736 63.8241L159.824 64.4761C159.6 64.5041 159.36 64.5321 159.136 64.5521H159.156ZM153.8 64.2121C153.58 64.1641 153.364 64.1081 153.148 64.0521L153.316 63.4161C153.524 63.4721 153.736 63.5241 153.948 63.5721L153.8 64.2121ZM162.132 63.9961L161.952 63.3641C162.16 63.3041 162.352 63.2441 162.572 63.1761L162.776 63.8041C162.544 63.8721 162.328 63.9361 162.112 64.0001L162.132 63.9961ZM150.932 63.2801C150.724 63.1921 150.532 63.1001 150.316 63.0041L150.596 62.4081L151.188 62.6761L150.932 63.2801ZM164.972 62.9161L164.684 62.3241C164.876 62.2321 165.084 62.1321 165.256 62.0321L165.568 62.6081C165.34 62.7161 165.14 62.8201 164.94 62.9161H164.972ZM148.264 61.8441C148.076 61.7201 147.892 61.5921 147.708 61.4441L148.108 60.9081C148.284 61.0361 148.46 61.1561 148.64 61.2761L148.264 61.8441ZM167.556 61.3481L167.156 60.8201C167.332 60.6921 167.5 60.5601 167.668 60.4201L168.068 60.9361C167.884 61.0801 167.708 61.2001 167.524 61.3481H167.556ZM145.896 59.9601C145.732 59.8041 145.572 59.6441 145.416 59.4841L145.892 59.0281C146.041 59.1801 146.193 59.3321 146.348 59.4841L145.896 59.9601ZM169.824 59.3481L169.348 58.8921C169.496 58.7361 169.64 58.5761 169.784 58.4161L170.28 58.8481C170.1 59.0161 169.948 59.2001 169.792 59.3481H169.824ZM143.9 57.6841C143.768 57.5001 143.64 57.3201 143.5 57.1321L144.044 56.7641C144.164 56.9441 144.288 57.1201 144.416 57.2961L143.9 57.6841ZM171.704 56.9721L171.152 56.6121C171.268 56.4281 171.384 56.2481 171.496 56.0601L172.06 56.4001C171.912 56.5921 171.792 56.8001 171.672 56.9721H171.704ZM142.344 55.0881C142.244 54.8881 142.152 54.6881 142.064 54.4801L142.664 54.2161C142.752 54.4121 142.84 54.6161 142.936 54.8041L142.344 55.0881ZM173.144 54.2881L172.54 54.0321C172.624 53.8361 172.704 53.6321 172.78 53.4321L173.396 53.6641C173.264 53.8801 173.2 54.0921 173.092 54.2961L173.144 54.2881ZM141.296 52.2521C141.236 52.0361 141.18 51.8161 141.128 51.6001L141.768 51.4481C141.816 51.6601 141.872 51.8681 141.928 52.0761L141.296 52.2521ZM174 51.4121L173.356 51.2681C173.404 51.0561 173.448 50.8441 173.484 50.6321L174.132 50.7481C174.108 50.9721 174.064 51.2001 174 51.4121ZM140.684 49.2801C140.663 49.0588 140.647 48.8348 140.636 48.6081L141.292 48.5761C141.292 48.7921 141.32 49.0081 141.34 49.2201L140.684 49.2801ZM174.4 48.4001L173.74 48.3761C173.74 48.1601 173.74 47.9441 173.74 47.7281V47.6601H174.4V47.7241C174.4 47.9601 174.4 48.1841 174.4 48.4001ZM141.344 46.3041L140.692 46.2481C140.692 46.0241 140.732 45.8001 140.76 45.5761L141.416 45.6601C141.392 45.8801 141.368 46.0961 141.348 46.3121L141.344 46.3041ZM173.6 45.4121C173.572 45.1961 173.536 44.9841 173.496 44.7721L174.144 44.6521C174.184 44.8721 174.22 45.0961 174.252 45.3161L173.6 45.4121ZM141.868 43.4481L141.232 43.2761C141.292 43.0561 141.356 42.8441 141.424 42.6281L142.052 42.8281C142 43.0321 141.916 43.2401 141.86 43.4481H141.868ZM172.932 42.5801C172.864 42.3761 172.788 42.1801 172.712 41.9721L173.328 41.7361C173.408 41.9494 173.484 42.1614 173.556 42.3721L172.932 42.5801ZM142.884 40.7201L142.292 40.4361C142.388 40.2321 142.492 40.0361 142.596 39.8361L143.176 40.1441C143.068 40.3321 142.972 40.5281 142.876 40.7201H142.884ZM171.764 39.9201C171.66 39.7281 171.552 39.5441 171.44 39.3601L172.004 39.0201C172.12 39.2081 172.232 39.4201 172.34 39.6001L171.764 39.9201ZM144.376 38.2201L143.84 37.8201C143.973 37.6361 144.107 37.4561 144.24 37.2801L144.756 37.6801C144.624 37.8721 144.492 38.0481 144.368 38.2201H144.376ZM170.14 37.5081C170.004 37.3401 169.864 37.1761 169.72 37.0121L170.216 36.5801C170.364 36.7481 170.508 36.9161 170.648 37.0921L170.14 37.5081ZM146.284 36.0241L145.828 35.5521C145.992 35.3961 146.156 35.2441 146.324 35.0961L146.752 35.6001C146.592 35.7321 146.432 35.8761 146.276 36.0241H146.284ZM168.112 35.4201C167.948 35.2801 167.78 35.1441 167.612 35.0201L168.012 34.5041C168.188 34.6441 168.36 34.7881 168.532 34.9361L168.112 35.4201ZM148.556 34.2201L148.188 33.6761C148.376 33.5481 148.564 33.4281 148.756 33.3121L149.1 33.8761C148.908 33.9721 148.724 34.0881 148.548 34.2041L148.556 34.2201ZM165.756 33.7441C165.572 33.6361 165.384 33.5281 165.192 33.4281L165.5 32.8481C165.7 32.9521 165.9 33.0641 166.088 33.1761L165.756 33.7441ZM151.12 32.8361L150.86 32.2321C151.063 32.1441 151.271 32.0601 151.484 31.9801L151.72 32.5921C151.496 32.6521 151.3 32.7361 151.1 32.8201L151.12 32.8361ZM163.12 32.5001C162.916 32.4281 162.72 32.3561 162.508 32.2921L162.708 31.6641C162.924 31.7321 163.136 31.8041 163.348 31.8841L163.12 32.5001ZM153.88 31.9321L153.732 31.2881C153.948 31.2401 154.168 31.1921 154.392 31.1521L154.512 31.7961C154.284 31.8201 154.072 31.8681 153.864 31.9161L153.88 31.9321ZM160.308 31.7521C160.096 31.7161 159.884 31.6841 159.668 31.6561L159.752 31.0041C159.976 31.0321 160.2 31.0641 160.42 31.1041L160.308 31.7521ZM156.76 31.5361L156.732 30.8761C156.952 30.8761 157.176 30.8761 157.404 30.8761V31.5321C157.176 31.5041 156.96 31.5081 156.744 31.5201L156.76 31.5361Z" fill="#EBEBEB"/>
<path d="M58.965 45.6502C61.6883 35.7361 55.8591 25.4915 45.945 22.7681C36.0309 20.0448 25.7862 25.874 23.0629 35.7881C20.3395 45.7022 26.1688 55.9468 36.0829 58.6702C45.997 61.3935 56.2416 55.5643 58.965 45.6502Z" fill="#EBEBEB"/>
<path d="M48.5737 57.5877C57.6586 53.8839 62.0208 43.5168 58.317 34.432C54.6133 25.3471 44.2461 20.9849 35.1613 24.6887C26.0765 28.3924 21.7143 38.7596 25.418 47.8444C29.1218 56.9292 39.4889 61.2914 48.5737 57.5877Z" fill="#DBDBDB"/>
<path d="M41.868 57.7761C51.058 57.7761 58.508 50.3261 58.508 41.1361C58.508 31.9461 51.058 24.4961 41.868 24.4961C32.678 24.4961 25.228 31.9461 25.228 41.1361C25.228 50.3261 32.678 57.7761 41.868 57.7761Z" fill="white"/>
<path opacity="0.5" d="M58.136 37.6C50.536 42.192 38.1 49.724 31.14 53.852C29.1726 52.193 27.616 50.1011 26.592 47.74L49.6 26.4C51.7543 27.5304 53.6349 29.1189 55.1096 31.0538C56.5843 32.9887 57.6173 35.2231 58.136 37.6Z" fill="#EBEBEB"/>
<path opacity="0.5" d="M58.5 41.7161C58.4398 43.5677 58.0679 45.396 57.4 47.1241L36.644 56.9401C35.7394 56.6431 34.8627 56.267 34.024 55.8161C40.292 52.1921 51.748 45.6001 58.5 41.7161Z" fill="#EBEBEB"/>
<path d="M42.028 25.7041H41.708V28.2281H42.028V25.7041Z" fill="#C7C7C7"/>
<path d="M34.2904 27.6863L34.0133 27.8463L35.2753 30.0322L35.5524 29.8722L34.2904 27.6863Z" fill="#C7C7C7"/>
<path d="M28.5813 33.2766L28.4213 33.5537L30.6071 34.8157L30.7671 34.5386L28.5813 33.2766Z" fill="#C7C7C7"/>
<path d="M28.96 40.9761H26.436V41.2961H28.96V40.9761Z" fill="#C7C7C7"/>
<path d="M30.6076 47.4513L28.4218 48.7133L28.5818 48.9904L30.7676 47.7284L30.6076 47.4513Z" fill="#C7C7C7"/>
<path d="M35.275 52.2328L34.0145 54.4196L34.2918 54.5794L35.5522 52.3926L35.275 52.2328Z" fill="#C7C7C7"/>
<path d="M42.028 54.0481H41.708V56.5721H42.028V54.0481Z" fill="#C7C7C7"/>
<path d="M48.4617 52.2355L48.1846 52.3955L49.4466 54.5814L49.7237 54.4214L48.4617 52.2355Z" fill="#C7C7C7"/>
<path d="M53.3153 47.2355L53.1553 47.5139L55.3512 48.7759L55.5111 48.4975L53.3153 47.2355Z" fill="#C7C7C7"/>
<path d="M57.304 40.9761H54.78V41.2961H57.304V40.9761Z" fill="#C7C7C7"/>
<path d="M55.1568 33.2839L52.9709 34.5459L53.1309 34.823L55.3168 33.561L55.1568 33.2839Z" fill="#C7C7C7"/>
<path d="M49.4468 27.6888L48.1855 29.8751L48.4627 30.035L49.724 27.8487L49.4468 27.6888Z" fill="#C7C7C7"/>
<path d="M42.1121 26.8441L42.6601 42.2601L41.0801 42.2401L41.6841 26.8401L42.1121 26.8441Z" fill="#C7C7C7"/>
<path d="M51.712 35.76L41.344 42.38L40.588 40.992L51.508 35.384L51.712 35.76Z" fill="#A6A6A6"/>
<path d="M42.4001 41.1361C42.4001 41.2429 42.3684 41.3473 42.3091 41.4361C42.2497 41.5249 42.1654 41.5941 42.0667 41.635C41.968 41.6758 41.8595 41.6865 41.7547 41.6657C41.65 41.6449 41.5537 41.5934 41.4782 41.5179C41.4027 41.4424 41.3513 41.3462 41.3304 41.2414C41.3096 41.1367 41.3203 41.0281 41.3612 40.9294C41.402 40.8307 41.4713 40.7464 41.5601 40.6871C41.6489 40.6277 41.7533 40.5961 41.8601 40.5961C42.0033 40.5961 42.1406 40.653 42.2419 40.7542C42.3432 40.8555 42.4001 40.9929 42.4001 41.1361Z" fill="#C7C7C7"/>
<path d="M33.036 130.824L27.788 130.932L25.124 130.98C24.232 130.98 23.336 130.98 22.444 131H22.268V130.824L22.244 126.348V126.144H22.444L27.74 126.168C29.508 126.168 31.272 126.212 33.036 126.232H33.148V126.34C33.148 127.096 33.112 127.852 33.096 128.6L33.036 130.824ZM33.036 130.824L32.98 128.56C32.98 127.816 32.936 127.08 32.928 126.348L33.036 126.456C31.272 126.476 29.508 126.52 27.74 126.52L22.444 126.548L22.644 126.348V130.824L22.464 130.644C23.336 130.644 24.208 130.644 25.084 130.664L27.716 130.712L33.036 130.824Z" fill="#EBEBEB"/>
<path d="M27.1281 136.468L21.8801 136.576L19.2161 136.624C18.3241 136.624 17.4281 136.624 16.5361 136.644H16.3601V136.468L16.3361 132V131.796H16.5361L21.8321 131.82C23.5961 131.82 25.3641 131.864 27.1281 131.884H27.2401V132C27.2401 132.756 27.2081 133.512 27.1881 134.26L27.1281 136.468ZM27.1281 136.468L27.0721 134.204C27.0521 133.46 27.0281 132.724 27.0201 131.992L27.1281 132.1C25.3641 132.12 23.5961 132.164 21.8321 132.164L16.5361 132.188L16.7361 131.992L16.7161 136.468L16.5361 136.288C17.4081 136.288 18.2801 136.288 19.1561 136.288L21.7881 136.336L27.1281 136.468Z" fill="#EBEBEB"/>
<path d="M135.44 80.9961L130.188 81.1081L127.524 81.1521C126.636 81.1721 125.74 81.1521 124.848 81.1761H124.672V80.9961L124.652 76.5201V76.3201H124.852L130.148 76.3481C131.912 76.3481 133.68 76.3921 135.444 76.4121H135.556V76.5201C135.556 77.2801 135.524 78.0361 135.504 78.7841L135.44 80.9961ZM135.44 80.9961L135.384 78.7361C135.384 77.9921 135.34 77.2521 135.332 76.5201L135.44 76.6321C133.676 76.6321 131.908 76.6921 130.144 76.6961L124.848 76.7201L125.048 76.5201L125.024 80.9961L124.848 80.8201C125.72 80.8201 126.592 80.8201 127.464 80.8201L130.096 80.8641L135.44 80.9961Z" fill="#EBEBEB"/>
<path d="M129.532 86.64L124.28 86.752L121.6 86.8C120.712 86.8 119.816 86.8 118.924 86.824H118.744V86.644V82.168V81.968H118.944L124.24 81.996C126.004 81.996 127.768 82.04 129.536 82.06H129.644V82.168C129.644 82.928 129.608 83.684 129.592 84.432L129.532 86.64ZM129.532 86.64L129.476 84.38C129.456 83.636 129.428 82.896 129.42 82.164L129.532 82.276C127.764 82.296 126 82.336 124.236 82.34L118.94 82.364L119.14 82.164L119.116 86.64L118.94 86.464C119.812 86.464 120.684 86.464 121.556 86.484L124.188 86.528L129.532 86.64Z" fill="#EBEBEB"/>
<path d="M123.644 80.9961L118.396 81.1081L115.732 81.1521C114.84 81.1721 113.948 81.1521 113.052 81.1761H112.876V80.9961L112.852 76.5201V76.3201H113.052L118.348 76.3481C120.116 76.3481 121.88 76.3921 123.644 76.4121H123.756V76.5201C123.756 77.2801 123.72 78.0361 123.704 78.7841L123.644 80.9961ZM123.644 80.9961L123.588 78.7361C123.588 77.9921 123.544 77.2521 123.536 76.5201L123.644 76.6321C121.88 76.6321 120.116 76.6921 118.348 76.6961L113.052 76.7201L113.252 76.5201L113.232 80.9961L113.052 80.8201C113.928 80.8201 114.796 80.8201 115.672 80.8201L118.304 80.8641L123.644 80.9961Z" fill="#EBEBEB"/>
<path d="M183.464 136.468L178.212 136.576L175.548 136.624C174.66 136.624 173.764 136.624 172.872 136.644H172.692V136.468L172.672 132V131.796H172.872L178.168 131.82C179.932 131.82 181.7 131.864 183.464 131.884H183.572V132C183.572 132.756 183.54 133.512 183.52 134.26L183.464 136.468ZM183.464 136.468L183.408 134.204C183.408 133.46 183.36 132.724 183.356 131.992L183.464 132.1C181.7 132.12 179.932 132.164 178.168 132.164L172.872 132.188L173.072 131.992L173.048 136.468L172.872 136.288C173.744 136.288 174.616 136.288 175.488 136.288L178.12 136.336L183.464 136.468Z" fill="#EBEBEB"/>
<path d="M177.556 26.996L172.304 27.104L169.64 27.152C168.752 27.152 167.856 27.152 166.964 27.172H166.8V26.992V22.516V22.312H167.004L172.3 22.336C174.064 22.336 175.828 22.38 177.596 22.4H177.704V22.508C177.704 23.268 177.668 24.02 177.652 24.768L177.556 26.996ZM177.556 26.996L177.5 24.732C177.48 23.988 177.452 23.252 177.444 22.52L177.556 22.628C175.788 22.628 174.024 22.692 172.26 22.692L166.964 22.72L167.164 22.52L167.14 26.996L166.964 26.816C167.836 26.816 168.704 26.816 169.58 26.84L172.212 26.884L177.556 26.996Z" fill="#EBEBEB"/>
<path d="M183.464 32.6401L178.212 32.7481L175.548 32.7961C174.66 32.7961 173.764 32.7961 172.872 32.8161H172.692V32.6401L172.672 28.1641V27.9601H172.872L178.168 27.9841C179.932 27.9841 181.7 28.0281 183.464 28.0481H183.572V28.1561C183.572 28.9121 183.54 29.6681 183.52 30.4161L183.464 32.6401ZM183.464 32.6401L183.408 30.3761C183.408 29.6321 183.36 28.8961 183.356 28.1641L183.464 28.2721C181.7 28.2721 179.932 28.3361 178.168 28.3361L172.872 28.3641L173.072 28.1641L173.048 32.6401L172.872 32.4601C173.744 32.4601 174.616 32.4601 175.488 32.4841L178.12 32.5281L183.464 32.6401Z" fill="#EBEBEB"/>
<path d="M33.036 26.996L27.788 27.104L25.124 27.152C24.232 27.152 23.336 27.152 22.444 27.172H22.268V26.992L22.244 22.52V22.316H22.444L27.74 22.34C29.508 22.34 31.272 22.384 33.036 22.404H33.148V22.512C33.148 23.272 33.112 24.024 33.096 24.772L33.036 26.996ZM33.036 26.996L32.98 24.732C32.98 23.988 32.936 23.252 32.928 22.52L33.036 22.628C31.272 22.628 29.508 22.692 27.74 22.692L22.444 22.72L22.644 22.52V26.996L22.444 26.8C23.316 26.8 24.188 26.8 25.064 26.824L27.696 26.868L33.036 26.996Z" fill="#EBEBEB"/>
<path d="M100 183.212C143.743 183.212 179.204 179.107 179.204 174.044C179.204 168.981 143.743 164.876 100 164.876C56.2569 164.876 20.796 168.981 20.796 174.044C20.796 179.107 56.2569 183.212 100 183.212Z" fill="#EBEBEB"/>
<path d="M43.848 88.088H38.8V82.66H33.384V77.628H38.8V72.196H43.832V77.628H49.26V82.66H43.848V88.088ZM39.532 87.372H43.132V81.944H48.56V78.344H43.132V72.912H39.532V78.344H34.1V81.944H39.532V87.372Z" fill="#3052C5"/>
<path d="M165.86 123.968H160.824V118.54H155.396V113.508H160.824V108.076H165.86V113.508H171.288V118.54H165.86V123.968ZM161.544 123.252H165.144V117.824H170.572V114.224H165.144V108.8H161.544V114.232H156.112V117.832H161.544V123.252Z" fill="#3052C5"/>
<path d="M139.416 31.4361V36.4681H133.988V41.9001H128.956V36.4681H123.524V31.4361H128.956V26.0081H133.988V31.4361H139.416Z" fill="#3052C5"/>
<path d="M90.8441 32.472C91.8881 32.44 96.2601 31.212 99.8761 34.784C103.3 38.164 106.152 49.66 107.156 52.104C108.16 54.548 111.556 54.4 112.8 57.2C113.88 59.628 112.184 60.856 112.288 62.744C112.372 64.212 114.172 66.144 113.196 68.488C112.312 70.62 110.14 70.548 108.964 71.36C107.788 72.172 107.468 75.24 105.24 76.412C103.012 77.584 100.592 75.768 99.3441 75.98C98.0961 76.192 97.2281 80.26 93.1001 80.576C88.9721 80.892 87.2441 77.632 85.4521 77.22C83.6601 76.808 79.624 78.66 77.36 76.864C75.096 75.068 74.3161 72.316 73.2801 71.424C72.2441 70.532 70.4561 70.984 68.9961 68.764C67.5361 66.544 69.5121 64.672 69.4961 62.548C69.4961 61.068 67.9881 59.944 68.5361 57.592C69.2921 54.36 73.1081 54.416 74.0281 51.072C74.7481 48.452 75.344 37.472 81.3481 33.812C85.5081 31.312 90.8441 32.472 90.8441 32.472Z" fill="#263238"/>
<path d="M106.936 51.512C107.267 52.0128 107.717 52.4248 108.244 52.712L109.752 53.644C110.772 54.1983 111.698 54.9096 112.496 55.752C112.868 56.154 113.141 56.6365 113.295 57.1618C113.449 57.6871 113.48 58.2409 113.384 58.78C113.256 59.3265 113.044 59.85 112.756 60.332C112.422 60.8611 112.167 61.4366 112 62.04C111.944 62.7042 112.11 63.3682 112.472 63.928C112.748 64.464 113.044 64.968 113.292 65.488C113.792 66.512 114.06 67.644 113.692 68.688C113.531 69.2066 113.199 69.656 112.752 69.964C112.274 70.267 111.741 70.4748 111.184 70.576C110.616 70.708 110.032 70.784 109.444 70.884C108.845 70.9345 108.275 71.1645 107.808 71.544C108.305 71.2317 108.881 71.0653 109.468 71.064C110.056 71.012 110.648 70.988 111.244 70.9C111.856 70.8233 112.447 70.6276 112.984 70.324C113.535 69.9842 113.957 69.4705 114.184 68.864C114.692 67.664 114.348 66.296 113.844 65.22C113.596 64.668 113.3 64.144 113.044 63.62C112.756 63.1822 112.615 62.6634 112.644 62.14C112.844 61.156 113.76 60.14 113.968 58.884C114.078 58.2551 114.034 57.6091 113.841 57.0006C113.648 56.3921 113.312 55.839 112.86 55.388C111.987 54.5537 110.986 53.8637 109.896 53.344L108.296 52.544C107.773 52.3026 107.309 51.9505 106.936 51.512Z" fill="#263238"/>
<path d="M76.4 40.772C75.576 42.736 75.2 44.844 74.632 46.868C74.344 47.88 74.092 48.904 73.732 49.88C73.5705 50.3578 73.3572 50.8165 73.096 51.248C73.0432 51.3479 72.9743 51.4385 72.892 51.516C72.8192 51.6035 72.7344 51.6803 72.64 51.744C72.44 51.896 72.24 52.036 72.004 52.172C71.0892 52.7244 70.2028 53.3225 69.348 53.964C68.4441 54.6317 67.7703 55.5641 67.42 56.632C67.2568 57.1789 67.2348 57.7582 67.356 58.316C67.5027 58.851 67.7497 59.3532 68.084 59.796C68.72 60.648 69.328 61.504 69.528 62.564C69.488 61.484 68.896 60.508 68.36 59.616C68.0807 59.1936 67.8827 58.7229 67.776 58.228C67.7 57.7422 67.7495 57.2451 67.92 56.784C68.2858 55.8456 68.9151 55.033 69.732 54.444C70.5825 53.8315 71.4636 53.2627 72.372 52.74C72.596 52.592 72.82 52.44 73.04 52.268C73.2687 52.0842 73.459 51.8572 73.6 51.6C73.881 51.1227 74.1077 50.6156 74.276 50.088C74.6145 49.074 74.8897 48.04 75.1 46.992L75.708 43.872C75.8779 42.826 76.109 41.7909 76.4 40.772Z" fill="#263238"/>
<path d="M72.1841 70.8879C72.7241 71.4159 72.9081 72.1879 73.1921 72.8879C73.4761 73.5879 73.7401 74.3039 74.0521 75.0039C74.3554 75.7179 74.7335 76.3977 75.1801 77.0319C75.638 77.702 76.2515 78.251 76.9681 78.6319C78.5401 79.3159 80.2121 78.9359 81.6321 78.4359C82.3561 78.1799 83.0521 77.8879 83.7641 77.6359C84.4572 77.3492 85.2085 77.2313 85.9561 77.2919C85.2059 77.0987 84.418 77.107 83.6721 77.3159C82.9241 77.4919 82.2041 77.7159 81.4761 77.9239C80.0601 78.3239 78.5161 78.5759 77.2561 78.0039C76.6344 77.6703 76.0989 77.1964 75.6921 76.6199C75.2502 76.0273 74.8569 75.3999 74.5161 74.7439C74.1561 74.0839 73.8321 73.4039 73.4921 72.7439C73.3161 72.4039 73.1361 72.0679 72.9401 71.7399C72.7647 71.3963 72.5045 71.103 72.1841 70.8879Z" fill="#263238"/>
<path d="M111.46 162.436H76.8121L74.7521 119.58H105.712L111.46 162.436Z" fill="#37474F"/>
<path d="M96.0161 119.58L92.3561 148.604L92.3521 148.648L92.2721 149.252L92.1241 150.44L91.9561 151.764L91.8961 152.236L91.8481 152.616L90.6121 162.436H76.8121L74.7521 119.58H96.0161Z" fill="#263238"/>
<path d="M104.424 162.436H103.508C103.46 162.056 103.416 161.68 103.368 161.3C102.136 151.3 100.94 141.3 99.9 131.3C99.804 130.384 99.708 129.464 99.616 128.548C99.616 128.404 99.848 128.376 99.868 128.52C99.952 129.136 100.04 129.752 100.12 130.368C101.6 141.048 103.008 151.744 104.424 162.436Z" fill="#263238"/>
<path d="M102.568 119.548C102.569 119.559 102.569 119.569 102.568 119.58C102.476 120.008 101.464 124.704 100.128 130.38C100.056 130.688 99.9841 131 99.9081 131.312C99.3161 133.788 98.6721 136.408 98.0201 138.912C96.6121 144.348 95.1681 149.22 94.1841 150.824C94.0769 151.023 93.9282 151.196 93.7481 151.332C93.4281 151.52 92.7481 151.856 91.9041 152.252L91.3441 152.512L90.8641 152.732C88.9441 153.612 86.6361 154.62 85.5681 155.064V155.148L85.1961 162.444H52.5601L56.0161 141.644L60.1881 119.568L102.568 119.548Z" fill="#37474F"/>
<path d="M96.5681 149.904C92.7711 151.286 89.1014 152.995 85.6001 155.012C85.5733 155.028 85.5533 155.053 85.5441 155.082C85.5348 155.112 85.5368 155.143 85.5499 155.171C85.5629 155.2 85.5859 155.222 85.6145 155.234C85.643 155.246 85.6749 155.246 85.7041 155.236C89.3961 153.636 93.1641 152.132 96.7641 150.344C96.8224 150.318 96.868 150.27 96.8909 150.21C96.9138 150.151 96.9121 150.084 96.8861 150.026C96.8601 149.968 96.812 149.922 96.7523 149.899C96.6927 149.876 96.6264 149.878 96.5681 149.904Z" fill="#263238"/>
<path d="M97.68 124.608C97.68 124.48 97.448 124.452 97.448 124.608C97.476 129.008 97.196 132.848 96.828 136.948C96.656 138.848 95.128 149.348 91.828 148.596C91.276 148.468 90.992 147.924 90.908 147.092C90.804 146.088 91.18 144.864 91.344 143.868C91.712 141.668 92.004 139.468 92.192 137.236C92.5782 133.097 92.5339 128.93 92.06 124.8C92.0552 124.775 92.042 124.753 92.0227 124.737C92.0034 124.721 91.9791 124.713 91.954 124.713C91.929 124.713 91.9047 124.721 91.8854 124.737C91.866 124.753 91.8528 124.775 91.848 124.8C91.848 130.544 91.7 136.276 90.844 141.968C90.444 144.7 89.052 148.816 91.912 149.24C94.772 149.664 96.712 142.772 97.064 140.884C98.056 135.6 98.096 129.936 97.68 124.608Z" fill="#263238"/>
<path d="M91.9161 148.864C91.6205 149.572 91.3719 150.299 91.1721 151.04C90.9617 151.614 90.8573 152.221 90.8641 152.832C90.8641 152.948 91.0321 152.96 91.0921 152.88C91.4355 152.343 91.6945 151.756 91.8601 151.14C92.1121 150.464 92.3761 149.796 92.6081 149.116C92.6415 149.024 92.6371 148.923 92.5958 148.834C92.5546 148.746 92.4798 148.677 92.3881 148.644C92.2963 148.611 92.195 148.615 92.1065 148.656C92.018 148.697 91.9495 148.772 91.9161 148.864Z" fill="#263238"/>
<path d="M67.504 151.048C67.176 154.848 66.788 158.648 66.38 162.436H66.024C66.424 158.636 66.88 154.836 67.372 151.044C67.384 150.96 67.512 150.96 67.504 151.048Z" fill="#263238"/>
<path d="M89.9001 81.2239C92.8881 90.9679 105.82 125.772 114.492 131.076C120.168 134.544 148.676 136.516 154.16 133.972C157.204 132.556 156.256 109.532 152.668 109.404C148.192 109.244 126.188 108.652 123.752 107.488C121.316 106.324 104.88 84.344 98.6161 77.684C87.8201 66.196 87.9081 74.7359 89.9001 81.2239Z" fill="#AD6359"/>
<path d="M145.848 107.676L141.784 135.836C141.784 135.836 118.632 136.516 112.32 131.352C103.324 124 90.4241 86.7999 88.9601 80.9799C85.4921 67.1799 93.2201 69.4839 99.3001 76.1799C103.248 80.5399 118.78 102.844 124.532 106.952C126.164 108.132 145.848 107.676 145.848 107.676Z" fill="#EBEBEB"/>
<path d="M136.08 134.456C136.556 130.276 139.128 113.256 139.932 109.604C139.988 109.352 140.164 109.324 140.14 109.604C139.016 122.16 136.94 130.404 136.248 134.476C136.228 134.572 136.068 134.564 136.08 134.456Z" fill="#263238"/>
<path d="M105.724 109.124L109.592 135.724C109.592 135.724 66.2401 136.364 55.4761 135.608C55.4761 135.608 64.2561 85.876 75.8281 73.308C81.6161 67.024 88.4121 67.496 92.7441 71.888C93.8401 73 106.916 90.288 108.292 96.884C109.492 102.708 105.724 109.124 105.724 109.124Z" fill="#3052C5"/>
<path d="M88.8321 106.156C91.1435 105.947 93.467 105.909 95.7841 106.04C96.9321 106.124 98.0721 106.256 99.2121 106.416C99.7801 106.496 100.352 106.556 100.92 106.612C101.518 106.686 102.122 106.686 102.72 106.612C102.772 106.612 102.784 106.684 102.72 106.696C102.166 106.823 101.605 106.913 101.04 106.968C100.491 107.006 99.9407 107.006 99.3921 106.968C98.2241 106.896 97.0601 106.772 95.8921 106.688C93.5401 106.52 91.1881 106.348 88.8281 106.352C88.7281 106.352 88.7241 106.168 88.8321 106.156Z" fill="#263238"/>
<path d="M83.6001 109.2C85.4411 108.664 87.3107 108.231 89.2001 107.904C90.1441 107.744 91.0921 107.64 92.0481 107.56C92.5001 107.524 92.9601 107.492 93.4161 107.468C93.8721 107.444 94.4241 107.468 94.9241 107.468C94.9761 107.468 94.9921 107.544 94.9241 107.552C94.4521 107.596 93.9841 107.72 93.5161 107.796L92.1001 108.012C91.1601 108.16 90.2201 108.32 89.2721 108.46C87.3841 108.736 85.5041 109.032 83.6241 109.376C83.5041 109.364 83.4881 109.22 83.6001 109.2Z" fill="#263238"/>
<path d="M83.3521 162.436H49.1481C53.1481 137.308 57.9481 111.572 62.5681 98.6199C72.5121 70.6959 80.6281 69.6279 80.6281 69.6279V69.6599C80.6721 70.8399 81.8281 102.492 82.7161 135.968C82.9561 144.84 83.1761 153.84 83.3521 162.436Z" fill="#EBEBEB"/>
<path d="M77.704 147.44C77.704 146.464 77.488 141.84 77.4 140.908C77.4 140.8 77.36 140.584 77.272 140.584C75.996 140.584 71.568 141.036 67.108 141.036C63.9188 140.976 60.7359 140.728 57.576 140.292C57.428 140.336 57.428 145.416 57.348 147.872C57.188 152.996 57.424 158.792 58.516 159.872C60.556 161.872 65.992 161.7 67.716 161.684C69.44 161.668 75.516 161.664 76.944 158.528C77.552 157.124 77.72 149.972 77.704 147.44ZM76.904 152.64C76.832 155.168 76.752 157.44 75.78 158.772C74.948 159.896 72.6 161.028 67.196 161.024C63.292 161.024 59.996 160.308 59.096 159.268C58.016 158.024 57.896 154.448 57.896 152.312C57.896 149.364 57.896 147.008 57.896 144.064C65.444 145.816 73.748 144.952 76.896 144.316C76.908 144.44 76.976 150.66 76.916 152.64H76.904ZM76.924 143.84C67.12 145.1 61.052 144.048 57.908 143.44C57.908 142.496 57.908 141.76 57.908 140.812C59.256 141.152 63.792 141.692 67.192 141.692C70.356 141.692 75.004 141.252 76.976 141.016C76.92 141.792 76.96 143.48 76.936 143.836L76.924 143.84Z" fill="#DBDBDB"/>
<path d="M79.6 82.756C77.676 90.72 67.78 119.048 65.32 121.504C62.388 124.432 49.604 133.436 45.148 121.448C42.06 113.148 63.044 84.052 72.96 74.648C77.8 70.084 82.82 69.412 79.6 82.756Z" fill="#EBEBEB"/>
<path d="M76.2161 97.268C75.6161 98.376 74.9561 99.452 74.3081 100.532C74.4601 100.132 74.6081 99.732 74.7521 99.332C75.3761 97.608 75.9521 95.864 76.5881 94.132C76.6121 94.076 76.5241 94.056 76.5001 94.108C75.8321 95.608 75.1241 97.096 74.4721 98.608C73.8201 100.12 73.2721 101.576 72.6801 103.076C71.5161 106.096 70.3361 109.112 69.2561 112.164C68.617 113.851 68.0695 115.57 67.6161 117.316C67.6161 117.364 67.6761 117.4 67.7001 117.352C68.4161 115.908 68.9801 114.388 69.5561 112.884C70.1321 111.38 70.7081 109.892 71.2681 108.388C71.8281 106.884 72.4241 105.328 73.0161 103.804C73.3121 103.036 73.6201 102.276 73.9201 101.512C74.8388 100.178 75.6201 98.7551 76.2521 97.264C76.2601 97.264 76.2241 97.248 76.2161 97.268Z" fill="#263238"/>
<path d="M80.2681 69.6639C79.2014 71.9146 78.1667 74.1813 77.1641 76.4639C76.1641 78.7439 75.1321 81.0079 74.1641 83.3039L74.0441 83.5919L74.3041 83.7679L78.5001 86.6039L78.4001 85.9999C77.2601 87.7039 76.1561 89.4279 75.0441 91.1479L74.9361 91.3159L74.9961 91.4999C76.1201 94.9839 77.2041 98.4799 78.3841 101.948C79.5641 105.416 80.7201 108.888 81.9601 112.348C81.0081 108.807 80.0107 105.283 78.9681 101.776C77.9601 98.2559 76.8561 94.7679 75.7921 91.2639L75.7441 91.6159C76.8721 89.9079 78.0081 88.2039 79.1121 86.4759L79.3401 86.1159L78.9921 85.8879L74.7441 83.1279L74.8881 83.5919C75.8401 81.2919 76.7201 78.9639 77.6401 76.6519C78.5601 74.3399 79.4121 71.9999 80.2681 69.6639Z" fill="#DBDBDB"/>
<path d="M113.772 162.436H101.42C100.688 153.784 99.936 144.74 99.192 135.848C98.132 123.14 97.084 110.74 96.108 100.22C95.2358 90.4302 93.6949 80.7115 91.496 71.132C91.44 70.888 91.404 70.732 91.396 70.712C91.388 70.692 91.396 70.712 91.396 70.712C91.8901 71.0197 92.3317 71.4046 92.704 71.852C92.7163 71.8663 92.7297 71.8797 92.744 71.892L92.876 72.04C92.9115 72.0753 92.9449 72.1127 92.976 72.152C95.1 74.484 98.652 79.252 101.812 84.152C104.86 88.872 107.548 93.708 108.212 96.58L108.248 96.74C108.268 96.832 108.284 96.92 108.3 97.008C108.431 97.7695 108.504 98.5396 108.52 99.312C108.55 102.468 107.733 105.574 106.156 108.308C106.146 108.331 106.134 108.354 106.12 108.376C106.016 108.552 105.952 108.644 105.952 108.644V108.688L110 136.4L113.772 162.436Z" fill="#EBEBEB"/>
<path d="M104.024 88.208C102.824 86.28 101.572 84.372 100.384 82.428C100.348 82.372 100.436 82.308 100.476 82.36C101.676 83.96 102.876 85.56 104.04 87.188C103.64 86.32 103.276 85.448 102.928 84.56C102.888 84.46 103.028 84.376 103.076 84.476C103.616 85.616 104.1 86.776 104.58 87.944C105.625 89.3921 106.55 90.9225 107.348 92.52C109 95.916 109.712 99.628 108.816 103.34C108.573 104.366 108.211 105.359 107.736 106.3C107.416 106.94 106.372 108.332 106.38 108.372C107.06 112.164 107.58 116 108.104 119.816C108.628 123.632 109.192 127.536 109.644 131.416C109.896 133.608 110.044 135.816 110.38 138.004C110.38 138.084 110.268 138.116 110.256 138.036C109.98 136.132 109.568 134.248 109.228 132.352C108.888 130.456 108.572 128.56 108.264 126.656C107.648 122.816 107.096 118.96 106.54 115.108C106.228 112.932 105.884 110.752 105.636 108.564C105.608 108.324 106.592 106.772 106.884 106.164C107.273 105.358 107.592 104.521 107.836 103.66C108.337 101.911 108.492 100.081 108.292 98.272C107.872 94.584 105.96 91.3 104.024 88.208Z" fill="#263238"/>
<path d="M91.4961 71.132C92.7708 73.068 94.0681 74.9866 95.3881 76.888C96.7161 78.784 98.0121 80.704 99.3641 82.58L99.3921 82.132L96.1441 85.536L95.8761 85.816L96.1601 86.092C97.5281 87.416 98.9201 88.716 100.308 90.02L100.192 89.684C99.6881 93.212 99.1481 96.732 98.7001 100.268C98.2521 103.804 97.7761 107.336 97.3881 110.88C98.0601 107.376 98.6721 103.868 99.2601 100.352C99.8481 96.836 100.396 93.316 100.956 89.8L100.988 89.6L100.84 89.46C99.4681 88.14 98.0961 86.816 96.7041 85.52V86.076L99.9041 82.612L100.104 82.396L99.9321 82.164C98.5681 80.296 97.1321 78.468 95.7561 76.616C94.3801 74.764 92.9401 72.948 91.4961 71.132Z" fill="#DBDBDB"/>
<path d="M75.88 75.628C75.556 70.896 81.288 69.016 84.832 68.528C89.028 67.952 91.824 68.3 93.844 72.372C95.972 76.664 97.088 81.644 97.924 86.344C98.08 87.22 99.448 87 99.292 86.12C98.328 80.708 96.944 70.608 91.552 67.672C86.588 64.964 73.952 67.832 74.512 75.848C74.572 76.74 75.94 76.512 75.88 75.628Z" fill="#455A64"/>
<path d="M102.168 88.308C102.273 88.9337 102.19 89.5766 101.929 90.1549C101.668 90.7332 101.24 91.2208 100.701 91.5557C100.162 91.8907 99.5361 92.0578 98.902 92.036C98.2678 92.0141 97.6545 91.8042 97.1399 91.433C96.6254 91.0617 96.2328 90.5458 96.0121 89.9509C95.7914 89.356 95.7525 88.7089 95.9004 88.0919C96.0484 87.4748 96.3764 86.9157 96.8428 86.4855C97.3093 86.0553 97.8931 85.7736 98.5201 85.676C98.9324 85.6091 99.3539 85.6242 99.7605 85.7203C100.167 85.8165 100.551 85.9917 100.889 86.2362C101.228 86.4806 101.515 86.7894 101.735 87.1448C101.954 87.5003 102.101 87.8956 102.168 88.308Z" fill="#263238"/>
<path d="M100.916 88.5119C100.974 88.886 100.919 89.2688 100.76 89.612C100.6 89.9552 100.342 90.2434 100.019 90.4403C99.6959 90.6372 99.3215 90.7339 98.9433 90.7183C98.5652 90.7027 98.2001 90.5754 97.8942 90.3525C97.5883 90.1296 97.3552 89.8211 97.2244 89.4659C97.0937 89.1107 97.071 88.7247 97.1594 88.3567C97.2477 87.9886 97.4431 87.655 97.7209 87.3979C97.9986 87.1408 98.3463 86.9717 98.7201 86.9119C98.9695 86.8715 99.2244 86.881 99.4701 86.9397C99.7159 86.9984 99.9475 87.1052 100.152 87.254C100.356 87.4028 100.529 87.5905 100.66 87.8065C100.791 88.0224 100.878 88.2622 100.916 88.5119Z" fill="#EBEBEB"/>
<path d="M80.6921 90.452C84.1921 103.744 83.6521 106.992 82.5481 108.52C81.7159 109.589 80.6482 110.451 79.4281 111.04L79.0281 110.164L79.2281 110.6L79.0281 110.164C80.094 109.641 81.0299 108.886 81.7681 107.956C82.5681 106.852 83.2241 103.86 79.7681 90.696L80.6921 90.452Z" fill="#C7C7C7"/>
<path d="M77.3203 110.97L77.8862 111.992C78.005 112.207 78.2752 112.284 78.4897 112.165L80.6382 110.975C80.8527 110.857 80.9303 110.586 80.8115 110.372L80.2456 109.35C80.1268 109.136 79.8566 109.058 79.6421 109.177L77.4936 110.367C77.2791 110.486 77.2015 110.756 77.3203 110.97Z" fill="#263238"/>
<path d="M72 90.8C69.364 100.8 68.728 106.304 70 108.06C70.738 108.989 71.6741 109.742 72.74 110.264L72.34 111.144C71.1199 110.555 70.0522 109.693 69.22 108.624C67.708 106.536 68.244 101.3 71.072 90.556L72 90.8Z" fill="#C7C7C7"/>
<path d="M71.5314 109.451L70.9662 110.473C70.8475 110.688 70.9253 110.958 71.1399 111.077L73.2892 112.265C73.5038 112.384 73.774 112.306 73.8926 112.091L74.4578 111.069C74.5765 110.855 74.4987 110.585 74.2841 110.466L72.1348 109.277C71.9202 109.159 71.65 109.237 71.5314 109.451Z" fill="#263238"/>
<path d="M70.7481 90.1199C71.1879 87.9027 71.7636 85.7145 72.4721 83.5679C72.8913 82.6203 73.5571 81.8026 74.4001 81.1999C74.5921 81.1799 74.5081 79.4919 74.4001 78.1159C74.3121 76.9159 74.1841 75.4839 74.4761 75.0919C74.6446 74.9107 74.8771 74.8023 75.1243 74.7896C75.3714 74.7769 75.6138 74.8609 75.8001 75.0239C76.1321 75.3799 76.1521 76.8039 76.2001 78.0239C76.2481 79.4039 76.3441 81.0879 76.5361 81.0879C77.3888 81.6409 78.0954 82.3915 78.5961 83.2759C79.5285 85.3945 80.2987 87.5807 80.9001 89.8159C81.2081 91.2399 80.7401 91.4159 80.3321 91.5599C79.7561 91.7559 79.3881 91.3599 78.9361 89.7839C78.2161 87.2879 77.3081 83.0839 75.5681 83.0959C73.8441 83.2719 73.1441 87.7239 72.5921 90.2079C72.2441 91.7639 71.9161 91.9119 71.3201 91.7759C70.9041 91.6759 70.4761 91.4999 70.7481 90.1199Z" fill="#263238"/>
<path d="M91.78 69.916C91.78 69.916 92.18 77.624 90.756 77.752C86.44 78.152 81.6401 72.216 81.3761 71.276C81.3081 71.036 81.6561 65.052 81.9401 60.4C82.1201 57.408 82.2761 54.968 82.2761 54.968L93.304 61.288L91.8841 69.34L91.78 69.916Z" fill="#AD6359"/>
<path d="M93.3041 61.288L91.8841 69.34C89.6916 68.632 87.6729 67.4699 85.9595 65.9295C84.2462 64.3892 82.8766 62.5051 81.9401 60.4C82.1201 57.408 82.2761 54.968 82.2761 54.968L83.6641 55.704L93.3041 61.288Z" fill="#263238"/>
<path d="M104.656 48.4639C106.956 62.6319 98.728 65.6079 95.672 66.0999C92.9 66.5479 83.4 67.7199 79.648 53.8639C75.896 40.0079 81.756 34.4639 88.048 33.1039C94.34 31.7439 102.356 34.2959 104.656 48.4639Z" fill="#AD6359"/>
<path d="M101.2 46.716C100.869 46.6954 100.539 46.6566 100.212 46.6C99.8604 46.6078 99.516 46.4996 99.2321 46.292C99.1559 46.2092 99.1091 46.1036 99.099 45.9915C99.0889 45.8794 99.116 45.7671 99.1761 45.672C99.3231 45.5055 99.5115 45.3808 99.7222 45.3105C99.933 45.2403 100.159 45.227 100.376 45.272C100.839 45.2938 101.276 45.4895 101.6 45.82C101.666 45.8982 101.709 45.9936 101.724 46.0951C101.738 46.1967 101.724 46.3003 101.682 46.394C101.64 46.4876 101.573 46.5676 101.488 46.6246C101.402 46.6816 101.303 46.7132 101.2 46.716Z" fill="#263238"/>
<path d="M91.6001 47.948C91.9321 47.876 92.2241 47.756 92.5441 47.656C92.8932 47.5999 93.2139 47.4297 93.4561 47.172C93.5163 47.0766 93.5431 46.964 93.5322 46.8517C93.5214 46.7395 93.4735 46.634 93.3961 46.552C93.2203 46.411 93.0098 46.3199 92.7867 46.2882C92.5636 46.2566 92.3361 46.2855 92.1281 46.372C91.6784 46.4793 91.2848 46.7503 91.0241 47.132C90.9706 47.2229 90.9445 47.3272 90.9488 47.4326C90.9532 47.5379 90.9879 47.6398 91.0487 47.7259C91.1095 47.812 91.1938 47.8788 91.2916 47.9182C91.3894 47.9576 91.4965 47.9679 91.6001 47.948Z" fill="#263238"/>
<path d="M94.292 51.1759C94.292 51.1399 94.224 51.2279 94.228 51.2679C94.372 52.2359 94.372 53.3679 93.528 53.7919C93.504 53.7919 93.528 53.8519 93.528 53.8439C94.596 53.5719 94.584 52.0679 94.292 51.1759Z" fill="#263238"/>
<path d="M93.308 50.26C91.736 50.32 91.972 53.46 93.432 53.412C94.892 53.364 94.628 50.208 93.308 50.26Z" fill="#263238"/>
<path d="M92.704 50.472C92.444 50.672 92.196 51.008 91.868 51.064C91.54 51.12 91.172 50.824 90.9 50.524C90.872 50.496 90.844 50.524 90.848 50.568C90.884 51.168 91.164 51.768 91.816 51.812C92.468 51.856 92.796 51.284 92.9 50.664C92.92 50.552 92.8 50.4 92.704 50.472Z" fill="#263238"/>
<path d="M99.648 50.4519C99.648 50.4119 99.728 50.4919 99.728 50.5319C99.764 51.5079 99.968 52.6199 100.872 52.8839C100.9 52.8839 100.9 52.9439 100.872 52.9399C99.78 52.8639 99.524 51.3799 99.648 50.4519Z" fill="#263238"/>
<path d="M100.448 49.372C102.008 49.148 102.344 52.284 100.9 52.492C99.456 52.7 99.14 49.564 100.448 49.372Z" fill="#263238"/>
<path d="M101.124 49.508C101.392 49.648 101.668 49.908 101.968 49.908C102.268 49.908 102.528 49.508 102.712 49.18C102.732 49.144 102.76 49.18 102.764 49.208C102.848 49.808 102.716 50.452 102.152 50.628C101.588 50.804 101.196 50.316 100.988 49.736C100.952 49.632 101.016 49.452 101.124 49.508Z" fill="#263238"/>
<path d="M95.104 58.7999C95.344 59.0199 95.588 59.3279 95.944 59.3479C96.3075 59.33 96.6632 59.236 96.988 59.0719C96.9945 59.0686 97.0019 59.0676 97.009 59.069C97.0162 59.0704 97.0226 59.0743 97.0273 59.0799C97.0319 59.0855 97.0346 59.0925 97.0347 59.0998C97.0348 59.1071 97.0325 59.1142 97.028 59.1199C96.8966 59.3128 96.7161 59.4671 96.5052 59.5669C96.2942 59.6668 96.0605 59.7085 95.828 59.6879C95.6263 59.6432 95.4425 59.5394 95.3 59.3898C95.1575 59.2402 95.0628 59.0516 95.028 58.8479C94.996 58.7999 95.068 58.7999 95.104 58.7999Z" fill="#263238"/>
<path d="M98.8681 54.9359C98.8681 54.9359 99.1961 56.3719 99.2681 57.0599C99.2681 57.1239 99.1081 57.1679 98.8681 57.2039C98.8681 57.2039 98.8681 57.2039 98.8441 57.2039C98.265 57.3635 97.6531 57.3602 97.0758 57.1943C96.4985 57.0285 95.9782 56.7065 95.5721 56.2639C95.5161 56.1999 95.5961 56.1239 95.6641 56.1599C96.5912 56.6806 97.6616 56.8882 98.7161 56.7519C98.7481 56.5599 98.0721 54.3119 98.1801 54.2959C98.7209 54.2934 99.2594 54.3661 99.7801 54.5119C99.1841 51.4999 98.1081 48.6079 97.5601 45.5999C97.5585 45.5787 97.5639 45.5575 97.5757 45.5398C97.5874 45.522 97.6047 45.5086 97.6248 45.5017C97.645 45.4948 97.6669 45.4949 97.687 45.5018C97.7072 45.5087 97.7244 45.5221 97.7361 45.5399C99.0761 48.4919 99.8401 51.9399 100.536 55.0359C100.608 55.4199 99.1521 55.0279 98.8681 54.9359Z" fill="#263238"/>
<path d="M98.088 57.068C97.7661 57.5307 97.329 57.9016 96.82 58.144C96.5392 58.2705 96.2253 58.3041 95.924 58.24C95.268 58.1 95.228 57.504 95.324 56.988C95.3768 56.712 95.4628 56.4434 95.58 56.188C96.2994 56.7438 97.1791 57.0525 98.088 57.068Z" fill="#263238"/>
<path d="M96.82 58.144C96.5392 58.2705 96.2253 58.3042 95.924 58.24C95.268 58.1 95.228 57.504 95.324 56.988C96.02 57.032 96.732 57.472 96.82 58.144Z" fill="#FF99BA"/>
<path d="M79.648 54.4C80.5716 53.9571 81.3643 53.2819 81.9484 52.4404C82.5326 51.5989 82.888 50.6202 82.98 49.6C85.4925 48.5131 87.6699 46.7762 89.288 44.568C89.192 44.864 88.488 46.996 88.088 48.068C97.192 46.412 100.04 39.464 100.04 39.464C102.98 42.42 103.56 44.308 103.98 45.248C103.98 45.248 104.076 39.648 101.22 35.916C100.26 34.6207 98.9411 33.6352 97.4269 33.0814C95.9126 32.5276 94.2693 32.4298 92.7 32.8C90.5571 32.0599 88.2434 31.9688 86.049 32.538C83.8545 33.1073 81.8769 34.3116 80.364 36C74.424 42.4 79.648 54.4 79.648 54.4Z" fill="#263238"/>
<path d="M95.0161 46.616C93.5512 47.4085 91.9767 47.9787 90.3441 48.308C90.3441 48.308 90.3241 48.308 90.3441 48.308C92.9037 47.6211 95.222 46.2362 97.0401 44.308C97.8122 43.4836 98.4762 42.5642 99.0161 41.572C99.6496 40.5095 100.067 39.3323 100.244 38.108C100.248 38.0923 100.257 38.0783 100.27 38.0683C100.282 38.0583 100.298 38.0529 100.314 38.0529C100.33 38.0529 100.346 38.0583 100.359 38.0683C100.371 38.0783 100.38 38.0923 100.384 38.108C100.342 39.3411 100.092 40.5582 99.6441 41.708C99.1485 42.8144 98.4559 43.8214 97.6001 44.68C96.833 45.4441 95.9617 46.0959 95.0121 46.616" fill="#263238"/>
<path d="M92.5161 56.4C91.6778 56.4192 90.8509 56.2028 90.1295 55.7754C89.4081 55.3479 88.8211 54.7266 88.4354 53.982C88.0496 53.2375 87.8806 52.3996 87.9475 51.5638C88.0144 50.7279 88.3145 49.9276 88.8138 49.2539C89.313 48.5802 89.9913 48.0601 90.7715 47.7528C91.5517 47.4455 92.4025 47.3634 93.2271 47.5157C94.0517 47.668 94.817 48.0487 95.4359 48.6145C96.0548 49.1803 96.5025 49.9084 96.7281 50.716C97.0465 51.8606 96.8976 53.0849 96.3142 54.1198C95.7307 55.1548 94.7603 55.9159 93.6161 56.236C93.2574 56.3352 92.888 56.3902 92.5161 56.4ZM92.3241 48.04C92.0006 48.047 91.6793 48.0954 91.3681 48.184C90.4189 48.4513 89.6074 49.0703 89.0986 49.915C88.5899 50.7597 88.4222 51.7665 88.6297 52.7305C88.8372 53.6945 89.4043 54.5431 90.2155 55.1036C91.0268 55.6642 92.0212 55.8945 92.9962 55.7476C93.9713 55.6007 94.8537 55.0877 95.4638 54.3131C96.0739 53.5385 96.3659 52.5604 96.2802 51.5781C96.1946 50.5958 95.7377 49.683 95.0027 49.0257C94.2677 48.3684 93.3098 48.0159 92.3241 48.04Z" fill="#3052C5"/>
<path d="M102.688 54.92C100.976 54.96 99.38 53.24 99.052 50.92C98.8781 49.8164 99.0543 48.6861 99.556 47.688C99.7467 47.2485 100.047 46.8652 100.428 46.5749C100.809 46.2846 101.259 46.097 101.733 46.03C102.207 45.963 102.691 46.0188 103.138 46.1921C103.584 46.3654 103.979 46.6505 104.284 47.02C105.042 47.8422 105.524 48.8817 105.66 49.992C106.004 52.436 104.804 54.636 102.98 54.892C102.884 54.9094 102.786 54.9188 102.688 54.92ZM102.044 46.6C101.968 46.596 101.892 46.596 101.816 46.6C101.44 46.6716 101.087 46.832 100.786 47.0679C100.484 47.3037 100.244 47.6082 100.084 47.956C99.643 48.8431 99.4906 49.8459 99.648 50.824C99.944 52.944 101.4 54.5 102.896 54.288C104.392 54.076 105.364 52.18 105.068 50.064C104.95 49.0813 104.531 48.1592 103.868 47.424C103.639 47.1665 103.358 46.96 103.044 46.8181C102.729 46.6761 102.389 46.6018 102.044 46.6Z" fill="#3052C5"/>
<path d="M96.652 51.256L96.204 50.856C96.8 50.196 98.248 49.22 99.492 50.224L99.116 50.692C98 49.788 96.704 51.2 96.652 51.256Z" fill="#3052C5"/>
<path d="M77.044 55.2L76.48 55C76.572 54.736 77.42 52.412 78.712 52.012C79.912 51.64 87.98 51.264 88.312 51.252L88.34 51.8479C86.032 51.9519 79.816 52.296 78.884 52.584C78.036 52.832 77.268 54.544 77.044 55.2Z" fill="#3052C5"/>
<path d="M82.0761 54.588C82.0761 54.588 78.6201 50.352 76.6721 51.62C74.7241 52.888 77.5601 59.2 80.0001 59.892C80.3072 60.0046 80.6339 60.0539 80.9605 60.0369C81.2872 60.0199 81.607 59.9369 81.9007 59.7931C82.1945 59.6492 82.4561 59.4473 82.6698 59.1997C82.8834 58.952 83.0448 58.6637 83.1441 58.352L82.0761 54.588Z" fill="#AD6359"/>
<path d="M77.532 53.4039C77.5235 53.4039 77.5154 53.4073 77.5094 53.4133C77.5034 53.4193 77.5 53.4274 77.5 53.4359C77.5 53.4444 77.5034 53.4526 77.5094 53.4586C77.5154 53.4646 77.5235 53.4679 77.532 53.4679C79.248 54.0199 80.244 55.5039 80.98 57.0679C80.436 56.4879 79.736 56.1999 78.952 56.8519C78.912 56.8879 78.952 56.9519 79.004 56.9399C79.2903 56.8245 79.6055 56.801 79.9058 56.8727C80.2061 56.9443 80.4767 57.1076 80.68 57.3399C81.0193 57.7297 81.3157 58.1548 81.564 58.6079C81.652 58.7519 81.916 58.6519 81.848 58.4839V58.4439C81.708 56.3039 79.832 53.4479 77.532 53.4039Z" fill="#263238"/>
<path d="M81.304 59.16C81.3125 59.2289 81.3067 59.2988 81.287 59.3653C81.2672 59.4318 81.234 59.4935 81.1893 59.5466C81.1446 59.5996 81.0894 59.6429 81.0272 59.6737C80.965 59.7044 80.8972 59.722 80.8279 59.7253C80.7586 59.7286 80.6893 59.7176 80.6245 59.6929C80.5597 59.6682 80.5006 59.6304 80.4511 59.5819C80.4015 59.5333 80.3625 59.4751 80.3365 59.4107C80.3105 59.3464 80.2981 59.2774 80.3 59.208C80.3035 59.081 80.3549 58.9599 80.4438 58.8691C80.5328 58.7784 80.6528 58.7245 80.7797 58.7185C80.9067 58.7124 81.0313 58.7545 81.1285 58.8364C81.2257 58.9183 81.2884 59.0339 81.304 59.16Z" fill="white"/>
<path d="M79.856 58.36C79.8581 58.4015 79.852 58.443 79.8381 58.4821C79.8242 58.5213 79.8027 58.5573 79.7748 58.5881C79.7469 58.6189 79.7133 58.644 79.6757 58.6618C79.6382 58.6796 79.5975 58.6899 79.556 58.692C79.5145 58.6941 79.473 58.688 79.4339 58.674C79.3948 58.6601 79.3587 58.6386 79.3279 58.6107C79.2971 58.5829 79.272 58.5492 79.2542 58.5117C79.2364 58.4742 79.2261 58.4335 79.224 58.392C79.2198 58.3082 79.249 58.2261 79.3053 58.1638C79.3615 58.1016 79.4402 58.0642 79.524 58.06C79.6078 58.0557 79.6899 58.085 79.7522 58.1412C79.8144 58.1975 79.8518 58.2762 79.856 58.36Z" fill="white"/>
<path d="M91.784 70.304L89.384 76.592L81.48 68.844L79.332 71.42C79.332 71.42 87.156 83.82 87.192 83.252L89.66 77.824L93.444 81.496L92.964 72.108L91.784 70.304Z" fill="#3052C5"/>
<path d="M93.48 76.84C93.352 75.292 93.26 73.732 93.08 72.192C93.08 72.136 92.984 72.112 92.972 72.192C92.692 73.692 93.224 79.608 93.244 81.028C93.088 80.868 89.7401 77.8 89.708 77.852C89.168 78.716 87.356 82.652 87.232 83.028C85.996 81.06 80.756 73.3 79.3 71.428C79.2926 71.4158 79.2807 71.407 79.2668 71.4036C79.2529 71.4003 79.2382 71.4025 79.226 71.4099C79.2138 71.4174 79.2051 71.4293 79.2017 71.4432C79.1983 71.4571 79.2006 71.4718 79.208 71.484C80.308 73.568 87.084 83.808 87.176 83.776C88.1339 81.9095 88.9951 79.995 89.756 78.04C90.324 78.712 93.708 82.18 93.716 81.952C93.7279 80.245 93.6491 78.5386 93.48 76.84Z" fill="#263238"/>
<path d="M92.344 90.64C92.344 90.64 89.252 86.56 92.204 84.676C95.156 82.792 97.552 87.316 97.552 87.316L92.344 90.64Z" fill="#455A64"/>
<path d="M116.8 117.488L117.228 122.476L117.38 124.124L115.936 123.304L111.6 120.8L92.244 90.464L97.444 87.14L116.8 117.488Z" fill="#455A64"/>
<path d="M117.24 122.484L117.384 124.128L115.944 123.308L117.24 122.484Z" fill="#37474F"/>
<path d="M97.7777 86.7052L91.6979 90.5845L92.4681 91.7917L98.548 87.9124L97.7777 86.7052Z" fill="#263238"/>
<path d="M98.625 88.0441L92.5452 91.9233L93.3154 93.1305L99.3953 89.2513L98.625 88.0441Z" fill="#263238"/>
<path d="M93.316 93.124L95.276 91.8719L101.2 103.54L100.452 103.956L93.316 93.124Z" fill="#263238"/>
<path d="M81.2 101.348C84.172 100.76 93.2 126.168 88.86 127.244C69.596 132.044 53.824 129.02 50.088 127.244C45.188 124.896 44.78 118.604 46.828 115.7C50.4 110.664 76.592 102.264 81.2 101.348Z" fill="#AD6359"/>
<path d="M118.196 100C118.148 102.932 110.928 102.204 110.928 102.204C111.97 102.921 112.728 103.981 113.068 105.2C113.568 107.372 110.384 109.108 110.384 109.108C111.307 110.078 111.918 111.303 112.136 112.624C112.404 114.752 109.44 116.96 109.44 116.96C109.799 118.319 109.657 119.761 109.04 121.024C107.252 124.328 87.3 127.52 84.816 127.972L80.016 101.972C80.016 101.972 95.692 93.108 100.016 93.404C103.652 93.624 118.268 95.508 118.196 100Z" fill="#AD6359"/>
<path d="M110.872 102.108C107.064 100.908 102.976 100.632 99.032 100.404C99.014 100.404 98.9967 100.411 98.9839 100.424C98.9712 100.437 98.964 100.454 98.964 100.472C98.964 100.49 98.9712 100.507 98.9839 100.52C98.9967 100.533 99.014 100.54 99.032 100.54C102.96 100.72 106.932 101.956 110.844 102.296C110.867 102.296 110.889 102.288 110.907 102.273C110.925 102.258 110.936 102.237 110.94 102.214C110.943 102.191 110.938 102.168 110.926 102.148C110.913 102.129 110.894 102.115 110.872 102.108Z" fill="#263238"/>
<path d="M110.284 108.8C109.393 108.613 108.481 108.543 107.572 108.592C106.607 108.592 105.643 108.6 104.68 108.616C102.749 108.664 100.821 108.761 98.8961 108.908C98.8121 108.908 98.8001 109.044 98.8961 109.044C100.816 109 102.74 108.984 104.664 109.02C105.628 109.02 106.588 109.064 107.552 109.096C108.457 109.185 109.369 109.175 110.272 109.064C110.3 109.056 110.324 109.039 110.342 109.016C110.36 108.993 110.37 108.965 110.372 108.936C110.373 108.907 110.365 108.879 110.35 108.854C110.334 108.83 110.311 108.811 110.284 108.8Z" fill="#263238"/>
<path d="M109.356 116.948C108.612 116.708 107.68 116.856 106.908 116.892L104.268 117C102.512 117.06 100.756 117.12 98.996 117.12C98.908 117.12 98.9 117.256 98.996 117.256C100.784 117.256 102.572 117.3 104.356 117.292C105.236 117.292 106.112 117.292 106.992 117.268C107.736 117.268 108.672 117.328 109.392 117.036C109.402 117.03 109.41 117.021 109.413 117.01C109.417 116.999 109.417 116.987 109.412 116.976C109.408 116.966 109.4 116.957 109.389 116.952C109.379 116.946 109.367 116.945 109.356 116.948Z" fill="#263238"/>
<path d="M78.2721 101.684L86.9001 130.312C86.9001 130.312 55.4761 131.844 48.7361 126.944C44.0521 123.536 44.4401 117.124 46.5561 114.916C51.1761 110.096 78.2721 101.684 78.2721 101.684Z" fill="#EBEBEB"/>
<path d="M78.62 129.2C77.264 125.2 72.308 108.72 71.476 105.084C71.42 104.832 71.564 104.736 71.66 104.988C76.012 116.824 77.66 125.168 78.776 129.14C78.8 129.248 78.656 129.308 78.62 129.2Z" fill="#263238"/>
<path d="M78.28 101.388C78.108 101.352 75.08 102.136 74.112 102.42C72.2213 102.983 70.344 103.593 68.48 104.252C64.7681 105.56 61.1259 107.058 57.568 108.74L57.036 108.996C55.736 109.308 54.468 109.756 53.204 110.172C53.168 110.172 53.204 110.24 53.204 110.228C54.216 109.892 55.244 109.628 56.272 109.356C55.704 109.632 55.132 109.912 54.572 110.204C53.576 110.72 52.604 111.276 51.616 111.804C51.6123 111.805 51.6091 111.808 51.6064 111.811C51.6037 111.814 51.6017 111.817 51.6004 111.821C51.5992 111.825 51.5987 111.829 51.5992 111.833C51.5996 111.837 51.6008 111.84 51.6028 111.844C51.6048 111.847 51.6075 111.85 51.6108 111.852C51.614 111.855 51.6177 111.856 51.6216 111.857C51.6255 111.858 51.6295 111.858 51.6333 111.857C51.6372 111.856 51.6408 111.854 51.644 111.852C53.304 110.992 55.028 110.228 56.732 109.452C58.436 108.676 60.212 107.92 61.972 107.208C65.44 105.804 68.976 104.548 72.556 103.444C73.564 103.136 74.556 102.84 75.588 102.552C76.084 102.412 78.148 101.712 78.236 101.704C78.284 101.778 78.3205 101.859 78.344 101.944C78.368 102.028 78.464 102.028 78.444 101.944C78.4111 101.753 78.3561 101.566 78.28 101.388Z" fill="#263238"/>
<path d="M82.536 130.44C81.624 130.376 78.26 130.54 77.36 130.54C75.544 130.54 73.732 130.54 71.916 130.508C68.268 130.412 64.636 130.148 61.004 129.8C60 129.704 59.004 129.596 57.988 129.488C56.972 129.38 55.88 129.3 54.848 129.112C54.808 129.112 54.792 129.168 54.848 129.176C55.752 129.308 56.64 129.52 57.54 129.676C58.44 129.832 59.344 129.968 60.252 130.096C62.068 130.352 63.892 130.532 65.72 130.684C69.368 130.984 73.04 131.084 76.7 131.016C77.732 130.996 81.584 130.836 82.584 130.616C82.684 130.612 82.64 130.448 82.536 130.44Z" fill="#263238"/>
<path d="M142.948 136.068L109.948 138.46L122.284 95.012L155.284 92.62L142.948 136.068Z" fill="white"/>
<path d="M145.204 135.904L112.208 138.296L124.544 94.8479L157.54 92.4559L145.204 135.904Z" fill="#37474F"/>
<path d="M128.048 94.6C127.965 94.974 127.808 95.3278 127.587 95.6409C127.366 95.954 127.085 96.2202 126.76 96.424C126.46 96.616 126.36 96.212 126.644 96.024C127.06 95.7497 127.37 95.342 127.524 94.868C127.544 94.792 127.568 94.704 127.58 94.628C127.651 94.366 127.651 94.09 127.58 93.828C127.546 93.7153 127.474 93.6178 127.376 93.552C127.367 93.5472 127.358 93.5403 127.352 93.532C127.352 93.532 127.316 93.532 127.312 93.532C127.291 93.5348 127.269 93.5348 127.248 93.532C127.169 93.5226 127.089 93.535 127.016 93.568C126.876 93.6286 126.753 93.7219 126.656 93.84C126.537 93.9808 126.438 94.1368 126.36 94.304C126.313 94.3855 126.27 94.4696 126.232 94.556V94.616C126.217 94.6437 126.206 94.6733 126.2 94.704C126.2 94.704 126.176 94.74 126.18 94.76L125.712 94.796C125.807 94.4969 125.942 94.2118 126.112 93.948C126.236 93.7208 126.407 93.5229 126.614 93.3677C126.821 93.2124 127.059 93.1034 127.312 93.048C127.5 93.0275 127.689 93.0812 127.839 93.1977C127.988 93.3142 128.086 93.4843 128.112 93.672C128.169 93.9818 128.147 94.3009 128.048 94.6Z" fill="#3052C5"/>
<path d="M130.632 94.4C130.46 95.1541 129.997 95.8097 129.344 96.224C129.04 96.416 128.944 96.012 129.228 95.824C129.644 95.5507 129.953 95.1425 130.104 94.668C130.13 94.5895 130.15 94.5094 130.164 94.428C130.235 94.1661 130.235 93.89 130.164 93.628C130.128 93.5149 130.055 93.4174 129.956 93.352C129.949 93.3532 129.943 93.3532 129.936 93.352C129.936 93.352 129.9 93.352 129.892 93.352H129.832C129.753 93.3426 129.673 93.355 129.6 93.388C129.46 93.4487 129.337 93.5419 129.24 93.66C129.118 93.7988 129.019 93.9553 128.944 94.124C128.897 94.2069 128.854 94.2924 128.816 94.38V94.436C128.799 94.463 128.787 94.4928 128.78 94.524C128.78 94.544 128.76 94.564 128.78 94.58L128.312 94.616C128.406 94.3163 128.54 94.0309 128.712 93.768C128.836 93.5406 129.007 93.3424 129.214 93.1871C129.421 93.0318 129.659 92.9229 129.912 92.868C130.1 92.8485 130.289 92.9026 130.438 93.019C130.587 93.1353 130.685 93.3048 130.712 93.492C130.758 93.7967 130.731 94.1081 130.632 94.4Z" fill="#3052C5"/>
<path d="M133.2 94.2239C133.027 94.9798 132.563 95.6368 131.908 96.0519C131.608 96.2399 131.508 95.8359 131.792 95.6519C132.209 95.3788 132.52 94.9707 132.672 94.4959C132.672 94.4199 132.72 94.3359 132.732 94.2599C132.8 93.9976 132.8 93.7223 132.732 93.4599C132.699 93.3464 132.627 93.2485 132.528 93.1839H132.504C132.504 93.1839 132.472 93.1839 132.464 93.1839H132.4C132.323 93.172 132.243 93.1832 132.172 93.2159C132.031 93.2764 131.906 93.3697 131.808 93.4879C131.689 93.6287 131.59 93.7848 131.512 93.9519C131.464 94.0319 131.428 94.1199 131.384 94.2079V94.2639C131.37 94.2919 131.359 94.3215 131.352 94.3519C131.352 94.3719 131.332 94.3919 131.352 94.4079L130.884 94.4439C130.977 94.1441 131.112 93.8587 131.284 93.5959C131.408 93.3691 131.579 93.1715 131.786 93.0169C131.993 92.8623 132.231 92.7542 132.484 92.6999C132.672 92.6783 132.861 92.7311 133.01 92.8469C133.16 92.9628 133.258 93.1326 133.284 93.3199C133.328 93.6237 133.3 93.9336 133.2 94.2239Z" fill="#3052C5"/>
<path d="M135.796 94.0359C135.712 94.4103 135.555 94.7644 135.334 95.0781C135.113 95.3918 134.832 95.6588 134.508 95.8639C134.208 96.0559 134.108 95.6479 134.392 95.4639C134.807 95.1887 135.117 94.7814 135.272 94.3079C135.292 94.2279 135.316 94.1439 135.328 94.0679C135.398 93.8059 135.398 93.53 135.328 93.2679C135.293 93.1556 135.221 93.0584 135.124 92.9919H135.1C135.1 92.9919 135.064 92.9919 135.06 92.9919H134.996C134.917 92.9786 134.836 92.9912 134.764 93.0279C134.623 93.0856 134.5 93.1778 134.404 93.2959C134.285 93.4367 134.186 93.5928 134.108 93.7599C134.061 93.8428 134.018 93.9283 133.98 94.0159V94.0719C133.967 94.1001 133.956 94.1296 133.948 94.1599C133.948 94.1799 133.924 94.1999 133.928 94.2199L133.46 94.2519C133.555 93.9529 133.69 93.6677 133.86 93.4039C133.984 93.1772 134.155 92.9798 134.362 92.8252C134.57 92.6706 134.807 92.5624 135.06 92.5079C135.248 92.4863 135.437 92.539 135.586 92.6549C135.736 92.7708 135.834 92.9406 135.86 93.1279C135.913 93.4313 135.891 93.743 135.796 94.0359Z" fill="#3052C5"/>
<path d="M138.4 93.848C138.227 94.6028 137.765 95.2595 137.112 95.676C136.808 95.868 136.712 95.46 136.996 95.276C137.411 95.0017 137.72 94.5939 137.872 94.12C137.898 94.0415 137.918 93.9613 137.932 93.88C138.003 93.6181 138.003 93.3419 137.932 93.08C137.896 92.9658 137.823 92.8671 137.724 92.8C137.717 92.8012 137.711 92.8012 137.704 92.8C137.704 92.8 137.668 92.8 137.66 92.8H137.6C137.521 92.7885 137.44 92.8011 137.368 92.836C137.228 92.8951 137.105 92.987 137.008 93.104C136.887 93.2448 136.788 93.4025 136.712 93.572C136.664 93.6531 136.621 93.7372 136.584 93.824V93.88C136.568 93.9073 136.556 93.937 136.548 93.968C136.548 93.988 136.528 94.008 136.548 94.028L136.08 94.06C136.174 93.7603 136.308 93.4749 136.48 93.212C136.604 92.9854 136.776 92.7882 136.983 92.6336C137.19 92.479 137.428 92.3707 137.68 92.316C137.868 92.2954 138.056 92.3485 138.205 92.4642C138.355 92.5799 138.453 92.7491 138.48 92.936C138.527 93.242 138.499 93.5548 138.4 93.848Z" fill="#3052C5"/>
<path d="M140.964 93.664C140.79 94.4183 140.326 95.0735 139.672 95.488C139.372 95.68 139.272 95.272 139.556 95.088C139.972 94.814 140.283 94.4062 140.436 93.932C140.456 93.856 140.484 93.768 140.496 93.692C140.565 93.4298 140.565 93.1542 140.496 92.892C140.462 92.778 140.39 92.6791 140.292 92.612H140.268C140.268 92.612 140.236 92.612 140.228 92.612C140.207 92.6148 140.185 92.6148 140.164 92.612C140.086 92.6014 140.007 92.6139 139.936 92.648C139.794 92.7071 139.669 92.8006 139.572 92.92C139.453 93.0608 139.354 93.2169 139.276 93.384C139.228 93.46 139.192 93.548 139.148 93.636V93.696C139.134 93.7226 139.123 93.7508 139.116 93.78C139.111 93.7997 139.111 93.8204 139.116 93.84L138.648 93.872C138.742 93.5738 138.877 93.2899 139.048 93.028C139.172 92.8011 139.344 92.6033 139.551 92.448C139.758 92.2928 139.995 92.1837 140.248 92.128C140.436 92.1064 140.625 92.1592 140.774 92.275C140.924 92.3909 141.022 92.5607 141.048 92.748C141.094 93.0557 141.065 93.3698 140.964 93.664Z" fill="#3052C5"/>
<path d="M143.544 93.476C143.46 93.85 143.304 94.2038 143.083 94.5169C142.862 94.83 142.581 95.0961 142.256 95.3C141.956 95.492 141.856 95.088 142.14 94.9C142.556 94.6256 142.866 94.218 143.02 93.744C143.04 93.668 143.064 93.58 143.076 93.504C143.147 93.242 143.147 92.9659 143.076 92.704C143.042 92.5912 142.97 92.4938 142.872 92.428C142.863 92.4231 142.854 92.4163 142.848 92.408C142.848 92.408 142.812 92.408 142.808 92.408C142.787 92.4107 142.765 92.4107 142.744 92.408C142.665 92.3985 142.585 92.411 142.512 92.444C142.372 92.5046 142.249 92.5979 142.152 92.716C142.032 92.8557 141.932 93.012 141.856 93.18C141.809 93.2615 141.766 93.3456 141.728 93.432V93.492C141.714 93.5203 141.702 93.5497 141.692 93.58C141.692 93.58 141.672 93.616 141.692 93.636L141.224 93.672C141.319 93.3729 141.454 93.0878 141.624 92.824C141.748 92.5968 141.919 92.3989 142.126 92.2436C142.333 92.0884 142.571 91.9794 142.824 91.924C143.012 91.9034 143.201 91.9571 143.351 92.0737C143.5 92.1902 143.598 92.3603 143.624 92.548C143.675 92.8591 143.648 93.1782 143.544 93.476Z" fill="#3052C5"/>
<path d="M146.128 93.288C145.956 94.0421 145.493 94.6977 144.84 95.112C144.536 95.304 144.44 94.9 144.724 94.712C145.139 94.4397 145.449 94.033 145.6 93.56C145.626 93.4815 145.646 93.4013 145.66 93.32C145.729 93.0578 145.729 92.7822 145.66 92.52C145.624 92.4068 145.551 92.3094 145.452 92.244C145.445 92.2452 145.439 92.2452 145.432 92.244C145.432 92.244 145.396 92.244 145.388 92.244H145.328C145.249 92.2346 145.169 92.247 145.096 92.28C144.956 92.3406 144.833 92.4339 144.736 92.552C144.614 92.6908 144.515 92.8472 144.44 93.016C144.393 93.0989 144.35 93.1843 144.312 93.272V93.328C144.295 93.355 144.283 93.3848 144.276 93.416C144.276 93.436 144.256 93.456 144.276 93.472L143.808 93.508C143.902 93.2083 144.036 92.9229 144.208 92.66C144.332 92.4325 144.503 92.2344 144.71 92.0791C144.917 91.9237 145.155 91.8149 145.408 91.76C145.596 91.7405 145.784 91.7946 145.934 91.9109C146.083 92.0273 146.181 92.1968 146.208 92.384C146.253 92.6874 146.226 92.9973 146.128 93.288Z" fill="#3052C5"/>
<path d="M148.712 93.1C148.539 93.8559 148.075 94.5129 147.42 94.928C147.12 95.116 147.02 94.712 147.304 94.528C147.721 94.2549 148.032 93.8468 148.184 93.372C148.204 93.296 148.232 93.212 148.244 93.136C148.312 92.8737 148.312 92.5984 148.244 92.336C148.211 92.2225 148.139 92.1246 148.04 92.06H148.016C148.016 92.06 147.984 92.06 147.976 92.06H147.912C147.835 92.0481 147.755 92.0593 147.684 92.092C147.543 92.1525 147.418 92.2458 147.32 92.364C147.201 92.5048 147.102 92.6609 147.024 92.828C146.976 92.908 146.94 92.996 146.896 93.084V93.14C146.882 93.1683 146.872 93.1977 146.864 93.228C146.864 93.248 146.864 93.268 146.864 93.284L146.396 93.32C146.489 93.0202 146.624 92.7348 146.796 92.472C146.92 92.2451 147.091 92.0476 147.298 91.893C147.505 91.7384 147.743 91.6303 147.996 91.576C148.184 91.5544 148.373 91.6072 148.522 91.723C148.672 91.8389 148.77 92.0087 148.796 92.196C148.84 92.4998 148.812 92.8097 148.712 93.1Z" fill="#3052C5"/>
<path d="M151.292 92.912C151.208 93.2864 151.051 93.6405 150.83 93.9542C150.609 94.2679 150.328 94.5349 150.004 94.74C149.704 94.932 149.604 94.524 149.888 94.34C150.302 94.0638 150.612 93.6569 150.768 93.184C150.788 93.104 150.812 93.02 150.824 92.944C150.894 92.682 150.894 92.4061 150.824 92.144C150.789 92.0317 150.717 91.9345 150.62 91.868H150.596C150.596 91.868 150.56 91.868 150.556 91.868H150.492C150.413 91.8547 150.331 91.8673 150.26 91.904C150.119 91.9617 149.996 92.0538 149.9 92.172C149.78 92.3118 149.68 92.4681 149.604 92.636C149.557 92.7189 149.514 92.8044 149.476 92.892V92.948C149.461 92.9762 149.449 93.0056 149.44 93.036C149.44 93.056 149.42 93.076 149.44 93.096L148.972 93.128C149.067 92.829 149.202 92.5438 149.372 92.28C149.496 92.0533 149.667 91.8559 149.874 91.7013C150.082 91.5467 150.319 91.4385 150.572 91.384C150.76 91.3624 150.949 91.4151 151.098 91.531C151.248 91.6469 151.346 91.8167 151.372 92.004C151.42 92.3087 151.393 92.6205 151.292 92.912Z" fill="#3052C5"/>
<path d="M153.876 92.724C153.703 93.4788 153.241 94.1354 152.588 94.552C152.284 94.744 152.188 94.336 152.472 94.152C152.887 93.8777 153.196 93.4698 153.348 92.996C153.374 92.9175 153.394 92.8373 153.408 92.756C153.477 92.4938 153.477 92.2182 153.408 91.956C153.372 91.8418 153.299 91.743 153.2 91.676C153.193 91.6772 153.187 91.6772 153.18 91.676C153.18 91.676 153.144 91.676 153.136 91.676H153.076C152.997 91.6645 152.916 91.677 152.844 91.712C152.704 91.7711 152.581 91.863 152.484 91.98C152.363 92.1217 152.262 92.2791 152.184 92.448C152.137 92.5291 152.096 92.6133 152.06 92.7V92.756C152.044 92.7833 152.032 92.813 152.024 92.844C152.024 92.864 152.004 92.884 152.024 92.904L151.556 92.936C151.65 92.6362 151.784 92.3509 151.956 92.088C152.08 91.8614 152.252 91.6641 152.459 91.5096C152.666 91.355 152.904 91.2467 153.156 91.192C153.344 91.1714 153.532 91.2245 153.681 91.3402C153.831 91.4559 153.929 91.625 153.956 91.812C154.003 92.118 153.975 92.4308 153.876 92.724Z" fill="#3052C5"/>
<path d="M156.46 92.54C156.286 93.2942 155.822 93.9495 155.168 94.364C154.868 94.556 154.768 94.148 155.052 93.964C155.468 93.6899 155.779 93.2822 155.932 92.808C155.952 92.732 155.976 92.644 155.992 92.568C156.061 92.3058 156.061 92.0302 155.992 91.768C155.958 91.654 155.886 91.5551 155.788 91.488H155.764C155.764 91.488 155.732 91.488 155.724 91.488C155.703 91.4908 155.681 91.4908 155.66 91.488C155.582 91.4774 155.503 91.4899 155.432 91.524C155.29 91.5831 155.165 91.6766 155.068 91.796C154.949 91.9368 154.85 92.0929 154.772 92.26C154.724 92.336 154.688 92.424 154.644 92.512V92.572C154.63 92.5986 154.619 92.6268 154.612 92.656C154.607 92.6757 154.607 92.6964 154.612 92.716L154.144 92.748C154.239 92.4488 154.374 92.1636 154.544 91.9C154.669 91.6741 154.841 91.4774 155.048 91.3229C155.255 91.1684 155.492 91.0597 155.744 91.004C155.932 90.9824 156.121 91.0351 156.27 91.151C156.42 91.2669 156.518 91.4367 156.544 91.624C156.59 91.9317 156.561 92.2458 156.46 92.54Z" fill="#3052C5"/>
<path d="M155.916 102.224C157.664 105.796 162.008 110.224 162.396 113.14C162.517 113.859 162.402 114.597 162.07 115.245C161.738 115.894 161.206 116.418 160.552 116.74C160.552 116.74 163.5 118.168 163.412 120.884C163.364 122.284 161.092 123.436 161.092 123.436C161.092 123.436 163.4 124.684 163.176 127.096C162.992 129.016 160.744 129.896 160.744 129.896C160.744 129.896 162.4 132.116 161.6 134C159.956 137.848 143.392 138.04 140.764 131.968C139.536 129.14 143.584 129.312 143.584 129.312C143.584 129.312 137.824 127.66 137.696 124.244C137.568 120.828 142.816 121.372 142.816 121.372C142.816 121.372 137.248 119.72 137.472 116.172C137.708 112.476 142.864 113.916 142.864 113.916C142.864 113.916 139.152 111.46 139.948 108.78C141.26 104.356 148.296 109.82 151.948 108.916L153.888 102.888L155.916 102.224Z" fill="#AD6359"/>
<path d="M159.296 107.404C157.94 103.876 162.276 99.4519 161.46 95.8959C160.36 91.0959 154.98 95.8719 153.86 102.896L153.94 108.496L159.296 107.404Z" fill="#AD6359"/>
<path d="M160.4 130.076C160.452 130.076 160.472 130.148 160.4 130.16C154.968 131.552 148.572 131.416 143.328 129.36C143.156 129.292 143.192 128.984 143.396 129.024C149.236 130.104 154.484 130.62 160.4 130.076Z" fill="#263238"/>
<path d="M161.172 123.472C161.236 123.472 161.248 123.572 161.172 123.588C155.572 124.992 148.372 124.64 142.604 121.536C142.404 121.432 142.336 121.136 142.572 121.244C146.568 123.012 155.844 124 161.172 123.472Z" fill="#263238"/>
<path d="M142.5 113.564C148.144 116.324 154.1 117 160.328 116.812C160.408 116.812 160.404 116.924 160.328 116.944C157.308 117.864 153.332 117.572 150.256 117.08C147.393 116.679 144.684 115.536 142.4 113.764C142.312 113.692 142.4 113.508 142.5 113.564Z" fill="#263238"/>
<path d="M19.344 162.436L39.508 162.34L59.672 162.304L100 162.236L140.328 162.304L160.492 162.34L180.656 162.436L160.492 162.536L140.328 162.568L100 162.636L59.672 162.568L39.508 162.532L19.344 162.436Z" fill="#263238"/>
<path d="M44.084 145.456H26.316V172.112H44.084V145.456Z" fill="#3052C5"/>
<path d="M46.232 138.296H24.172V145.452H46.232V138.296Z" fill="#455A64"/>
<path d="M41.1161 153.124H29.2881V164.952H41.1161V153.124Z" fill="white"/>
<path opacity="0.1" d="M26.316 145.456V147.532L36.32 151.312V172.108H41.116V145.456H26.316Z" fill="black"/>
<path d="M20.8 171.5C20.8 171.207 20.8579 170.916 20.9703 170.645C21.0827 170.374 21.2475 170.128 21.4552 169.92C21.6629 169.713 21.9094 169.549 22.1807 169.437C22.4519 169.325 22.7426 169.268 23.036 169.268H27.484C27.7777 169.268 28.0685 169.325 28.34 169.437C28.6115 169.549 28.8583 169.713 29.0663 169.92C29.2743 170.127 29.4395 170.374 29.5523 170.645C29.6652 170.916 29.7235 171.206 29.724 171.5C29.723 172.093 29.4865 172.662 29.0666 173.081C28.6466 173.501 28.0774 173.736 27.484 173.736H23.052C22.7572 173.738 22.465 173.681 22.1921 173.569C21.9192 173.458 21.671 173.293 21.4618 173.086C21.2526 172.878 21.0864 172.631 20.9729 172.359C20.8593 172.087 20.8006 171.795 20.8 171.5Z" fill="#455A64"/>
<path d="M20.8001 171.5C20.8001 171.207 20.8579 170.916 20.9703 170.645C21.0828 170.374 21.2475 170.128 21.4552 169.92C21.6629 169.713 21.9094 169.549 22.1807 169.437C22.4519 169.325 22.7426 169.268 23.0361 169.268H25.2561V173.744H23.0521C22.7565 173.746 22.4636 173.689 22.1902 173.577C21.9168 173.465 21.6683 173.299 21.4589 173.091C21.2496 172.882 21.0836 172.634 20.9705 172.361C20.8575 172.088 20.7995 171.796 20.8001 171.5Z" fill="#3052C5"/>
<path d="M51.2001 171.5C51.1996 171.794 51.1412 172.084 51.0284 172.355C50.9155 172.626 50.7504 172.873 50.5424 173.08C50.3344 173.287 50.0876 173.451 49.8161 173.563C49.5446 173.675 49.2537 173.733 48.9601 173.732H44.5481C44.2545 173.733 43.9636 173.675 43.6921 173.563C43.4206 173.451 43.1738 173.287 42.9658 173.08C42.7578 172.873 42.5927 172.626 42.4798 172.355C42.367 172.084 42.3086 171.794 42.3081 171.5C42.3081 170.906 42.5441 170.336 42.9642 169.916C43.3843 169.496 43.954 169.26 44.5481 169.26H48.9761C49.5674 169.264 50.1331 169.502 50.5497 169.922C50.9663 170.341 51.2001 170.909 51.2001 171.5Z" fill="#455A64"/>
<path d="M51.2 171.5C51.1995 171.794 51.1411 172.084 51.0283 172.355C50.9154 172.626 50.7503 172.873 50.5423 173.08C50.3343 173.287 50.0875 173.451 49.816 173.563C49.5445 173.675 49.2536 173.733 48.96 173.732H46.76V169.26H48.976C49.5673 169.264 50.133 169.502 50.5496 169.922C50.9662 170.341 51.2 170.909 51.2 171.5Z" fill="#3052C5"/>
<path d="M56.244 172.4C56.0367 172.608 55.7904 172.773 55.5193 172.885C55.2482 172.998 54.9575 173.055 54.664 173.055C54.3705 173.055 54.0798 172.998 53.8087 172.885C53.5376 172.773 53.2913 172.608 53.084 172.4L49.948 169.268C49.5293 168.849 49.2942 168.28 49.2942 167.688C49.2942 167.096 49.5293 166.527 49.948 166.108C50.3686 165.689 50.9382 165.453 51.532 165.453C52.1258 165.453 52.6954 165.689 53.116 166.108L56.248 169.24C56.6652 169.66 56.8989 170.229 56.8982 170.821C56.8974 171.413 56.6622 171.981 56.244 172.4Z" fill="#455A64"/>
<path d="M56.244 172.4C56.0367 172.608 55.7904 172.773 55.5193 172.885C55.2482 172.998 54.9575 173.056 54.664 173.056C54.3705 173.056 54.0798 172.998 53.8087 172.885C53.5376 172.773 53.2913 172.608 53.084 172.4L51.516 170.832L54.68 167.668L56.248 169.236C56.6664 169.657 56.9009 170.226 56.9002 170.819C56.8994 171.412 56.6634 171.981 56.244 172.4Z" fill="#3052C5"/>
<path d="M35.9761 175.976C35.9766 175.682 36.035 175.392 36.1478 175.121C36.2607 174.85 36.4258 174.603 36.6338 174.396C36.8418 174.189 37.0886 174.025 37.3601 173.913C37.6316 173.801 37.9224 173.743 38.2161 173.744H42.6441C42.9377 173.743 43.2286 173.801 43.5001 173.913C43.7715 174.025 44.0183 174.189 44.2263 174.396C44.4343 174.603 44.5995 174.85 44.7123 175.121C44.8252 175.392 44.8835 175.682 44.8841 175.976C44.883 176.569 44.6465 177.138 44.2266 177.557C43.8066 177.977 43.2375 178.212 42.6441 178.212H38.2161C37.6227 178.212 37.0535 177.977 36.6336 177.557C36.2136 177.138 35.9771 176.569 35.9761 175.976Z" fill="#455A64"/>
<path d="M35.9761 175.976C35.9766 175.682 36.035 175.392 36.1478 175.121C36.2607 174.85 36.4258 174.603 36.6338 174.396C36.8418 174.189 37.0886 174.025 37.3601 173.913C37.6316 173.801 37.9224 173.743 38.2161 173.744H40.4321V178.22H38.2161C37.9216 178.22 37.63 178.162 37.3579 178.049C37.0859 177.936 36.8388 177.771 36.6307 177.563C36.4227 177.354 36.2578 177.107 36.1454 176.834C36.0331 176.562 35.9756 176.271 35.9761 175.976Z" fill="#3052C5"/>
<path d="M127.664 171.076L127.552 172.644C127.552 172.668 127.552 172.696 127.552 172.724C127.468 173.22 126.904 173.632 126.06 173.888C125.161 174.138 124.227 174.235 123.296 174.176L122.896 174.148C122.76 174.148 122.62 174.124 122.496 174.104C120.36 173.828 118.784 172.948 118.848 172.032L118.956 170.468C118.892 171.384 120.468 172.264 122.604 172.54L123.004 172.58C123.14 172.58 123.28 172.604 123.404 172.608C124.335 172.669 125.27 172.572 126.168 172.32C127.012 172.068 127.572 171.66 127.66 171.16C127.66 171.128 127.66 171.108 127.664 171.076Z" fill="#DBDBDB"/>
<path d="M120.44 169.224C121.336 168.974 122.268 168.877 123.196 168.936L122.584 172.536C122.716 172.536 122.856 172.568 122.984 172.576C123.112 172.584 123.256 172.6 123.384 172.608L123.996 169.008C126.196 169.288 127.8 170.208 127.636 171.156C127.556 171.656 126.992 172.064 126.148 172.324C125.249 172.574 124.315 172.672 123.384 172.612C123.248 172.612 123.108 172.612 122.984 172.58C122.86 172.548 122.708 172.556 122.584 172.54C120.384 172.26 118.78 171.34 118.944 170.392C119.028 169.892 119.6 169.48 120.44 169.224Z" fill="white"/>
<path d="M123.2 168.936L123.6 168.964L124 169.008L123.388 172.608C123.252 172.608 123.112 172.608 122.988 172.576C122.864 172.544 122.712 172.552 122.588 172.536L123.2 168.936Z" fill="#DBDBDB"/>
<path d="M127.416 173.964V175.532C127.414 175.559 127.414 175.585 127.416 175.612C127.46 176.112 127.992 176.572 128.808 176.892C129.684 177.213 130.607 177.385 131.54 177.4H131.94C132.076 177.4 132.216 177.4 132.34 177.4C134.492 177.296 136.136 176.544 136.144 175.624V174.056C136.144 174.972 134.492 175.724 132.34 175.832H131.94C131.807 175.84 131.673 175.84 131.54 175.832C130.607 175.818 129.684 175.648 128.808 175.328C127.984 175.008 127.46 174.552 127.416 174.048C127.414 174.02 127.414 173.992 127.416 173.964Z" fill="#DBDBDB"/>
<path d="M134.768 172.692C133.894 172.371 132.971 172.199 132.04 172.184L132.364 175.824C132.228 175.824 132.088 175.824 131.964 175.824H131.564L131.24 172.184C129.024 172.288 127.352 173.08 127.44 174.032C127.484 174.54 128.012 174.992 128.832 175.316C129.708 175.637 130.631 175.809 131.564 175.824H131.964C132.1 175.824 132.24 175.824 132.364 175.824C134.576 175.72 136.252 174.928 136.164 173.976C136.12 173.468 135.6 173.016 134.768 172.692Z" fill="white"/>
<path d="M132.04 172.184H131.64C131.504 172.184 131.371 172.184 131.24 172.184L131.564 175.824H131.964C132.1 175.824 132.24 175.824 132.364 175.824L132.04 172.184Z" fill="#DBDBDB"/>
<path d="M115.732 173.46C114.776 174.001 113.705 174.305 112.608 174.348C111.67 174.412 110.729 174.269 109.852 173.928C109.756 173.888 109.656 173.836 109.56 173.788C109.464 173.74 109.376 173.684 109.292 173.628C109.053 173.493 108.848 173.305 108.694 173.078C108.539 172.851 108.439 172.592 108.4 172.32L108.256 170.892C108.297 171.167 108.402 171.429 108.562 171.656C108.721 171.884 108.932 172.071 109.176 172.204C109.256 172.255 109.344 172.307 109.44 172.36C109.533 172.412 109.629 172.459 109.728 172.5C110.605 172.841 111.546 172.984 112.484 172.92C113.58 172.878 114.651 172.576 115.608 172.04C116.58 171.456 117.036 170.716 116.964 170.04L117.108 171.468C117.16 172.14 116.704 172.88 115.732 173.46Z" fill="#DBDBDB"/>
<path d="M109.712 172.5L109.792 173.332L115.6 169.848L115.46 168.42L109.148 172.204C109.224 172.256 109.316 172.308 109.412 172.36C109.508 172.412 109.6 172.456 109.712 172.5Z" fill="#3052C5"/>
<path d="M115.468 168.42C115.568 168.464 115.668 168.508 115.764 168.56C115.86 168.612 115.944 168.66 116.028 168.716L109.712 172.5C109.608 172.456 109.516 172.412 109.42 172.36C109.324 172.308 109.232 172.256 109.156 172.204L115.468 168.42Z" fill="#DBDBDB"/>
<path d="M116.028 168.716L116.172 170.14L109.852 173.924L109.712 172.5L116.028 168.716Z" fill="#DBDBDB"/>
<path d="M112.712 168C113.65 167.937 114.591 168.08 115.468 168.42L109.156 172.204C109.232 172.256 109.324 172.308 109.42 172.36C109.516 172.412 109.608 172.456 109.712 172.5L116.028 168.716C117.404 169.604 117.228 171.048 115.588 172.036C114.632 172.573 113.563 172.876 112.468 172.92C111.53 172.983 110.589 172.84 109.712 172.5C109.608 172.456 109.516 172.412 109.42 172.36C109.324 172.308 109.232 172.256 109.156 172.204C107.78 171.312 107.956 169.872 109.596 168.884C110.55 168.348 111.618 168.045 112.712 168Z" fill="white"/>
<path d="M138.82 172.308C139.775 172.848 140.844 173.152 141.94 173.196C142.88 173.261 143.822 173.117 144.7 172.776C144.796 172.736 144.896 172.684 144.992 172.636C145.088 172.588 145.176 172.532 145.256 172.476C145.499 172.343 145.708 172.156 145.867 171.929C146.026 171.702 146.131 171.442 146.172 171.168L146.316 169.74C146.274 170.015 146.169 170.276 146.01 170.504C145.85 170.731 145.64 170.919 145.396 171.052C145.316 171.103 145.228 171.155 145.132 171.208C145.039 171.26 144.943 171.307 144.844 171.348C143.966 171.689 143.024 171.833 142.084 171.768C140.989 171.727 139.919 171.425 138.964 170.888C137.992 170.304 137.536 169.564 137.604 168.888L137.46 170.316C137.392 170.992 137.848 171.728 138.82 172.308Z" fill="#DBDBDB"/>
<path d="M144.84 171.348L144.756 172.18L138.94 168.696L139.084 167.272L145.396 171.052C145.311 171.109 145.223 171.161 145.132 171.208C145.036 171.26 144.94 171.304 144.84 171.348Z" fill="#3052C5"/>
<path d="M139.084 167.272C138.984 167.312 138.884 167.36 138.788 167.408C138.692 167.456 138.608 167.508 138.52 167.564L144.84 171.348C144.94 171.304 145.036 171.26 145.132 171.208C145.223 171.161 145.311 171.109 145.396 171.052L139.084 167.272Z" fill="#DBDBDB"/>
<path d="M138.524 167.564L138.38 168.988L144.7 172.772L144.84 171.348L138.524 167.564Z" fill="#DBDBDB"/>
<path d="M141.836 166.852C140.899 166.785 139.959 166.929 139.084 167.272L145.396 171.052C145.311 171.109 145.223 171.161 145.132 171.208C145.036 171.26 144.94 171.304 144.84 171.348L138.52 167.564C137.148 168.456 137.32 169.896 138.964 170.884C139.92 171.421 140.989 171.724 142.084 171.768C143.023 171.835 143.964 171.692 144.84 171.348C144.94 171.304 145.036 171.26 145.132 171.208C145.223 171.161 145.311 171.109 145.396 171.052C146.772 170.16 146.596 168.72 144.956 167.732C144.001 167.195 142.931 166.893 141.836 166.852Z" fill="white"/>
<path d="M112.216 166.96L112.196 168.62C112.191 168.729 112.145 168.831 112.068 168.908C111.78 169.236 111.044 169.496 110.088 169.644C109.123 169.784 108.146 169.829 107.172 169.776L106.772 169.748L106.372 169.708C104.588 169.512 103.424 169.024 103.428 168.508L103.452 166.856C103.452 167.368 104.616 167.856 106.396 168.056C106.52 168.076 106.66 168.088 106.796 168.096L107.196 168.128C108.17 168.184 109.147 168.14 110.112 167.996C111.064 167.844 111.804 167.596 112.112 167.256C112.184 167.174 112.221 167.068 112.216 166.96Z" fill="#DBDBDB"/>
<path d="M106.8 168.092L106.776 169.748L106.376 169.708L106.396 168.052L106.8 168.092Z" fill="#DBDBDB"/>
<path d="M108.484 165.692L108.884 165.72C109.02 165.72 109.153 165.732 109.284 165.756L107.204 168.116L106.804 168.092L106.404 168.052L108.484 165.692Z" fill="#DBDBDB"/>
<path d="M109.28 165.756L109.256 167.412L107.176 169.776L107.2 168.116L109.28 165.756Z" fill="#DBDBDB"/>
<path d="M105.576 165.82C106.538 165.677 107.513 165.634 108.484 165.692L106.4 168.052L106.8 168.092L107.2 168.116L109.28 165.756C111.388 165.988 112.636 166.636 112.08 167.252C111.792 167.58 111.056 167.836 110.08 167.988C109.118 168.131 108.143 168.174 107.172 168.116L106.772 168.092L106.372 168.052C104.26 167.82 103.016 167.176 103.572 166.556C103.88 166.228 104.616 165.972 105.576 165.82Z" fill="white"/>
<path d="M123.028 167.088L123.052 168.744C123.053 168.798 123.064 168.852 123.086 168.901C123.108 168.951 123.14 168.995 123.18 169.032C123.468 169.36 124.204 169.62 125.16 169.772C126.124 169.912 127.099 169.956 128.072 169.904L128.472 169.872C128.6 169.872 128.736 169.852 128.872 169.832C130.656 169.636 131.82 169.148 131.812 168.632V166.976C131.812 167.492 130.648 167.98 128.868 168.176L128.468 168.216L128.068 168.244C127.095 168.304 126.119 168.26 125.156 168.112C124.2 167.964 123.464 167.712 123.176 167.376C123.133 167.341 123.097 167.297 123.072 167.248C123.046 167.198 123.031 167.144 123.028 167.088Z" fill="#DBDBDB"/>
<path d="M128.452 168.216L128.472 169.872C128.604 169.872 128.74 169.848 128.872 169.836L128.848 168.18L128.452 168.216Z" fill="#DBDBDB"/>
<path d="M126.764 165.816L126.364 165.844L125.964 165.88L128.044 168.244L128.444 168.216L128.844 168.18L126.764 165.816Z" fill="#DBDBDB"/>
<path d="M125.968 165.88L125.988 167.54L128.072 169.9L128.048 168.244L125.968 165.88Z" fill="#DBDBDB"/>
<path d="M129.668 165.944C128.707 165.803 127.734 165.76 126.764 165.816L128.844 168.18L128.444 168.216L128.044 168.244L125.964 165.88C123.852 166.116 122.608 166.76 123.164 167.376C123.452 167.704 124.188 167.964 125.144 168.112C126.107 168.256 127.083 168.3 128.056 168.244L128.456 168.216L128.856 168.18C130.972 167.948 132.216 167.3 131.656 166.684C131.368 166.356 130.628 166.096 129.668 165.944Z" fill="white"/>
<path d="M112.944 175.256L112.964 176.916C112.965 176.97 112.976 177.024 112.998 177.073C113.02 177.123 113.052 177.167 113.092 177.204C113.38 177.532 114.116 177.788 115.072 177.94C116.036 178.08 117.011 178.124 117.984 178.072L118.384 178.044L118.784 178.004C120.568 177.808 121.732 177.316 121.728 176.804L121.704 175.152C121.704 175.664 120.54 176.152 118.76 176.352L118.36 176.392L117.96 176.42C116.986 176.48 116.008 176.436 115.044 176.288C114.088 176.14 113.352 175.888 113.064 175.552C112.987 175.473 112.943 175.367 112.944 175.256Z" fill="#DBDBDB"/>
<path d="M118.364 176.4L118.388 178.06L118.788 178.02L118.764 176.364L118.364 176.4Z" fill="#DBDBDB"/>
<path d="M116.676 174L116.276 174.028L115.876 174.068L117.956 176.428L118.356 176.4L118.756 176.364L116.676 174Z" fill="#DBDBDB"/>
<path d="M115.88 174.052L115.9 175.708L117.984 178.068L117.96 176.412L115.88 174.052Z" fill="#DBDBDB"/>
<path d="M119.6 174.116C118.638 173.972 117.663 173.928 116.692 173.984L118.772 176.348L118.372 176.384L117.972 176.412L115.892 174.052C113.784 174.284 112.536 174.928 113.092 175.548C113.38 175.872 114.116 176.132 115.072 176.284C116.036 176.425 117.012 176.467 117.984 176.412L118.384 176.384L118.784 176.348C120.9 176.116 122.144 175.468 121.584 174.852C121.28 174.524 120.54 174.268 119.6 174.116Z" fill="white"/>
<path d="M154.904 139.12H168.764C169.664 139.12 170.526 139.477 171.163 140.113C171.799 140.75 172.156 141.612 172.156 142.512V173.016C172.156 173.352 172.022 173.675 171.785 173.913C171.547 174.15 171.224 174.284 170.888 174.284H152.8C152.464 174.284 152.141 174.15 151.903 173.913C151.666 173.675 151.532 173.352 151.532 173.016V142.508C151.533 141.613 151.888 140.754 152.52 140.119C153.152 139.484 154.009 139.125 154.904 139.12Z" fill="#3052C5"/>
<path d="M167.812 134.656H155.86V140.132H167.812V134.656Z" fill="#3052C5"/>
<path d="M172.156 150.572H151.516V164.488H172.156V150.572Z" fill="#EBEBEB"/>
<path d="M172.156 161.644H151.516V162.904H172.156V161.644Z" fill="#455A64"/>
<path d="M172.156 152.16H151.516V153.42H172.156V152.16Z" fill="#455A64"/>
<path d="M168.644 130.824H155.028V135.896H168.644V130.824Z" fill="#455A64"/>
<path d="M169.356 135.892H154.312V137.392H169.356V135.892Z" fill="#37474F"/>
<path d="M156.116 131.532H155.94C155.816 131.532 155.716 131.632 155.716 131.756V134.964C155.716 135.088 155.816 135.188 155.94 135.188H156.116C156.24 135.188 156.34 135.088 156.34 134.964V131.756C156.34 131.632 156.24 131.532 156.116 131.532Z" fill="#37474F"/>
<path d="M157.276 131.532H157.1C156.976 131.532 156.876 131.632 156.876 131.756V134.964C156.876 135.088 156.976 135.188 157.1 135.188H157.276C157.4 135.188 157.5 135.088 157.5 134.964V131.756C157.5 131.632 157.4 131.532 157.276 131.532Z" fill="#37474F"/>
<path d="M158.26 131.532H158.44C158.498 131.532 158.554 131.555 158.596 131.596C158.637 131.638 158.66 131.694 158.66 131.752V134.952C158.66 135.011 158.636 135.068 158.594 135.11C158.552 135.152 158.495 135.176 158.436 135.176H158.256C158.197 135.176 158.14 135.152 158.098 135.11C158.056 135.068 158.032 135.011 158.032 134.952V131.752C158.033 131.723 158.039 131.694 158.051 131.667C158.062 131.64 158.079 131.615 158.1 131.595C158.122 131.574 158.147 131.558 158.174 131.548C158.201 131.537 158.231 131.531 158.26 131.532Z" fill="#37474F"/>
<path d="M159.6 131.532H159.424C159.3 131.532 159.2 131.632 159.2 131.756V134.964C159.2 135.088 159.3 135.188 159.424 135.188H159.6C159.724 135.188 159.824 135.088 159.824 134.964V131.756C159.824 131.632 159.724 131.532 159.6 131.532Z" fill="#37474F"/>
<path d="M160.764 131.532H160.588C160.464 131.532 160.364 131.632 160.364 131.756V134.964C160.364 135.088 160.464 135.188 160.588 135.188H160.764C160.888 135.188 160.988 135.088 160.988 134.964V131.756C160.988 131.632 160.888 131.532 160.764 131.532Z" fill="#37474F"/>
<path d="M161.744 131.532H161.924C161.983 131.532 162.04 131.556 162.082 131.598C162.124 131.64 162.148 131.697 162.148 131.756V134.956C162.148 135.015 162.124 135.072 162.082 135.114C162.04 135.156 161.983 135.18 161.924 135.18H161.744C161.686 135.18 161.63 135.157 161.588 135.116C161.547 135.074 161.524 135.018 161.524 134.96V131.76C161.523 131.731 161.529 131.701 161.539 131.674C161.55 131.647 161.566 131.622 161.587 131.6C161.607 131.579 161.632 131.562 161.659 131.551C161.686 131.539 161.715 131.533 161.744 131.532Z" fill="#37474F"/>
<path d="M163.084 131.532H162.908C162.784 131.532 162.684 131.632 162.684 131.756V134.964C162.684 135.088 162.784 135.188 162.908 135.188H163.084C163.208 135.188 163.308 135.088 163.308 134.964V131.756C163.308 131.632 163.208 131.532 163.084 131.532Z" fill="#37474F"/>
<path d="M164.248 131.532H164.072C163.948 131.532 163.848 131.632 163.848 131.756V134.964C163.848 135.088 163.948 135.188 164.072 135.188H164.248C164.372 135.188 164.472 135.088 164.472 134.964V131.756C164.472 131.632 164.372 131.532 164.248 131.532Z" fill="#37474F"/>
<path d="M165.232 131.532H165.412C165.471 131.532 165.528 131.556 165.57 131.598C165.612 131.64 165.636 131.697 165.636 131.756V134.956C165.636 135.015 165.612 135.072 165.57 135.114C165.528 135.156 165.471 135.18 165.412 135.18H165.232C165.174 135.18 165.118 135.157 165.076 135.116C165.035 135.074 165.012 135.018 165.012 134.96V131.76C165.011 131.731 165.017 131.701 165.028 131.674C165.038 131.647 165.054 131.622 165.075 131.6C165.095 131.579 165.12 131.562 165.147 131.551C165.174 131.539 165.203 131.533 165.232 131.532Z" fill="#37474F"/>
<path d="M166.568 131.532H166.392C166.268 131.532 166.168 131.632 166.168 131.756V134.964C166.168 135.088 166.268 135.188 166.392 135.188H166.568C166.692 135.188 166.792 135.088 166.792 134.964V131.756C166.792 131.632 166.692 131.532 166.568 131.532Z" fill="#37474F"/>
<path d="M167.732 131.532H167.556C167.432 131.532 167.332 131.632 167.332 131.756V134.964C167.332 135.088 167.432 135.188 167.556 135.188H167.732C167.856 135.188 167.956 135.088 167.956 134.964V131.756C167.956 131.632 167.856 131.532 167.732 131.532Z" fill="#37474F"/>
<path d="M68.9521 182.657L69.0675 171.061L67.5356 171.046L67.4202 182.641L68.9521 182.657Z" fill="#3052C5"/>
<path opacity="0.1" d="M68.9521 182.657L69.0675 171.061L67.5356 171.046L67.4202 182.641L68.9521 182.657Z" fill="black"/>
<path d="M58.5661 180.504L58.6367 173.405L57.1048 173.389L57.0342 180.489L58.5661 180.504Z" fill="#3052C5"/>
<path opacity="0.1" d="M58.5661 180.504L58.6367 173.405L57.1048 173.389L57.0342 180.489L58.5661 180.504Z" fill="black"/>
<path d="M67.4628 178.92L67.5002 175.152L58.6207 175.064L58.5832 178.832L67.4628 178.92Z" fill="#3052C5"/>
<path opacity="0.2" d="M66.024 178.904L66.548 175.14L67.4961 175.152L67.456 178.916L66.024 178.904Z" fill="black"/>
<path d="M101.568 177.2C103.108 177.164 104.648 177.156 106.192 177.148H110.812L115.432 177.224L117.74 177.284C118.512 177.312 119.28 177.332 120.052 177.372C119.28 177.392 118.512 177.396 117.74 177.412H115.428H110.808L106.188 177.336C104.648 177.292 103.108 177.252 101.568 177.2Z" fill="#263238"/>
<path d="M100.468 181.327L100.55 173.028L69.0517 172.714L68.9692 181.014L100.468 181.327Z" fill="#3052C5"/>
<path opacity="0.6" d="M100.468 181.327L100.55 173.028L69.0517 172.714L68.9692 181.014L100.468 181.327Z" fill="white"/>
<path d="M100.479 180.236L100.54 174.12L70.5334 173.822L70.4726 179.937L100.479 180.236Z" fill="#3052C5"/>
<path d="M97.2781 174.856L97.2935 173.312L97.1095 173.31L97.0941 174.854L97.2781 174.856Z" fill="#263238"/>
<path d="M96.6642 174.86L96.6796 173.316L96.4956 173.315L96.4802 174.858L96.6642 174.86Z" fill="#263238"/>
<path d="M96.0424 174.852L96.0577 173.308L95.8738 173.307L95.8584 174.851L96.0424 174.852Z" fill="#263238"/>
<path d="M95.4246 174.848L95.4399 173.305L95.2559 173.303L95.2406 174.847L95.4246 174.848Z" fill="#263238"/>
<path d="M94.7932 175.967L94.8198 173.291L94.6358 173.289L94.6092 175.965L94.7932 175.967Z" fill="#263238"/>
<path d="M94.2166 174.837L94.2319 173.293L94.0479 173.291L94.0326 174.835L94.2166 174.837Z" fill="#263238"/>
<path d="M93.5947 174.829L93.6101 173.285L93.4261 173.283L93.4108 174.827L93.5947 174.829Z" fill="#263238"/>
<path d="M92.9769 174.817L92.9923 173.273L92.8083 173.271L92.793 174.815L92.9769 174.817Z" fill="#263238"/>
<path d="M92.3456 174.809L92.3611 173.265L92.1771 173.263L92.1616 174.807L92.3456 174.809Z" fill="#263238"/>
<path d="M91.7237 175.939L91.7504 173.263L91.5664 173.262L91.5398 175.937L91.7237 175.939Z" fill="#263238"/>
<path d="M91.1511 174.805L91.1665 173.261L90.9825 173.259L90.9672 174.803L91.1511 174.805Z" fill="#263238"/>
<path d="M90.5253 174.789L90.5406 173.245L90.3567 173.243L90.3413 174.787L90.5253 174.789Z" fill="#263238"/>
<path d="M89.9074 174.785L89.9227 173.241L89.7387 173.24L89.7234 174.783L89.9074 174.785Z" fill="#263238"/>
<path d="M89.2896 174.789L89.3049 173.245L89.1209 173.244L89.1056 174.788L89.2896 174.789Z" fill="#263238"/>
<path d="M88.6582 175.912L88.6848 173.236L88.5008 173.234L88.4742 175.91L88.6582 175.912Z" fill="#263238"/>
<path d="M88.0816 174.774L88.0969 173.23L87.9129 173.228L87.8976 174.772L88.0816 174.774Z" fill="#263238"/>
<path d="M87.4597 174.762L87.4751 173.218L87.2911 173.216L87.2758 174.76L87.4597 174.762Z" fill="#263238"/>
<path d="M86.8419 174.762L86.8573 173.218L86.6733 173.216L86.658 174.76L86.8419 174.762Z" fill="#263238"/>
<path d="M86.2201 174.746L86.2355 173.202L86.0515 173.2L86.0361 174.744L86.2201 174.746Z" fill="#263238"/>
<path d="M85.5926 175.876L85.6193 173.2L85.4353 173.199L85.4087 175.874L85.5926 175.876Z" fill="#263238"/>
<path d="M85.0121 174.742L85.0275 173.198L84.8435 173.196L84.8281 174.74L85.0121 174.742Z" fill="#263238"/>
<path d="M84.3903 174.73L84.4056 173.186L84.2217 173.184L84.2063 174.728L84.3903 174.73Z" fill="#263238"/>
<path d="M83.7764 174.73L83.7917 173.186L83.6078 173.184L83.5924 174.728L83.7764 174.73Z" fill="#263238"/>
<path d="M83.1546 174.714L83.1699 173.17L82.9859 173.169L82.9706 174.713L83.1546 174.714Z" fill="#263238"/>
<path d="M82.5232 175.849L82.5498 173.173L82.3658 173.171L82.3392 175.847L82.5232 175.849Z" fill="#263238"/>
<path d="M81.9466 174.711L81.9619 173.167L81.7779 173.165L81.7626 174.709L81.9466 174.711Z" fill="#263238"/>
<path d="M81.3288 174.707L81.3441 173.163L81.1601 173.161L81.1448 174.705L81.3288 174.707Z" fill="#263238"/>
<path d="M80.711 174.699L80.7263 173.155L80.5423 173.153L80.527 174.697L80.711 174.699Z" fill="#263238"/>
<path d="M80.0851 174.687L80.1005 173.143L79.9165 173.141L79.9011 174.685L80.0851 174.687Z" fill="#263238"/>
<path d="M79.4578 175.821L79.4844 173.145L79.3004 173.143L79.2738 175.819L79.4578 175.821Z" fill="#263238"/>
<path d="M78.8771 174.675L78.8925 173.131L78.7085 173.129L78.6931 174.673L78.8771 174.675Z" fill="#263238"/>
<path d="M78.2593 174.671L78.2747 173.127L78.0907 173.125L78.0753 174.669L78.2593 174.671Z" fill="#263238"/>
<path d="M77.6375 174.663L77.6528 173.119L77.4688 173.117L77.4535 174.661L77.6375 174.663Z" fill="#263238"/>
<path d="M77.0197 174.659L77.035 173.115L76.851 173.113L76.8357 174.657L77.0197 174.659Z" fill="#263238"/>
<path d="M76.3922 175.786L76.4188 173.11L76.2348 173.108L76.2082 175.784L76.3922 175.786Z" fill="#263238"/>
<path d="M75.8117 174.647L75.827 173.104L75.643 173.102L75.6277 174.646L75.8117 174.647Z" fill="#263238"/>
<path d="M75.1898 174.64L75.2052 173.096L75.0212 173.094L75.0058 174.638L75.1898 174.64Z" fill="#263238"/>
<path d="M74.5679 174.628L74.5833 173.084L74.3993 173.082L74.3839 174.626L74.5679 174.628Z" fill="#263238"/>
<path d="M73.9541 174.636L73.9695 173.092L73.7855 173.09L73.7701 174.634L73.9541 174.636Z" fill="#263238"/>
<path d="M73.3187 175.754L73.3453 173.078L73.1613 173.076L73.1347 175.752L73.3187 175.754Z" fill="#263238"/>
<path d="M72.7421 174.616L72.7574 173.072L72.5734 173.07L72.5581 174.614L72.7421 174.616Z" fill="#263238"/>
<path d="M72.1243 174.616L72.1396 173.072L71.9557 173.07L71.9403 174.614L72.1243 174.616Z" fill="#263238"/>
<path d="M71.5065 174.604L71.5219 173.06L71.3379 173.058L71.3225 174.602L71.5065 174.604Z" fill="#263238"/>
<path d="M70.8847 174.604L70.9 173.06L70.716 173.058L70.7007 174.602L70.8847 174.604Z" fill="#263238"/>
<path d="M70.2533 175.727L70.2799 173.051L70.0959 173.049L70.0693 175.725L70.2533 175.727Z" fill="#263238"/>
<path d="M100.467 181.324L100.55 173.025L98.1742 173.001L98.0916 181.301L100.467 181.324Z" fill="#263238"/>
<path d="M103.203 180.01L103.259 174.402L100.539 174.375L100.484 179.983L103.203 180.01Z" fill="#3052C5"/>
<path d="M106.48 177.952L106.492 176.508L103.236 176.216L103.216 178.18L106.48 177.952Z" fill="#3052C5"/>
<path opacity="0.1" d="M103.216 178.18L103.236 176.22L104.16 176.3L104 178.124L103.216 178.18Z" fill="black"/>
</svg>
