<svg width="500" height="500" viewBox="0 0 500 500" fill="none" xmlns="http://www.w3.org/2000/svg">
<path d="M368.73 226.41L378.42 232.41L380.26 229.41C380.527 228.983 380.908 228.638 381.361 228.416C381.813 228.193 382.318 228.101 382.82 228.15C383.38 228.15 383.95 228.21 384.52 228.2C385.022 228.184 385.518 228.308 385.953 228.559C386.387 228.81 386.743 229.177 386.98 229.62L388.64 232.69L398.7 227.3L397 224.27C396.766 223.827 396.66 223.328 396.693 222.828C396.727 222.328 396.899 221.848 397.19 221.44C397.51 220.97 397.81 220.44 398.09 219.99C398.325 219.545 398.68 219.176 399.115 218.923C399.55 218.67 400.047 218.544 400.55 218.56L404.04 218.67L404.39 207.26L400.89 207.16C400.388 207.14 399.901 206.98 399.484 206.7C399.068 206.419 398.737 206.028 398.53 205.57C398.41 205.31 398.28 205.06 398.15 204.82C398.02 204.58 397.88 204.32 397.73 204.09C397.467 203.663 397.328 203.171 397.328 202.67C397.328 202.169 397.467 201.677 397.73 201.25L399.59 198.25L389.89 192.25L388.04 195.25C387.773 195.676 387.394 196.019 386.943 196.241C386.493 196.464 385.99 196.557 385.49 196.51C384.925 196.46 384.357 196.44 383.79 196.45C383.29 196.465 382.795 196.341 382.361 196.092C381.927 195.843 381.57 195.479 381.33 195.04L379.68 191.96L369.62 197.35L371.27 200.43C371.503 200.873 371.61 201.371 371.578 201.87C371.546 202.37 371.377 202.85 371.09 203.26C370.765 203.725 370.468 204.21 370.2 204.71C369.961 205.151 369.605 205.519 369.171 205.771C368.737 206.023 368.242 206.151 367.74 206.14L364.24 206.03L363.88 217.44L367.38 217.55C367.88 217.569 368.364 217.727 368.78 218.006C369.195 218.285 369.524 218.674 369.73 219.13C369.85 219.39 369.98 219.64 370.12 219.89C370.26 220.14 370.39 220.38 370.53 220.62C370.792 221.049 370.931 221.542 370.931 222.045C370.931 222.548 370.792 223.041 370.53 223.47L368.73 226.41ZM375.93 216.75C375.059 215.121 374.691 213.271 374.872 211.433C375.053 209.595 375.775 207.852 376.946 206.424C378.118 204.996 379.686 203.948 381.453 203.411C383.22 202.874 385.106 202.874 386.874 203.409C388.642 203.944 390.211 204.991 391.383 206.418C392.556 207.844 393.279 209.587 393.462 211.425C393.644 213.262 393.278 215.113 392.409 216.743C391.54 218.372 390.208 219.708 388.58 220.58C387.498 221.16 386.312 221.521 385.091 221.642C383.869 221.764 382.636 221.643 381.461 221.287C380.286 220.931 379.193 220.348 378.244 219.569C377.295 218.791 376.508 217.833 375.93 216.75Z" fill="#EBEBEB"/>
<path d="M408.78 190.93L412.78 197.86L414.9 196.63C415.207 196.454 415.556 196.368 415.91 196.38C416.263 196.393 416.606 196.503 416.9 196.7C417.222 196.918 417.556 197.118 417.9 197.3C418.225 197.451 418.5 197.69 418.695 197.991C418.89 198.292 418.995 198.642 419 199V201.44H427V199C426.996 198.654 427.087 198.313 427.263 198.015C427.439 197.717 427.694 197.473 428 197.31C428.345 197.13 428.679 196.93 429 196.71C429.294 196.513 429.637 196.403 429.99 196.39C430.343 196.378 430.693 196.464 431 196.64L433.12 197.87L437.12 190.94L435 189.71C434.695 189.531 434.446 189.271 434.282 188.958C434.117 188.645 434.044 188.292 434.07 187.94C434.07 187.75 434.07 187.55 434.07 187.35C434.07 187.15 434.07 186.96 434.07 186.77C434.044 186.418 434.117 186.065 434.282 185.752C434.446 185.439 434.695 185.179 435 185L437.14 183.77L433.14 176.84L431.02 178.07C430.712 178.243 430.363 178.329 430.01 178.316C429.657 178.304 429.314 178.194 429.02 178C428.699 177.78 428.365 177.579 428.02 177.4C427.714 177.237 427.459 176.993 427.283 176.695C427.107 176.397 427.016 176.056 427.02 175.71V173.27H419.02V175.71C419.017 176.061 418.917 176.404 418.732 176.703C418.547 177.001 418.283 177.242 417.97 177.4C417.625 177.579 417.291 177.78 416.97 178C416.675 178.194 416.332 178.304 415.98 178.316C415.627 178.329 415.277 178.243 414.97 178.07L412.85 176.84L408.85 183.77L410.98 184.99C411.28 185.171 411.525 185.431 411.689 185.741C411.853 186.051 411.929 186.4 411.91 186.75C411.91 186.95 411.91 187.15 411.91 187.34C411.91 187.53 411.91 187.74 411.91 187.93C411.931 188.283 411.855 188.635 411.689 188.947C411.523 189.26 411.274 189.52 410.97 189.7L408.78 190.93ZM416.43 187.35C416.432 186.055 416.818 184.789 417.539 183.713C418.261 182.637 419.285 181.799 420.482 181.305C421.68 180.811 422.997 180.683 424.267 180.938C425.538 181.193 426.704 181.818 427.618 182.736C428.533 183.653 429.155 184.821 429.406 186.092C429.657 187.363 429.525 188.68 429.027 189.876C428.53 191.072 427.689 192.094 426.61 192.812C425.532 193.53 424.265 193.912 422.97 193.91C422.109 193.91 421.257 193.74 420.462 193.41C419.668 193.08 418.946 192.597 418.338 191.987C417.731 191.378 417.249 190.655 416.922 189.859C416.594 189.063 416.427 188.211 416.43 187.35Z" fill="#EBEBEB"/>
<path d="M113.73 95.1101L121 107.78L124.88 105.54C125.44 105.22 126.077 105.062 126.722 105.083C127.366 105.104 127.992 105.304 128.53 105.66C129.139 106.061 129.77 106.429 130.42 106.76C130.996 107.046 131.481 107.487 131.822 108.032C132.162 108.578 132.345 109.207 132.35 109.85V114.33H147V109.85C147.005 109.207 147.188 108.578 147.528 108.032C147.869 107.487 148.354 107.046 148.93 106.76C149.58 106.429 150.211 106.061 150.82 105.66C151.358 105.304 151.983 105.104 152.628 105.083C153.272 105.062 153.91 105.22 154.47 105.54L158.35 107.78L165.66 95.1101L161.76 92.8701C161.205 92.5419 160.753 92.0661 160.453 91.4958C160.152 90.9255 160.016 90.2831 160.06 89.64C160.06 89.28 160.06 88.92 160.06 88.56C160.06 88.2 160.06 87.84 160.06 87.49C160.016 86.8495 160.151 86.2094 160.449 85.6409C160.748 85.0725 161.198 84.5979 161.75 84.27L165.68 82L158.37 69.3301L154.48 71.5801C153.919 71.8965 153.281 72.0518 152.637 72.0289C151.993 72.006 151.367 71.8056 150.83 71.45C150.221 71.0521 149.59 70.6882 148.94 70.3601C148.364 70.0758 147.878 69.6376 147.535 69.0939C147.193 68.5503 147.008 67.9225 147 67.28V62.8H132.39V67.28C132.386 67.9221 132.205 68.5506 131.866 69.0959C131.527 69.6413 131.044 70.0822 130.47 70.3701C129.82 70.6982 129.189 71.0621 128.58 71.46C128.043 71.8157 127.417 72.016 126.773 72.0389C126.129 72.0618 125.491 71.9065 124.93 71.59L121 69.34L113.73 82L117.62 84.25C118.174 84.5766 118.626 85.0506 118.926 85.6192C119.226 86.1877 119.363 86.8285 119.32 87.4701C119.32 87.8301 119.32 88.1901 119.32 88.5501C119.32 88.9101 119.32 89.27 119.32 89.63C119.363 90.2731 119.228 90.9155 118.927 91.4858C118.627 92.0561 118.175 92.5319 117.62 92.8601L113.73 95.1101ZM127.73 88.56C127.73 86.1867 128.434 83.8666 129.752 81.8932C131.071 79.9198 132.945 78.3817 135.138 77.4735C137.33 76.5652 139.743 76.3276 142.071 76.7906C144.399 77.2536 146.537 78.3965 148.215 80.0748C149.893 81.753 151.036 83.8912 151.499 86.219C151.962 88.5467 151.725 90.9595 150.817 93.1522C149.908 95.345 148.37 97.2191 146.397 98.5377C144.423 99.8563 142.103 100.56 139.73 100.56C138.153 100.561 136.592 100.252 135.135 99.6495C133.678 99.047 132.354 98.1633 131.238 97.0489C130.123 95.9344 129.238 94.6111 128.634 93.1546C128.031 91.698 127.72 90.1368 127.72 88.56H127.73Z" fill="#EBEBEB"/>
<path d="M382 115C381.075 121.237 378.378 127.076 374.231 131.825C370.084 136.574 364.66 140.032 358.604 141.788C352.549 143.543 346.117 143.524 340.072 141.73C334.028 139.937 328.626 136.445 324.508 131.671C320.39 126.897 317.73 121.041 316.843 114.798C315.957 108.556 316.881 102.191 319.507 96.4587C322.133 90.7267 326.35 85.8694 331.656 82.4643C336.963 79.0591 343.135 77.2493 349.44 77.25V110.17L382 115Z" fill="#EBEBEB"/>
<path d="M389.09 103.46C389.092 105.074 388.972 106.685 388.73 108.28L356.17 103.46V70.54C360.494 70.5374 364.776 71.3871 368.771 73.0406C372.766 74.694 376.396 77.1188 379.454 80.1762C382.511 83.2337 384.936 86.8638 386.589 90.859C388.243 94.8542 389.093 99.1362 389.09 103.46Z" fill="#DBDBDB"/>
<path d="M401.18 127.98H366.17V128.81H401.18V127.98Z" fill="#C7C7C7"/>
<path d="M403.63 131.26C403.062 131.26 402.507 131.092 402.035 130.776C401.563 130.461 401.195 130.013 400.978 129.488C400.761 128.964 400.704 128.387 400.815 127.83C400.926 127.273 401.199 126.762 401.6 126.361C402.002 125.959 402.513 125.686 403.07 125.575C403.627 125.464 404.204 125.521 404.728 125.738C405.252 125.956 405.701 126.324 406.016 126.796C406.331 127.268 406.5 127.822 406.5 128.39C406.497 129.15 406.194 129.879 405.656 130.417C405.119 130.954 404.39 131.257 403.63 131.26ZM403.63 126.35C403.234 126.35 402.848 126.467 402.519 126.687C402.19 126.907 401.933 127.219 401.782 127.585C401.631 127.95 401.591 128.352 401.668 128.74C401.745 129.128 401.936 129.485 402.216 129.764C402.495 130.044 402.852 130.234 403.24 130.312C403.628 130.389 404.03 130.349 404.395 130.198C404.761 130.046 405.073 129.79 405.293 129.461C405.512 129.132 405.63 128.746 405.63 128.35C405.63 127.82 405.419 127.311 405.044 126.936C404.669 126.561 404.16 126.35 403.63 126.35Z" fill="#C7C7C7"/>
<path d="M439.72 126.55H412.53V127.78H439.72V126.55Z" fill="#C7C7C7"/>
<path d="M427.92 129H412.53V130.23H427.92V129Z" fill="#C7C7C7"/>
<path d="M168.59 280.39C168.59 280.39 144.46 277 150.1 247.88C150.1 247.88 177.07 253.93 168.59 280.39Z" fill="#EBEBEB"/>
<path d="M167.37 274.31C166.898 272.836 166.35 271.388 165.73 269.97L165.67 269.42C165.67 269.02 165.6 268.61 165.57 268.21C165.5 267.34 165.45 266.47 165.4 265.6C165.29 263.86 165.18 262.12 165.15 260.38C165.15 260.361 165.143 260.344 165.129 260.33C165.116 260.317 165.099 260.31 165.08 260.31C165.061 260.31 165.044 260.317 165.03 260.33C165.017 260.344 165.01 260.361 165.01 260.38C165.01 262.13 165.01 263.87 165.01 265.61C165.05 266.483 165.1 267.353 165.16 268.22C165.16 268.42 165.16 268.61 165.16 268.8C163.808 265.899 162.187 263.13 160.32 260.53C159.49 259.37 158.62 258.25 157.68 257.18C156.74 256.11 155.68 255.03 154.68 253.94C154.62 253.87 154.51 253.94 154.58 254.05C156.309 255.969 157.865 258.037 159.23 260.23C159.96 261.34 160.65 262.48 161.31 263.64L161.09 263.55L160.23 263.2L158.23 262.46L154.48 261C154.41 261 154.35 261.11 154.48 261.14C155.76 261.65 157.03 262.19 158.3 262.74L160.17 263.54C160.48 263.68 160.8 263.8 161.11 263.93C161.314 264.03 161.529 264.107 161.75 264.16C162.24 265.03 162.75 265.91 163.17 266.8C164.288 269.074 165.273 271.411 166.12 273.8C166.17 273.96 166.23 274.13 166.29 274.3C165.651 273.913 164.982 273.579 164.29 273.3L161.79 272.16C160.1 271.39 158.42 270.6 156.79 269.68C156.71 269.68 156.63 269.77 156.72 269.81C158.38 270.72 160 271.68 161.66 272.58C162.49 273.03 163.33 273.47 164.18 273.88C164.881 274.3 165.643 274.607 166.44 274.79C167.248 277 167.782 279.3 168.03 281.64C168.29 284.93 168.26 288.25 168.34 291.55C168.34 291.61 168.42 291.61 168.43 291.55C168.67 288.55 168.8 285.55 168.82 282.55C168.781 279.743 168.291 276.961 167.37 274.31Z" fill="#C7C7C7"/>
<path d="M163.66 257.18C163.425 258.879 163.345 260.596 163.42 262.31H163.49C163.59 260.61 163.6 258.91 163.8 257.21C163.81 257.12 163.67 257.08 163.66 257.18Z" fill="#C7C7C7"/>
<path d="M156.76 258.64C155.681 258.227 154.644 257.715 153.66 257.11C153.58 257.06 153.5 257.19 153.58 257.24C154.548 257.891 155.606 258.396 156.72 258.74C156.78 258.75 156.82 258.66 156.76 258.64Z" fill="#C7C7C7"/>
<path d="M169.36 326.64C169.36 323.97 169.29 321.31 169.26 318.64C169.26 309.78 169.14 300.93 168.98 292.07C168.86 285.043 168.697 278.013 168.49 270.98C168.488 270.961 168.482 270.943 168.472 270.927C168.461 270.911 168.447 270.899 168.43 270.89V265.13C168.43 265.08 168.37 265.06 168.31 265.06C168.25 265.06 168.2 265.06 168.2 265.14C168.2 267.06 168.2 268.98 168.2 270.91C168.194 270.922 168.19 270.936 168.19 270.95C168.19 270.964 168.194 270.978 168.2 270.99C167.84 283.5 167.53 295.99 167.45 308.53C167.45 311.08 167.45 313.62 167.45 316.17C167.363 324.33 167.33 332.49 167.35 340.65V344.54C167.35 352.01 167.43 359.47 167.43 366.94C167.43 367.34 167.88 367.54 168.36 367.56C168.84 367.58 169.47 367.37 169.47 366.91C169.47 358.67 169.53 350.44 169.53 342.21C169.38 337 169.4 331.83 169.36 326.64Z" fill="#C7C7C7"/>
<path d="M163.49 321.72C163.49 321.72 157.49 308.56 145.08 308.27C132.67 307.98 120.22 326.72 120.22 326.72C120.22 326.72 133.22 336.61 146.84 333.1C160 329.71 163.49 321.72 163.49 321.72Z" fill="#EBEBEB"/>
<path d="M166 323.72C164.54 321.958 162.668 320.584 160.55 319.72C160.183 319.418 159.792 319.147 159.38 318.91C158.92 318.61 158.46 318.31 158.01 318L155.17 316.15C153.25 314.88 151.31 313.65 149.43 312.33C149.36 312.33 149.28 312.4 149.34 312.45C151.18 313.8 152.99 315.18 154.86 316.45C155.86 317.12 156.78 317.79 157.76 318.45L158.47 318.94C158.13 318.83 157.78 318.74 157.47 318.66C155.623 318.23 153.736 317.999 151.84 317.97C150.96 317.67 150.04 317.45 149.15 317.19C147.73 316.79 146.3 316.42 144.87 316.05C142.05 315.33 139.21 314.69 136.37 314.05C136.28 314.05 136.25 314.16 136.37 314.19C139.15 314.95 141.91 315.77 144.68 316.55L148.68 317.68L149.68 317.98C146.014 318.149 142.4 318.912 138.98 320.24C135.654 321.562 132.498 323.277 129.58 325.35C129.5 325.4 129.58 325.53 129.65 325.48C132.929 323.498 136.457 321.958 140.14 320.9L139.78 321.23L138.22 322.71C137.22 323.71 136.13 324.71 135.11 325.71C135.04 325.78 135.11 325.87 135.22 325.81C136.29 324.89 137.34 323.96 138.4 323.02L139.96 321.64L140.75 320.92L141 320.7C142.746 320.235 144.519 319.881 146.31 319.64C148.665 319.34 151.047 319.31 153.41 319.55C153.28 319.71 153.15 319.87 153.02 320.01L152 321.17C151.26 322.02 150.54 322.88 149.82 323.74C148.34 325.49 147 327.35 145.54 329.11C145.527 329.125 145.52 329.144 145.521 329.164C145.521 329.183 145.53 329.202 145.545 329.215C145.559 329.228 145.579 329.235 145.598 329.234C145.618 329.233 145.637 329.225 145.65 329.21C147.2 327.49 148.87 325.87 150.41 324.14L152.71 321.53C153.07 321.12 153.42 320.7 153.77 320.29C153.97 320.06 154.17 319.84 154.34 319.6C154.57 319.6 154.8 319.6 155.02 319.68C158.23 320.17 161.57 321.09 164.1 323.22C165.305 324.215 166.244 325.493 166.834 326.939C167.424 328.386 167.646 329.957 167.48 331.51C167.48 331.78 167.88 331.84 167.95 331.58C168.266 330.209 168.255 328.782 167.916 327.417C167.577 326.051 166.92 324.784 166 323.72Z" fill="#C7C7C7"/>
<path d="M145.81 323.43L142.81 326.81C141.809 327.869 140.874 328.987 140.01 330.16C140.01 330.16 140.01 330.25 140.09 330.22C141.162 329.188 142.165 328.086 143.09 326.92L145.95 323.53C145.963 323.512 145.968 323.488 145.965 323.466C145.961 323.443 145.948 323.423 145.93 323.41C145.911 323.397 145.888 323.391 145.866 323.395C145.843 323.399 145.823 323.411 145.81 323.43Z" fill="#C7C7C7"/>
<path d="M134.19 321.24C132.53 321.17 130.86 321.24 129.19 321.01C129.172 321.01 129.154 321.017 129.141 321.031C129.127 321.044 129.12 321.061 129.12 321.08C129.12 321.099 129.127 321.116 129.141 321.129C129.154 321.143 129.172 321.15 129.19 321.15C130.853 321.29 132.522 321.34 134.19 321.3V321.24Z" fill="#C7C7C7"/>
<path d="M161.9 302.75C161.9 302.75 147.71 303.65 141.11 294.3C134.51 284.95 136 271.58 136 271.58C136 271.58 150.9 273.39 156.82 280.11C162.74 286.83 161.9 302.75 161.9 302.75Z" fill="#EBEBEB"/>
<path d="M168.55 316.74C168.06 315.22 167.45 313.74 166.88 312.24C166.31 310.74 165.74 309.39 165.12 307.99C163.852 305.128 162.43 302.338 160.86 299.63C159.86 297.9 158.79 296.23 157.69 294.58C157.69 294.33 157.61 294.08 157.57 293.82C157.51 293.39 157.45 292.95 157.38 292.51C157.24 291.61 157.08 290.71 156.93 289.82C156.6 287.82 156.2 285.91 155.93 283.95C155.93 283.86 155.77 283.86 155.78 283.95C156.07 285.89 156.26 287.84 156.53 289.77C156.66 290.77 156.79 291.68 156.93 292.63C156.99 292.97 157.04 293.32 157.1 293.63C154.941 290.467 152.604 287.428 150.1 284.53C149.76 284.13 149.41 283.75 149.1 283.37C149.1 283.26 149.01 283.15 148.97 283.04L148.66 282.23C148.45 281.67 148.25 281.1 148.05 280.54C147.65 279.43 147.29 278.31 146.99 277.17C146.99 277.07 146.83 277.12 146.85 277.17C147.14 278.33 147.44 279.49 147.78 280.64C147.94 281.2 148.13 281.75 148.32 282.29L148.42 282.57C146.61 280.57 144.72 278.69 142.81 276.8C142.795 276.787 142.776 276.78 142.756 276.781C142.737 276.782 142.718 276.79 142.705 276.805C142.692 276.82 142.685 276.839 142.686 276.859C142.687 276.878 142.695 276.897 142.71 276.91C146.354 280.751 149.697 284.866 152.71 289.22C152.383 289.112 152.048 289.025 151.71 288.96C150.62 288.75 149.51 288.59 148.41 288.45C146.1 288.16 143.79 287.86 141.49 287.5C141.4 287.5 141.36 287.63 141.49 287.64C143.69 288.08 145.86 288.57 148.05 289.07C149.05 289.31 150.11 289.51 151.15 289.72C151.995 289.902 152.826 290.139 153.64 290.43C153.87 290.75 154.11 291.08 154.33 291.43C155.33 292.94 156.33 294.49 157.33 296.05L155.88 295.76C154.79 295.55 153.69 295.35 152.59 295.17C150.42 294.82 148.26 294.44 146.12 293.95C146.03 293.95 145.99 294.08 146.12 294.1C148.29 294.61 150.44 295.2 152.59 295.77C153.59 296.05 154.68 296.3 155.73 296.54L157.31 296.88C157.521 296.93 157.735 296.966 157.95 296.99C160.017 300.323 161.953 303.76 163.76 307.3C164.55 308.84 165.32 310.4 166.05 311.97C166.78 313.54 167.46 315.22 168.16 316.86C168.15 317.23 168.67 317.1 168.55 316.74Z" fill="#C7C7C7"/>
<path d="M154 284.14C153.73 282.79 153.45 281.44 153.15 280.09C153.15 280 152.99 280.09 153.01 280.09C153.28 281.42 153.53 282.75 153.77 284.09C153.969 285.437 154.239 286.772 154.58 288.09C154.481 286.761 154.287 285.441 154 284.14Z" fill="#C7C7C7"/>
<path d="M145.76 283.74C145.1 283.42 144.4 283.15 143.76 282.89L142.68 282.46L142.14 282.24C141.927 282.187 141.724 282.099 141.54 281.98C141.43 281.9 141.36 282.09 141.47 282.11C141.681 282.164 141.883 282.248 142.07 282.36L142.61 282.6L143.61 283.06C144.292 283.372 144.99 283.649 145.7 283.89C145.72 283.898 145.742 283.898 145.762 283.889C145.781 283.881 145.797 283.865 145.805 283.845C145.813 283.825 145.813 283.803 145.804 283.783C145.796 283.763 145.78 283.748 145.76 283.74Z" fill="#C7C7C7"/>
<path d="M176.42 291.59C176.42 291.59 185.01 275.59 198.07 273.07C211.13 270.55 219.12 284 219.12 284C219.12 284 209.6 296.17 197.61 298.3C185.62 300.43 176.42 291.59 176.42 291.59Z" fill="#EBEBEB"/>
<path d="M206.82 280.26C203.419 279.8 199.969 279.84 196.58 280.38C196.77 280.27 196.97 280.16 197.16 280.07L200.06 278.57C202.06 277.57 204.06 276.42 206.19 275.57C206.203 275.569 206.215 275.565 206.225 275.558C206.236 275.551 206.245 275.542 206.251 275.531C206.258 275.52 206.262 275.508 206.262 275.496C206.263 275.483 206.261 275.47 206.256 275.459C206.251 275.447 206.243 275.437 206.234 275.429C206.224 275.421 206.213 275.415 206.2 275.412C206.188 275.41 206.175 275.41 206.163 275.413C206.151 275.416 206.14 275.422 206.13 275.43C204.13 276.43 201.97 277.18 199.92 278.13C198.92 278.6 197.92 279.13 196.92 279.62C196.27 279.96 195.56 280.28 194.92 280.69C192.048 281.269 189.258 282.196 186.61 283.45L188.25 281.67C189.46 280.34 190.66 278.94 192 277.72C192.07 277.66 192 277.56 191.89 277.62C190.53 278.86 189.08 280.01 187.76 281.3C187.11 281.93 186.5 282.58 185.9 283.25C185.6 283.58 185.3 283.92 185.02 284.25C180.535 286.654 176.638 290.022 173.609 294.111C170.58 298.2 168.494 302.909 167.5 307.9C167.5 307.99 167.62 308.04 167.64 307.9C169.482 301.789 172.78 296.216 177.25 291.66C182.053 286.754 188.104 283.252 194.75 281.53C198.69 280.53 202.764 280.159 206.82 280.43C206.84 280.406 206.852 280.376 206.852 280.345C206.852 280.314 206.84 280.284 206.82 280.26Z" fill="#C7C7C7"/>
<path d="M199.23 274.54C198.232 275.128 197.264 275.765 196.33 276.45C195.422 277.143 194.579 277.916 193.81 278.76C193.75 278.83 193.81 278.93 193.93 278.86C194.79 278.11 195.66 277.36 196.56 276.64C197.438 275.921 198.356 275.253 199.31 274.64C199.321 274.637 199.332 274.631 199.34 274.623C199.349 274.615 199.355 274.605 199.359 274.594C199.362 274.583 199.363 274.572 199.361 274.56C199.359 274.549 199.354 274.538 199.347 274.529C199.34 274.52 199.33 274.512 199.319 274.508C199.309 274.503 199.297 274.502 199.285 274.503C199.274 274.504 199.263 274.508 199.253 274.514C199.243 274.521 199.236 274.53 199.23 274.54Z" fill="#C7C7C7"/>
<path d="M206.4 277.25C205.92 277.46 205.4 277.63 204.94 277.83L203.49 278.43C203.38 278.48 203.43 278.65 203.49 278.6L205 278L206.45 277.38C206.53 277.36 206.49 277.22 206.4 277.25Z" fill="#C7C7C7"/>
<path d="M174.7 311.77C174.7 311.77 177 327.68 189 333.25C201 338.82 215.55 333.25 215.55 333.25C215.55 333.25 209.77 298.83 174.7 311.77Z" fill="#EBEBEB"/>
<path d="M207.27 322.9C206.16 322.77 205.07 322.59 203.97 322.39L202.37 322.08L201.53 321.91C201.2 321.61 200.89 321.31 200.53 321.02C198.262 319.025 195.811 317.247 193.21 315.71C191.795 314.875 190.333 314.124 188.83 313.46H189.05L192.99 313.63C195.62 313.75 198.24 313.81 200.86 313.98C200.96 313.98 200.95 313.84 200.86 313.83C198.23 313.65 195.61 313.37 192.98 313.14L189.15 312.8L187.15 312.63L186.65 312.57C185.96 312.32 185.28 312.08 184.58 311.86C181.319 310.748 177.814 310.554 174.45 311.3C171.45 312.07 168.45 314.05 167.66 317.22C167.651 317.245 167.652 317.273 167.663 317.298C167.674 317.322 167.695 317.341 167.72 317.35C167.745 317.359 167.773 317.358 167.797 317.347C167.822 317.336 167.841 317.315 167.85 317.29C168.97 314.64 171.91 313.29 174.57 312.76C176.354 312.419 178.183 312.382 179.98 312.65C180.11 313.47 180.314 314.277 180.59 315.06L181.59 318.41C182.27 320.65 183.02 322.86 183.68 325.1C183.68 325.19 183.85 325.15 183.82 325.1C183.27 322.86 182.82 320.61 182.26 318.37C182 317.28 181.72 316.18 181.45 315.08C181.294 314.315 181.091 313.56 180.84 312.82C181.888 313.01 182.926 313.254 183.95 313.55C185.798 314.099 187.609 314.767 189.37 315.55C189.55 316.68 189.8 317.81 190.06 318.93C190.39 320.33 190.75 321.72 191.2 323.09C191.2 323.18 191.35 323.14 191.33 323.09C191.324 323.004 191.324 322.917 191.33 322.83C191.07 321.53 190.78 320.23 190.5 318.93C190.28 317.93 190.08 316.83 189.85 315.79C191.343 316.447 192.798 317.184 194.21 318C194.21 318.32 194.32 318.65 194.37 318.95C194.45 319.49 194.55 320.04 194.65 320.58C194.88 321.81 195.12 323.03 195.42 324.24C195.957 326.588 196.642 328.899 197.47 331.16C197.47 331.16 197.47 331.22 197.47 331.25L197.53 331.33C197.58 331.39 197.67 331.33 197.65 331.26C197.1 328.9 196.47 326.56 195.95 324.2C195.69 323.02 195.43 321.83 195.19 320.65L194.86 318.87C194.86 318.7 194.8 318.52 194.77 318.33C196.381 319.278 197.936 320.317 199.43 321.44C202.009 323.378 204.396 325.558 206.56 327.95C206.65 328.05 206.82 327.95 206.74 327.81C205.82 326.61 204.92 325.44 203.89 324.33C203.28 323.69 202.66 323.06 202.02 322.45H202.22L203.91 322.7C205.01 322.85 206.12 322.96 207.23 323.08C207.32 323.05 207.36 322.91 207.27 322.9Z" fill="#C7C7C7"/>
<path d="M198.86 328.29C198.86 328.16 198.86 328.02 198.79 327.88C198.72 327.74 198.67 327.54 198.65 327.36C198.41 326.3 198.2 325.23 198.01 324.16C198.005 324.147 197.996 324.136 197.984 324.128C197.973 324.12 197.959 324.116 197.945 324.116C197.931 324.116 197.917 324.12 197.906 324.128C197.894 324.136 197.885 324.147 197.88 324.16C197.951 325.584 198.259 326.987 198.79 328.31C198.79 328.31 198.88 328.31 198.87 328.31L198.86 328.29Z" fill="#C7C7C7"/>
<path d="M188.85 328C188.85 327.95 188.85 327.93 188.78 327.93C188.44 326.52 188.12 325.11 187.83 323.69C187.67 322.95 187.52 322.2 187.37 321.46C187.3 321.05 187.22 320.65 187.15 320.25C187.115 319.905 187.027 319.568 186.89 319.25C186.885 319.237 186.876 319.226 186.864 319.218C186.853 319.21 186.839 319.206 186.825 319.206C186.811 319.206 186.797 319.21 186.786 319.218C186.774 319.226 186.765 319.237 186.76 319.25C186.751 319.974 186.852 320.696 187.06 321.39C187.21 322.17 187.36 322.94 187.53 323.71C187.88 325.28 188.27 326.85 188.71 328.39C188.71 328.48 188.88 328.46 188.87 328.39C188.86 328.32 188.85 328.15 188.85 328Z" fill="#C7C7C7"/>
<path d="M206.18 318.32C203.99 318.02 201.81 317.7 199.62 317.44C199.53 317.44 199.49 317.57 199.62 317.58C201.8 317.9 203.99 318.17 206.18 318.46C206.23 318.47 206.27 318.33 206.18 318.32Z" fill="#C7C7C7"/>
<path d="M168.58 274.46C168.58 274.46 161.26 242.35 195.76 229.35C195.76 229.35 205.32 271.62 168.58 274.46Z" fill="#EBEBEB"/>
<path d="M176 256.25L176.37 256.02L178.37 254.93L182.37 252.69C185 251.22 187.6 249.69 190.25 248.25C190.34 248.2 190.25 248.08 190.18 248.12C187.52 249.57 184.82 250.92 182.18 252.33L178.18 254.42L176.56 255.28C177.71 253.09 178.94 250.95 180.29 248.89C182.1 246.14 184.07 243.52 186.13 240.96C186.153 240.938 186.165 240.907 186.165 240.875C186.165 240.843 186.153 240.813 186.13 240.79C186.108 240.768 186.077 240.755 186.045 240.755C186.013 240.755 185.983 240.768 185.96 240.79C182.928 243.733 180.244 247.015 177.96 250.57C177.96 250.46 177.96 250.35 177.96 250.24C177.96 249.44 178.02 248.64 178.03 247.84C178.03 246.28 177.98 244.71 178.03 243.14C178.03 243.04 177.89 243.05 177.88 243.14C177.82 244.69 177.63 246.22 177.54 247.77C177.54 248.54 177.47 249.31 177.44 250.08C177.44 250.49 177.39 250.97 177.44 251.42C176.73 252.55 176.04 253.7 175.44 254.86C174.286 256.955 173.254 259.116 172.35 261.33C172.35 260.53 172.27 259.73 172.22 258.93C172.12 257.17 171.91 255.42 171.83 253.66C171.83 253.642 171.823 253.624 171.81 253.611C171.797 253.597 171.779 253.59 171.76 253.59C171.742 253.59 171.724 253.597 171.711 253.611C171.698 253.624 171.69 253.642 171.69 253.66C171.69 255.42 171.69 257.18 171.69 258.94C171.69 259.81 171.69 260.69 171.8 261.57L171.86 262.57C170.757 265.44 169.885 268.392 169.25 271.4C168.658 274.609 168.231 277.847 167.97 281.1C167.97 281.1 167.97 281.1 167.97 281.1C168.34 278.174 168.952 275.285 169.8 272.46C170.23 270.94 170.68 269.46 171.17 267.94C172.6 267.26 173.98 266.42 175.36 265.65C176.74 264.88 178.25 264.07 179.7 263.28C182.57 261.7 185.45 260.09 188.42 258.7C188.5 258.7 188.42 258.53 188.34 258.57C185.34 259.94 182.34 261.23 179.34 262.72C177.87 263.45 176.42 264.24 174.99 265.05C173.79 265.73 172.56 266.4 171.41 267.18C171.75 266.18 172.09 265.18 172.48 264.18C173.518 261.479 174.693 258.832 176 256.25Z" fill="#C7C7C7"/>
<path d="M173.12 248.91C173.12 248.81 172.96 248.81 172.97 248.91C173.09 250.74 173.15 252.57 173.35 254.4C173.35 254.5 173.51 254.5 173.51 254.4C173.45 252.56 173.25 250.74 173.12 248.91Z" fill="#C7C7C7"/>
<path d="M189.66 255C187.5 255.87 185.32 256.69 183.17 257.59C183.11 257.59 183.17 257.72 183.17 257.69C185.35 256.88 187.5 255.99 189.67 255.14C189.79 255.15 189.75 255 189.66 255Z" fill="#C7C7C7"/>
<path d="M192.94 240.23C190.827 241.198 188.776 242.296 186.8 243.52C186.7 243.58 186.8 243.73 186.9 243.67C188.9 242.5 190.9 241.38 193.02 240.35C193.1 240.31 193 240.19 192.94 240.23Z" fill="#C7C7C7"/>
<path d="M185.59 392.51H150.97L154.49 343.91H182.08L185.59 392.51Z" fill="#DBDBDB"/>
<path d="M153.78 353.76H182.79L182.07 343.91H154.49L153.78 353.76Z" fill="#C7C7C7"/>
<path d="M151.52 349.26H185.04V340.8H151.52V349.26Z" fill="#DBDBDB"/>
<path d="M260.42 430.59C375.637 430.59 469.04 424.38 469.04 416.72C469.04 409.06 375.637 402.85 260.42 402.85C145.202 402.85 51.7998 409.06 51.7998 416.72C51.7998 424.38 145.202 430.59 260.42 430.59Z" fill="#EBEBEB"/>
<path d="M116.08 464.75C165.819 464.75 206.14 459.418 206.14 452.84C206.14 446.262 165.819 440.93 116.08 440.93C66.3413 440.93 26.02 446.262 26.02 452.84C26.02 459.418 66.3413 464.75 116.08 464.75Z" fill="#EBEBEB"/>
<path d="M29.71 392.48L84.78 392.24L139.85 392.15L250 391.98L360.15 392.15L415.22 392.23L470.29 392.48L415.22 392.72L360.15 392.81L250 392.98L139.85 392.81L84.78 392.72L29.71 392.48Z" fill="#263238"/>
<path d="M202.98 415.44H448.42L467.42 248.75H221.98L202.98 415.44Z" fill="#455A64"/>
<path d="M216.35 404.26H437.6L454.05 259.93H232.81L216.35 404.26Z" fill="white"/>
<path d="M130.95 415.44L446.7 415.44V404.26L130.95 404.26V415.44Z" fill="#455A64"/>
<path d="M62.3799 415.44L378.13 415.44V404.26L62.3799 404.26V415.44Z" fill="#37474F"/>
<path d="M250.93 274.93L273.59 274.8L296.24 274.76L341.55 274.68L386.86 274.76L409.52 274.8L432.17 274.93L409.52 275.05L386.86 275.09L341.55 275.18L296.24 275.09L273.59 275.05L250.93 274.93Z" fill="#C7C7C7"/>
<path d="M250.03 282.32L272.68 282.19L295.34 282.15L340.65 282.07L385.96 282.15L408.61 282.19L431.27 282.32L408.61 282.44L385.96 282.48L340.65 282.57L295.34 282.48L272.68 282.44L250.03 282.32Z" fill="#C7C7C7"/>
<path d="M249.12 289.71L271.77 289.58L294.43 289.54L339.74 289.46L385.05 289.54L407.7 289.58L430.36 289.71L407.7 289.83L385.05 289.87L339.74 289.96L294.43 289.87L271.77 289.83L249.12 289.71Z" fill="#C7C7C7"/>
<path d="M248.21 297.1L270.87 296.98L293.52 296.93L338.83 296.85L384.14 296.93L406.8 296.98L429.45 297.1L406.8 297.22L384.14 297.26L338.83 297.35L293.52 297.26L270.87 297.22L248.21 297.1Z" fill="#C7C7C7"/>
<path d="M247.3 304.49L269.96 304.37L292.61 304.32L337.92 304.24L383.23 304.32L405.89 304.37L428.54 304.49L405.89 304.61L383.23 304.65L337.92 304.74L292.61 304.65L269.96 304.61L247.3 304.49Z" fill="#C7C7C7"/>
<path d="M246.4 311.88L269.05 311.76L291.71 311.71L337.02 311.63L382.33 311.71L404.98 311.76L427.64 311.88L404.98 312L382.33 312.05L337.02 312.13L291.71 312.04L269.05 312L246.4 311.88Z" fill="#C7C7C7"/>
<path d="M245.49 319.27L268.14 319.15L290.8 319.1L336.11 319.02L381.42 319.1L404.07 319.15L426.73 319.27L404.07 319.39L381.42 319.44L336.11 319.52L290.8 319.44L268.14 319.39L245.49 319.27Z" fill="#C7C7C7"/>
<path d="M244.58 326.66L267.24 326.54L289.89 326.49L335.2 326.41L380.51 326.49L403.17 326.54L425.82 326.66L403.17 326.78L380.51 326.83L335.2 326.91L289.89 326.82L267.24 326.78L244.58 326.66Z" fill="#C7C7C7"/>
<path d="M243.68 334.05L266.33 333.93L288.99 333.88L334.3 333.8L379.6 333.88L402.26 333.93L424.91 334.05L402.26 334.17L379.6 334.22L334.3 334.3L288.99 334.22L266.33 334.17L243.68 334.05Z" fill="#C7C7C7"/>
<path d="M242.77 341.44L265.42 341.32L288.08 341.27L333.39 341.19L378.7 341.27L401.35 341.32L424.01 341.44L401.35 341.56L378.7 341.61L333.39 341.69L288.08 341.61L265.42 341.56L242.77 341.44Z" fill="#C7C7C7"/>
<path d="M241.86 348.83L264.51 348.71L287.17 348.67L332.48 348.58L377.79 348.67L400.44 348.71L423.1 348.83L400.44 348.95L377.79 349L332.48 349.08L287.17 349L264.51 348.95L241.86 348.83Z" fill="#C7C7C7"/>
<path d="M240.95 356.22L263.61 356.1L286.26 356.06L331.57 355.97L376.88 356.06L399.54 356.1L422.19 356.22L399.54 356.34L376.88 356.39L331.57 356.47L286.26 356.39L263.61 356.34L240.95 356.22Z" fill="#C7C7C7"/>
<path d="M240.04 363.61L262.7 363.49L285.36 363.45L330.67 363.36L375.98 363.45L398.63 363.49L421.29 363.61L398.63 363.74L375.98 363.78L330.67 363.86L285.36 363.78L262.7 363.73L240.04 363.61Z" fill="#C7C7C7"/>
<path d="M239.14 371L261.79 370.88L284.45 370.84L329.76 370.75L375.07 370.84L397.72 370.88L420.38 371L397.72 371.13L375.07 371.17L329.76 371.25L284.45 371.17L261.79 371.13L239.14 371Z" fill="#C7C7C7"/>
<path d="M238.23 378.39L260.88 378.27L283.54 378.23L328.85 378.14L374.16 378.23L396.81 378.27L419.47 378.39L396.81 378.52L374.16 378.56L328.85 378.64L283.54 378.56L260.88 378.51L238.23 378.39Z" fill="#C7C7C7"/>
<path d="M277.49 326.66H263.75L256.34 387.01H270.08L277.49 326.66Z" fill="#3052C5"/>
<path d="M304.79 311.94H291.05L281.83 387.01H295.58L304.79 311.94Z" fill="#3052C5"/>
<path d="M329.36 319.52H315.62L307.33 387.01H321.07L329.36 319.52Z" fill="#3052C5"/>
<path d="M357.61 297.1H343.87L332.83 387.01H346.57L357.61 297.1Z" fill="#3052C5"/>
<path d="M381.63 309.15H367.88L358.32 387.01H372.07L381.63 309.15Z" fill="#3052C5"/>
<path d="M410.42 282.32H396.67L383.82 387.01H397.56L410.42 282.32Z" fill="#3052C5"/>
<path d="M256.49 269.74L253.29 299.11C252.23 308.9 251.06 318.67 249.94 328.45L246.54 357.8L243 387.12L242.08 386.12C256.77 386.12 271.47 386.02 286.16 386.12L330.24 386.22L374.32 386.53L396.32 386.77L418.32 387.08L396.32 387.39L374.32 387.63L330.24 387.93L286.16 388.04C271.47 388.11 256.77 388.04 242.08 388.04H241L241.13 387.04L244.8 357.73L248.6 328.43C249.88 318.67 251.11 308.9 252.45 299.15L256.49 269.74Z" fill="#C7C7C7"/>
<path d="M269.17 394.45H255.42L255.58 393.21H269.32L269.17 394.45Z" fill="#C7C7C7"/>
<path d="M294.66 394.45H280.92L281.07 393.21H294.82L294.66 394.45Z" fill="#C7C7C7"/>
<path d="M320.16 394.45H306.42L306.57 393.21H320.31L320.16 394.45Z" fill="#C7C7C7"/>
<path d="M345.66 394.45H331.91L332.06 393.21H345.81L345.66 394.45Z" fill="#C7C7C7"/>
<path d="M371.15 394.45H357.41L357.56 393.21H371.31L371.15 394.45Z" fill="#C7C7C7"/>
<path d="M396.65 394.45H382.9L383.06 393.21H396.8L396.65 394.45Z" fill="#C7C7C7"/>
<path d="M232.01 266.93L232.81 259.93H454.05L453.25 266.93H232.01Z" fill="#263238"/>
<path d="M238.65 263.43C238.586 263.914 238.348 264.358 237.979 264.679C237.611 265 237.138 265.174 236.65 265.17C236.429 265.176 236.209 265.133 236.007 265.044C235.805 264.955 235.624 264.824 235.478 264.658C235.332 264.492 235.224 264.296 235.163 264.084C235.101 263.872 235.086 263.648 235.12 263.43C235.183 262.946 235.422 262.502 235.79 262.181C236.158 261.861 236.631 261.686 237.12 261.69C237.341 261.683 237.561 261.725 237.765 261.812C237.968 261.9 238.149 262.032 238.296 262.199C238.442 262.365 238.55 262.562 238.611 262.775C238.672 262.988 238.685 263.211 238.65 263.43Z" fill="#C7C7C7"/>
<path d="M245.75 263.43C245.687 263.906 245.456 264.343 245.098 264.663C244.74 264.982 244.279 265.162 243.8 265.17C243.579 265.176 243.359 265.132 243.157 265.044C242.954 264.955 242.774 264.824 242.628 264.658C242.482 264.492 242.374 264.296 242.312 264.084C242.251 263.871 242.236 263.648 242.27 263.43C242.333 262.946 242.572 262.502 242.94 262.181C243.308 261.861 243.781 261.686 244.27 261.69C244.487 261.69 244.701 261.737 244.899 261.829C245.096 261.92 245.271 262.053 245.412 262.218C245.552 262.384 245.655 262.578 245.714 262.787C245.772 262.996 245.784 263.216 245.75 263.43Z" fill="white"/>
<path d="M252.86 263.43C252.796 263.914 252.558 264.358 252.189 264.679C251.821 264.999 251.348 265.174 250.86 265.17C250.639 265.176 250.42 265.133 250.218 265.044C250.016 264.956 249.836 264.823 249.691 264.657C249.545 264.491 249.439 264.295 249.378 264.083C249.317 263.871 249.304 263.648 249.34 263.43C249.403 262.946 249.642 262.502 250.01 262.181C250.378 261.86 250.851 261.686 251.34 261.69C251.56 261.686 251.778 261.73 251.979 261.819C252.18 261.908 252.36 262.041 252.505 262.206C252.649 262.372 252.756 262.567 252.818 262.779C252.879 262.99 252.893 263.212 252.86 263.43Z" fill="#3052C5"/>
<path d="M222.23 184.43C221.33 184.43 187.87 199.87 185.89 237.9C184.07 272.9 208.24 306.07 211.36 303.9C215.18 301.21 208.69 279.43 216.12 254.51C218.75 245.67 230.27 237.83 230.27 237.83L222.23 184.43Z" fill="#AD6359"/>
<path opacity="0.1" d="M230.28 237.8C226.915 240.183 223.841 242.952 221.12 246.05C216.12 234.94 206.86 214.2 200.86 200.76C210.66 189.43 221.72 184.43 222.23 184.43L230.28 237.8Z" fill="black"/>
<path d="M307.39 184.49C308.28 184.49 341.72 199.98 343.65 238.01C345.42 273.01 321.19 306.15 318.08 303.95C314.26 301.25 320.79 279.48 313.4 254.55C310.78 245.71 299.26 237.85 299.26 237.85L307.39 184.49Z" fill="#AD6359"/>
<path opacity="0.1" d="M328.86 201C322.8 214.56 313.5 235.34 308.58 246.32C305.822 243.145 302.697 240.308 299.27 237.87L307.39 184.5C307.9 184.48 319.05 189.55 328.86 201Z" fill="black"/>
<path d="M290.11 271.92H239.62C239.62 271.92 215.84 229.39 218.62 178.69C220.04 153.38 226.62 127.9 234.62 106.81C245.6 77.65 259.15 57 265 57C270.85 57 284.38 77.68 295.32 106.82C303.23 127.91 309.81 153.41 311.19 178.72C314 229.42 290.11 271.92 290.11 271.92Z" fill="#EBEBEB"/>
<path d="M295.15 172.15C295.144 177.909 293.43 183.538 290.225 188.323C287.021 193.109 282.469 196.836 277.146 199.035C271.822 201.233 265.967 201.804 260.319 200.675C254.672 199.545 249.486 196.766 245.418 192.69C241.349 188.613 238.581 183.421 237.463 177.772C236.346 172.122 236.928 166.267 239.138 160.949C241.347 155.63 245.084 151.086 249.876 147.891C254.668 144.696 260.3 142.994 266.06 143C269.884 143.003 273.671 143.759 277.203 145.225C280.735 146.692 283.943 148.84 286.645 151.547C289.346 154.254 291.488 157.467 292.947 161.002C294.407 164.538 295.155 168.326 295.15 172.15Z" fill="#C7C7C7"/>
<path d="M294.12 169.19C294.116 174.949 292.405 180.577 289.203 185.363C286 190.149 281.451 193.878 276.13 196.079C270.808 198.28 264.954 198.854 259.307 197.728C253.659 196.602 248.472 193.827 244.402 189.754C240.331 185.681 237.56 180.492 236.438 174.844C235.316 169.196 235.894 163.342 238.098 158.022C240.303 152.702 244.035 148.155 248.824 144.956C253.612 141.757 259.241 140.05 265 140.05C268.826 140.049 272.615 140.802 276.15 142.266C279.685 143.73 282.896 145.877 285.601 148.583C288.305 151.29 290.45 154.503 291.912 158.039C293.373 161.575 294.124 165.364 294.12 169.19Z" fill="#3052C5"/>
<path d="M285.108 171.182C286.211 160.087 278.111 150.197 267.015 149.093C255.919 147.99 246.03 156.09 244.926 167.186C243.822 178.282 251.923 188.172 263.019 189.275C274.114 190.379 284.004 182.278 285.108 171.182Z" fill="white"/>
<path d="M285.2 169.16C285.206 171.664 284.741 174.147 283.83 176.48L272.33 188C268.267 189.569 263.806 189.787 259.61 188.62L284.46 163.77C284.95 165.525 285.199 167.338 285.2 169.16Z" fill="#EBEBEB"/>
<path d="M268 149.19L245 172.13C244.854 171.137 244.78 170.134 244.78 169.13C244.798 163.781 246.937 158.658 250.728 154.885C254.519 151.111 259.651 148.995 265 149C266.003 148.99 267.006 149.054 268 149.19Z" fill="#EBEBEB"/>
<path d="M282.68 159.39L255.23 186.83C254.698 186.526 254.184 186.192 253.69 185.83L281.69 157.83C282.06 158.33 282.38 158.85 282.68 159.39Z" fill="#EBEBEB"/>
<path d="M295.34 106.82H234.65C245.6 77.65 259.15 57 265 57C270.85 57 284.4 77.68 295.34 106.82Z" fill="#AD6359"/>
<path d="M245.1 100.51C245.1 100.846 245 101.175 244.813 101.455C244.626 101.734 244.361 101.952 244.05 102.081C243.74 102.209 243.398 102.243 243.068 102.177C242.738 102.112 242.435 101.95 242.198 101.712C241.96 101.474 241.798 101.171 241.732 100.842C241.667 100.512 241.7 100.17 241.829 99.8595C241.958 99.5489 242.176 99.2834 242.455 99.0966C242.735 98.9098 243.063 98.8101 243.4 98.8101C243.623 98.8101 243.844 98.854 244.05 98.9395C244.257 99.0249 244.444 99.1501 244.602 99.308C244.76 99.4658 244.885 99.6532 244.97 99.8595C245.056 100.066 245.1 100.287 245.1 100.51Z" fill="white"/>
<path d="M255.9 100.52C255.9 100.856 255.8 101.185 255.613 101.465C255.427 101.744 255.161 101.962 254.851 102.091C254.54 102.219 254.198 102.253 253.868 102.187C253.539 102.122 253.236 101.96 252.998 101.722C252.76 101.484 252.598 101.181 252.533 100.852C252.467 100.522 252.501 100.18 252.629 99.8695C252.758 99.5589 252.976 99.2934 253.256 99.1066C253.535 98.9198 253.864 98.8201 254.2 98.8201C254.423 98.8201 254.644 98.864 254.851 98.9495C255.057 99.0349 255.244 99.1601 255.402 99.318C255.56 99.4758 255.685 99.6633 255.771 99.8695C255.856 100.076 255.9 100.297 255.9 100.52Z" fill="white"/>
<path d="M266.69 100.53C266.688 100.866 266.586 101.194 266.398 101.473C266.21 101.751 265.943 101.968 265.631 102.094C265.32 102.221 264.978 102.253 264.649 102.185C264.319 102.118 264.017 101.954 263.781 101.715C263.545 101.476 263.384 101.172 263.321 100.842C263.257 100.512 263.293 100.17 263.423 99.8603C263.554 99.5504 263.773 99.2862 264.054 99.1011C264.335 98.9159 264.664 98.8181 265 98.8201C265.223 98.8214 265.444 98.8667 265.65 98.9533C265.856 99.04 266.042 99.1663 266.199 99.3251C266.356 99.4839 266.48 99.672 266.564 99.8788C266.649 100.086 266.691 100.307 266.69 100.53Z" fill="white"/>
<path d="M277.49 100.53C277.49 100.866 277.39 101.195 277.203 101.475C277.017 101.754 276.751 101.972 276.44 102.101C276.13 102.229 275.788 102.263 275.458 102.197C275.128 102.132 274.826 101.97 274.588 101.732C274.35 101.494 274.188 101.192 274.123 100.862C274.057 100.532 274.091 100.19 274.219 99.8795C274.348 99.5689 274.566 99.3034 274.845 99.1166C275.125 98.9298 275.454 98.8301 275.79 98.8301C276.241 98.8301 276.673 99.0092 276.992 99.328C277.311 99.6468 277.49 100.079 277.49 100.53Z" fill="white"/>
<path d="M288.29 100.54C288.29 100.876 288.19 101.205 288.003 101.485C287.816 101.764 287.551 101.982 287.24 102.111C286.93 102.239 286.588 102.273 286.258 102.207C285.928 102.142 285.625 101.98 285.388 101.742C285.15 101.504 284.988 101.202 284.922 100.872C284.857 100.542 284.89 100.2 285.019 99.8895C285.148 99.5789 285.366 99.3134 285.645 99.1266C285.925 98.9398 286.253 98.8401 286.59 98.8401C287.041 98.8401 287.473 99.0192 287.792 99.338C288.111 99.6568 288.29 100.089 288.29 100.54Z" fill="white"/>
<path d="M245 264.12C245 264.456 244.9 264.785 244.714 265.064C244.527 265.344 244.261 265.562 243.951 265.69C243.64 265.819 243.298 265.853 242.968 265.787C242.639 265.722 242.336 265.56 242.098 265.322C241.86 265.084 241.698 264.781 241.633 264.452C241.567 264.122 241.601 263.78 241.73 263.469C241.858 263.159 242.076 262.893 242.356 262.706C242.635 262.52 242.964 262.42 243.3 262.42C243.751 262.42 244.183 262.599 244.502 262.918C244.821 263.237 245 263.669 245 264.12Z" fill="#C7C7C7"/>
<path d="M255.83 264.13C255.83 264.466 255.73 264.795 255.543 265.074C255.356 265.354 255.091 265.572 254.78 265.701C254.47 265.829 254.128 265.863 253.798 265.797C253.468 265.732 253.165 265.57 252.928 265.332C252.69 265.094 252.528 264.791 252.462 264.462C252.397 264.132 252.43 263.79 252.559 263.479C252.688 263.169 252.906 262.903 253.185 262.716C253.465 262.53 253.793 262.43 254.13 262.43C254.581 262.43 255.013 262.609 255.332 262.928C255.651 263.247 255.83 263.679 255.83 264.13Z" fill="#C7C7C7"/>
<path d="M266.62 264.14C266.62 264.477 266.52 264.806 266.333 265.085C266.145 265.365 265.879 265.583 265.568 265.711C265.257 265.84 264.914 265.873 264.584 265.807C264.254 265.74 263.951 265.577 263.714 265.338C263.477 265.1 263.316 264.796 263.251 264.465C263.187 264.135 263.222 263.793 263.352 263.482C263.482 263.172 263.702 262.907 263.983 262.722C264.263 262.536 264.593 262.438 264.93 262.44C265.152 262.44 265.373 262.484 265.579 262.57C265.784 262.655 265.971 262.78 266.128 262.938C266.285 263.096 266.41 263.284 266.494 263.49C266.578 263.696 266.621 263.917 266.62 264.14Z" fill="#C7C7C7"/>
<path d="M277.42 264.14C277.42 264.476 277.32 264.805 277.133 265.084C276.947 265.364 276.681 265.582 276.371 265.711C276.06 265.839 275.718 265.873 275.388 265.807C275.059 265.742 274.756 265.58 274.518 265.342C274.28 265.104 274.118 264.801 274.053 264.472C273.987 264.142 274.021 263.8 274.149 263.489C274.278 263.179 274.496 262.913 274.776 262.726C275.055 262.54 275.384 262.44 275.72 262.44C276.171 262.44 276.603 262.619 276.922 262.938C277.241 263.257 277.42 263.689 277.42 264.14Z" fill="#C7C7C7"/>
<path d="M288.22 264.15C288.22 264.486 288.12 264.815 287.933 265.094C287.747 265.374 287.481 265.592 287.17 265.721C286.86 265.849 286.518 265.883 286.188 265.817C285.858 265.752 285.556 265.59 285.318 265.352C285.08 265.114 284.918 264.811 284.852 264.482C284.787 264.152 284.821 263.81 284.949 263.499C285.078 263.189 285.296 262.923 285.575 262.736C285.855 262.55 286.184 262.45 286.52 262.45C286.971 262.45 287.403 262.629 287.722 262.948C288.041 263.267 288.22 263.699 288.22 264.15Z" fill="#C7C7C7"/>
<path d="M285.45 287.1L244.39 287.06L242.47 271.89L287.39 271.92L285.45 287.1Z" fill="#3052C5"/>
<path opacity="0.1" d="M287.39 271.93L286.44 279.31L243.21 277.69L242.48 271.89L287.39 271.93Z" fill="black"/>
<path opacity="0.6" d="M171.22 361C171.22 362.434 170.795 363.836 169.998 365.028C169.201 366.22 168.069 367.149 166.744 367.698C165.419 368.247 163.962 368.39 162.555 368.111C161.149 367.831 159.857 367.14 158.843 366.127C157.829 365.113 157.139 363.821 156.859 362.414C156.579 361.008 156.723 359.55 157.272 358.226C157.82 356.901 158.75 355.768 159.942 354.972C161.134 354.175 162.536 353.75 163.97 353.75C165.893 353.75 167.737 354.514 169.096 355.873C170.456 357.233 171.22 359.077 171.22 361Z" fill="#3052C5"/>
<path opacity="0.6" d="M176.5 350.67C178.449 350.67 180.03 349.089 180.03 347.14C180.03 345.19 178.449 343.61 176.5 343.61C174.55 343.61 172.97 345.19 172.97 347.14C172.97 349.089 174.55 350.67 176.5 350.67Z" fill="#3052C5"/>
<path opacity="0.6" d="M335.1 357.48C335.098 358.178 334.889 358.859 334.5 359.438C334.111 360.018 333.559 360.468 332.914 360.734C332.269 361 331.559 361.068 330.875 360.931C330.191 360.794 329.563 360.457 329.07 359.962C328.578 359.468 328.243 358.839 328.107 358.155C327.972 357.47 328.042 356.761 328.31 356.117C328.577 355.472 329.03 354.922 329.61 354.534C330.19 354.147 330.872 353.94 331.57 353.94C332.034 353.94 332.494 354.032 332.923 354.21C333.352 354.388 333.742 354.649 334.07 354.977C334.398 355.306 334.657 355.697 334.834 356.126C335.011 356.555 335.101 357.016 335.1 357.48Z" fill="#3052C5"/>
<path opacity="0.6" d="M405.84 389.72C405.84 390.418 405.633 391.101 405.245 391.681C404.857 392.262 404.306 392.714 403.661 392.981C403.016 393.248 402.306 393.318 401.621 393.182C400.936 393.046 400.307 392.71 399.814 392.216C399.32 391.722 398.984 391.093 398.848 390.409C398.711 389.724 398.781 389.014 399.048 388.369C399.316 387.724 399.768 387.173 400.349 386.785C400.929 386.397 401.612 386.19 402.31 386.19C403.245 386.193 404.142 386.565 404.803 387.227C405.464 387.888 405.837 388.785 405.84 389.72Z" fill="#3052C5"/>
<path opacity="0.6" d="M400.43 400.05C400.43 400.604 400.321 401.152 400.108 401.663C399.896 402.175 399.585 402.639 399.193 403.03C398.801 403.422 398.336 403.731 397.824 403.942C397.312 404.153 396.764 404.261 396.21 404.26H133.59C132.473 404.26 131.402 403.816 130.613 403.027C129.823 402.237 129.38 401.167 129.38 400.05C129.38 398.933 129.823 397.863 130.613 397.073C131.402 396.284 132.473 395.84 133.59 395.84C133.927 395.839 134.263 395.88 134.59 395.96C134.587 394.309 135.077 392.694 135.997 391.323C136.917 389.952 138.225 388.886 139.754 388.262C141.283 387.638 142.964 387.485 144.58 387.821C146.197 388.157 147.677 388.968 148.83 390.15H148.91C148.91 389.64 148.83 389.15 148.83 388.6C148.83 384.441 150.482 380.453 153.422 377.513C156.363 374.572 160.351 372.92 164.51 372.92C166.903 372.913 169.264 373.461 171.41 374.52C171.559 371.971 172.576 369.55 174.292 367.658C176.007 365.767 178.318 364.519 180.841 364.122C183.363 363.725 185.946 364.202 188.159 365.475C190.373 366.748 192.084 368.74 193.01 371.12C194.702 368.449 197.162 366.351 200.067 365.102C202.972 363.852 206.187 363.51 209.29 364.12C209.072 362.912 208.965 361.687 208.97 360.46C208.962 356.398 210.121 352.42 212.307 348.997C214.494 345.574 217.617 342.851 221.305 341.151C224.994 339.45 229.093 338.844 233.116 339.404C237.139 339.964 240.916 341.667 244 344.31C244.355 343.624 244.891 343.049 245.551 342.647C246.21 342.245 246.968 342.031 247.74 342.03C248.295 342.032 248.845 342.14 249.36 342.35L253.33 287H276.47L280.41 342.32C280.915 342.114 281.454 342.006 282 342C282.772 342.001 283.529 342.215 284.189 342.617C284.848 343.019 285.385 343.594 285.74 344.28C289.056 341.424 293.173 339.663 297.529 339.239C301.884 338.814 306.264 339.746 310.069 341.907C313.874 344.069 316.918 347.354 318.784 351.312C320.649 355.271 321.245 359.71 320.49 364.02C321.478 363.826 322.483 363.729 323.49 363.73C326.143 363.726 328.754 364.396 331.077 365.679C333.4 366.961 335.359 368.813 336.77 371.06C337.695 368.68 339.407 366.688 341.621 365.415C343.834 364.142 346.417 363.665 348.939 364.062C351.462 364.459 353.772 365.707 355.488 367.598C357.203 369.49 358.22 371.911 358.37 374.46C360.515 373.401 362.877 372.853 365.27 372.86C367.336 372.853 369.383 373.255 371.293 374.042C373.203 374.829 374.939 375.986 376.4 377.445C377.862 378.905 379.021 380.64 379.81 382.549C380.6 384.458 381.004 386.504 381 388.57C381 389.09 381 389.57 380.92 390.12H381C382.159 388.944 383.643 388.141 385.261 387.813C386.879 387.485 388.558 387.647 390.084 388.278C391.609 388.909 392.912 389.981 393.825 391.357C394.738 392.732 395.22 394.349 395.21 396C395.537 395.92 395.873 395.879 396.21 395.88C397.32 395.88 398.386 396.318 399.176 397.098C399.966 397.879 400.417 398.939 400.43 400.05Z" fill="#FFC727"/>
<path d="M333.84 365.38L328.38 366.39L327.16 372.15L325.94 366.39L320.48 365.38L325.91 364.05L327.16 358.61L328.4 364.05L333.84 365.38Z" fill="#FDFDFD"/>
<path d="M280.72 319.21L275.26 320.22L274.04 325.98L272.81 320.22L267.35 319.21L272.79 317.88L274.04 312.44L275.28 317.88L280.72 319.21Z" fill="#FDFDFD"/>
<path d="M201.35 376.34L198.29 376.91L197.61 380.13L196.93 376.91L193.88 376.34L196.92 375.6L197.61 372.56L198.31 375.6L201.35 376.34Z" fill="#FDFDFD"/>
<path d="M365.6 385.94L362.54 386.51L361.86 389.72L361.18 386.51L358.13 385.94L361.17 385.2L361.86 382.16L362.56 385.2L365.6 385.94Z" fill="#FDFDFD"/>
<path d="M159.34 397.22L156.28 397.78L155.6 401L154.92 397.78L151.87 397.22L154.91 396.48L155.6 393.44L156.29 396.48L159.34 397.22Z" fill="#FDFDFD"/>
<path d="M292.12 394.54L289.07 395.11L288.39 398.32L287.7 395.11L284.65 394.54L287.69 393.8L288.39 390.76L289.08 393.8L292.12 394.54Z" fill="#FDFDFD"/>
<path d="M269.77 310.46L266.72 311.02L266.04 314.24L265.36 311.02L262.3 310.45L265.34 309.71L266.04 306.67L266.73 309.71L269.77 310.46Z" fill="#FDFDFD"/>
<path d="M372.82 392.9C372.601 392.923 372.399 393.026 372.252 393.19C372.105 393.353 372.024 393.565 372.024 393.785C372.024 394.005 372.105 394.217 372.252 394.38C372.399 394.543 372.601 394.647 372.82 394.67C373.038 394.647 373.24 394.543 373.387 394.38C373.534 394.217 373.616 394.005 373.616 393.785C373.616 393.565 373.534 393.353 373.387 393.19C373.24 393.026 373.038 392.923 372.82 392.9Z" fill="#FDFDFD"/>
<path d="M258 299.29C257.781 299.313 257.579 299.417 257.432 299.58C257.285 299.743 257.204 299.955 257.204 300.175C257.204 300.395 257.285 300.607 257.432 300.77C257.579 300.934 257.781 301.037 258 301.06C258.218 301.037 258.421 300.934 258.568 300.77C258.714 300.607 258.796 300.395 258.796 300.175C258.796 299.955 258.714 299.743 258.568 299.58C258.421 299.417 258.218 299.313 258 299.29Z" fill="#FDFDFD"/>
<path d="M182.46 397.22C182.241 397.243 182.039 397.346 181.892 397.51C181.745 397.673 181.664 397.885 181.664 398.105C181.664 398.325 181.745 398.537 181.892 398.7C182.039 398.863 182.241 398.967 182.46 398.99C182.678 398.967 182.881 398.863 183.027 398.7C183.174 398.537 183.256 398.325 183.256 398.105C183.256 397.885 183.174 397.673 183.027 397.51C182.881 397.346 182.678 397.243 182.46 397.22Z" fill="#FDFDFD"/>
<path d="M238.55 385.06C238.331 385.083 238.129 385.187 237.982 385.35C237.835 385.513 237.754 385.725 237.754 385.945C237.754 386.165 237.835 386.377 237.982 386.54C238.129 386.704 238.331 386.807 238.55 386.83C238.768 386.807 238.97 386.704 239.117 386.54C239.264 386.377 239.345 386.165 239.345 385.945C239.345 385.725 239.264 385.513 239.117 385.35C238.97 385.187 238.768 385.083 238.55 385.06Z" fill="#FDFDFD"/>
<path d="M350.65 377C350.498 377.019 350.358 377.093 350.256 377.208C350.155 377.324 350.099 377.472 350.099 377.625C350.099 377.778 350.155 377.926 350.256 378.042C350.358 378.157 350.498 378.231 350.65 378.25C350.802 378.231 350.942 378.157 351.043 378.042C351.145 377.926 351.201 377.778 351.201 377.625C351.201 377.472 351.145 377.324 351.043 377.208C350.942 377.093 350.802 377.019 350.65 377Z" fill="#FDFDFD"/>
<path d="M273.3 367.6C273.133 367.6 272.973 367.666 272.854 367.785C272.736 367.903 272.67 368.063 272.67 368.23C272.67 368.397 272.736 368.557 272.854 368.676C272.973 368.794 273.133 368.86 273.3 368.86C273.467 368.86 273.627 368.794 273.745 368.676C273.864 368.557 273.93 368.397 273.93 368.23C273.93 368.063 273.864 367.903 273.745 367.785C273.627 367.666 273.467 367.6 273.3 367.6Z" fill="#FDFDFD"/>
<path d="M216.68 355.37C216.528 355.389 216.388 355.464 216.286 355.579C216.185 355.694 216.129 355.842 216.129 355.995C216.129 356.148 216.185 356.297 216.286 356.412C216.388 356.527 216.528 356.601 216.68 356.62C216.832 356.601 216.972 356.527 217.073 356.412C217.175 356.297 217.23 356.148 217.23 355.995C217.23 355.842 217.175 355.694 217.073 355.579C216.972 355.464 216.832 355.389 216.68 355.37Z" fill="#FDFDFD"/>
<path d="M313.55 357.92C313.099 357.92 312.667 358.099 312.348 358.418C312.029 358.737 311.85 359.169 311.85 359.62C311.85 360.071 312.029 360.503 312.348 360.822C312.667 361.141 313.099 361.32 313.55 361.32C314.001 361.32 314.433 361.141 314.752 360.822C315.071 360.503 315.25 360.071 315.25 359.62C315.25 359.169 315.071 358.737 314.752 358.418C314.433 358.099 314.001 357.92 313.55 357.92Z" fill="#FDFDFD"/>
<path d="M224.69 349.61C224.239 349.61 223.806 349.789 223.488 350.108C223.169 350.427 222.99 350.859 222.99 351.31C222.99 351.761 223.169 352.193 223.488 352.512C223.806 352.831 224.239 353.01 224.69 353.01C225.141 353.01 225.573 352.831 225.892 352.512C226.211 352.193 226.39 351.761 226.39 351.31C226.39 350.859 226.211 350.427 225.892 350.108C225.573 349.789 225.141 349.61 224.69 349.61Z" fill="#FDFDFD"/>
<path d="M152.86 454.81C150.86 455.46 93.5897 454.71 91.4297 453.3C90.5997 452.78 90.2197 444.43 90.0597 434.3V434C90.0597 431.92 89.9897 429.77 89.9897 427.6C89.9897 427.3 89.9897 427 89.9897 426.71L92.7497 397L131.06 397.38L127.28 426.81V427.98L127.05 434.07V434.69C127.05 434.69 148.84 444.78 151.05 446.59C153.26 448.4 154.87 454.17 152.86 454.81Z" fill="#DD6A57"/>
<path d="M152.86 454.81C150.86 455.46 93.5897 454.71 91.4297 453.3C90.5997 452.78 90.2197 444.43 90.0597 434.3V434C90.0597 431.92 89.9897 429.77 89.9897 427.6C89.9897 427.3 89.9897 427 89.9897 426.71L127.29 426.81V427.98L127.06 434.07V434.69C127.06 434.69 148.85 444.78 151.06 446.59C153.27 448.4 154.87 454.17 152.86 454.81Z" fill="#EBEBEB"/>
<path d="M152.87 454.81C151.87 455.14 136.28 455.1 121.07 454.81C118.01 454.75 114.97 454.68 112.07 454.6C101.23 454.3 92.2698 453.85 91.4398 453.31C90.6098 452.77 90.2398 444.67 90.0698 434.76C90.0698 434.62 90.0698 434.48 90.0698 434.34C90.0698 434.2 90.0698 434.12 90.0698 434.01L126.97 434.08V434.71C126.97 434.71 148.77 444.79 150.97 446.6C153.17 448.41 154.87 454.17 152.87 454.81Z" fill="#3052C5"/>
<path d="M152.24 452.58C142.59 452.22 103.64 451.67 94.0795 452.04C93.9995 452.04 93.9995 452.1 94.0795 452.1C103.64 452.67 142.6 452.91 152.25 452.74C152.44 452.74 152.45 452.59 152.24 452.58Z" fill="#263238"/>
<path d="M131.11 434.23C127.32 433.48 122.67 434 119.73 436.67C119.62 436.77 119.73 436.93 119.89 436.89C123.536 435.769 127.29 435.038 131.09 434.71C131.121 434.711 131.153 434.706 131.183 434.695C131.212 434.685 131.239 434.668 131.263 434.647C131.286 434.625 131.305 434.6 131.318 434.571C131.331 434.542 131.339 434.511 131.34 434.48C131.341 434.448 131.336 434.417 131.325 434.387C131.315 434.358 131.298 434.33 131.277 434.307C131.255 434.284 131.23 434.265 131.201 434.252C131.172 434.239 131.141 434.231 131.11 434.23Z" fill="#263238"/>
<path d="M133.83 435.92C130.04 435.16 125.39 435.69 122.45 438.36C122.34 438.46 122.45 438.62 122.61 438.58C126.255 437.459 130.01 436.728 133.81 436.4C133.873 436.403 133.935 436.38 133.982 436.337C134.029 436.294 134.057 436.234 134.06 436.17C134.062 436.106 134.04 436.044 133.996 435.997C133.953 435.951 133.893 435.923 133.83 435.92Z" fill="#263238"/>
<path d="M136.55 437.61C132.76 436.85 128.11 437.38 125.17 440.04C125.06 440.15 125.17 440.31 125.33 440.27C128.974 439.144 132.729 438.413 136.53 438.09C136.594 438.093 136.656 438.07 136.703 438.027C136.749 437.984 136.777 437.924 136.78 437.86C136.783 437.796 136.76 437.734 136.717 437.687C136.674 437.64 136.614 437.613 136.55 437.61Z" fill="#263238"/>
<path d="M121.07 454.8C118.01 454.74 114.97 454.67 112.07 454.59C101.23 454.29 92.2698 453.84 91.4398 453.3C90.6098 452.76 90.2398 444.66 90.0698 434.75C90.0698 434.61 90.0698 434.47 90.0698 434.33C90.0698 434.19 90.0698 434.11 90.0698 434C95.1498 437.55 113 449.41 121.07 454.8Z" fill="#263238"/>
<path d="M129.51 434.2H88.2799C88.2799 434.2 96.5799 337.89 96.2799 336.2C95.8599 334.04 93.4299 324.29 90.1899 311.56C89.1899 307.56 88.0799 303.3 86.9399 298.87C83.8599 286.87 80.4699 273.79 77.5199 262.39C73.0899 245.32 69.6299 232.06 69.6299 232.06H104.63C104.63 232.06 108.7 244.97 113.84 261.77C122.2 289.07 133.38 326.65 134.48 335.77C136.2 350.55 129.51 434.2 129.51 434.2Z" fill="#455A64"/>
<path d="M127.69 427.17C121.39 427.04 123.2 426.99 116.9 426.92C113.82 426.92 93.5596 426.72 90.6796 427.2C90.6637 427.2 90.6485 427.206 90.6372 427.218C90.6259 427.229 90.6196 427.244 90.6196 427.26C90.6196 427.276 90.6259 427.291 90.6372 427.302C90.6485 427.314 90.6637 427.32 90.6796 427.32C93.5596 427.8 113.82 427.62 116.9 427.59C123.2 427.53 121.39 427.48 127.69 427.35C127.713 427.35 127.736 427.34 127.753 427.324C127.77 427.307 127.78 427.284 127.78 427.26C127.78 427.236 127.77 427.213 127.753 427.196C127.736 427.179 127.713 427.17 127.69 427.17Z" fill="#263238"/>
<path d="M104 330.32C102.64 324.32 100.62 318.52 98.8598 312.67C95.3064 300.777 91.7198 288.887 88.0998 277C86.2931 271.06 84.4798 265.123 82.6598 259.19C81.7298 256.19 80.8098 253.19 79.8798 250.19C78.9498 247.19 77.8798 244.36 77.0898 241.4C76.7498 240.2 76.5598 240.86 76.9998 242.4C77.8698 245.47 78.7198 248.55 79.6198 251.62C81.3998 257.7 83.1864 263.773 84.9798 269.84C88.5598 281.947 92.1664 294.03 95.7998 306.09L101.26 324.23C102.182 327.108 102.927 330.04 103.49 333.01C103.974 336.115 104.095 339.267 103.85 342.4C103.46 348.71 102.73 355.01 102.14 361.31C101.55 367.61 100.98 373.92 100.39 380.23C99.2298 392.777 98.0798 405.33 96.9398 417.89C96.7998 419.48 96.6598 421.07 96.5298 422.67C96.5298 423.2 97.2998 423.16 97.3498 422.67C98.7098 410.25 99.7498 397.8 100.92 385.37L104.4 348.26C104.69 345.15 105.02 342.04 105.02 338.92C105.003 336.024 104.661 333.139 104 330.32Z" fill="#263238"/>
<path d="M100.59 232.07C98.1699 250.84 93.5899 286.07 90.1699 311.57C82.2899 280.63 69.6099 232.07 69.6099 232.07H100.59Z" fill="#263238"/>
<path d="M109.18 455.36C107.18 456.02 49.91 455.48 47.74 454.08C46.91 453.56 46.5 445.21 46.3 435.08C46.3 434.97 46.3 434.87 46.3 434.76C46.3 432.68 46.22 430.54 46.21 428.36C46.21 428.06 46.21 427.76 46.21 427.47C46.07 412.89 47.13 397.76 47.13 397.76L84.55 398.01L83.55 427.44V428.6L83.34 434.69V435.32C83.34 435.32 105.17 445.32 107.34 447.12C109.51 448.92 111.18 454.71 109.18 455.36Z" fill="#DD6A57"/>
<path d="M109.18 455.36C107.18 456.02 49.91 455.48 47.74 454.08C46.91 453.56 46.5 445.21 46.3 435.08C46.3 434.97 46.3 434.87 46.3 434.76C46.3 432.68 46.22 430.54 46.21 428.36C46.21 428.06 46.21 427.76 46.21 427.47H83.51V428.63L83.3 434.72V435.35C83.3 435.35 105.13 445.35 107.3 447.15C109.47 448.95 111.18 454.71 109.18 455.36Z" fill="#EBEBEB"/>
<path d="M109.18 455.36C107.18 456.02 49.9098 455.48 47.7398 454.08C46.9098 453.56 46.4998 445.21 46.2998 435.08C46.2998 434.97 46.2998 434.87 46.2998 434.76L83.2498 434.69V435.32C83.2498 435.32 105.08 445.32 107.25 447.12C109.42 448.92 111.18 454.71 109.18 455.36Z" fill="#3052C5"/>
<path d="M108.55 453.13C98.8998 452.81 59.9398 452.4 50.3798 452.81C50.2998 452.81 50.2998 452.87 50.3798 452.87C59.9398 453.4 98.8898 453.5 108.55 453.29C108.75 453.29 108.75 453.14 108.55 453.13Z" fill="#263238"/>
<path d="M87.3499 434.87C83.5599 434.12 78.9099 434.66 75.9799 437.34C75.8699 437.44 75.9799 437.6 76.1399 437.57C79.7786 436.427 83.5306 435.683 87.3299 435.35C87.3936 435.353 87.4557 435.33 87.5026 435.287C87.5494 435.244 87.5773 435.184 87.5799 435.12C87.5826 435.056 87.5598 434.994 87.5167 434.947C87.4736 434.9 87.4136 434.873 87.3499 434.87Z" fill="#263238"/>
<path d="M90.0799 436.54C86.2899 435.8 81.6399 436.34 78.7099 439.02C78.5899 439.12 78.7099 439.28 78.8699 439.24C82.51 438.099 86.2611 437.348 90.0599 437C90.1102 436.987 90.1551 436.959 90.1879 436.919C90.2207 436.879 90.2396 436.829 90.2419 436.777C90.2441 436.726 90.2296 436.675 90.2004 436.632C90.1712 436.589 90.1289 436.557 90.0799 436.54Z" fill="#263238"/>
<path d="M92.7996 438.22C89.0096 437.48 84.3596 438.02 81.4296 440.7C81.3196 440.8 81.4296 440.96 81.5896 440.92C85.2308 439.787 88.9817 439.043 92.7796 438.7C92.8433 438.703 92.9054 438.68 92.9523 438.637C92.9992 438.594 93.027 438.534 93.0296 438.47C93.0323 438.406 93.0096 438.344 92.9664 438.297C92.9233 438.251 92.8633 438.223 92.7996 438.22Z" fill="#263238"/>
<path d="M103.43 232.07C103.43 232.07 102.62 248.79 98.8 262.07C98.49 263.17 98.16 264.25 97.8 265.28C94.2901 266.698 90.9163 268.432 87.72 270.46C87.72 270.46 87.32 283.91 86.92 298.92C86.47 315.69 86.01 334.4 86.1 338.37C86.45 353.21 84.25 434.85 84.25 434.85L43 435C43 435 50.45 343.84 50.4 338.4C50.32 329.66 52.4 291.02 54 262.84C55 245.48 55.79 232.1 55.79 232.1L103.43 232.07Z" fill="#455A64"/>
<path d="M82.8297 427.47C76.5397 427.37 78.3397 427.31 72.0497 427.28C68.9597 427.28 48.7097 427.17 45.8297 427.66C45.7697 427.66 45.7697 427.78 45.8297 427.79C48.7097 428.25 68.9697 427.99 72.0497 427.95C78.3497 427.86 76.5397 427.82 82.8397 427.66C82.8594 427.653 82.8762 427.639 82.8877 427.621C82.8993 427.603 82.9049 427.583 82.9037 427.561C82.9026 427.54 82.8949 427.52 82.8816 427.504C82.8683 427.487 82.8501 427.476 82.8297 427.47Z" fill="#263238"/>
<path d="M59.2698 238C58.5098 261 57.7098 284 56.6798 307C55.6498 330 54.2598 353.14 52.3298 376.15C51.2498 389.01 50.2298 407.1 48.8398 419.92C48.8398 419.939 48.8472 419.956 48.8603 419.969C48.8735 419.983 48.8913 419.99 48.9098 419.99C48.9284 419.99 48.9462 419.983 48.9593 419.969C48.9725 419.956 48.9798 419.939 48.9798 419.92C51.9798 397.11 53.6498 368.92 55.1298 345.92C56.6098 322.92 57.5998 299.92 58.3898 276.97C58.8298 263.97 59.1698 250.97 59.5598 237.97C59.5598 237.84 59.2798 237.86 59.2698 238Z" fill="#263238"/>
<path d="M99.5099 264.24C95.4097 265.957 91.4651 268.025 87.7199 270.42C87.6961 270.441 87.6801 270.469 87.6745 270.501C87.669 270.532 87.6742 270.564 87.6893 270.592C87.7044 270.62 87.7285 270.642 87.7577 270.654C87.7868 270.666 87.8194 270.668 87.8499 270.66C91.8499 268.73 95.8499 266.87 99.7499 264.72C99.8056 264.684 99.8461 264.628 99.8636 264.564C99.881 264.5 99.8743 264.432 99.8446 264.373C99.8149 264.313 99.7643 264.267 99.7026 264.242C99.6408 264.218 99.5722 264.217 99.5099 264.24Z" fill="#263238"/>
<path d="M99.7398 250.06C99.4698 251.52 99.1098 252.97 98.7998 254.43C98.4898 255.89 98.2798 257.19 97.9198 258.54C97.6222 259.852 96.9561 261.053 95.9998 262C95.4598 262.5 94.8698 262.94 94.2998 263.39C93.9898 263.64 93.6598 263.88 93.2998 264.13C93.2998 263.93 93.3698 263.74 93.4098 263.54C93.4998 262.98 93.5998 262.43 93.6898 261.87C93.8998 260.63 94.0998 259.4 94.2898 258.16C94.6598 255.73 94.9998 253.27 95.5098 250.87C95.5098 250.77 95.3798 250.73 95.3598 250.87C94.7498 253.25 94.0798 255.61 93.5498 258.02C93.2898 259.2 92.3698 265.02 92.3298 265.44C92.2898 265.86 92.2498 266.29 92.2398 266.72C92.1798 267.151 92.1798 267.589 92.2398 268.02C92.2398 268.13 92.3898 268.11 92.4298 268.02C92.6073 267.614 92.7317 267.187 92.7998 266.75C92.9098 266.33 92.9998 265.91 93.0798 265.49C93.0798 265.34 93.0798 265.18 93.1498 265.02C93.7198 264.68 94.2498 264.22 94.7898 263.83C95.3298 263.44 95.9598 263 96.4998 262.54C97.515 261.688 98.2473 260.547 98.5998 259.27C98.9518 257.896 99.1793 256.494 99.2798 255.08C99.4698 253.43 99.5998 251.77 99.8298 250.08C99.9098 250 99.7598 250 99.7398 250.06Z" fill="#263238"/>
<path d="M89.7099 192.77C105.63 201.64 128.71 204.6 135.2 200.72C142.06 196.63 151.62 176.62 152.31 163.18C152.46 160.18 130.07 161.39 129.52 163.41C127.91 169.41 123.07 180.57 122.04 180.6C120.69 180.6 103.58 181.41 91.6899 179.96C76.9199 178.17 80.9999 187.89 89.7099 192.77Z" fill="#DD6A57"/>
<path d="M153.26 151.12C154.1 155.84 152.05 166.12 150.6 168.48C149.15 170.84 131.47 167.88 130.14 165.42C128.81 162.96 127.19 146.85 129.53 142.55C131.87 138.25 152.38 146.23 153.26 151.12Z" fill="#DD6A57"/>
<path d="M127.26 149.89C128.94 151.79 130.26 148.73 130.26 148.73C130.26 148.73 129.47 153.59 131.96 154.89C134.45 156.19 135.79 152.37 135.9 152.1C135.9 152.36 135.25 156.85 137.9 157.9C140.55 158.95 141.43 154.96 141.48 154.7C141.48 154.96 142.09 158.32 144.27 158.7C148.03 159.29 146.8 150.64 148.75 148.26C148.75 148.26 153.16 151.11 153.31 151.16C153.46 151.21 152.31 142.91 148.95 140.46C148.467 140.097 147.874 139.91 147.27 139.93C146.667 139.95 146.088 140.176 145.63 140.57C145.63 140.57 145.63 137.87 143.55 136.98C142.49 136.53 140.83 137.81 140.83 137.81C140.791 137.198 140.584 136.609 140.231 136.108C139.878 135.606 139.393 135.213 138.83 134.97C137.34 134.43 135.9 135.8 135.9 135.8C135.9 135.8 134.84 133.8 133.13 133.72C129.65 133.54 123.68 145.8 127.26 149.89Z" fill="#DD6A57"/>
<path d="M135.6 135.94C135.6 135.94 135.6 135.86 135.6 135.94C132.518 139.623 130.631 144.158 130.19 148.94C130.19 149.1 130.43 149.18 130.47 149.01C131.537 144.428 133.265 140.025 135.6 135.94Z" fill="#263238"/>
<path d="M140.79 137.7C140.786 137.692 140.779 137.684 140.771 137.68C140.763 137.675 140.754 137.672 140.745 137.672C140.735 137.672 140.726 137.675 140.718 137.68C140.71 137.684 140.704 137.692 140.7 137.7C137.348 141.789 135.574 146.944 135.7 152.23C135.7 152.42 135.9 152.57 135.91 152.36C136 148.72 138.52 141.48 140.79 137.7Z" fill="#263238"/>
<path d="M141.58 155.07C141.51 149.9 143.11 145.23 145.44 140.67C145.44 140.61 145.39 140.58 145.35 140.67C143.621 142.864 142.377 145.4 141.7 148.11C140.989 150.377 140.885 152.791 141.4 155.11C141.42 155.17 141.58 155.18 141.58 155.07Z" fill="#263238"/>
<path d="M130.23 148.73C130.165 149.677 130.185 150.627 130.29 151.57C130.366 152.486 130.676 153.368 131.19 154.13C131.453 154.461 131.825 154.687 132.24 154.77C132.662 154.839 133.095 154.801 133.5 154.66C133.889 154.486 134.236 154.231 134.519 153.912C134.802 153.593 135.013 153.217 135.14 152.81L135.85 150.81V152.9C135.841 153.824 135.986 154.743 136.28 155.62C136.389 156.036 136.587 156.424 136.86 156.757C137.132 157.09 137.473 157.36 137.86 157.55C138.22 157.724 138.629 157.769 139.018 157.678C139.407 157.587 139.754 157.365 140 157.05C140.537 156.336 140.881 155.496 141 154.61L141.41 152.18L141.82 154.6C141.924 155.289 142.119 155.962 142.4 156.6C142.641 157.203 143.055 157.721 143.59 158.09C143.836 158.246 144.122 158.33 144.415 158.33C144.707 158.33 144.993 158.246 145.24 158.09C145.75 157.671 146.126 157.111 146.32 156.48C146.763 155.125 147.097 153.738 147.32 152.33C147.47 151.62 147.61 150.91 147.79 150.21C147.928 149.491 148.218 148.809 148.64 148.21C148.299 148.83 148.078 149.508 147.99 150.21C147.86 150.92 147.77 151.63 147.68 152.35C147.535 153.806 147.254 155.246 146.84 156.65C146.634 157.423 146.207 158.118 145.61 158.65C145.254 158.897 144.834 159.035 144.401 159.05C143.969 159.064 143.541 158.953 143.17 158.73C142.495 158.291 141.966 157.661 141.65 156.92C141.324 156.227 141.092 155.494 140.96 154.74H141.78C141.657 155.788 141.26 156.784 140.63 157.63C140.265 158.091 139.753 158.412 139.18 158.54C138.612 158.647 138.026 158.577 137.5 158.34C137.011 158.1 136.58 157.758 136.235 157.337C135.89 156.916 135.639 156.426 135.5 155.9C135.184 154.932 135.036 153.918 135.06 152.9L135.79 153.03C135.61 153.529 135.324 153.982 134.951 154.359C134.577 154.735 134.127 155.026 133.63 155.21C133.124 155.365 132.586 155.385 132.07 155.27C131.544 155.15 131.081 154.84 130.77 154.4C130.254 153.55 129.981 152.574 129.98 151.58C129.952 150.623 130.036 149.667 130.23 148.73Z" fill="#263238"/>
<path d="M129.38 162.73C129.38 162.73 118.2 145.73 126.99 144.61C129.6 144.28 140.71 146.04 140.4 148.28C140 151.17 135.23 151.28 132.21 150.91C132.21 150.91 136.83 156.16 134.14 160.46C133.633 161.24 132.92 161.865 132.08 162.266C131.24 162.666 130.305 162.827 129.38 162.73Z" fill="#DD6A57"/>
<path d="M126.26 144.75C127.27 144.5 128.311 144.399 129.35 144.45C130.388 144.47 131.424 144.56 132.45 144.72C134.514 145.012 136.549 145.488 138.53 146.14C139.056 146.309 139.555 146.555 140.01 146.87C140.274 147.051 140.493 147.29 140.65 147.57C140.736 147.72 140.8 147.881 140.84 148.05C140.865 148.222 140.865 148.397 140.84 148.57C140.745 149.188 140.433 149.751 139.96 150.16C139.519 150.522 139.018 150.803 138.48 150.99C137.459 151.337 136.387 151.506 135.31 151.49C134.259 151.492 133.21 151.419 132.17 151.27L132.48 150.67C132.988 151.291 133.433 151.961 133.81 152.67C134.191 153.364 134.502 154.094 134.74 154.85C134.964 155.609 135.075 156.398 135.07 157.19C135.074 157.975 134.925 158.753 134.63 159.48C134.822 158.736 134.886 157.965 134.82 157.2C134.748 156.443 134.573 155.7 134.3 154.99C134.034 154.292 133.699 153.622 133.3 152.99C132.903 152.355 132.452 151.756 131.95 151.2L131.32 150.52L132.26 150.6C133.256 150.703 134.258 150.744 135.26 150.72C136.243 150.715 137.218 150.553 138.15 150.24C139.02 149.91 139.86 149.3 139.96 148.51C140.06 147.72 139.11 147.3 138.21 146.95C137.31 146.6 136.29 146.31 135.31 146.04C134.33 145.77 133.31 145.51 132.31 145.31C130.335 144.808 128.293 144.619 126.26 144.75Z" fill="#263238"/>
<path d="M125.87 168.52L153.26 170.33C153.26 170.33 145.26 199.21 133.26 202.39C121.26 205.57 99.0599 200.26 88.5799 193C78.0999 185.74 78.5099 178.83 90.4799 179.47C102.45 180.11 120.48 180.47 121.74 179.47C123 178.47 125.87 168.52 125.87 168.52Z" fill="#3052C5"/>
<path d="M153.26 170.33C153.26 170.33 153.13 170.81 152.86 171.67L152.73 172.11C152.53 172.74 152.28 173.53 151.97 174.44C151.973 174.483 151.973 174.527 151.97 174.57C151.84 174.95 151.71 175.35 151.56 175.77L151.44 176.11L151.17 176.89L151 177.34C150.73 178.08 150.44 178.86 150.13 179.67C150.109 179.708 150.092 179.748 150.08 179.79C149.78 180.54 149.47 181.33 149.13 182.12L148.97 182.51C148.88 182.73 148.79 182.94 148.69 183.16C148.45 183.72 148.2 184.28 147.95 184.84L147.89 184.96C147.54 185.73 147.17 186.51 146.78 187.29C146.71 187.44 146.63 187.59 146.55 187.74L146.36 188.12C146.36 188.2 146.28 188.29 146.23 188.37C145.94 188.94 145.64 189.5 145.33 190.06C145.303 190.101 145.279 190.145 145.26 190.19C144.82 190.97 144.38 191.73 143.91 192.48L143.63 192.92L143.48 193.15C143.01 193.87 142.48 194.58 142.03 195.25C142.007 195.292 141.98 195.332 141.95 195.37C141.69 195.72 141.43 196.06 141.16 196.37L141.03 196.53C140.71 196.93 140.38 197.31 140.03 197.68L139.63 198.12C139.32 198.44 139.01 198.75 138.69 199.04C138.551 199.181 138.404 199.315 138.25 199.44C137.84 199.81 137.42 200.14 137 200.44L136.81 200.57C136.524 200.776 136.227 200.967 135.92 201.14L135.8 201.21C135.069 201.642 134.286 201.978 133.47 202.21C133.408 202.234 133.345 202.255 133.28 202.27L133.03 202.33C132.262 202.527 131.484 202.684 130.7 202.8H130.57L130.12 202.87C129.51 202.95 128.89 203.02 128.25 203.07H127.8C127.05 203.07 126.27 203.16 125.48 203.16H125.35H123.02H122.58C121.82 203.16 121.04 203.08 120.25 203.01H120.13L118.86 202.89L117.8 202.77C117.65 202.77 117.5 202.77 117.36 202.71C116.59 202.62 115.81 202.51 115.03 202.38H114.9C114.13 202.26 113.36 202.12 112.58 201.97C112.428 201.95 112.278 201.92 112.13 201.88C111.35 201.73 110.57 201.57 109.8 201.39H109.68C108.9 201.21 108.12 201.02 107.35 200.82C107.201 200.791 107.053 200.75 106.91 200.7L106.6 200.62L106.13 200.49C105.61 200.36 105.13 200.21 104.58 200.05H104.46C103.68 199.82 102.9 199.57 102.13 199.32L101.68 199.17C100.89 198.9 100.12 198.62 99.3599 198.34H99.2299L98.9699 198.24L97.8499 197.8L96.8499 197.41L96.4099 197.22C95.6099 196.88 94.8299 196.53 94.0799 196.17L93.9599 196.11C93.5299 195.9 93.0999 195.69 92.6899 195.47L92.4599 195.35L91.6299 194.9L91.1899 194.66C90.3699 194.19 89.5799 193.66 88.8599 193.22L88.7299 193.13L88.5999 193.04L87.9799 192.6C87.4299 192.21 86.9199 191.81 86.4399 191.42C86.2799 191.3 86.1399 191.18 85.9899 191.05C85.6799 190.79 85.3799 190.53 85.0999 190.27L84.9599 190.14C84.4799 189.687 84.0499 189.247 83.6699 188.82L83.5399 188.68C83.2799 188.39 83.0499 188.1 82.8399 187.82C82.6299 187.54 82.6099 187.52 82.5099 187.37C81.9814 186.65 81.5728 185.85 81.2999 185C81.2909 184.96 81.2909 184.919 81.2999 184.88C81.2443 184.725 81.2074 184.564 81.1899 184.4C81.0897 183.949 81.0897 183.481 81.1899 183.03C81.2166 182.866 81.2602 182.705 81.3199 182.55C81.3717 182.395 81.4422 182.248 81.5299 182.11C81.9883 181.331 82.6915 180.727 83.5299 180.39L83.6599 180.33C84.23 180.088 84.8229 179.903 85.4299 179.78L85.9799 179.68H86.0899H86.4299C87.1987 179.576 87.974 179.526 88.7499 179.53H88.8799C89.3899 179.53 89.9399 179.53 90.5199 179.53H91.2099H91.6499C92.4099 179.53 93.1799 179.61 93.9799 179.65H94.0999L96.4299 179.74H96.8699L99.1899 179.82H99.3199L101.64 179.9H102.09L104.42 179.96H104.54L106.87 180.01H107.31H109.64H112.54H114.86H115C115.84 180.01 116.62 180.01 117.33 179.95H117.77C118.68 179.95 119.47 179.86 120.1 179.79H120.22L120.77 179.72L121.38 179.6C121.523 179.571 121.659 179.513 121.78 179.43C122.108 179.065 122.368 178.645 122.55 178.19C122.68 177.92 122.82 177.61 122.95 177.27C122.954 177.24 122.954 177.21 122.95 177.18L123.1 176.82C123.38 176.11 123.67 175.31 123.95 174.5C123.95 174.5 123.95 174.41 123.95 174.37C124.22 173.58 124.48 172.78 124.72 172.04C124.72 171.89 124.81 171.74 124.86 171.6L125.23 170.42C125.23 170.27 125.32 170.13 125.36 169.99C125.4 169.85 125.52 169.48 125.58 169.27C125.576 169.23 125.576 169.19 125.58 169.15C125.7 168.71 125.78 168.45 125.78 168.45L127.64 168.57H128.09L130.41 168.73H130.54L133 169H133.44L135.77 169.15H135.89H136.5L138.22 169.26H138.32H138.66L140.99 169.42H141.12L143.44 169.57H143.89L146.21 169.72H146.34L148.67 169.87H149.11L151.44 170.03H151.56L153.26 170.33Z" fill="#3052C5"/>
<path opacity="0.3" d="M81.1596 183V184.37C81.0594 183.919 81.0594 183.451 81.1596 183ZM83.4896 180.36V188.61L83.6196 188.75V180.3L83.4896 180.36ZM86.0496 179.63H85.9396V191C86.0896 191.13 86.2296 191.25 86.3896 191.37V179.62L86.0496 179.63ZM88.7096 179.43V193.08L88.8396 193.17V179.46L88.7096 179.43ZM91.1696 179.49V194.61L91.6096 194.85V179.55L91.1696 179.49ZM93.9396 179.63V196.1L94.0596 196.16V179.67L93.9396 179.63ZM96.3896 179.73V197.17L96.8296 197.36V179.79L96.3896 179.73ZM99.1596 179.83V198.29H99.2896V179.79L99.1596 179.83ZM101.61 179.92V199.17L102.06 199.32V180L101.61 179.92ZM104.39 179.99V200.05H104.51V180L104.39 179.99ZM106.84 180.04V200.73C106.983 200.781 107.13 200.821 107.28 200.85V180.05L106.84 180.04ZM109.61 180.04V201.38H109.73V180.12L109.61 180.04ZM112.06 180.04V202C112.208 202.04 112.358 202.07 112.51 202.09V180.13L112.06 180.04ZM114.83 180.04V202.41H114.96V180.11L114.83 180.04ZM117.29 179.98V202.76C117.43 202.76 117.58 202.76 117.73 202.82V180L117.29 179.98ZM120.06 179.8V203.06H120.18V179.86L120.06 179.8ZM122.91 177.27C122.78 177.61 122.64 177.92 122.51 178.19V203.19H122.95V177.25C122.94 177.282 122.927 177.312 122.91 177.34V177.27ZM125.28 170.42V203.27H125.41V170.06C125.37 170.2 125.32 170.34 125.28 170.49V170.42ZM127.73 168.57V203.17H128.18V168.67L127.73 168.57ZM130.5 168.76V202.87H130.63V168.83L130.5 168.76ZM133 169V202.46L133.25 202.4C133.314 202.385 133.378 202.365 133.44 202.34V169H133ZM135.77 169.18V201.34L135.89 201.27V169.18H135.77ZM138.32 169.35H138.22V199.57C138.374 199.445 138.521 199.312 138.66 199.17V169.34L138.32 169.35ZM140.99 169.53V196.65L141.12 196.49V169.53H140.99ZM143.44 169.69V193.25L143.59 193.02L143.87 192.58V169.71L143.44 169.69ZM146.21 169.87V188.43C146.26 188.35 146.3 188.26 146.34 188.18V169.88L146.21 169.87ZM148.67 170.03V183.22C148.77 183 148.86 182.79 148.95 182.57L149.11 182.18V170.05L148.67 170.03ZM151.44 170.22V176.12L151.56 175.78V170.23L151.44 170.22ZM138.22 169.34L136.5 169.23H125.67C125.665 169.27 125.665 169.31 125.67 169.35H138.22V169.34ZM124.95 171.68C124.95 171.82 124.86 171.97 124.81 172.12H152.81L152.94 171.68H124.95ZM124.04 174.45C124.04 174.45 124.04 174.54 124.04 174.58H152.04C152.043 174.537 152.043 174.493 152.04 174.45H124.04ZM123.14 176.9L122.99 177.26C122.993 177.29 122.993 177.32 122.99 177.35H151L151.17 176.9H123.14ZM96.4296 179.78L94.0996 179.69H85.9396L85.3896 179.79H96.8296L96.4296 179.78ZM121.43 179.68L120.82 179.8H150C150.012 179.758 150.029 179.718 150.05 179.68H121.43ZM81.4996 182.12C81.4119 182.258 81.3414 182.405 81.2896 182.56H148.91L149.07 182.17L81.4996 182.12ZM81.2696 184.89C81.2606 184.93 81.2606 184.971 81.2696 185.01H147.8L147.86 184.89H81.2696ZM82.4596 187.34C82.5596 187.487 82.6696 187.637 82.7896 187.79H146.49C146.57 187.64 146.65 187.49 146.72 187.34H82.4596ZM84.9096 190.11L85.0496 190.24H145.2C145.219 190.195 145.242 190.151 145.27 190.11H84.9096ZM87.9096 192.57L88.5296 193.01H143.53L143.81 192.57H87.9096ZM92.4196 195.34L92.6496 195.46H141.85C141.88 195.422 141.906 195.382 141.93 195.34H92.4196ZM97.7596 197.79L98.8796 198.23H139.54L139.94 197.79H97.7596ZM106.04 200.56L106.51 200.69H136.72L136.91 200.56H106.04ZM118.79 203L120.06 203.12H120.18C120.97 203.19 121.75 203.24 122.51 203.27H122.95H125.28H125.41C126.2 203.27 126.98 203.27 127.73 203.18H128.18C128.82 203.13 129.44 203.06 130.05 202.98L118.79 203Z" fill="white"/>
<path d="M102.59 199.53C97.6435 198.025 92.9314 195.838 88.5899 193.03C79.3899 186.68 78.5899 180.57 86.5899 179.6L102.59 199.53Z" fill="#263238"/>
<path d="M125.47 173.35C126.53 173.59 127.64 173.63 128.72 173.77C129.8 173.91 130.88 174 131.97 174.09C134.06 174.26 136.16 174.4 138.25 174.53L144.54 174.92C146.71 175.05 148.91 175.29 151.08 175.24C151.095 175.234 151.109 175.224 151.118 175.211C151.127 175.197 151.132 175.181 151.132 175.165C151.132 175.149 151.127 175.133 151.118 175.119C151.109 175.106 151.095 175.096 151.08 175.09C148.94 174.73 146.73 174.64 144.57 174.45L138.18 173.9C136.05 173.73 133.91 173.56 131.78 173.42C130.78 173.36 129.68 173.3 128.63 173.28C127.575 173.202 126.517 173.178 125.46 173.21C125.38 173.22 125.4 173.34 125.47 173.35Z" fill="#263238"/>
<path d="M51.5098 256.91C51.6598 257.06 112.07 252.91 112.58 252.27C113.28 251.34 94.9698 186.88 88.1898 179.27C86.7398 177.63 82.3298 177.46 78.6498 178.19C77.6861 178.374 76.7394 178.638 75.8198 178.98H75.7298C75.0011 179.257 74.3248 179.656 73.7298 180.16C63.9698 189.16 57.3298 218.65 55.9198 227.46C53.5398 242 50.9998 256.38 51.5098 256.91Z" fill="#3052C5"/>
<path opacity="0.3" d="M52.27 249.64V256.88H52.15V250H52.21L52.27 249.64ZM54.76 234.36C54.76 234.51 54.76 234.66 54.68 234.8C54.6 234.94 54.68 235.15 54.6 235.32V256.75H55.04V232.65C55 233.21 54.85 233.79 54.76 234.36ZM57.37 219.93V256.58H57.5V219.36C57.45 219.55 57.41 219.75 57.37 219.93ZM60.22 208.68L59.83 210.06V256.41H60.27V208.51C60.2487 208.565 60.232 208.622 60.22 208.68ZM62.6 201.05V256.23H62.72V200.7L62.6 201.05ZM65.05 194.49V256.07H65.49V193.44L65.05 194.49ZM67.82 188.49V255.9H67.94V188.25L67.82 188.49ZM70.27 184.32V255.73H70.57H70.72V183.73L70.27 184.32ZM73 180.81V255.52H73.13V180.68C73.0892 180.726 73.0458 180.769 73 180.81ZM75.82 179H75.73L75.5 179.1V255.36H75.94V178.91L75.82 179ZM78.27 178.29V255.2H78.39V178.21L78.27 178.29ZM80.72 177.9V255H81.16V177.82L80.72 177.9ZM83.49 177.82V254.82H83.62V177.82H83.49ZM85.94 178.13V254.6H86.39V178.21L85.94 178.13ZM88.71 179.95V254.45H88.84V180.15L88.71 179.95ZM91.43 185L91.37 184.88C91.31 184.73 91.24 184.58 91.17 184.43V254.2H91.61V185.4L91.43 185ZM93.94 254H94.06V191.36L93.94 191.06V254ZM96.59 198.23C96.59 198.08 96.48 197.93 96.43 197.79C96.38 197.65 96.43 197.71 96.43 197.67V253.81H96.87V198.92L96.59 198.23ZM99.22 205.91C99.2256 205.867 99.2256 205.823 99.22 205.78V253.6H99.35V206.12C99.27 206.05 99.24 206 99.22 205.91ZM101.81 213.91C101.81 213.76 101.72 213.62 101.67 213.47C101.656 213.402 101.636 213.335 101.61 213.27V253.4H102.06V214.68C102 214.42 101.9 214.16 101.81 213.9V213.91ZM104.39 222.18V253.18H104.51V222.57L104.39 222.18ZM106.84 230.37V253H107.16H107.28V232C107.13 231.37 107 230.87 106.84 230.36V230.37ZM109.61 240.08V252.7H109.73V240.5L109.61 240.08ZM112.31 250.48C112.31 250.34 112.25 250.2 112.21 250.04C112.17 249.88 112.12 249.63 112.06 249.4V252.4C112.212 252.377 112.363 252.344 112.51 252.3V251.45C112.46 251.19 112.4 250.86 112.31 250.47V250.48ZM88.54 179.68H74.36L74.19 179.8H88.63L88.54 179.68ZM90.26 182.57H71.53C71.64 182.42 71.76 182.28 71.88 182.13H90C90.11 182.26 90.18 182.41 90.26 182.56V182.57ZM91.43 185H69.8C69.8301 184.962 69.8568 184.922 69.88 184.88H91.37L91.43 185ZM92.63 187.78H68.19L68.43 187.33H92.43C92.51 187.49 92.57 187.64 92.63 187.79V187.78ZM93.63 190.23H66.94L67 190.1H93.57C93.57 190.1 93.6 190.2 93.62 190.24L93.63 190.23ZM94.68 193H65.68C65.74 192.85 65.8 192.71 65.87 192.56H94.52C94.57 192.72 94.63 192.86 94.68 193ZM95.59 195.45H64.66C64.656 195.41 64.656 195.37 64.66 195.33H95.55C95.55 195.33 95.58 195.42 95.59 195.46V195.45ZM96.59 198.22H63.59C63.59 198.07 63.69 197.93 63.75 197.78H96.43C96.48 197.93 96.54 198.08 96.59 198.23V198.22ZM97.45 200.68H62.72C62.72 200.68 62.72 200.59 62.77 200.55H97.41C97.418 200.598 97.4314 200.645 97.45 200.69V200.68ZM98.45 203.45H61.8C61.85 203.3 61.89 203.15 61.94 203H98.25L98.45 203.45ZM99.27 205.9H61C61.0043 205.857 61.0043 205.813 61 205.77H99.1C99.1483 205.809 99.189 205.856 99.22 205.91L99.27 205.9ZM100.19 208.67H60.22C60.232 208.612 60.2487 208.555 60.27 208.5C60.292 208.409 60.3187 208.319 60.35 208.23H100L100.19 208.67ZM100.98 211.12H59.54V211H100.86C100.86 211 100.92 211.09 100.93 211.13L100.98 211.12ZM101.86 213.89H58.86L58.97 213.45H101.72C101.72 213.61 101.77 213.75 101.81 213.9L101.86 213.89ZM102.64 216.35H58.2V216.22H102.52C102.52 216.22 102.58 216.31 102.59 216.36L102.64 216.35ZM103.51 219.12H57.55C57.55 218.97 57.62 218.82 57.66 218.67H103.32C103.36 218.83 103.41 219 103.46 219.13L103.51 219.12ZM104.26 221.57H57V221.45H104.13C104.162 221.49 104.189 221.533 104.21 221.58L104.26 221.57ZM105.1 224.34H56.45L56.54 223.9H104.92C105 224.06 105 224.21 105.05 224.35L105.1 224.34ZM105.83 226.79H56C56 226.79 56 226.71 56 226.67H105.73L105.83 226.79ZM106.66 229.56H55.55C55.55 229.41 55.6 229.27 55.62 229.12H106.48C106.52 229.28 106.56 229.43 106.61 229.57L106.66 229.56ZM107.38 232.02H55.14C55.1455 231.977 55.1455 231.933 55.14 231.89H107.27C107.286 231.929 107.306 231.965 107.33 232L107.38 232.02ZM108.17 234.79H54.68C54.68 234.65 54.68 234.5 54.76 234.35H108L108.17 234.79ZM108.88 237.24H54.28C54.2848 237.2 54.2848 237.16 54.28 237.12H108.77C108.784 237.166 108.805 237.209 108.83 237.25L108.88 237.24ZM109.65 240.01H53.82C53.82 239.86 53.82 239.72 53.9 239.57H109.47C109.52 239.73 109.56 239.88 109.6 240L109.65 240.01ZM110.32 242.46H53.42C53.42 242.46 53.42 242.38 53.42 242.34H110.22L110.32 242.46ZM111.07 245.24H53C53 245.1 53 244.95 53.08 244.79H110.9L111.07 245.24ZM111.7 247.69H52.58C52.5752 247.647 52.5752 247.603 52.58 247.56H111.58L111.7 247.69ZM112.36 250.46H52.15V250H112.21C112.25 250.19 112.28 250.33 112.31 250.47L112.36 250.46ZM108.51 252.79L107.33 252.9H51.79C51.7948 252.86 51.7948 252.82 51.79 252.78L108.51 252.79ZM76.92 255.24L75.99 255.31H75.55L73.22 255.47H73L70.68 255.63H51.48C51.48 255.5 51.48 255.35 51.48 255.19L76.92 255.24Z" fill="white"/>
<path d="M73.1799 255.51C61.4099 256.34 51.5699 256.97 51.5099 256.91C50.9699 256.38 53.5099 242 55.8899 227.47C57.2599 218.9 63.5899 190.73 72.8899 180.94L73.1799 255.51Z" fill="#263238"/>
<path d="M89.7398 181.91C90.0898 184.64 90.7398 190.98 86.4198 190.91C84.6643 190.717 83.0014 190.023 81.6298 188.91C80.209 187.904 78.9014 186.747 77.7299 185.46C76.3672 184.077 75.1197 182.586 73.9999 181C73.9999 180.93 73.8499 181 73.8999 181.08C75.0299 182.68 75.9999 184.37 77.2899 185.86C78.5164 187.322 79.9361 188.61 81.5099 189.69C82.9713 190.824 84.743 191.486 86.5898 191.59C87.391 191.573 88.1618 191.281 88.7722 190.761C89.3825 190.242 89.795 189.528 89.9399 188.74C90.3848 186.477 90.3164 184.143 89.7398 181.91Z" fill="#263238"/>
<path d="M100.35 262.73L134.41 268.55L149.07 221.46L115.02 215.64L100.35 262.73Z" fill="#A6A6A6"/>
<path d="M102.03 263.02L136.08 268.83L150.74 221.74L116.69 215.93L102.03 263.02Z" fill="#DBDBDB"/>
<path d="M131.22 241C130.976 241.882 130.416 242.645 129.648 243.142C128.879 243.64 127.955 243.838 127.05 243.7C126.622 243.64 126.212 243.489 125.847 243.256C125.483 243.023 125.174 242.714 124.94 242.35C124.707 241.986 124.554 241.576 124.494 241.148C124.433 240.72 124.466 240.284 124.59 239.87C124.836 238.989 125.396 238.229 126.165 237.734C126.933 237.238 127.856 237.041 128.76 237.18C129.187 237.24 129.596 237.391 129.959 237.624C130.322 237.856 130.631 238.164 130.865 238.526C131.098 238.889 131.251 239.298 131.312 239.724C131.373 240.151 131.342 240.586 131.22 241Z" fill="white"/>
<path d="M69.2099 184.31C58.8899 197.7 35.3999 233.09 41.6599 240.31C51.9999 252.25 77.1599 262.73 84.9999 265.09C88.3999 266.09 100.48 241.37 97.2699 239.34C93.4299 236.9 68.0699 228.66 68.1999 226.34C68.2799 225.02 71.6099 210.87 74.2999 196.77C77.4499 180.42 72.7399 179.72 69.2099 184.31Z" fill="#DD6A57"/>
<path d="M84.9299 237.61C84.9299 237.61 95.2799 234.61 102.14 232.91C105.97 231.98 112.68 230.97 115.8 231.57C120.48 232.47 139.45 239.23 137.91 243.87C136.52 248.07 120.91 240.19 120.91 240.19C120.91 240.19 137.31 246.75 134.71 251.49C132.11 256.23 115.71 245 115.71 245C115.71 245 132.41 252.12 128.95 256.59C126.33 259.96 110.95 250.59 110.95 250.59C110.95 250.59 125.26 256.81 122.72 260.39C119.91 264.39 105.13 256.63 105.13 256.63C97.1298 264.63 90.0398 265.21 84.9498 265.01C83.7198 265 84.9299 237.61 84.9299 237.61Z" fill="#DD6A57"/>
<path d="M116.19 237.89C128.65 241.8 133.56 247.53 133.4 247.41C129.59 244.41 122.88 241.21 120.99 240.33C119.1 239.45 118.04 238.83 116.16 237.96C116.11 237.94 116.15 237.88 116.19 237.89Z" fill="#263238"/>
<path d="M112.15 244.31C117.264 245.671 122.094 247.937 126.41 251C126.57 251.12 126.47 251.16 126.29 251.07C123.92 249.89 114.54 245.45 112.12 244.4L112.15 244.31Z" fill="#263238"/>
<path d="M108.3 249.6C112.235 250.736 115.925 252.594 119.18 255.08C119.35 255.2 119.18 255.25 119.02 255.15C115.44 253.26 112.64 251.76 108.25 249.73C108.18 249.7 108.22 249.57 108.3 249.6Z" fill="#263238"/>
<path d="M82.2098 232.44L69.2098 260.76C69.2098 260.76 41.6298 247.56 39.7098 237.42C37.7898 227.28 62.7098 191.49 67.4598 185.65C68.7998 184 72.4598 180.25 74.2498 180.65C76.2498 181.14 76.0698 184.09 75.9698 190.94C75.8298 200.06 68.7198 225.15 69.2698 226.17C69.8198 227.19 82.2098 232.44 82.2098 232.44Z" fill="#3052C5"/>
<path opacity="0.3" d="M41.8299 227.51V241.8L41.6999 241.62V227.83C41.7399 227.72 41.7799 227.62 41.8299 227.51ZM44.5499 221.58C44.4099 221.85 44.2799 222.12 44.1499 222.38V244.44L44.5199 244.8L44.5999 244.88V221.48L44.5499 221.58ZM46.9299 217.06V247L47.0499 247.1V216.84L46.9299 217.06ZM49.3799 212.71V248.91L49.8199 249.24V212C49.6799 212.21 49.5299 212.46 49.3799 212.71ZM52.1499 208.09V250.9L52.2699 250.99V207.89L52.1499 208.09ZM54.5999 204.17V252.54L54.9999 252.8V203.47L54.5999 204.17ZM57.3699 199.89V254.28L57.4999 254.36V199.69L57.3699 199.89ZM59.8299 196.2V255.75L60.2699 256.01V195.56L59.8299 196.2ZM62.5999 257.32L62.7199 257.39V192L62.5999 192.17V257.32ZM65.0499 188.77V258.65L65.4899 258.89V188.17L65.0499 188.77ZM67.8199 185.18V260.09L67.9399 260.15V185.05C67.8948 185.088 67.8545 185.132 67.8199 185.18ZM70.4399 182.56L70.2699 182.71V220.46C70.3699 220.04 70.4699 219.59 70.5799 219.13C70.5799 218.98 70.6499 218.83 70.6799 218.68C70.6845 218.62 70.6845 218.56 70.6799 218.5V182.33L70.4399 182.56ZM70.2699 258.37L70.3699 258.15L70.4299 258.02L70.7199 257.39V227.21L70.2699 226.97V258.37ZM72.9999 180.84V208.44C72.9999 208.37 72.9999 208.31 72.9999 208.24C72.9999 208.17 72.9999 207.99 73.0799 207.86V180.79L72.9999 180.84ZM72.9999 252.36L73.1299 252.07V228.44L72.9999 228.38V252.36ZM75.5799 229.57H75.4599V247L75.8999 246.05V229.71L75.5799 229.57ZM75.6799 182.57C75.6531 182.42 75.6129 182.273 75.5599 182.13C75.5343 182.037 75.5008 181.947 75.4599 181.86V195.68V195.47C75.4599 195.47 75.4599 195.39 75.4599 195.35C75.5799 194.52 75.6699 193.74 75.7299 193.02C75.7299 192.87 75.7299 192.72 75.7299 192.58C75.7799 192 75.7999 191.47 75.8099 190.98C75.8099 190.76 75.8099 190.55 75.8099 190.34V184.42C75.8385 183.799 75.8084 183.176 75.7199 182.56L75.6799 182.57ZM78.2299 230.76V241L78.3499 240.74V230.8L78.2299 230.76ZM80.6799 231.82V235.69L81.0799 234.81V234.73V232L80.8599 231.91L80.6799 231.82ZM75.5999 182.12H70.9999L70.7399 182.33L70.4599 182.56H75.7399C75.7066 182.409 75.6597 182.262 75.5999 182.12ZM68.0699 184.89L67.9999 185H75.9999V184.88L68.0699 184.89ZM66.0699 187.34L65.7399 187.79H75.9999V187.34H66.0699ZM64.0699 190.11C64.0444 190.156 64.0142 190.2 63.9799 190.24H75.9799V190.11H64.0699ZM62.3399 192.57L61.9999 193H75.8099C75.8099 192.85 75.8099 192.7 75.8099 192.56L62.3399 192.57ZM60.4199 195.34L60.3399 195.46H75.5299C75.5299 195.46 75.5299 195.38 75.5299 195.34H60.4199ZM58.7599 197.79C58.6699 197.94 58.5699 198.08 58.4599 198.23H75.0899C75.0899 198.08 75.1499 197.94 75.1699 197.79H58.7599ZM56.9299 200.56L56.8399 200.69H74.6499V200.56H56.9299ZM55.3299 203C55.2399 203.15 55.1499 203.3 55.0499 203.45H74.0499C74.0895 203.302 74.1195 203.152 74.1399 203H55.3299ZM53.5799 205.77L53.4999 205.9H73.5899V205.77H53.5799ZM52.0599 208.23L51.7899 208.67H72.9999C73.0246 208.591 73.0446 208.511 73.0599 208.43C73.0599 208.36 73.0599 208.3 73.0599 208.23H52.0599ZM50.3799 211C50.3603 211.042 50.3369 211.082 50.3099 211.12H72.4399C72.4353 211.08 72.4353 211.04 72.4399 211H50.3799ZM48.9999 213.46L48.7499 213.9H71.7999C71.7999 213.75 71.8699 213.6 71.8999 213.46H48.9999ZM47.4299 216.23L47.3599 216.36H71.2299C71.2207 216.317 71.2207 216.273 71.2299 216.23H47.4299ZM46.0999 218.68C46.0199 218.83 45.9399 218.98 45.8699 219.13H70.5799C70.5799 218.98 70.6499 218.83 70.6799 218.68H46.0999ZM44.6499 221.46L44.5999 221.56H69.9999V221.44L44.6499 221.46ZM43.4699 223.91C43.3899 224.06 43.3299 224.21 43.2599 224.35H69.4299C69.4299 224.21 69.4899 224.07 69.5199 223.91H43.4699ZM69.8599 226.68H42.1799L42.1199 226.8H69.9999L69.8599 226.68ZM75.5499 229.52L74.6999 229.13H41.1899C41.1899 229.28 41.0899 229.42 41.0299 229.57H75.6199L75.5499 229.52ZM81.1599 232L80.9399 231.91H40.2799C40.2763 231.953 40.2763 231.997 40.2799 232.04H81.2799L81.1599 232ZM39.7199 234.37C39.7199 234.52 39.7199 234.67 39.6599 234.81H81.1199V234.73L81.2899 234.37H39.7199ZM39.6299 237.14C39.6201 237.179 39.6201 237.221 39.6299 237.26H79.9999V237.14H39.6299ZM40.4299 239.59C40.4999 239.74 40.5799 239.89 40.6599 240.03H78.7199L78.9199 239.59H40.4299ZM42.2699 242.36C42.2966 242.402 42.3267 242.443 42.3599 242.48H77.5899L77.6499 242.36H42.2699ZM44.5199 244.81L44.5999 244.89L44.9899 245.26H76.3099L76.5199 244.81H44.5199ZM47.6699 247.58L47.8299 247.71H75.1799L75.2399 247.58H47.6699ZM50.8999 250L51.5299 250.44H73.9099L74.1099 250H50.8999ZM54.9999 252.8L55.1499 252.89H72.7799L72.8399 252.77L54.9999 252.8ZM58.9999 255.25L59.7299 255.69H71.4999L71.7099 255.25H58.9999ZM63.8699 258L64.1099 258.13H70.3699L70.4299 258H63.8699ZM68.5699 260.45L69.1699 260.74L69.2999 260.45H68.5699Z" fill="white"/>
<path d="M66.2197 255.15C66.8297 254.24 67.2197 253.22 67.7697 252.26C68.3197 251.3 68.7697 250.32 69.2397 249.34C70.1531 247.447 71.0431 245.547 71.9097 243.64C72.7797 241.73 73.6597 239.82 74.5197 237.91C75.3797 236 76.4297 233.96 77.1697 231.91C77.179 231.893 77.1811 231.873 77.1754 231.854C77.1698 231.835 77.157 231.819 77.1397 231.81C77.1225 231.801 77.1023 231.799 77.0835 231.804C77.0648 231.81 77.049 231.823 77.0397 231.84C75.9297 233.71 75.0397 235.74 74.1097 237.69C73.1797 239.64 72.2297 241.54 71.2997 243.46C70.3697 245.38 69.4497 247.32 68.5497 249.26C68.1097 250.26 67.6897 251.18 67.2897 252.15C66.8897 253.12 66.3897 254.08 66.0897 255.09C66.0597 255.18 66.1797 255.21 66.2197 255.15Z" fill="#263238"/>
<path d="M82.09 232.43C81.17 231.85 72.7 227.17 69.42 226.29C69.4022 226.285 69.3834 226.287 69.3668 226.295C69.3501 226.302 69.3365 226.315 69.3283 226.332C69.3201 226.348 69.3178 226.367 69.3217 226.385C69.3257 226.403 69.3356 226.419 69.35 226.43C72.42 228.7 81.03 232.28 82.05 232.57C82.14 232.59 82.16 232.47 82.09 232.43Z" fill="#263238"/>
<path d="M86.4096 188C83.3396 188.51 77.8096 183.12 75.9996 179.24C75.8796 178.97 76.4496 176.24 76.9996 173C77.3196 171 77.6295 168.77 77.7695 166.71C77.7695 166.29 79.1796 167.16 79.1796 167.16L81.7996 167.98L90.4696 170.69C89.5651 173.215 88.9707 175.841 88.6995 178.51C88.6739 178.793 88.6739 179.077 88.6995 179.36C88.6995 179.36 88.6995 179.45 88.6995 179.51C88.8895 181.1 89.3796 187.46 86.4096 188Z" fill="#DD6A57"/>
<path d="M88.7299 179.33C88.7299 179.33 88.7299 179.42 88.7299 179.48C88.2872 179.515 87.8426 179.515 87.3999 179.48C78.7199 178.71 78.3999 167.59 78.3999 167.59L81.8199 167.97L90.4899 170.68C89.5854 173.205 88.991 175.831 88.7199 178.5C88.6988 178.777 88.7022 179.054 88.7299 179.33Z" fill="#263238"/>
<path d="M91.4097 147.34C91.4097 147.34 95.4797 148.55 96.5997 152.44C97.7197 156.33 97.2597 160.58 96.9297 160.81C96.5997 161.04 91.4097 147.34 91.4097 147.34Z" fill="#263238"/>
<path d="M74.6797 154.15C73.8297 158.87 77.7997 171.74 81.3897 174.29C86.5897 177.98 94.3297 177.47 97.2697 171.4C100.12 165.51 94.6497 148.83 90.7197 146.59C84.9197 143.3 75.9297 147.17 74.6797 154.15Z" fill="#DD6A57"/>
<path d="M88.2395 161.21C88.2395 161.21 88.1795 161.27 88.2395 161.3C88.5295 162.16 88.7195 163.2 88.0195 163.72C88.0195 163.72 88.0195 163.78 88.0195 163.77C88.9095 163.34 88.6495 162 88.2395 161.21Z" fill="#263238"/>
<path d="M87.1896 160.53C85.7596 160.85 86.4996 163.69 87.8196 163.39C89.1396 163.09 88.3796 160.27 87.1896 160.53Z" fill="#263238"/>
<path d="M93.5898 159.68C93.5898 159.68 93.6698 159.68 93.6798 159.74C93.8798 160.63 94.2598 161.61 95.1298 161.69V161.74C94.1298 161.86 93.6398 160.55 93.5898 159.68Z" fill="#263238"/>
<path d="M94.1299 158.56C95.5199 158.09 96.3699 160.89 95.1299 161.33C93.8899 161.77 92.9999 159 94.1299 158.56Z" fill="#263238"/>
<path d="M85.7299 159.53C86.0899 159.33 86.3899 159.09 86.7299 158.86C87.0699 158.63 87.4399 158.43 87.6099 157.98C87.6485 157.849 87.6418 157.709 87.591 157.582C87.5402 157.455 87.4483 157.348 87.3299 157.28C87.076 157.178 86.7994 157.146 86.5287 157.186C86.258 157.227 86.003 157.338 85.7899 157.51C85.3114 157.8 84.9557 158.256 84.7899 158.79C84.7612 158.912 84.768 159.04 84.8095 159.159C84.851 159.277 84.9255 159.382 85.0242 159.459C85.1229 159.537 85.2418 159.585 85.3668 159.598C85.4918 159.61 85.6178 159.587 85.7299 159.53Z" fill="#263238"/>
<path d="M94.8597 156.85C94.4601 156.875 94.0593 156.875 93.6597 156.85C93.2355 156.912 92.8028 156.831 92.4297 156.62C92.3264 156.531 92.255 156.41 92.2261 156.277C92.1973 156.143 92.2126 156.004 92.2697 155.88C92.4252 155.654 92.6373 155.474 92.8849 155.356C93.1324 155.238 93.4065 155.188 93.6797 155.21C94.2395 155.174 94.7926 155.348 95.2297 155.7C95.3255 155.785 95.3944 155.896 95.4282 156.02C95.4619 156.143 95.459 156.274 95.4198 156.396C95.3806 156.518 95.3067 156.626 95.2073 156.706C95.1078 156.787 94.9871 156.837 94.8597 156.85Z" fill="#263238"/>
<path d="M89.7799 166.39C90.0924 166.68 90.4618 166.902 90.8647 167.041C91.2675 167.181 91.695 167.235 92.12 167.2C92.4928 167.178 92.8602 167.101 93.2099 166.97L93.41 166.89C93.4734 166.872 93.534 166.845 93.5899 166.81C93.6344 166.789 93.671 166.755 93.6944 166.711C93.7178 166.668 93.7267 166.619 93.72 166.57C93.7284 166.544 93.7284 166.516 93.72 166.49V166.41C93.56 165.73 93.23 164.72 93.23 164.72C93.51 164.78 94.91 165.02 94.8 164.72C93.9303 161.693 92.7507 158.765 91.2799 155.98C91.2799 155.89 91.0899 155.98 91.1299 156.04C91.9199 158.84 93.1999 161.49 94.0399 164.29C93.5355 164.197 93.0202 164.176 92.51 164.23C92.43 164.28 93.1899 166.17 93.2399 166.48C92.7012 166.68 92.1276 166.769 91.5536 166.741C90.9796 166.714 90.4171 166.571 89.9 166.32C89.76 166.26 89.7099 166.34 89.7799 166.39Z" fill="#263238"/>
<path d="M92.7198 166.73C92.4759 167.309 92.0867 167.815 91.5898 168.2C91.2995 168.411 90.9488 168.524 90.5898 168.52C89.8398 168.52 89.6598 167.88 89.6398 167.29C89.6374 166.98 89.6709 166.672 89.7398 166.37C90.6677 166.81 91.7137 166.937 92.7198 166.73Z" fill="#263238"/>
<path d="M91.5896 168.2C91.2994 168.411 90.9487 168.523 90.5896 168.52C89.8396 168.52 89.6596 167.88 89.6396 167.29C90.0197 167.195 90.4208 167.234 90.7757 167.4C91.1307 167.565 91.418 167.848 91.5896 168.2Z" fill="#FF99BA"/>
<path d="M77.9999 165.3C79.5499 165.25 79.7099 160.49 79.6099 158.71C79.5199 157.15 78.4199 152.46 78.3799 152.13C78.3399 151.8 85.8699 154.03 89.0399 151.79C92.2099 149.55 93.4799 145.56 93.0399 144.07C92.5999 142.58 86.8999 140.33 83.0399 141.45C79.1799 142.57 75.7099 149.14 75.7099 149.14C76.089 148.223 76.3933 147.276 76.6199 146.31C76.0062 146.688 75.4953 147.212 75.1325 147.834C74.7696 148.457 74.5661 149.16 74.5399 149.88C74.5399 149.88 74.2699 147.53 74.0699 147.55C73.8699 147.57 72.6099 150.1 73.5299 151.38C73.5299 151.38 71.9899 154.04 72.5299 156.2C73.0699 158.36 76.1399 165.36 77.9999 165.3Z" fill="#263238"/>
<path d="M91.2396 150.19C90.3873 151.11 89.4033 151.899 88.3196 152.53C87.0629 153.085 85.69 153.325 84.3196 153.23C82.9505 153.169 81.6 152.889 80.3196 152.4C79.1896 151.98 78.0996 151.4 76.9396 151.05C76.6496 150.97 76.4896 151.4 76.7096 151.57C79.0417 153.236 81.8439 154.115 84.7096 154.08C86.045 154.06 87.3521 153.693 88.5024 153.014C89.6526 152.336 90.6063 151.369 91.2696 150.21C91.2696 150.21 91.2596 150.17 91.2396 150.19Z" fill="#263238"/>
<path d="M78.7697 164.53C78.7697 164.53 75.2097 160.7 73.4297 162.03C71.6497 163.36 74.7397 169.2 77.1197 169.72C77.4179 169.804 77.7299 169.828 78.0373 169.79C78.3448 169.752 78.6415 169.653 78.91 169.498C79.1784 169.343 79.4132 169.136 79.6003 168.889C79.7875 168.642 79.9233 168.36 79.9997 168.06L78.7697 164.53Z" fill="#DD6A57"/>
<path d="M74.3599 163.68V163.74C75.1394 164.007 75.8539 164.436 76.457 164.997C77.06 165.559 77.538 166.241 77.8599 167C77.7466 166.854 77.6027 166.734 77.4384 166.649C77.2741 166.565 77.0932 166.517 76.9085 166.509C76.7237 166.502 76.5395 166.534 76.3688 166.605C76.198 166.676 76.0448 166.784 75.9199 166.92C75.9199 166.92 75.9199 167.01 75.9199 167C76.1871 166.872 76.4875 166.83 76.7794 166.88C77.0714 166.931 77.3407 167.07 77.5499 167.28C77.8971 167.629 78.2055 168.015 78.4699 168.43C78.5599 168.56 78.8099 168.43 78.7299 168.3C78.5199 166.19 76.5599 163.58 74.3599 163.68Z" fill="#263238"/>
<path d="M88.7898 179.25L85.6398 186.84L76.2698 177.09L73.5498 180.15C73.5498 180.15 82.6398 195.59 82.7098 194.9L85.9298 188.36L90.4098 193L90.1798 181.52L88.7898 179.25Z" fill="#EBEBEB"/>
<path d="M90.6198 187.3C90.5098 185.4 90.4598 183.49 90.2698 181.61C90.2698 181.54 90.1598 181.51 90.1498 181.61C89.7398 183.43 90.1498 190.67 90.1498 192.41C89.9598 192.21 85.9898 188.34 85.9498 188.41C85.2598 189.41 82.8898 194.2 82.7298 194.64C81.2898 192.19 75.7798 183.27 74.0698 180.95C74.0595 180.939 74.0459 180.932 74.031 180.929C74.0162 180.926 74.0009 180.929 73.9874 180.935C73.9739 180.942 73.963 180.953 73.9562 180.966C73.9494 180.98 73.9472 180.995 73.9498 181.01C75.2198 183.6 82.5198 195.6 82.6298 195.57C83.8729 193.31 84.9977 190.987 85.9998 188.61C86.6698 189.45 90.6698 193.82 90.6898 193.53C90.7714 191.454 90.7481 189.374 90.6198 187.3Z" fill="#263238"/>
</svg>
